%TF.GenerationSoftware,KiCad,Pcbnew,10.0.4*%
%TF.CreationDate,2026-08-21T08:32:50-04:00*%
%TF.ProjectId,steering,73746565-7269-46e6-972e-6b696361645f,rev?*%
%TF.SameCoordinates,Original*%
%TF.FileFunction,Soldermask,Top*%
%TF.FilePolarity,Negative*%
%FSLAX46Y46*%
G04 Gerber Fmt 4.6, Leading zero omitted, Abs format (unit mm)*
G04 Created by KiCad (PCBNEW 10.0.4) date 2026-08-21 08:32:50*
%MOMM*%
%LPD*%
G01*
G04 APERTURE LIST*
G04 Aperture macros list*
%AMRoundRect*
0 Rectangle with rounded corners*
0 $1 Rounding radius*
0 $2 $3 $4 $5 $6 $7 $8 $9 X,Y pos of 4 corners*
0 Add a 4 corners polygon primitive as box body*
4,1,4,$2,$3,$4,$5,$6,$7,$8,$9,$2,$3,0*
0 Add four circle primitives for the rounded corners*
1,1,$1+$1,$2,$3*
1,1,$1+$1,$4,$5*
1,1,$1+$1,$6,$7*
1,1,$1+$1,$8,$9*
0 Add four rect primitives between the rounded corners*
20,1,$1+$1,$2,$3,$4,$5,0*
20,1,$1+$1,$4,$5,$6,$7,0*
20,1,$1+$1,$6,$7,$8,$9,0*
20,1,$1+$1,$8,$9,$2,$3,0*%
G04 Aperture macros list end*
%ADD10RoundRect,0.237500X0.237500X-0.300000X0.237500X0.300000X-0.237500X0.300000X-0.237500X-0.300000X0*%
%ADD11R,0.635000X0.584200*%
%ADD12RoundRect,0.237500X0.300000X0.237500X-0.300000X0.237500X-0.300000X-0.237500X0.300000X-0.237500X0*%
%ADD13R,1.700000X1.700000*%
%ADD14C,1.700000*%
%ADD15RoundRect,0.237500X0.250000X0.237500X-0.250000X0.237500X-0.250000X-0.237500X0.250000X-0.237500X0*%
%ADD16C,0.700000*%
%ADD17O,2.400000X0.900000*%
%ADD18O,1.700000X0.900000*%
%ADD19RoundRect,0.102000X0.600000X1.250000X-0.600000X1.250000X-0.600000X-1.250000X0.600000X-1.250000X0*%
%ADD20RoundRect,0.250000X0.337500X0.475000X-0.337500X0.475000X-0.337500X-0.475000X0.337500X-0.475000X0*%
%ADD21RoundRect,0.237500X-0.287500X-0.237500X0.287500X-0.237500X0.287500X0.237500X-0.287500X0.237500X0*%
%ADD22RoundRect,0.237500X-0.250000X-0.237500X0.250000X-0.237500X0.250000X0.237500X-0.250000X0.237500X0*%
%ADD23C,4.500000*%
%ADD24RoundRect,0.237500X0.237500X-0.250000X0.237500X0.250000X-0.237500X0.250000X-0.237500X-0.250000X0*%
%ADD25RoundRect,0.150000X-0.512500X-0.150000X0.512500X-0.150000X0.512500X0.150000X-0.512500X0.150000X0*%
%ADD26RoundRect,0.237500X-0.300000X-0.237500X0.300000X-0.237500X0.300000X0.237500X-0.300000X0.237500X0*%
%ADD27RoundRect,0.237500X-0.237500X0.300000X-0.237500X-0.300000X0.237500X-0.300000X0.237500X0.300000X0*%
%ADD28RoundRect,0.237500X-0.237500X0.287500X-0.237500X-0.287500X0.237500X-0.287500X0.237500X0.287500X0*%
%ADD29RoundRect,0.150000X0.512500X0.150000X-0.512500X0.150000X-0.512500X-0.150000X0.512500X-0.150000X0*%
%ADD30RoundRect,0.250000X0.800000X0.650000X-0.800000X0.650000X-0.800000X-0.650000X0.800000X-0.650000X0*%
%ADD31RoundRect,0.075000X-0.075000X0.700000X-0.075000X-0.700000X0.075000X-0.700000X0.075000X0.700000X0*%
%ADD32RoundRect,0.075000X-0.700000X0.075000X-0.700000X-0.075000X0.700000X-0.075000X0.700000X0.075000X0*%
%ADD33RoundRect,0.250000X-0.337500X-0.475000X0.337500X-0.475000X0.337500X0.475000X-0.337500X0.475000X0*%
G04 APERTURE END LIST*
D10*
%TO.C,C9*%
X119510000Y-85617500D03*
X119510000Y-83892500D03*
%TD*%
D11*
%TO.C,SW1*%
X141434998Y-82005000D03*
X141434998Y-83679998D03*
X144560000Y-82005000D03*
X144560000Y-83679998D03*
%TD*%
D12*
%TO.C,C3*%
X121285000Y-98505000D03*
X119560000Y-98505000D03*
%TD*%
D13*
%TO.C,J6*%
X87810000Y-78830000D03*
D14*
X87810000Y-81370000D03*
%TD*%
D15*
%TO.C,R3*%
X145135000Y-87255000D03*
X143310000Y-87255000D03*
%TD*%
D16*
%TO.C,J1*%
X143850000Y-96505000D03*
X143850000Y-95655000D03*
X143850000Y-94805000D03*
X143850000Y-93955000D03*
X143850000Y-93105000D03*
X143850000Y-92255000D03*
X143850000Y-91405000D03*
X143850000Y-90555000D03*
X145200000Y-90555000D03*
X145200000Y-91405000D03*
X145200000Y-92255000D03*
X145200000Y-93105000D03*
X145200000Y-93955000D03*
X145200000Y-94805000D03*
X145200000Y-95655000D03*
X145200000Y-96505000D03*
D17*
X144830000Y-97855000D03*
D18*
X148210000Y-97855000D03*
D17*
X144830000Y-89205000D03*
D18*
X148210000Y-89205000D03*
%TD*%
D19*
%TO.C,SW2*%
X149960000Y-101980000D03*
X147460000Y-107480000D03*
X144960000Y-101980000D03*
%TD*%
D20*
%TO.C,C6*%
X121210000Y-100505000D03*
X119135000Y-100505000D03*
%TD*%
D10*
%TO.C,C8*%
X122810000Y-85642500D03*
X122810000Y-83917500D03*
%TD*%
D21*
%TO.C,D2*%
X137435000Y-95655000D03*
X139185000Y-95655000D03*
%TD*%
D22*
%TO.C,R2*%
X137385000Y-97255000D03*
X139210000Y-97255000D03*
%TD*%
D13*
%TO.C,J2*%
X132770000Y-107280000D03*
D14*
X135310000Y-107280000D03*
X137850000Y-107280000D03*
X140390000Y-107280000D03*
%TD*%
D23*
%TO.C,REF\u002A\u002A*%
X89010000Y-106080000D03*
%TD*%
D10*
%TO.C,C12*%
X130010000Y-84442500D03*
X130010000Y-82717500D03*
%TD*%
D24*
%TO.C,R4*%
X133135000Y-103917500D03*
X133135000Y-102092500D03*
%TD*%
D10*
%TO.C,C11*%
X137310000Y-84230000D03*
X137310000Y-82505000D03*
%TD*%
D25*
%TO.C,U2*%
X138972500Y-92055000D03*
X138972500Y-93005000D03*
X138972500Y-93955000D03*
X141247500Y-93955000D03*
X141247500Y-93005000D03*
X141247500Y-92055000D03*
%TD*%
D13*
%TO.C,J5*%
X87900000Y-99890000D03*
D14*
X87900000Y-97350000D03*
X87900000Y-94810000D03*
%TD*%
D26*
%TO.C,C5*%
X135097499Y-89330000D03*
X136822501Y-89330000D03*
%TD*%
D27*
%TO.C,C4*%
X131560000Y-102142499D03*
X131560000Y-103867501D03*
%TD*%
D28*
%TO.C,FB1*%
X121110000Y-83905000D03*
X121110000Y-85655000D03*
%TD*%
D26*
%TO.C,C14*%
X134810000Y-103905000D03*
X136535000Y-103905000D03*
%TD*%
D29*
%TO.C,U3*%
X141260000Y-104505000D03*
X141260000Y-103555000D03*
X141260000Y-102605000D03*
X138985000Y-102605000D03*
X138985000Y-104505000D03*
%TD*%
D30*
%TO.C,Y1*%
X135060000Y-81880000D03*
X132160000Y-81880000D03*
X132160000Y-84180000D03*
X135060000Y-84180000D03*
%TD*%
D10*
%TO.C,C7*%
X124560000Y-85392500D03*
X124560000Y-83667500D03*
%TD*%
D26*
%TO.C,C1*%
X132547499Y-86280000D03*
X134272501Y-86280000D03*
%TD*%
%TO.C,C15*%
X140085000Y-101030000D03*
X141810000Y-101030000D03*
%TD*%
D13*
%TO.C,J3*%
X91810000Y-86700000D03*
D14*
X91810000Y-89240000D03*
X91810000Y-91780000D03*
X91810000Y-94320000D03*
X91810000Y-96860000D03*
X91810000Y-99400000D03*
%TD*%
D13*
%TO.C,REF\u002A\u002A*%
X93010000Y-78780000D03*
D14*
X95550000Y-78780000D03*
X98090000Y-78780000D03*
X100630000Y-78780000D03*
X103170000Y-78780000D03*
X105710000Y-78780000D03*
X108250000Y-78780000D03*
X110790000Y-78780000D03*
X113330000Y-78780000D03*
X115870000Y-78780000D03*
X118410000Y-78780000D03*
X120950000Y-78780000D03*
X123490000Y-78780000D03*
X126030000Y-78780000D03*
X128570000Y-78780000D03*
X131110000Y-78780000D03*
X133650000Y-78780000D03*
X136190000Y-78780000D03*
X138730000Y-78780000D03*
X141270000Y-78780000D03*
X143810000Y-78780000D03*
%TD*%
D10*
%TO.C,C2*%
X119660000Y-90292500D03*
X119660000Y-88567500D03*
%TD*%
D13*
%TO.C,J4*%
X87900000Y-86170000D03*
D14*
X87900000Y-88710000D03*
X87900000Y-91250000D03*
%TD*%
D13*
%TO.C,REF\u002A\u002A*%
X93610000Y-107280000D03*
D14*
X96150000Y-107280000D03*
X98690000Y-107280000D03*
X101230000Y-107280000D03*
X103770000Y-107280000D03*
X106310000Y-107280000D03*
X108850000Y-107280000D03*
X111390000Y-107280000D03*
X113930000Y-107280000D03*
X116470000Y-107280000D03*
X119010000Y-107280000D03*
X121550000Y-107280000D03*
X124090000Y-107280000D03*
X126630000Y-107280000D03*
X129170000Y-107280000D03*
%TD*%
D31*
%TO.C,U1*%
X131309999Y-87830000D03*
X130810000Y-87830000D03*
X130310000Y-87830000D03*
X129810000Y-87830000D03*
X129310000Y-87830000D03*
X128809999Y-87830000D03*
X128310000Y-87830000D03*
X127810000Y-87830000D03*
X127310000Y-87830000D03*
X126810000Y-87830000D03*
X126310001Y-87830000D03*
X125810000Y-87830000D03*
X125310000Y-87830000D03*
X124810000Y-87830000D03*
X124310000Y-87830000D03*
X123810001Y-87830000D03*
D32*
X121885000Y-89755001D03*
X121885000Y-90255000D03*
X121885000Y-90755000D03*
X121885000Y-91255000D03*
X121885000Y-91755000D03*
X121885000Y-92255001D03*
X121885000Y-92755000D03*
X121885000Y-93255000D03*
X121885000Y-93755000D03*
X121885000Y-94255000D03*
X121885000Y-94754999D03*
X121885000Y-95255000D03*
X121885000Y-95755000D03*
X121885000Y-96255000D03*
X121885000Y-96755000D03*
X121885000Y-97254999D03*
D31*
X123810001Y-99180000D03*
X124310000Y-99180000D03*
X124810000Y-99180000D03*
X125310000Y-99180000D03*
X125810000Y-99180000D03*
X126310001Y-99180000D03*
X126810000Y-99180000D03*
X127310000Y-99180000D03*
X127810000Y-99180000D03*
X128310000Y-99180000D03*
X128809999Y-99180000D03*
X129310000Y-99180000D03*
X129810000Y-99180000D03*
X130310000Y-99180000D03*
X130810000Y-99180000D03*
X131309999Y-99180000D03*
D32*
X133235000Y-97254999D03*
X133235000Y-96755000D03*
X133235000Y-96255000D03*
X133235000Y-95755000D03*
X133235000Y-95255000D03*
X133235000Y-94754999D03*
X133235000Y-94255000D03*
X133235000Y-93755000D03*
X133235000Y-93255000D03*
X133235000Y-92755000D03*
X133235000Y-92255001D03*
X133235000Y-91755000D03*
X133235000Y-91255000D03*
X133235000Y-90755000D03*
X133235000Y-90255000D03*
X133235000Y-89755001D03*
%TD*%
D22*
%TO.C,R1*%
X146935000Y-99680000D03*
X148760000Y-99680000D03*
%TD*%
D10*
%TO.C,C10*%
X139810000Y-83730000D03*
X139810000Y-82005000D03*
%TD*%
D28*
%TO.C,F1*%
X141960000Y-95505000D03*
X141960000Y-97255000D03*
%TD*%
D21*
%TO.C,D1*%
X134797500Y-102255000D03*
X136547500Y-102255000D03*
%TD*%
D33*
%TO.C,C17*%
X139685000Y-99205000D03*
X141760000Y-99205000D03*
%TD*%
D23*
%TO.C,REF\u002A\u002A*%
X149110000Y-79980000D03*
%TD*%
D27*
%TO.C,C16*%
X117910000Y-96742500D03*
X117910000Y-98467500D03*
%TD*%
M02*
