%TF.GenerationSoftware,KiCad,Pcbnew,10.0.4*%
%TF.CreationDate,2026-08-21T08:32:50-04:00*%
%TF.ProjectId,steering,73746565-7269-46e6-972e-6b696361645f,rev?*%
%TF.SameCoordinates,Original*%
%TF.FileFunction,Legend,Top*%
%TF.FilePolarity,Positive*%
%FSLAX46Y46*%
G04 Gerber Fmt 4.6, Leading zero omitted, Abs format (unit mm)*
G04 Created by KiCad (PCBNEW 10.0.4) date 2026-08-21 08:32:50*
%MOMM*%
%LPD*%
G01*
G04 APERTURE LIST*
%ADD10C,0.160000*%
%ADD11C,0.150000*%
%ADD12C,0.120000*%
%ADD13C,0.152400*%
%ADD14C,0.200000*%
%ADD15C,0.400000*%
G04 APERTURE END LIST*
D10*
X93469548Y-86343775D02*
X93964786Y-86343775D01*
X93964786Y-86343775D02*
X93698120Y-86648537D01*
X93698120Y-86648537D02*
X93812405Y-86648537D01*
X93812405Y-86648537D02*
X93888596Y-86686632D01*
X93888596Y-86686632D02*
X93926691Y-86724727D01*
X93926691Y-86724727D02*
X93964786Y-86800918D01*
X93964786Y-86800918D02*
X93964786Y-86991394D01*
X93964786Y-86991394D02*
X93926691Y-87067584D01*
X93926691Y-87067584D02*
X93888596Y-87105680D01*
X93888596Y-87105680D02*
X93812405Y-87143775D01*
X93812405Y-87143775D02*
X93583834Y-87143775D01*
X93583834Y-87143775D02*
X93507643Y-87105680D01*
X93507643Y-87105680D02*
X93469548Y-87067584D01*
X94193358Y-86343775D02*
X94460025Y-87143775D01*
X94460025Y-87143775D02*
X94726691Y-86343775D01*
X94917167Y-86343775D02*
X95412405Y-86343775D01*
X95412405Y-86343775D02*
X95145739Y-86648537D01*
X95145739Y-86648537D02*
X95260024Y-86648537D01*
X95260024Y-86648537D02*
X95336215Y-86686632D01*
X95336215Y-86686632D02*
X95374310Y-86724727D01*
X95374310Y-86724727D02*
X95412405Y-86800918D01*
X95412405Y-86800918D02*
X95412405Y-86991394D01*
X95412405Y-86991394D02*
X95374310Y-87067584D01*
X95374310Y-87067584D02*
X95336215Y-87105680D01*
X95336215Y-87105680D02*
X95260024Y-87143775D01*
X95260024Y-87143775D02*
X95031453Y-87143775D01*
X95031453Y-87143775D02*
X94955262Y-87105680D01*
X94955262Y-87105680D02*
X94917167Y-87067584D01*
X93507643Y-89605680D02*
X93621929Y-89643775D01*
X93621929Y-89643775D02*
X93812405Y-89643775D01*
X93812405Y-89643775D02*
X93888596Y-89605680D01*
X93888596Y-89605680D02*
X93926691Y-89567584D01*
X93926691Y-89567584D02*
X93964786Y-89491394D01*
X93964786Y-89491394D02*
X93964786Y-89415203D01*
X93964786Y-89415203D02*
X93926691Y-89339013D01*
X93926691Y-89339013D02*
X93888596Y-89300918D01*
X93888596Y-89300918D02*
X93812405Y-89262822D01*
X93812405Y-89262822D02*
X93660024Y-89224727D01*
X93660024Y-89224727D02*
X93583834Y-89186632D01*
X93583834Y-89186632D02*
X93545739Y-89148537D01*
X93545739Y-89148537D02*
X93507643Y-89072346D01*
X93507643Y-89072346D02*
X93507643Y-88996156D01*
X93507643Y-88996156D02*
X93545739Y-88919965D01*
X93545739Y-88919965D02*
X93583834Y-88881870D01*
X93583834Y-88881870D02*
X93660024Y-88843775D01*
X93660024Y-88843775D02*
X93850501Y-88843775D01*
X93850501Y-88843775D02*
X93964786Y-88881870D01*
X94307644Y-89643775D02*
X94307644Y-88843775D01*
X94307644Y-88843775D02*
X94612406Y-88843775D01*
X94612406Y-88843775D02*
X94688596Y-88881870D01*
X94688596Y-88881870D02*
X94726691Y-88919965D01*
X94726691Y-88919965D02*
X94764787Y-88996156D01*
X94764787Y-88996156D02*
X94764787Y-89110441D01*
X94764787Y-89110441D02*
X94726691Y-89186632D01*
X94726691Y-89186632D02*
X94688596Y-89224727D01*
X94688596Y-89224727D02*
X94612406Y-89262822D01*
X94612406Y-89262822D02*
X94307644Y-89262822D01*
X95107644Y-89643775D02*
X95107644Y-88843775D01*
X95907643Y-89643775D02*
X95450500Y-89643775D01*
X95679072Y-89643775D02*
X95679072Y-88843775D01*
X95679072Y-88843775D02*
X95602881Y-88958060D01*
X95602881Y-88958060D02*
X95526691Y-89034251D01*
X95526691Y-89034251D02*
X95450500Y-89072346D01*
X96060025Y-89719965D02*
X96669548Y-89719965D01*
X97317168Y-89567584D02*
X97279072Y-89605680D01*
X97279072Y-89605680D02*
X97164787Y-89643775D01*
X97164787Y-89643775D02*
X97088596Y-89643775D01*
X97088596Y-89643775D02*
X96974310Y-89605680D01*
X96974310Y-89605680D02*
X96898120Y-89529489D01*
X96898120Y-89529489D02*
X96860025Y-89453299D01*
X96860025Y-89453299D02*
X96821929Y-89300918D01*
X96821929Y-89300918D02*
X96821929Y-89186632D01*
X96821929Y-89186632D02*
X96860025Y-89034251D01*
X96860025Y-89034251D02*
X96898120Y-88958060D01*
X96898120Y-88958060D02*
X96974310Y-88881870D01*
X96974310Y-88881870D02*
X97088596Y-88843775D01*
X97088596Y-88843775D02*
X97164787Y-88843775D01*
X97164787Y-88843775D02*
X97279072Y-88881870D01*
X97279072Y-88881870D02*
X97317168Y-88919965D01*
X97621929Y-89605680D02*
X97736215Y-89643775D01*
X97736215Y-89643775D02*
X97926691Y-89643775D01*
X97926691Y-89643775D02*
X98002882Y-89605680D01*
X98002882Y-89605680D02*
X98040977Y-89567584D01*
X98040977Y-89567584D02*
X98079072Y-89491394D01*
X98079072Y-89491394D02*
X98079072Y-89415203D01*
X98079072Y-89415203D02*
X98040977Y-89339013D01*
X98040977Y-89339013D02*
X98002882Y-89300918D01*
X98002882Y-89300918D02*
X97926691Y-89262822D01*
X97926691Y-89262822D02*
X97774310Y-89224727D01*
X97774310Y-89224727D02*
X97698120Y-89186632D01*
X97698120Y-89186632D02*
X97660025Y-89148537D01*
X97660025Y-89148537D02*
X97621929Y-89072346D01*
X97621929Y-89072346D02*
X97621929Y-88996156D01*
X97621929Y-88996156D02*
X97660025Y-88919965D01*
X97660025Y-88919965D02*
X97698120Y-88881870D01*
X97698120Y-88881870D02*
X97774310Y-88843775D01*
X97774310Y-88843775D02*
X97964787Y-88843775D01*
X97964787Y-88843775D02*
X98079072Y-88881870D01*
X93507643Y-94605680D02*
X93621929Y-94643775D01*
X93621929Y-94643775D02*
X93812405Y-94643775D01*
X93812405Y-94643775D02*
X93888596Y-94605680D01*
X93888596Y-94605680D02*
X93926691Y-94567584D01*
X93926691Y-94567584D02*
X93964786Y-94491394D01*
X93964786Y-94491394D02*
X93964786Y-94415203D01*
X93964786Y-94415203D02*
X93926691Y-94339013D01*
X93926691Y-94339013D02*
X93888596Y-94300918D01*
X93888596Y-94300918D02*
X93812405Y-94262822D01*
X93812405Y-94262822D02*
X93660024Y-94224727D01*
X93660024Y-94224727D02*
X93583834Y-94186632D01*
X93583834Y-94186632D02*
X93545739Y-94148537D01*
X93545739Y-94148537D02*
X93507643Y-94072346D01*
X93507643Y-94072346D02*
X93507643Y-93996156D01*
X93507643Y-93996156D02*
X93545739Y-93919965D01*
X93545739Y-93919965D02*
X93583834Y-93881870D01*
X93583834Y-93881870D02*
X93660024Y-93843775D01*
X93660024Y-93843775D02*
X93850501Y-93843775D01*
X93850501Y-93843775D02*
X93964786Y-93881870D01*
X94307644Y-94643775D02*
X94307644Y-93843775D01*
X94307644Y-93843775D02*
X94612406Y-93843775D01*
X94612406Y-93843775D02*
X94688596Y-93881870D01*
X94688596Y-93881870D02*
X94726691Y-93919965D01*
X94726691Y-93919965D02*
X94764787Y-93996156D01*
X94764787Y-93996156D02*
X94764787Y-94110441D01*
X94764787Y-94110441D02*
X94726691Y-94186632D01*
X94726691Y-94186632D02*
X94688596Y-94224727D01*
X94688596Y-94224727D02*
X94612406Y-94262822D01*
X94612406Y-94262822D02*
X94307644Y-94262822D01*
X95107644Y-94643775D02*
X95107644Y-93843775D01*
X95907643Y-94643775D02*
X95450500Y-94643775D01*
X95679072Y-94643775D02*
X95679072Y-93843775D01*
X95679072Y-93843775D02*
X95602881Y-93958060D01*
X95602881Y-93958060D02*
X95526691Y-94034251D01*
X95526691Y-94034251D02*
X95450500Y-94072346D01*
X96060025Y-94719965D02*
X96669548Y-94719965D01*
X96860025Y-94643775D02*
X96860025Y-93843775D01*
X96860025Y-93843775D02*
X97126691Y-94415203D01*
X97126691Y-94415203D02*
X97393358Y-93843775D01*
X97393358Y-93843775D02*
X97393358Y-94643775D01*
X97774311Y-94643775D02*
X97774311Y-93843775D01*
X98117167Y-94605680D02*
X98231453Y-94643775D01*
X98231453Y-94643775D02*
X98421929Y-94643775D01*
X98421929Y-94643775D02*
X98498120Y-94605680D01*
X98498120Y-94605680D02*
X98536215Y-94567584D01*
X98536215Y-94567584D02*
X98574310Y-94491394D01*
X98574310Y-94491394D02*
X98574310Y-94415203D01*
X98574310Y-94415203D02*
X98536215Y-94339013D01*
X98536215Y-94339013D02*
X98498120Y-94300918D01*
X98498120Y-94300918D02*
X98421929Y-94262822D01*
X98421929Y-94262822D02*
X98269548Y-94224727D01*
X98269548Y-94224727D02*
X98193358Y-94186632D01*
X98193358Y-94186632D02*
X98155263Y-94148537D01*
X98155263Y-94148537D02*
X98117167Y-94072346D01*
X98117167Y-94072346D02*
X98117167Y-93996156D01*
X98117167Y-93996156D02*
X98155263Y-93919965D01*
X98155263Y-93919965D02*
X98193358Y-93881870D01*
X98193358Y-93881870D02*
X98269548Y-93843775D01*
X98269548Y-93843775D02*
X98460025Y-93843775D01*
X98460025Y-93843775D02*
X98574310Y-93881870D01*
X99069549Y-93843775D02*
X99221930Y-93843775D01*
X99221930Y-93843775D02*
X99298120Y-93881870D01*
X99298120Y-93881870D02*
X99374311Y-93958060D01*
X99374311Y-93958060D02*
X99412406Y-94110441D01*
X99412406Y-94110441D02*
X99412406Y-94377108D01*
X99412406Y-94377108D02*
X99374311Y-94529489D01*
X99374311Y-94529489D02*
X99298120Y-94605680D01*
X99298120Y-94605680D02*
X99221930Y-94643775D01*
X99221930Y-94643775D02*
X99069549Y-94643775D01*
X99069549Y-94643775D02*
X98993358Y-94605680D01*
X98993358Y-94605680D02*
X98917168Y-94529489D01*
X98917168Y-94529489D02*
X98879072Y-94377108D01*
X98879072Y-94377108D02*
X98879072Y-94110441D01*
X98879072Y-94110441D02*
X98917168Y-93958060D01*
X98917168Y-93958060D02*
X98993358Y-93881870D01*
X98993358Y-93881870D02*
X99069549Y-93843775D01*
X93507643Y-97105680D02*
X93621929Y-97143775D01*
X93621929Y-97143775D02*
X93812405Y-97143775D01*
X93812405Y-97143775D02*
X93888596Y-97105680D01*
X93888596Y-97105680D02*
X93926691Y-97067584D01*
X93926691Y-97067584D02*
X93964786Y-96991394D01*
X93964786Y-96991394D02*
X93964786Y-96915203D01*
X93964786Y-96915203D02*
X93926691Y-96839013D01*
X93926691Y-96839013D02*
X93888596Y-96800918D01*
X93888596Y-96800918D02*
X93812405Y-96762822D01*
X93812405Y-96762822D02*
X93660024Y-96724727D01*
X93660024Y-96724727D02*
X93583834Y-96686632D01*
X93583834Y-96686632D02*
X93545739Y-96648537D01*
X93545739Y-96648537D02*
X93507643Y-96572346D01*
X93507643Y-96572346D02*
X93507643Y-96496156D01*
X93507643Y-96496156D02*
X93545739Y-96419965D01*
X93545739Y-96419965D02*
X93583834Y-96381870D01*
X93583834Y-96381870D02*
X93660024Y-96343775D01*
X93660024Y-96343775D02*
X93850501Y-96343775D01*
X93850501Y-96343775D02*
X93964786Y-96381870D01*
X94307644Y-97143775D02*
X94307644Y-96343775D01*
X94307644Y-96343775D02*
X94612406Y-96343775D01*
X94612406Y-96343775D02*
X94688596Y-96381870D01*
X94688596Y-96381870D02*
X94726691Y-96419965D01*
X94726691Y-96419965D02*
X94764787Y-96496156D01*
X94764787Y-96496156D02*
X94764787Y-96610441D01*
X94764787Y-96610441D02*
X94726691Y-96686632D01*
X94726691Y-96686632D02*
X94688596Y-96724727D01*
X94688596Y-96724727D02*
X94612406Y-96762822D01*
X94612406Y-96762822D02*
X94307644Y-96762822D01*
X95107644Y-97143775D02*
X95107644Y-96343775D01*
X95907643Y-97143775D02*
X95450500Y-97143775D01*
X95679072Y-97143775D02*
X95679072Y-96343775D01*
X95679072Y-96343775D02*
X95602881Y-96458060D01*
X95602881Y-96458060D02*
X95526691Y-96534251D01*
X95526691Y-96534251D02*
X95450500Y-96572346D01*
X96060025Y-97219965D02*
X96669548Y-97219965D01*
X96860025Y-97143775D02*
X96860025Y-96343775D01*
X96860025Y-96343775D02*
X97126691Y-96915203D01*
X97126691Y-96915203D02*
X97393358Y-96343775D01*
X97393358Y-96343775D02*
X97393358Y-97143775D01*
X97926692Y-96343775D02*
X98079073Y-96343775D01*
X98079073Y-96343775D02*
X98155263Y-96381870D01*
X98155263Y-96381870D02*
X98231454Y-96458060D01*
X98231454Y-96458060D02*
X98269549Y-96610441D01*
X98269549Y-96610441D02*
X98269549Y-96877108D01*
X98269549Y-96877108D02*
X98231454Y-97029489D01*
X98231454Y-97029489D02*
X98155263Y-97105680D01*
X98155263Y-97105680D02*
X98079073Y-97143775D01*
X98079073Y-97143775D02*
X97926692Y-97143775D01*
X97926692Y-97143775D02*
X97850501Y-97105680D01*
X97850501Y-97105680D02*
X97774311Y-97029489D01*
X97774311Y-97029489D02*
X97736215Y-96877108D01*
X97736215Y-96877108D02*
X97736215Y-96610441D01*
X97736215Y-96610441D02*
X97774311Y-96458060D01*
X97774311Y-96458060D02*
X97850501Y-96381870D01*
X97850501Y-96381870D02*
X97926692Y-96343775D01*
X98574310Y-97105680D02*
X98688596Y-97143775D01*
X98688596Y-97143775D02*
X98879072Y-97143775D01*
X98879072Y-97143775D02*
X98955263Y-97105680D01*
X98955263Y-97105680D02*
X98993358Y-97067584D01*
X98993358Y-97067584D02*
X99031453Y-96991394D01*
X99031453Y-96991394D02*
X99031453Y-96915203D01*
X99031453Y-96915203D02*
X98993358Y-96839013D01*
X98993358Y-96839013D02*
X98955263Y-96800918D01*
X98955263Y-96800918D02*
X98879072Y-96762822D01*
X98879072Y-96762822D02*
X98726691Y-96724727D01*
X98726691Y-96724727D02*
X98650501Y-96686632D01*
X98650501Y-96686632D02*
X98612406Y-96648537D01*
X98612406Y-96648537D02*
X98574310Y-96572346D01*
X98574310Y-96572346D02*
X98574310Y-96496156D01*
X98574310Y-96496156D02*
X98612406Y-96419965D01*
X98612406Y-96419965D02*
X98650501Y-96381870D01*
X98650501Y-96381870D02*
X98726691Y-96343775D01*
X98726691Y-96343775D02*
X98917168Y-96343775D01*
X98917168Y-96343775D02*
X99031453Y-96381870D01*
X99374311Y-97143775D02*
X99374311Y-96343775D01*
X93964786Y-99131870D02*
X93888596Y-99093775D01*
X93888596Y-99093775D02*
X93774310Y-99093775D01*
X93774310Y-99093775D02*
X93660024Y-99131870D01*
X93660024Y-99131870D02*
X93583834Y-99208060D01*
X93583834Y-99208060D02*
X93545739Y-99284251D01*
X93545739Y-99284251D02*
X93507643Y-99436632D01*
X93507643Y-99436632D02*
X93507643Y-99550918D01*
X93507643Y-99550918D02*
X93545739Y-99703299D01*
X93545739Y-99703299D02*
X93583834Y-99779489D01*
X93583834Y-99779489D02*
X93660024Y-99855680D01*
X93660024Y-99855680D02*
X93774310Y-99893775D01*
X93774310Y-99893775D02*
X93850501Y-99893775D01*
X93850501Y-99893775D02*
X93964786Y-99855680D01*
X93964786Y-99855680D02*
X94002882Y-99817584D01*
X94002882Y-99817584D02*
X94002882Y-99550918D01*
X94002882Y-99550918D02*
X93850501Y-99550918D01*
X94345739Y-99893775D02*
X94345739Y-99093775D01*
X94345739Y-99093775D02*
X94802882Y-99893775D01*
X94802882Y-99893775D02*
X94802882Y-99093775D01*
X95183834Y-99893775D02*
X95183834Y-99093775D01*
X95183834Y-99093775D02*
X95374310Y-99093775D01*
X95374310Y-99093775D02*
X95488596Y-99131870D01*
X95488596Y-99131870D02*
X95564786Y-99208060D01*
X95564786Y-99208060D02*
X95602881Y-99284251D01*
X95602881Y-99284251D02*
X95640977Y-99436632D01*
X95640977Y-99436632D02*
X95640977Y-99550918D01*
X95640977Y-99550918D02*
X95602881Y-99703299D01*
X95602881Y-99703299D02*
X95564786Y-99779489D01*
X95564786Y-99779489D02*
X95488596Y-99855680D01*
X95488596Y-99855680D02*
X95374310Y-99893775D01*
X95374310Y-99893775D02*
X95183834Y-99893775D01*
X93757643Y-92105680D02*
X93871929Y-92143775D01*
X93871929Y-92143775D02*
X94062405Y-92143775D01*
X94062405Y-92143775D02*
X94138596Y-92105680D01*
X94138596Y-92105680D02*
X94176691Y-92067584D01*
X94176691Y-92067584D02*
X94214786Y-91991394D01*
X94214786Y-91991394D02*
X94214786Y-91915203D01*
X94214786Y-91915203D02*
X94176691Y-91839013D01*
X94176691Y-91839013D02*
X94138596Y-91800918D01*
X94138596Y-91800918D02*
X94062405Y-91762822D01*
X94062405Y-91762822D02*
X93910024Y-91724727D01*
X93910024Y-91724727D02*
X93833834Y-91686632D01*
X93833834Y-91686632D02*
X93795739Y-91648537D01*
X93795739Y-91648537D02*
X93757643Y-91572346D01*
X93757643Y-91572346D02*
X93757643Y-91496156D01*
X93757643Y-91496156D02*
X93795739Y-91419965D01*
X93795739Y-91419965D02*
X93833834Y-91381870D01*
X93833834Y-91381870D02*
X93910024Y-91343775D01*
X93910024Y-91343775D02*
X94100501Y-91343775D01*
X94100501Y-91343775D02*
X94214786Y-91381870D01*
X94557644Y-92143775D02*
X94557644Y-91343775D01*
X94557644Y-91343775D02*
X94862406Y-91343775D01*
X94862406Y-91343775D02*
X94938596Y-91381870D01*
X94938596Y-91381870D02*
X94976691Y-91419965D01*
X94976691Y-91419965D02*
X95014787Y-91496156D01*
X95014787Y-91496156D02*
X95014787Y-91610441D01*
X95014787Y-91610441D02*
X94976691Y-91686632D01*
X94976691Y-91686632D02*
X94938596Y-91724727D01*
X94938596Y-91724727D02*
X94862406Y-91762822D01*
X94862406Y-91762822D02*
X94557644Y-91762822D01*
X95357644Y-92143775D02*
X95357644Y-91343775D01*
X96157643Y-92143775D02*
X95700500Y-92143775D01*
X95929072Y-92143775D02*
X95929072Y-91343775D01*
X95929072Y-91343775D02*
X95852881Y-91458060D01*
X95852881Y-91458060D02*
X95776691Y-91534251D01*
X95776691Y-91534251D02*
X95700500Y-91572346D01*
X96310025Y-92219965D02*
X96919548Y-92219965D01*
X97071929Y-92105680D02*
X97186215Y-92143775D01*
X97186215Y-92143775D02*
X97376691Y-92143775D01*
X97376691Y-92143775D02*
X97452882Y-92105680D01*
X97452882Y-92105680D02*
X97490977Y-92067584D01*
X97490977Y-92067584D02*
X97529072Y-91991394D01*
X97529072Y-91991394D02*
X97529072Y-91915203D01*
X97529072Y-91915203D02*
X97490977Y-91839013D01*
X97490977Y-91839013D02*
X97452882Y-91800918D01*
X97452882Y-91800918D02*
X97376691Y-91762822D01*
X97376691Y-91762822D02*
X97224310Y-91724727D01*
X97224310Y-91724727D02*
X97148120Y-91686632D01*
X97148120Y-91686632D02*
X97110025Y-91648537D01*
X97110025Y-91648537D02*
X97071929Y-91572346D01*
X97071929Y-91572346D02*
X97071929Y-91496156D01*
X97071929Y-91496156D02*
X97110025Y-91419965D01*
X97110025Y-91419965D02*
X97148120Y-91381870D01*
X97148120Y-91381870D02*
X97224310Y-91343775D01*
X97224310Y-91343775D02*
X97414787Y-91343775D01*
X97414787Y-91343775D02*
X97529072Y-91381870D01*
X98329073Y-92067584D02*
X98290977Y-92105680D01*
X98290977Y-92105680D02*
X98176692Y-92143775D01*
X98176692Y-92143775D02*
X98100501Y-92143775D01*
X98100501Y-92143775D02*
X97986215Y-92105680D01*
X97986215Y-92105680D02*
X97910025Y-92029489D01*
X97910025Y-92029489D02*
X97871930Y-91953299D01*
X97871930Y-91953299D02*
X97833834Y-91800918D01*
X97833834Y-91800918D02*
X97833834Y-91686632D01*
X97833834Y-91686632D02*
X97871930Y-91534251D01*
X97871930Y-91534251D02*
X97910025Y-91458060D01*
X97910025Y-91458060D02*
X97986215Y-91381870D01*
X97986215Y-91381870D02*
X98100501Y-91343775D01*
X98100501Y-91343775D02*
X98176692Y-91343775D01*
X98176692Y-91343775D02*
X98290977Y-91381870D01*
X98290977Y-91381870D02*
X98329073Y-91419965D01*
X98671930Y-92143775D02*
X98671930Y-91343775D01*
X99129073Y-92143775D02*
X98786215Y-91686632D01*
X99129073Y-91343775D02*
X98671930Y-91800918D01*
X132507643Y-105605680D02*
X132621929Y-105643775D01*
X132621929Y-105643775D02*
X132812405Y-105643775D01*
X132812405Y-105643775D02*
X132888596Y-105605680D01*
X132888596Y-105605680D02*
X132926691Y-105567584D01*
X132926691Y-105567584D02*
X132964786Y-105491394D01*
X132964786Y-105491394D02*
X132964786Y-105415203D01*
X132964786Y-105415203D02*
X132926691Y-105339013D01*
X132926691Y-105339013D02*
X132888596Y-105300918D01*
X132888596Y-105300918D02*
X132812405Y-105262822D01*
X132812405Y-105262822D02*
X132660024Y-105224727D01*
X132660024Y-105224727D02*
X132583834Y-105186632D01*
X132583834Y-105186632D02*
X132545739Y-105148537D01*
X132545739Y-105148537D02*
X132507643Y-105072346D01*
X132507643Y-105072346D02*
X132507643Y-104996156D01*
X132507643Y-104996156D02*
X132545739Y-104919965D01*
X132545739Y-104919965D02*
X132583834Y-104881870D01*
X132583834Y-104881870D02*
X132660024Y-104843775D01*
X132660024Y-104843775D02*
X132850501Y-104843775D01*
X132850501Y-104843775D02*
X132964786Y-104881870D01*
X133231453Y-104843775D02*
X133421929Y-105643775D01*
X133421929Y-105643775D02*
X133574310Y-105072346D01*
X133574310Y-105072346D02*
X133726691Y-105643775D01*
X133726691Y-105643775D02*
X133917168Y-104843775D01*
X134679073Y-105567584D02*
X134640977Y-105605680D01*
X134640977Y-105605680D02*
X134526692Y-105643775D01*
X134526692Y-105643775D02*
X134450501Y-105643775D01*
X134450501Y-105643775D02*
X134336215Y-105605680D01*
X134336215Y-105605680D02*
X134260025Y-105529489D01*
X134260025Y-105529489D02*
X134221930Y-105453299D01*
X134221930Y-105453299D02*
X134183834Y-105300918D01*
X134183834Y-105300918D02*
X134183834Y-105186632D01*
X134183834Y-105186632D02*
X134221930Y-105034251D01*
X134221930Y-105034251D02*
X134260025Y-104958060D01*
X134260025Y-104958060D02*
X134336215Y-104881870D01*
X134336215Y-104881870D02*
X134450501Y-104843775D01*
X134450501Y-104843775D02*
X134526692Y-104843775D01*
X134526692Y-104843775D02*
X134640977Y-104881870D01*
X134640977Y-104881870D02*
X134679073Y-104919965D01*
X135402882Y-105643775D02*
X135021930Y-105643775D01*
X135021930Y-105643775D02*
X135021930Y-104843775D01*
X135669549Y-105643775D02*
X135669549Y-104843775D01*
X136126692Y-105643775D02*
X135783834Y-105186632D01*
X136126692Y-104843775D02*
X135669549Y-105300918D01*
X137007643Y-105605680D02*
X137121929Y-105643775D01*
X137121929Y-105643775D02*
X137312405Y-105643775D01*
X137312405Y-105643775D02*
X137388596Y-105605680D01*
X137388596Y-105605680D02*
X137426691Y-105567584D01*
X137426691Y-105567584D02*
X137464786Y-105491394D01*
X137464786Y-105491394D02*
X137464786Y-105415203D01*
X137464786Y-105415203D02*
X137426691Y-105339013D01*
X137426691Y-105339013D02*
X137388596Y-105300918D01*
X137388596Y-105300918D02*
X137312405Y-105262822D01*
X137312405Y-105262822D02*
X137160024Y-105224727D01*
X137160024Y-105224727D02*
X137083834Y-105186632D01*
X137083834Y-105186632D02*
X137045739Y-105148537D01*
X137045739Y-105148537D02*
X137007643Y-105072346D01*
X137007643Y-105072346D02*
X137007643Y-104996156D01*
X137007643Y-104996156D02*
X137045739Y-104919965D01*
X137045739Y-104919965D02*
X137083834Y-104881870D01*
X137083834Y-104881870D02*
X137160024Y-104843775D01*
X137160024Y-104843775D02*
X137350501Y-104843775D01*
X137350501Y-104843775D02*
X137464786Y-104881870D01*
X137731453Y-104843775D02*
X137921929Y-105643775D01*
X137921929Y-105643775D02*
X138074310Y-105072346D01*
X138074310Y-105072346D02*
X138226691Y-105643775D01*
X138226691Y-105643775D02*
X138417168Y-104843775D01*
X138721930Y-105643775D02*
X138721930Y-104843775D01*
X138721930Y-104843775D02*
X138912406Y-104843775D01*
X138912406Y-104843775D02*
X139026692Y-104881870D01*
X139026692Y-104881870D02*
X139102882Y-104958060D01*
X139102882Y-104958060D02*
X139140977Y-105034251D01*
X139140977Y-105034251D02*
X139179073Y-105186632D01*
X139179073Y-105186632D02*
X139179073Y-105300918D01*
X139179073Y-105300918D02*
X139140977Y-105453299D01*
X139140977Y-105453299D02*
X139102882Y-105529489D01*
X139102882Y-105529489D02*
X139026692Y-105605680D01*
X139026692Y-105605680D02*
X138912406Y-105643775D01*
X138912406Y-105643775D02*
X138721930Y-105643775D01*
X139521930Y-105643775D02*
X139521930Y-104843775D01*
X140055263Y-104843775D02*
X140207644Y-104843775D01*
X140207644Y-104843775D02*
X140283834Y-104881870D01*
X140283834Y-104881870D02*
X140360025Y-104958060D01*
X140360025Y-104958060D02*
X140398120Y-105110441D01*
X140398120Y-105110441D02*
X140398120Y-105377108D01*
X140398120Y-105377108D02*
X140360025Y-105529489D01*
X140360025Y-105529489D02*
X140283834Y-105605680D01*
X140283834Y-105605680D02*
X140207644Y-105643775D01*
X140207644Y-105643775D02*
X140055263Y-105643775D01*
X140055263Y-105643775D02*
X139979072Y-105605680D01*
X139979072Y-105605680D02*
X139902882Y-105529489D01*
X139902882Y-105529489D02*
X139864786Y-105377108D01*
X139864786Y-105377108D02*
X139864786Y-105110441D01*
X139864786Y-105110441D02*
X139902882Y-104958060D01*
X139902882Y-104958060D02*
X139979072Y-104881870D01*
X139979072Y-104881870D02*
X140055263Y-104843775D01*
X89599498Y-77593775D02*
X90056641Y-77593775D01*
X89828069Y-78393775D02*
X89828069Y-77593775D01*
X90247117Y-77593775D02*
X90780451Y-78393775D01*
X90780451Y-77593775D02*
X90247117Y-78393775D01*
X89980451Y-82643775D02*
X89713784Y-82262822D01*
X89523308Y-82643775D02*
X89523308Y-81843775D01*
X89523308Y-81843775D02*
X89828070Y-81843775D01*
X89828070Y-81843775D02*
X89904260Y-81881870D01*
X89904260Y-81881870D02*
X89942355Y-81919965D01*
X89942355Y-81919965D02*
X89980451Y-81996156D01*
X89980451Y-81996156D02*
X89980451Y-82110441D01*
X89980451Y-82110441D02*
X89942355Y-82186632D01*
X89942355Y-82186632D02*
X89904260Y-82224727D01*
X89904260Y-82224727D02*
X89828070Y-82262822D01*
X89828070Y-82262822D02*
X89523308Y-82262822D01*
X90247117Y-81843775D02*
X90780451Y-82643775D01*
X90780451Y-81843775D02*
X90247117Y-82643775D01*
X93953775Y-105484260D02*
X93153775Y-105484260D01*
X93153775Y-105484260D02*
X93153775Y-105179498D01*
X93153775Y-105179498D02*
X93191870Y-105103308D01*
X93191870Y-105103308D02*
X93229965Y-105065213D01*
X93229965Y-105065213D02*
X93306156Y-105027117D01*
X93306156Y-105027117D02*
X93420441Y-105027117D01*
X93420441Y-105027117D02*
X93496632Y-105065213D01*
X93496632Y-105065213D02*
X93534727Y-105103308D01*
X93534727Y-105103308D02*
X93572822Y-105179498D01*
X93572822Y-105179498D02*
X93572822Y-105484260D01*
X93534727Y-104417594D02*
X93572822Y-104303308D01*
X93572822Y-104303308D02*
X93610918Y-104265213D01*
X93610918Y-104265213D02*
X93687108Y-104227117D01*
X93687108Y-104227117D02*
X93801394Y-104227117D01*
X93801394Y-104227117D02*
X93877584Y-104265213D01*
X93877584Y-104265213D02*
X93915680Y-104303308D01*
X93915680Y-104303308D02*
X93953775Y-104379498D01*
X93953775Y-104379498D02*
X93953775Y-104684260D01*
X93953775Y-104684260D02*
X93153775Y-104684260D01*
X93153775Y-104684260D02*
X93153775Y-104417594D01*
X93153775Y-104417594D02*
X93191870Y-104341403D01*
X93191870Y-104341403D02*
X93229965Y-104303308D01*
X93229965Y-104303308D02*
X93306156Y-104265213D01*
X93306156Y-104265213D02*
X93382346Y-104265213D01*
X93382346Y-104265213D02*
X93458537Y-104303308D01*
X93458537Y-104303308D02*
X93496632Y-104341403D01*
X93496632Y-104341403D02*
X93534727Y-104417594D01*
X93534727Y-104417594D02*
X93534727Y-104684260D01*
X93953775Y-103465213D02*
X93953775Y-103922356D01*
X93953775Y-103693784D02*
X93153775Y-103693784D01*
X93153775Y-103693784D02*
X93268060Y-103769975D01*
X93268060Y-103769975D02*
X93344251Y-103846165D01*
X93344251Y-103846165D02*
X93382346Y-103922356D01*
X96453775Y-105484260D02*
X95653775Y-105484260D01*
X95653775Y-105484260D02*
X95653775Y-105179498D01*
X95653775Y-105179498D02*
X95691870Y-105103308D01*
X95691870Y-105103308D02*
X95729965Y-105065213D01*
X95729965Y-105065213D02*
X95806156Y-105027117D01*
X95806156Y-105027117D02*
X95920441Y-105027117D01*
X95920441Y-105027117D02*
X95996632Y-105065213D01*
X95996632Y-105065213D02*
X96034727Y-105103308D01*
X96034727Y-105103308D02*
X96072822Y-105179498D01*
X96072822Y-105179498D02*
X96072822Y-105484260D01*
X96034727Y-104417594D02*
X96072822Y-104303308D01*
X96072822Y-104303308D02*
X96110918Y-104265213D01*
X96110918Y-104265213D02*
X96187108Y-104227117D01*
X96187108Y-104227117D02*
X96301394Y-104227117D01*
X96301394Y-104227117D02*
X96377584Y-104265213D01*
X96377584Y-104265213D02*
X96415680Y-104303308D01*
X96415680Y-104303308D02*
X96453775Y-104379498D01*
X96453775Y-104379498D02*
X96453775Y-104684260D01*
X96453775Y-104684260D02*
X95653775Y-104684260D01*
X95653775Y-104684260D02*
X95653775Y-104417594D01*
X95653775Y-104417594D02*
X95691870Y-104341403D01*
X95691870Y-104341403D02*
X95729965Y-104303308D01*
X95729965Y-104303308D02*
X95806156Y-104265213D01*
X95806156Y-104265213D02*
X95882346Y-104265213D01*
X95882346Y-104265213D02*
X95958537Y-104303308D01*
X95958537Y-104303308D02*
X95996632Y-104341403D01*
X95996632Y-104341403D02*
X96034727Y-104417594D01*
X96034727Y-104417594D02*
X96034727Y-104684260D01*
X95729965Y-103922356D02*
X95691870Y-103884260D01*
X95691870Y-103884260D02*
X95653775Y-103808070D01*
X95653775Y-103808070D02*
X95653775Y-103617594D01*
X95653775Y-103617594D02*
X95691870Y-103541403D01*
X95691870Y-103541403D02*
X95729965Y-103503308D01*
X95729965Y-103503308D02*
X95806156Y-103465213D01*
X95806156Y-103465213D02*
X95882346Y-103465213D01*
X95882346Y-103465213D02*
X95996632Y-103503308D01*
X95996632Y-103503308D02*
X96453775Y-103960451D01*
X96453775Y-103960451D02*
X96453775Y-103465213D01*
X99203775Y-105469699D02*
X98403775Y-105469699D01*
X98403775Y-105469699D02*
X98403775Y-105164937D01*
X98403775Y-105164937D02*
X98441870Y-105088747D01*
X98441870Y-105088747D02*
X98479965Y-105050652D01*
X98479965Y-105050652D02*
X98556156Y-105012556D01*
X98556156Y-105012556D02*
X98670441Y-105012556D01*
X98670441Y-105012556D02*
X98746632Y-105050652D01*
X98746632Y-105050652D02*
X98784727Y-105088747D01*
X98784727Y-105088747D02*
X98822822Y-105164937D01*
X98822822Y-105164937D02*
X98822822Y-105469699D01*
X98784727Y-104403033D02*
X98822822Y-104288747D01*
X98822822Y-104288747D02*
X98860918Y-104250652D01*
X98860918Y-104250652D02*
X98937108Y-104212556D01*
X98937108Y-104212556D02*
X99051394Y-104212556D01*
X99051394Y-104212556D02*
X99127584Y-104250652D01*
X99127584Y-104250652D02*
X99165680Y-104288747D01*
X99165680Y-104288747D02*
X99203775Y-104364937D01*
X99203775Y-104364937D02*
X99203775Y-104669699D01*
X99203775Y-104669699D02*
X98403775Y-104669699D01*
X98403775Y-104669699D02*
X98403775Y-104403033D01*
X98403775Y-104403033D02*
X98441870Y-104326842D01*
X98441870Y-104326842D02*
X98479965Y-104288747D01*
X98479965Y-104288747D02*
X98556156Y-104250652D01*
X98556156Y-104250652D02*
X98632346Y-104250652D01*
X98632346Y-104250652D02*
X98708537Y-104288747D01*
X98708537Y-104288747D02*
X98746632Y-104326842D01*
X98746632Y-104326842D02*
X98784727Y-104403033D01*
X98784727Y-104403033D02*
X98784727Y-104669699D01*
X99203775Y-103450652D02*
X99203775Y-103907795D01*
X99203775Y-103679223D02*
X98403775Y-103679223D01*
X98403775Y-103679223D02*
X98518060Y-103755414D01*
X98518060Y-103755414D02*
X98594251Y-103831604D01*
X98594251Y-103831604D02*
X98632346Y-103907795D01*
X98403775Y-102955413D02*
X98403775Y-102879223D01*
X98403775Y-102879223D02*
X98441870Y-102803032D01*
X98441870Y-102803032D02*
X98479965Y-102764937D01*
X98479965Y-102764937D02*
X98556156Y-102726842D01*
X98556156Y-102726842D02*
X98708537Y-102688747D01*
X98708537Y-102688747D02*
X98899013Y-102688747D01*
X98899013Y-102688747D02*
X99051394Y-102726842D01*
X99051394Y-102726842D02*
X99127584Y-102764937D01*
X99127584Y-102764937D02*
X99165680Y-102803032D01*
X99165680Y-102803032D02*
X99203775Y-102879223D01*
X99203775Y-102879223D02*
X99203775Y-102955413D01*
X99203775Y-102955413D02*
X99165680Y-103031604D01*
X99165680Y-103031604D02*
X99127584Y-103069699D01*
X99127584Y-103069699D02*
X99051394Y-103107794D01*
X99051394Y-103107794D02*
X98899013Y-103145890D01*
X98899013Y-103145890D02*
X98708537Y-103145890D01*
X98708537Y-103145890D02*
X98556156Y-103107794D01*
X98556156Y-103107794D02*
X98479965Y-103069699D01*
X98479965Y-103069699D02*
X98441870Y-103031604D01*
X98441870Y-103031604D02*
X98403775Y-102955413D01*
X101703775Y-105469699D02*
X100903775Y-105469699D01*
X100903775Y-105469699D02*
X100903775Y-105164937D01*
X100903775Y-105164937D02*
X100941870Y-105088747D01*
X100941870Y-105088747D02*
X100979965Y-105050652D01*
X100979965Y-105050652D02*
X101056156Y-105012556D01*
X101056156Y-105012556D02*
X101170441Y-105012556D01*
X101170441Y-105012556D02*
X101246632Y-105050652D01*
X101246632Y-105050652D02*
X101284727Y-105088747D01*
X101284727Y-105088747D02*
X101322822Y-105164937D01*
X101322822Y-105164937D02*
X101322822Y-105469699D01*
X101284727Y-104403033D02*
X101322822Y-104288747D01*
X101322822Y-104288747D02*
X101360918Y-104250652D01*
X101360918Y-104250652D02*
X101437108Y-104212556D01*
X101437108Y-104212556D02*
X101551394Y-104212556D01*
X101551394Y-104212556D02*
X101627584Y-104250652D01*
X101627584Y-104250652D02*
X101665680Y-104288747D01*
X101665680Y-104288747D02*
X101703775Y-104364937D01*
X101703775Y-104364937D02*
X101703775Y-104669699D01*
X101703775Y-104669699D02*
X100903775Y-104669699D01*
X100903775Y-104669699D02*
X100903775Y-104403033D01*
X100903775Y-104403033D02*
X100941870Y-104326842D01*
X100941870Y-104326842D02*
X100979965Y-104288747D01*
X100979965Y-104288747D02*
X101056156Y-104250652D01*
X101056156Y-104250652D02*
X101132346Y-104250652D01*
X101132346Y-104250652D02*
X101208537Y-104288747D01*
X101208537Y-104288747D02*
X101246632Y-104326842D01*
X101246632Y-104326842D02*
X101284727Y-104403033D01*
X101284727Y-104403033D02*
X101284727Y-104669699D01*
X101703775Y-103450652D02*
X101703775Y-103907795D01*
X101703775Y-103679223D02*
X100903775Y-103679223D01*
X100903775Y-103679223D02*
X101018060Y-103755414D01*
X101018060Y-103755414D02*
X101094251Y-103831604D01*
X101094251Y-103831604D02*
X101132346Y-103907795D01*
X101703775Y-102688747D02*
X101703775Y-103145890D01*
X101703775Y-102917318D02*
X100903775Y-102917318D01*
X100903775Y-102917318D02*
X101018060Y-102993509D01*
X101018060Y-102993509D02*
X101094251Y-103069699D01*
X101094251Y-103069699D02*
X101132346Y-103145890D01*
X104203775Y-105469699D02*
X103403775Y-105469699D01*
X103403775Y-105469699D02*
X103403775Y-105164937D01*
X103403775Y-105164937D02*
X103441870Y-105088747D01*
X103441870Y-105088747D02*
X103479965Y-105050652D01*
X103479965Y-105050652D02*
X103556156Y-105012556D01*
X103556156Y-105012556D02*
X103670441Y-105012556D01*
X103670441Y-105012556D02*
X103746632Y-105050652D01*
X103746632Y-105050652D02*
X103784727Y-105088747D01*
X103784727Y-105088747D02*
X103822822Y-105164937D01*
X103822822Y-105164937D02*
X103822822Y-105469699D01*
X103784727Y-104403033D02*
X103822822Y-104288747D01*
X103822822Y-104288747D02*
X103860918Y-104250652D01*
X103860918Y-104250652D02*
X103937108Y-104212556D01*
X103937108Y-104212556D02*
X104051394Y-104212556D01*
X104051394Y-104212556D02*
X104127584Y-104250652D01*
X104127584Y-104250652D02*
X104165680Y-104288747D01*
X104165680Y-104288747D02*
X104203775Y-104364937D01*
X104203775Y-104364937D02*
X104203775Y-104669699D01*
X104203775Y-104669699D02*
X103403775Y-104669699D01*
X103403775Y-104669699D02*
X103403775Y-104403033D01*
X103403775Y-104403033D02*
X103441870Y-104326842D01*
X103441870Y-104326842D02*
X103479965Y-104288747D01*
X103479965Y-104288747D02*
X103556156Y-104250652D01*
X103556156Y-104250652D02*
X103632346Y-104250652D01*
X103632346Y-104250652D02*
X103708537Y-104288747D01*
X103708537Y-104288747D02*
X103746632Y-104326842D01*
X103746632Y-104326842D02*
X103784727Y-104403033D01*
X103784727Y-104403033D02*
X103784727Y-104669699D01*
X104203775Y-103450652D02*
X104203775Y-103907795D01*
X104203775Y-103679223D02*
X103403775Y-103679223D01*
X103403775Y-103679223D02*
X103518060Y-103755414D01*
X103518060Y-103755414D02*
X103594251Y-103831604D01*
X103594251Y-103831604D02*
X103632346Y-103907795D01*
X103479965Y-103145890D02*
X103441870Y-103107794D01*
X103441870Y-103107794D02*
X103403775Y-103031604D01*
X103403775Y-103031604D02*
X103403775Y-102841128D01*
X103403775Y-102841128D02*
X103441870Y-102764937D01*
X103441870Y-102764937D02*
X103479965Y-102726842D01*
X103479965Y-102726842D02*
X103556156Y-102688747D01*
X103556156Y-102688747D02*
X103632346Y-102688747D01*
X103632346Y-102688747D02*
X103746632Y-102726842D01*
X103746632Y-102726842D02*
X104203775Y-103183985D01*
X104203775Y-103183985D02*
X104203775Y-102688747D01*
X106703775Y-105469699D02*
X105903775Y-105469699D01*
X105903775Y-105469699D02*
X105903775Y-105164937D01*
X105903775Y-105164937D02*
X105941870Y-105088747D01*
X105941870Y-105088747D02*
X105979965Y-105050652D01*
X105979965Y-105050652D02*
X106056156Y-105012556D01*
X106056156Y-105012556D02*
X106170441Y-105012556D01*
X106170441Y-105012556D02*
X106246632Y-105050652D01*
X106246632Y-105050652D02*
X106284727Y-105088747D01*
X106284727Y-105088747D02*
X106322822Y-105164937D01*
X106322822Y-105164937D02*
X106322822Y-105469699D01*
X106284727Y-104403033D02*
X106322822Y-104288747D01*
X106322822Y-104288747D02*
X106360918Y-104250652D01*
X106360918Y-104250652D02*
X106437108Y-104212556D01*
X106437108Y-104212556D02*
X106551394Y-104212556D01*
X106551394Y-104212556D02*
X106627584Y-104250652D01*
X106627584Y-104250652D02*
X106665680Y-104288747D01*
X106665680Y-104288747D02*
X106703775Y-104364937D01*
X106703775Y-104364937D02*
X106703775Y-104669699D01*
X106703775Y-104669699D02*
X105903775Y-104669699D01*
X105903775Y-104669699D02*
X105903775Y-104403033D01*
X105903775Y-104403033D02*
X105941870Y-104326842D01*
X105941870Y-104326842D02*
X105979965Y-104288747D01*
X105979965Y-104288747D02*
X106056156Y-104250652D01*
X106056156Y-104250652D02*
X106132346Y-104250652D01*
X106132346Y-104250652D02*
X106208537Y-104288747D01*
X106208537Y-104288747D02*
X106246632Y-104326842D01*
X106246632Y-104326842D02*
X106284727Y-104403033D01*
X106284727Y-104403033D02*
X106284727Y-104669699D01*
X106703775Y-103450652D02*
X106703775Y-103907795D01*
X106703775Y-103679223D02*
X105903775Y-103679223D01*
X105903775Y-103679223D02*
X106018060Y-103755414D01*
X106018060Y-103755414D02*
X106094251Y-103831604D01*
X106094251Y-103831604D02*
X106132346Y-103907795D01*
X105903775Y-103183985D02*
X105903775Y-102688747D01*
X105903775Y-102688747D02*
X106208537Y-102955413D01*
X106208537Y-102955413D02*
X106208537Y-102841128D01*
X106208537Y-102841128D02*
X106246632Y-102764937D01*
X106246632Y-102764937D02*
X106284727Y-102726842D01*
X106284727Y-102726842D02*
X106360918Y-102688747D01*
X106360918Y-102688747D02*
X106551394Y-102688747D01*
X106551394Y-102688747D02*
X106627584Y-102726842D01*
X106627584Y-102726842D02*
X106665680Y-102764937D01*
X106665680Y-102764937D02*
X106703775Y-102841128D01*
X106703775Y-102841128D02*
X106703775Y-103069699D01*
X106703775Y-103069699D02*
X106665680Y-103145890D01*
X106665680Y-103145890D02*
X106627584Y-103183985D01*
X109203775Y-105469699D02*
X108403775Y-105469699D01*
X108403775Y-105469699D02*
X108403775Y-105164937D01*
X108403775Y-105164937D02*
X108441870Y-105088747D01*
X108441870Y-105088747D02*
X108479965Y-105050652D01*
X108479965Y-105050652D02*
X108556156Y-105012556D01*
X108556156Y-105012556D02*
X108670441Y-105012556D01*
X108670441Y-105012556D02*
X108746632Y-105050652D01*
X108746632Y-105050652D02*
X108784727Y-105088747D01*
X108784727Y-105088747D02*
X108822822Y-105164937D01*
X108822822Y-105164937D02*
X108822822Y-105469699D01*
X108784727Y-104403033D02*
X108822822Y-104288747D01*
X108822822Y-104288747D02*
X108860918Y-104250652D01*
X108860918Y-104250652D02*
X108937108Y-104212556D01*
X108937108Y-104212556D02*
X109051394Y-104212556D01*
X109051394Y-104212556D02*
X109127584Y-104250652D01*
X109127584Y-104250652D02*
X109165680Y-104288747D01*
X109165680Y-104288747D02*
X109203775Y-104364937D01*
X109203775Y-104364937D02*
X109203775Y-104669699D01*
X109203775Y-104669699D02*
X108403775Y-104669699D01*
X108403775Y-104669699D02*
X108403775Y-104403033D01*
X108403775Y-104403033D02*
X108441870Y-104326842D01*
X108441870Y-104326842D02*
X108479965Y-104288747D01*
X108479965Y-104288747D02*
X108556156Y-104250652D01*
X108556156Y-104250652D02*
X108632346Y-104250652D01*
X108632346Y-104250652D02*
X108708537Y-104288747D01*
X108708537Y-104288747D02*
X108746632Y-104326842D01*
X108746632Y-104326842D02*
X108784727Y-104403033D01*
X108784727Y-104403033D02*
X108784727Y-104669699D01*
X109203775Y-103450652D02*
X109203775Y-103907795D01*
X109203775Y-103679223D02*
X108403775Y-103679223D01*
X108403775Y-103679223D02*
X108518060Y-103755414D01*
X108518060Y-103755414D02*
X108594251Y-103831604D01*
X108594251Y-103831604D02*
X108632346Y-103907795D01*
X108670441Y-102764937D02*
X109203775Y-102764937D01*
X108365680Y-102955413D02*
X108937108Y-103145890D01*
X108937108Y-103145890D02*
X108937108Y-102650651D01*
X111953775Y-105469699D02*
X111153775Y-105469699D01*
X111153775Y-105469699D02*
X111153775Y-105164937D01*
X111153775Y-105164937D02*
X111191870Y-105088747D01*
X111191870Y-105088747D02*
X111229965Y-105050652D01*
X111229965Y-105050652D02*
X111306156Y-105012556D01*
X111306156Y-105012556D02*
X111420441Y-105012556D01*
X111420441Y-105012556D02*
X111496632Y-105050652D01*
X111496632Y-105050652D02*
X111534727Y-105088747D01*
X111534727Y-105088747D02*
X111572822Y-105164937D01*
X111572822Y-105164937D02*
X111572822Y-105469699D01*
X111534727Y-104403033D02*
X111572822Y-104288747D01*
X111572822Y-104288747D02*
X111610918Y-104250652D01*
X111610918Y-104250652D02*
X111687108Y-104212556D01*
X111687108Y-104212556D02*
X111801394Y-104212556D01*
X111801394Y-104212556D02*
X111877584Y-104250652D01*
X111877584Y-104250652D02*
X111915680Y-104288747D01*
X111915680Y-104288747D02*
X111953775Y-104364937D01*
X111953775Y-104364937D02*
X111953775Y-104669699D01*
X111953775Y-104669699D02*
X111153775Y-104669699D01*
X111153775Y-104669699D02*
X111153775Y-104403033D01*
X111153775Y-104403033D02*
X111191870Y-104326842D01*
X111191870Y-104326842D02*
X111229965Y-104288747D01*
X111229965Y-104288747D02*
X111306156Y-104250652D01*
X111306156Y-104250652D02*
X111382346Y-104250652D01*
X111382346Y-104250652D02*
X111458537Y-104288747D01*
X111458537Y-104288747D02*
X111496632Y-104326842D01*
X111496632Y-104326842D02*
X111534727Y-104403033D01*
X111534727Y-104403033D02*
X111534727Y-104669699D01*
X111953775Y-103450652D02*
X111953775Y-103907795D01*
X111953775Y-103679223D02*
X111153775Y-103679223D01*
X111153775Y-103679223D02*
X111268060Y-103755414D01*
X111268060Y-103755414D02*
X111344251Y-103831604D01*
X111344251Y-103831604D02*
X111382346Y-103907795D01*
X111153775Y-102726842D02*
X111153775Y-103107794D01*
X111153775Y-103107794D02*
X111534727Y-103145890D01*
X111534727Y-103145890D02*
X111496632Y-103107794D01*
X111496632Y-103107794D02*
X111458537Y-103031604D01*
X111458537Y-103031604D02*
X111458537Y-102841128D01*
X111458537Y-102841128D02*
X111496632Y-102764937D01*
X111496632Y-102764937D02*
X111534727Y-102726842D01*
X111534727Y-102726842D02*
X111610918Y-102688747D01*
X111610918Y-102688747D02*
X111801394Y-102688747D01*
X111801394Y-102688747D02*
X111877584Y-102726842D01*
X111877584Y-102726842D02*
X111915680Y-102764937D01*
X111915680Y-102764937D02*
X111953775Y-102841128D01*
X111953775Y-102841128D02*
X111953775Y-103031604D01*
X111953775Y-103031604D02*
X111915680Y-103107794D01*
X111915680Y-103107794D02*
X111877584Y-103145890D01*
X114453775Y-105469699D02*
X113653775Y-105469699D01*
X113653775Y-105469699D02*
X113653775Y-105164937D01*
X113653775Y-105164937D02*
X113691870Y-105088747D01*
X113691870Y-105088747D02*
X113729965Y-105050652D01*
X113729965Y-105050652D02*
X113806156Y-105012556D01*
X113806156Y-105012556D02*
X113920441Y-105012556D01*
X113920441Y-105012556D02*
X113996632Y-105050652D01*
X113996632Y-105050652D02*
X114034727Y-105088747D01*
X114034727Y-105088747D02*
X114072822Y-105164937D01*
X114072822Y-105164937D02*
X114072822Y-105469699D01*
X114377584Y-104212556D02*
X114415680Y-104250652D01*
X114415680Y-104250652D02*
X114453775Y-104364937D01*
X114453775Y-104364937D02*
X114453775Y-104441128D01*
X114453775Y-104441128D02*
X114415680Y-104555414D01*
X114415680Y-104555414D02*
X114339489Y-104631604D01*
X114339489Y-104631604D02*
X114263299Y-104669699D01*
X114263299Y-104669699D02*
X114110918Y-104707795D01*
X114110918Y-104707795D02*
X113996632Y-104707795D01*
X113996632Y-104707795D02*
X113844251Y-104669699D01*
X113844251Y-104669699D02*
X113768060Y-104631604D01*
X113768060Y-104631604D02*
X113691870Y-104555414D01*
X113691870Y-104555414D02*
X113653775Y-104441128D01*
X113653775Y-104441128D02*
X113653775Y-104364937D01*
X113653775Y-104364937D02*
X113691870Y-104250652D01*
X113691870Y-104250652D02*
X113729965Y-104212556D01*
X113653775Y-103526842D02*
X113653775Y-103679223D01*
X113653775Y-103679223D02*
X113691870Y-103755414D01*
X113691870Y-103755414D02*
X113729965Y-103793509D01*
X113729965Y-103793509D02*
X113844251Y-103869699D01*
X113844251Y-103869699D02*
X113996632Y-103907795D01*
X113996632Y-103907795D02*
X114301394Y-103907795D01*
X114301394Y-103907795D02*
X114377584Y-103869699D01*
X114377584Y-103869699D02*
X114415680Y-103831604D01*
X114415680Y-103831604D02*
X114453775Y-103755414D01*
X114453775Y-103755414D02*
X114453775Y-103603033D01*
X114453775Y-103603033D02*
X114415680Y-103526842D01*
X114415680Y-103526842D02*
X114377584Y-103488747D01*
X114377584Y-103488747D02*
X114301394Y-103450652D01*
X114301394Y-103450652D02*
X114110918Y-103450652D01*
X114110918Y-103450652D02*
X114034727Y-103488747D01*
X114034727Y-103488747D02*
X113996632Y-103526842D01*
X113996632Y-103526842D02*
X113958537Y-103603033D01*
X113958537Y-103603033D02*
X113958537Y-103755414D01*
X113958537Y-103755414D02*
X113996632Y-103831604D01*
X113996632Y-103831604D02*
X114034727Y-103869699D01*
X114034727Y-103869699D02*
X114110918Y-103907795D01*
X116953775Y-105469699D02*
X116153775Y-105469699D01*
X116153775Y-105469699D02*
X116153775Y-105164937D01*
X116153775Y-105164937D02*
X116191870Y-105088747D01*
X116191870Y-105088747D02*
X116229965Y-105050652D01*
X116229965Y-105050652D02*
X116306156Y-105012556D01*
X116306156Y-105012556D02*
X116420441Y-105012556D01*
X116420441Y-105012556D02*
X116496632Y-105050652D01*
X116496632Y-105050652D02*
X116534727Y-105088747D01*
X116534727Y-105088747D02*
X116572822Y-105164937D01*
X116572822Y-105164937D02*
X116572822Y-105469699D01*
X116877584Y-104212556D02*
X116915680Y-104250652D01*
X116915680Y-104250652D02*
X116953775Y-104364937D01*
X116953775Y-104364937D02*
X116953775Y-104441128D01*
X116953775Y-104441128D02*
X116915680Y-104555414D01*
X116915680Y-104555414D02*
X116839489Y-104631604D01*
X116839489Y-104631604D02*
X116763299Y-104669699D01*
X116763299Y-104669699D02*
X116610918Y-104707795D01*
X116610918Y-104707795D02*
X116496632Y-104707795D01*
X116496632Y-104707795D02*
X116344251Y-104669699D01*
X116344251Y-104669699D02*
X116268060Y-104631604D01*
X116268060Y-104631604D02*
X116191870Y-104555414D01*
X116191870Y-104555414D02*
X116153775Y-104441128D01*
X116153775Y-104441128D02*
X116153775Y-104364937D01*
X116153775Y-104364937D02*
X116191870Y-104250652D01*
X116191870Y-104250652D02*
X116229965Y-104212556D01*
X116153775Y-103945890D02*
X116153775Y-103412556D01*
X116153775Y-103412556D02*
X116953775Y-103755414D01*
X119703775Y-105469699D02*
X118903775Y-105469699D01*
X118903775Y-105469699D02*
X118903775Y-105164937D01*
X118903775Y-105164937D02*
X118941870Y-105088747D01*
X118941870Y-105088747D02*
X118979965Y-105050652D01*
X118979965Y-105050652D02*
X119056156Y-105012556D01*
X119056156Y-105012556D02*
X119170441Y-105012556D01*
X119170441Y-105012556D02*
X119246632Y-105050652D01*
X119246632Y-105050652D02*
X119284727Y-105088747D01*
X119284727Y-105088747D02*
X119322822Y-105164937D01*
X119322822Y-105164937D02*
X119322822Y-105469699D01*
X119627584Y-104212556D02*
X119665680Y-104250652D01*
X119665680Y-104250652D02*
X119703775Y-104364937D01*
X119703775Y-104364937D02*
X119703775Y-104441128D01*
X119703775Y-104441128D02*
X119665680Y-104555414D01*
X119665680Y-104555414D02*
X119589489Y-104631604D01*
X119589489Y-104631604D02*
X119513299Y-104669699D01*
X119513299Y-104669699D02*
X119360918Y-104707795D01*
X119360918Y-104707795D02*
X119246632Y-104707795D01*
X119246632Y-104707795D02*
X119094251Y-104669699D01*
X119094251Y-104669699D02*
X119018060Y-104631604D01*
X119018060Y-104631604D02*
X118941870Y-104555414D01*
X118941870Y-104555414D02*
X118903775Y-104441128D01*
X118903775Y-104441128D02*
X118903775Y-104364937D01*
X118903775Y-104364937D02*
X118941870Y-104250652D01*
X118941870Y-104250652D02*
X118979965Y-104212556D01*
X119246632Y-103755414D02*
X119208537Y-103831604D01*
X119208537Y-103831604D02*
X119170441Y-103869699D01*
X119170441Y-103869699D02*
X119094251Y-103907795D01*
X119094251Y-103907795D02*
X119056156Y-103907795D01*
X119056156Y-103907795D02*
X118979965Y-103869699D01*
X118979965Y-103869699D02*
X118941870Y-103831604D01*
X118941870Y-103831604D02*
X118903775Y-103755414D01*
X118903775Y-103755414D02*
X118903775Y-103603033D01*
X118903775Y-103603033D02*
X118941870Y-103526842D01*
X118941870Y-103526842D02*
X118979965Y-103488747D01*
X118979965Y-103488747D02*
X119056156Y-103450652D01*
X119056156Y-103450652D02*
X119094251Y-103450652D01*
X119094251Y-103450652D02*
X119170441Y-103488747D01*
X119170441Y-103488747D02*
X119208537Y-103526842D01*
X119208537Y-103526842D02*
X119246632Y-103603033D01*
X119246632Y-103603033D02*
X119246632Y-103755414D01*
X119246632Y-103755414D02*
X119284727Y-103831604D01*
X119284727Y-103831604D02*
X119322822Y-103869699D01*
X119322822Y-103869699D02*
X119399013Y-103907795D01*
X119399013Y-103907795D02*
X119551394Y-103907795D01*
X119551394Y-103907795D02*
X119627584Y-103869699D01*
X119627584Y-103869699D02*
X119665680Y-103831604D01*
X119665680Y-103831604D02*
X119703775Y-103755414D01*
X119703775Y-103755414D02*
X119703775Y-103603033D01*
X119703775Y-103603033D02*
X119665680Y-103526842D01*
X119665680Y-103526842D02*
X119627584Y-103488747D01*
X119627584Y-103488747D02*
X119551394Y-103450652D01*
X119551394Y-103450652D02*
X119399013Y-103450652D01*
X119399013Y-103450652D02*
X119322822Y-103488747D01*
X119322822Y-103488747D02*
X119284727Y-103526842D01*
X119284727Y-103526842D02*
X119246632Y-103603033D01*
X121953775Y-105469699D02*
X121153775Y-105469699D01*
X121153775Y-105469699D02*
X121153775Y-105164937D01*
X121153775Y-105164937D02*
X121191870Y-105088747D01*
X121191870Y-105088747D02*
X121229965Y-105050652D01*
X121229965Y-105050652D02*
X121306156Y-105012556D01*
X121306156Y-105012556D02*
X121420441Y-105012556D01*
X121420441Y-105012556D02*
X121496632Y-105050652D01*
X121496632Y-105050652D02*
X121534727Y-105088747D01*
X121534727Y-105088747D02*
X121572822Y-105164937D01*
X121572822Y-105164937D02*
X121572822Y-105469699D01*
X121877584Y-104212556D02*
X121915680Y-104250652D01*
X121915680Y-104250652D02*
X121953775Y-104364937D01*
X121953775Y-104364937D02*
X121953775Y-104441128D01*
X121953775Y-104441128D02*
X121915680Y-104555414D01*
X121915680Y-104555414D02*
X121839489Y-104631604D01*
X121839489Y-104631604D02*
X121763299Y-104669699D01*
X121763299Y-104669699D02*
X121610918Y-104707795D01*
X121610918Y-104707795D02*
X121496632Y-104707795D01*
X121496632Y-104707795D02*
X121344251Y-104669699D01*
X121344251Y-104669699D02*
X121268060Y-104631604D01*
X121268060Y-104631604D02*
X121191870Y-104555414D01*
X121191870Y-104555414D02*
X121153775Y-104441128D01*
X121153775Y-104441128D02*
X121153775Y-104364937D01*
X121153775Y-104364937D02*
X121191870Y-104250652D01*
X121191870Y-104250652D02*
X121229965Y-104212556D01*
X121953775Y-103831604D02*
X121953775Y-103679223D01*
X121953775Y-103679223D02*
X121915680Y-103603033D01*
X121915680Y-103603033D02*
X121877584Y-103564937D01*
X121877584Y-103564937D02*
X121763299Y-103488747D01*
X121763299Y-103488747D02*
X121610918Y-103450652D01*
X121610918Y-103450652D02*
X121306156Y-103450652D01*
X121306156Y-103450652D02*
X121229965Y-103488747D01*
X121229965Y-103488747D02*
X121191870Y-103526842D01*
X121191870Y-103526842D02*
X121153775Y-103603033D01*
X121153775Y-103603033D02*
X121153775Y-103755414D01*
X121153775Y-103755414D02*
X121191870Y-103831604D01*
X121191870Y-103831604D02*
X121229965Y-103869699D01*
X121229965Y-103869699D02*
X121306156Y-103907795D01*
X121306156Y-103907795D02*
X121496632Y-103907795D01*
X121496632Y-103907795D02*
X121572822Y-103869699D01*
X121572822Y-103869699D02*
X121610918Y-103831604D01*
X121610918Y-103831604D02*
X121649013Y-103755414D01*
X121649013Y-103755414D02*
X121649013Y-103603033D01*
X121649013Y-103603033D02*
X121610918Y-103526842D01*
X121610918Y-103526842D02*
X121572822Y-103488747D01*
X121572822Y-103488747D02*
X121496632Y-103450652D01*
X124453775Y-105469699D02*
X123653775Y-105469699D01*
X123653775Y-105469699D02*
X123653775Y-105164937D01*
X123653775Y-105164937D02*
X123691870Y-105088747D01*
X123691870Y-105088747D02*
X123729965Y-105050652D01*
X123729965Y-105050652D02*
X123806156Y-105012556D01*
X123806156Y-105012556D02*
X123920441Y-105012556D01*
X123920441Y-105012556D02*
X123996632Y-105050652D01*
X123996632Y-105050652D02*
X124034727Y-105088747D01*
X124034727Y-105088747D02*
X124072822Y-105164937D01*
X124072822Y-105164937D02*
X124072822Y-105469699D01*
X124225203Y-104707795D02*
X124225203Y-104326842D01*
X124453775Y-104783985D02*
X123653775Y-104517318D01*
X123653775Y-104517318D02*
X124453775Y-104250652D01*
X123996632Y-103869700D02*
X123958537Y-103945890D01*
X123958537Y-103945890D02*
X123920441Y-103983985D01*
X123920441Y-103983985D02*
X123844251Y-104022081D01*
X123844251Y-104022081D02*
X123806156Y-104022081D01*
X123806156Y-104022081D02*
X123729965Y-103983985D01*
X123729965Y-103983985D02*
X123691870Y-103945890D01*
X123691870Y-103945890D02*
X123653775Y-103869700D01*
X123653775Y-103869700D02*
X123653775Y-103717319D01*
X123653775Y-103717319D02*
X123691870Y-103641128D01*
X123691870Y-103641128D02*
X123729965Y-103603033D01*
X123729965Y-103603033D02*
X123806156Y-103564938D01*
X123806156Y-103564938D02*
X123844251Y-103564938D01*
X123844251Y-103564938D02*
X123920441Y-103603033D01*
X123920441Y-103603033D02*
X123958537Y-103641128D01*
X123958537Y-103641128D02*
X123996632Y-103717319D01*
X123996632Y-103717319D02*
X123996632Y-103869700D01*
X123996632Y-103869700D02*
X124034727Y-103945890D01*
X124034727Y-103945890D02*
X124072822Y-103983985D01*
X124072822Y-103983985D02*
X124149013Y-104022081D01*
X124149013Y-104022081D02*
X124301394Y-104022081D01*
X124301394Y-104022081D02*
X124377584Y-103983985D01*
X124377584Y-103983985D02*
X124415680Y-103945890D01*
X124415680Y-103945890D02*
X124453775Y-103869700D01*
X124453775Y-103869700D02*
X124453775Y-103717319D01*
X124453775Y-103717319D02*
X124415680Y-103641128D01*
X124415680Y-103641128D02*
X124377584Y-103603033D01*
X124377584Y-103603033D02*
X124301394Y-103564938D01*
X124301394Y-103564938D02*
X124149013Y-103564938D01*
X124149013Y-103564938D02*
X124072822Y-103603033D01*
X124072822Y-103603033D02*
X124034727Y-103641128D01*
X124034727Y-103641128D02*
X123996632Y-103717319D01*
X126953775Y-105469699D02*
X126153775Y-105469699D01*
X126153775Y-105469699D02*
X126153775Y-105164937D01*
X126153775Y-105164937D02*
X126191870Y-105088747D01*
X126191870Y-105088747D02*
X126229965Y-105050652D01*
X126229965Y-105050652D02*
X126306156Y-105012556D01*
X126306156Y-105012556D02*
X126420441Y-105012556D01*
X126420441Y-105012556D02*
X126496632Y-105050652D01*
X126496632Y-105050652D02*
X126534727Y-105088747D01*
X126534727Y-105088747D02*
X126572822Y-105164937D01*
X126572822Y-105164937D02*
X126572822Y-105469699D01*
X126725203Y-104707795D02*
X126725203Y-104326842D01*
X126953775Y-104783985D02*
X126153775Y-104517318D01*
X126153775Y-104517318D02*
X126953775Y-104250652D01*
X126953775Y-103945890D02*
X126953775Y-103793509D01*
X126953775Y-103793509D02*
X126915680Y-103717319D01*
X126915680Y-103717319D02*
X126877584Y-103679223D01*
X126877584Y-103679223D02*
X126763299Y-103603033D01*
X126763299Y-103603033D02*
X126610918Y-103564938D01*
X126610918Y-103564938D02*
X126306156Y-103564938D01*
X126306156Y-103564938D02*
X126229965Y-103603033D01*
X126229965Y-103603033D02*
X126191870Y-103641128D01*
X126191870Y-103641128D02*
X126153775Y-103717319D01*
X126153775Y-103717319D02*
X126153775Y-103869700D01*
X126153775Y-103869700D02*
X126191870Y-103945890D01*
X126191870Y-103945890D02*
X126229965Y-103983985D01*
X126229965Y-103983985D02*
X126306156Y-104022081D01*
X126306156Y-104022081D02*
X126496632Y-104022081D01*
X126496632Y-104022081D02*
X126572822Y-103983985D01*
X126572822Y-103983985D02*
X126610918Y-103945890D01*
X126610918Y-103945890D02*
X126649013Y-103869700D01*
X126649013Y-103869700D02*
X126649013Y-103717319D01*
X126649013Y-103717319D02*
X126610918Y-103641128D01*
X126610918Y-103641128D02*
X126572822Y-103603033D01*
X126572822Y-103603033D02*
X126496632Y-103564938D01*
X129453775Y-105469699D02*
X128653775Y-105469699D01*
X128653775Y-105469699D02*
X128653775Y-105164937D01*
X128653775Y-105164937D02*
X128691870Y-105088747D01*
X128691870Y-105088747D02*
X128729965Y-105050652D01*
X128729965Y-105050652D02*
X128806156Y-105012556D01*
X128806156Y-105012556D02*
X128920441Y-105012556D01*
X128920441Y-105012556D02*
X128996632Y-105050652D01*
X128996632Y-105050652D02*
X129034727Y-105088747D01*
X129034727Y-105088747D02*
X129072822Y-105164937D01*
X129072822Y-105164937D02*
X129072822Y-105469699D01*
X129225203Y-104707795D02*
X129225203Y-104326842D01*
X129453775Y-104783985D02*
X128653775Y-104517318D01*
X128653775Y-104517318D02*
X129453775Y-104250652D01*
X129453775Y-103564938D02*
X129453775Y-104022081D01*
X129453775Y-103793509D02*
X128653775Y-103793509D01*
X128653775Y-103793509D02*
X128768060Y-103869700D01*
X128768060Y-103869700D02*
X128844251Y-103945890D01*
X128844251Y-103945890D02*
X128882346Y-104022081D01*
X128653775Y-103069699D02*
X128653775Y-102993509D01*
X128653775Y-102993509D02*
X128691870Y-102917318D01*
X128691870Y-102917318D02*
X128729965Y-102879223D01*
X128729965Y-102879223D02*
X128806156Y-102841128D01*
X128806156Y-102841128D02*
X128958537Y-102803033D01*
X128958537Y-102803033D02*
X129149013Y-102803033D01*
X129149013Y-102803033D02*
X129301394Y-102841128D01*
X129301394Y-102841128D02*
X129377584Y-102879223D01*
X129377584Y-102879223D02*
X129415680Y-102917318D01*
X129415680Y-102917318D02*
X129453775Y-102993509D01*
X129453775Y-102993509D02*
X129453775Y-103069699D01*
X129453775Y-103069699D02*
X129415680Y-103145890D01*
X129415680Y-103145890D02*
X129377584Y-103183985D01*
X129377584Y-103183985D02*
X129301394Y-103222080D01*
X129301394Y-103222080D02*
X129149013Y-103260176D01*
X129149013Y-103260176D02*
X128958537Y-103260176D01*
X128958537Y-103260176D02*
X128806156Y-103222080D01*
X128806156Y-103222080D02*
X128729965Y-103183985D01*
X128729965Y-103183985D02*
X128691870Y-103145890D01*
X128691870Y-103145890D02*
X128653775Y-103069699D01*
X130631870Y-107785213D02*
X130593775Y-107861403D01*
X130593775Y-107861403D02*
X130593775Y-107975689D01*
X130593775Y-107975689D02*
X130631870Y-108089975D01*
X130631870Y-108089975D02*
X130708060Y-108166165D01*
X130708060Y-108166165D02*
X130784251Y-108204260D01*
X130784251Y-108204260D02*
X130936632Y-108242356D01*
X130936632Y-108242356D02*
X131050918Y-108242356D01*
X131050918Y-108242356D02*
X131203299Y-108204260D01*
X131203299Y-108204260D02*
X131279489Y-108166165D01*
X131279489Y-108166165D02*
X131355680Y-108089975D01*
X131355680Y-108089975D02*
X131393775Y-107975689D01*
X131393775Y-107975689D02*
X131393775Y-107899498D01*
X131393775Y-107899498D02*
X131355680Y-107785213D01*
X131355680Y-107785213D02*
X131317584Y-107747117D01*
X131317584Y-107747117D02*
X131050918Y-107747117D01*
X131050918Y-107747117D02*
X131050918Y-107899498D01*
X131393775Y-107404260D02*
X130593775Y-107404260D01*
X130593775Y-107404260D02*
X131393775Y-106947117D01*
X131393775Y-106947117D02*
X130593775Y-106947117D01*
X131393775Y-106566165D02*
X130593775Y-106566165D01*
X130593775Y-106566165D02*
X130593775Y-106375689D01*
X130593775Y-106375689D02*
X130631870Y-106261403D01*
X130631870Y-106261403D02*
X130708060Y-106185213D01*
X130708060Y-106185213D02*
X130784251Y-106147118D01*
X130784251Y-106147118D02*
X130936632Y-106109022D01*
X130936632Y-106109022D02*
X131050918Y-106109022D01*
X131050918Y-106109022D02*
X131203299Y-106147118D01*
X131203299Y-106147118D02*
X131279489Y-106185213D01*
X131279489Y-106185213D02*
X131355680Y-106261403D01*
X131355680Y-106261403D02*
X131393775Y-106375689D01*
X131393775Y-106375689D02*
X131393775Y-106566165D01*
X142093775Y-108280451D02*
X142093775Y-107785213D01*
X142093775Y-107785213D02*
X142398537Y-108051879D01*
X142398537Y-108051879D02*
X142398537Y-107937594D01*
X142398537Y-107937594D02*
X142436632Y-107861403D01*
X142436632Y-107861403D02*
X142474727Y-107823308D01*
X142474727Y-107823308D02*
X142550918Y-107785213D01*
X142550918Y-107785213D02*
X142741394Y-107785213D01*
X142741394Y-107785213D02*
X142817584Y-107823308D01*
X142817584Y-107823308D02*
X142855680Y-107861403D01*
X142855680Y-107861403D02*
X142893775Y-107937594D01*
X142893775Y-107937594D02*
X142893775Y-108166165D01*
X142893775Y-108166165D02*
X142855680Y-108242356D01*
X142855680Y-108242356D02*
X142817584Y-108280451D01*
X142093775Y-107556641D02*
X142893775Y-107289974D01*
X142893775Y-107289974D02*
X142093775Y-107023308D01*
X142093775Y-106832832D02*
X142093775Y-106337594D01*
X142093775Y-106337594D02*
X142398537Y-106604260D01*
X142398537Y-106604260D02*
X142398537Y-106489975D01*
X142398537Y-106489975D02*
X142436632Y-106413784D01*
X142436632Y-106413784D02*
X142474727Y-106375689D01*
X142474727Y-106375689D02*
X142550918Y-106337594D01*
X142550918Y-106337594D02*
X142741394Y-106337594D01*
X142741394Y-106337594D02*
X142817584Y-106375689D01*
X142817584Y-106375689D02*
X142855680Y-106413784D01*
X142855680Y-106413784D02*
X142893775Y-106489975D01*
X142893775Y-106489975D02*
X142893775Y-106718546D01*
X142893775Y-106718546D02*
X142855680Y-106794737D01*
X142855680Y-106794737D02*
X142817584Y-106832832D01*
X89443775Y-87200501D02*
X89443775Y-86705263D01*
X89443775Y-86705263D02*
X89748537Y-86971929D01*
X89748537Y-86971929D02*
X89748537Y-86857644D01*
X89748537Y-86857644D02*
X89786632Y-86781453D01*
X89786632Y-86781453D02*
X89824727Y-86743358D01*
X89824727Y-86743358D02*
X89900918Y-86705263D01*
X89900918Y-86705263D02*
X90091394Y-86705263D01*
X90091394Y-86705263D02*
X90167584Y-86743358D01*
X90167584Y-86743358D02*
X90205680Y-86781453D01*
X90205680Y-86781453D02*
X90243775Y-86857644D01*
X90243775Y-86857644D02*
X90243775Y-87086215D01*
X90243775Y-87086215D02*
X90205680Y-87162406D01*
X90205680Y-87162406D02*
X90167584Y-87200501D01*
X89443775Y-86476691D02*
X90243775Y-86210024D01*
X90243775Y-86210024D02*
X89443775Y-85943358D01*
X89443775Y-85752882D02*
X89443775Y-85257644D01*
X89443775Y-85257644D02*
X89748537Y-85524310D01*
X89748537Y-85524310D02*
X89748537Y-85410025D01*
X89748537Y-85410025D02*
X89786632Y-85333834D01*
X89786632Y-85333834D02*
X89824727Y-85295739D01*
X89824727Y-85295739D02*
X89900918Y-85257644D01*
X89900918Y-85257644D02*
X90091394Y-85257644D01*
X90091394Y-85257644D02*
X90167584Y-85295739D01*
X90167584Y-85295739D02*
X90205680Y-85333834D01*
X90205680Y-85333834D02*
X90243775Y-85410025D01*
X90243775Y-85410025D02*
X90243775Y-85638596D01*
X90243775Y-85638596D02*
X90205680Y-85714787D01*
X90205680Y-85714787D02*
X90167584Y-85752882D01*
X90243775Y-89645738D02*
X89443775Y-89645738D01*
X90243775Y-89264786D02*
X89443775Y-89264786D01*
X89443775Y-89264786D02*
X90243775Y-88807643D01*
X90243775Y-88807643D02*
X89443775Y-88807643D01*
X89786632Y-88312406D02*
X89748537Y-88388596D01*
X89748537Y-88388596D02*
X89710441Y-88426691D01*
X89710441Y-88426691D02*
X89634251Y-88464787D01*
X89634251Y-88464787D02*
X89596156Y-88464787D01*
X89596156Y-88464787D02*
X89519965Y-88426691D01*
X89519965Y-88426691D02*
X89481870Y-88388596D01*
X89481870Y-88388596D02*
X89443775Y-88312406D01*
X89443775Y-88312406D02*
X89443775Y-88160025D01*
X89443775Y-88160025D02*
X89481870Y-88083834D01*
X89481870Y-88083834D02*
X89519965Y-88045739D01*
X89519965Y-88045739D02*
X89596156Y-88007644D01*
X89596156Y-88007644D02*
X89634251Y-88007644D01*
X89634251Y-88007644D02*
X89710441Y-88045739D01*
X89710441Y-88045739D02*
X89748537Y-88083834D01*
X89748537Y-88083834D02*
X89786632Y-88160025D01*
X89786632Y-88160025D02*
X89786632Y-88312406D01*
X89786632Y-88312406D02*
X89824727Y-88388596D01*
X89824727Y-88388596D02*
X89862822Y-88426691D01*
X89862822Y-88426691D02*
X89939013Y-88464787D01*
X89939013Y-88464787D02*
X90091394Y-88464787D01*
X90091394Y-88464787D02*
X90167584Y-88426691D01*
X90167584Y-88426691D02*
X90205680Y-88388596D01*
X90205680Y-88388596D02*
X90243775Y-88312406D01*
X90243775Y-88312406D02*
X90243775Y-88160025D01*
X90243775Y-88160025D02*
X90205680Y-88083834D01*
X90205680Y-88083834D02*
X90167584Y-88045739D01*
X90167584Y-88045739D02*
X90091394Y-88007644D01*
X90091394Y-88007644D02*
X89939013Y-88007644D01*
X89939013Y-88007644D02*
X89862822Y-88045739D01*
X89862822Y-88045739D02*
X89824727Y-88083834D01*
X89824727Y-88083834D02*
X89786632Y-88160025D01*
X89481870Y-91933834D02*
X89443775Y-92010024D01*
X89443775Y-92010024D02*
X89443775Y-92124310D01*
X89443775Y-92124310D02*
X89481870Y-92238596D01*
X89481870Y-92238596D02*
X89558060Y-92314786D01*
X89558060Y-92314786D02*
X89634251Y-92352881D01*
X89634251Y-92352881D02*
X89786632Y-92390977D01*
X89786632Y-92390977D02*
X89900918Y-92390977D01*
X89900918Y-92390977D02*
X90053299Y-92352881D01*
X90053299Y-92352881D02*
X90129489Y-92314786D01*
X90129489Y-92314786D02*
X90205680Y-92238596D01*
X90205680Y-92238596D02*
X90243775Y-92124310D01*
X90243775Y-92124310D02*
X90243775Y-92048119D01*
X90243775Y-92048119D02*
X90205680Y-91933834D01*
X90205680Y-91933834D02*
X90167584Y-91895738D01*
X90167584Y-91895738D02*
X89900918Y-91895738D01*
X89900918Y-91895738D02*
X89900918Y-92048119D01*
X90243775Y-91552881D02*
X89443775Y-91552881D01*
X89443775Y-91552881D02*
X90243775Y-91095738D01*
X90243775Y-91095738D02*
X89443775Y-91095738D01*
X90243775Y-90714786D02*
X89443775Y-90714786D01*
X89443775Y-90714786D02*
X89443775Y-90524310D01*
X89443775Y-90524310D02*
X89481870Y-90410024D01*
X89481870Y-90410024D02*
X89558060Y-90333834D01*
X89558060Y-90333834D02*
X89634251Y-90295739D01*
X89634251Y-90295739D02*
X89786632Y-90257643D01*
X89786632Y-90257643D02*
X89900918Y-90257643D01*
X89900918Y-90257643D02*
X90053299Y-90295739D01*
X90053299Y-90295739D02*
X90129489Y-90333834D01*
X90129489Y-90333834D02*
X90205680Y-90410024D01*
X90205680Y-90410024D02*
X90243775Y-90524310D01*
X90243775Y-90524310D02*
X90243775Y-90714786D01*
X89481870Y-95683834D02*
X89443775Y-95760024D01*
X89443775Y-95760024D02*
X89443775Y-95874310D01*
X89443775Y-95874310D02*
X89481870Y-95988596D01*
X89481870Y-95988596D02*
X89558060Y-96064786D01*
X89558060Y-96064786D02*
X89634251Y-96102881D01*
X89634251Y-96102881D02*
X89786632Y-96140977D01*
X89786632Y-96140977D02*
X89900918Y-96140977D01*
X89900918Y-96140977D02*
X90053299Y-96102881D01*
X90053299Y-96102881D02*
X90129489Y-96064786D01*
X90129489Y-96064786D02*
X90205680Y-95988596D01*
X90205680Y-95988596D02*
X90243775Y-95874310D01*
X90243775Y-95874310D02*
X90243775Y-95798119D01*
X90243775Y-95798119D02*
X90205680Y-95683834D01*
X90205680Y-95683834D02*
X90167584Y-95645738D01*
X90167584Y-95645738D02*
X89900918Y-95645738D01*
X89900918Y-95645738D02*
X89900918Y-95798119D01*
X90243775Y-95302881D02*
X89443775Y-95302881D01*
X89443775Y-95302881D02*
X90243775Y-94845738D01*
X90243775Y-94845738D02*
X89443775Y-94845738D01*
X90243775Y-94464786D02*
X89443775Y-94464786D01*
X89443775Y-94464786D02*
X89443775Y-94274310D01*
X89443775Y-94274310D02*
X89481870Y-94160024D01*
X89481870Y-94160024D02*
X89558060Y-94083834D01*
X89558060Y-94083834D02*
X89634251Y-94045739D01*
X89634251Y-94045739D02*
X89786632Y-94007643D01*
X89786632Y-94007643D02*
X89900918Y-94007643D01*
X89900918Y-94007643D02*
X90053299Y-94045739D01*
X90053299Y-94045739D02*
X90129489Y-94083834D01*
X90129489Y-94083834D02*
X90205680Y-94160024D01*
X90205680Y-94160024D02*
X90243775Y-94274310D01*
X90243775Y-94274310D02*
X90243775Y-94464786D01*
X90243775Y-98395738D02*
X89443775Y-98395738D01*
X90243775Y-98014786D02*
X89443775Y-98014786D01*
X89443775Y-98014786D02*
X90243775Y-97557643D01*
X90243775Y-97557643D02*
X89443775Y-97557643D01*
X90243775Y-97138596D02*
X90243775Y-96986215D01*
X90243775Y-96986215D02*
X90205680Y-96910025D01*
X90205680Y-96910025D02*
X90167584Y-96871929D01*
X90167584Y-96871929D02*
X90053299Y-96795739D01*
X90053299Y-96795739D02*
X89900918Y-96757644D01*
X89900918Y-96757644D02*
X89596156Y-96757644D01*
X89596156Y-96757644D02*
X89519965Y-96795739D01*
X89519965Y-96795739D02*
X89481870Y-96833834D01*
X89481870Y-96833834D02*
X89443775Y-96910025D01*
X89443775Y-96910025D02*
X89443775Y-97062406D01*
X89443775Y-97062406D02*
X89481870Y-97138596D01*
X89481870Y-97138596D02*
X89519965Y-97176691D01*
X89519965Y-97176691D02*
X89596156Y-97214787D01*
X89596156Y-97214787D02*
X89786632Y-97214787D01*
X89786632Y-97214787D02*
X89862822Y-97176691D01*
X89862822Y-97176691D02*
X89900918Y-97138596D01*
X89900918Y-97138596D02*
X89939013Y-97062406D01*
X89939013Y-97062406D02*
X89939013Y-96910025D01*
X89939013Y-96910025D02*
X89900918Y-96833834D01*
X89900918Y-96833834D02*
X89862822Y-96795739D01*
X89862822Y-96795739D02*
X89786632Y-96757644D01*
X89443775Y-100950501D02*
X89443775Y-100455263D01*
X89443775Y-100455263D02*
X89748537Y-100721929D01*
X89748537Y-100721929D02*
X89748537Y-100607644D01*
X89748537Y-100607644D02*
X89786632Y-100531453D01*
X89786632Y-100531453D02*
X89824727Y-100493358D01*
X89824727Y-100493358D02*
X89900918Y-100455263D01*
X89900918Y-100455263D02*
X90091394Y-100455263D01*
X90091394Y-100455263D02*
X90167584Y-100493358D01*
X90167584Y-100493358D02*
X90205680Y-100531453D01*
X90205680Y-100531453D02*
X90243775Y-100607644D01*
X90243775Y-100607644D02*
X90243775Y-100836215D01*
X90243775Y-100836215D02*
X90205680Y-100912406D01*
X90205680Y-100912406D02*
X90167584Y-100950501D01*
X89443775Y-100226691D02*
X90243775Y-99960024D01*
X90243775Y-99960024D02*
X89443775Y-99693358D01*
X89443775Y-99502882D02*
X89443775Y-99007644D01*
X89443775Y-99007644D02*
X89748537Y-99274310D01*
X89748537Y-99274310D02*
X89748537Y-99160025D01*
X89748537Y-99160025D02*
X89786632Y-99083834D01*
X89786632Y-99083834D02*
X89824727Y-99045739D01*
X89824727Y-99045739D02*
X89900918Y-99007644D01*
X89900918Y-99007644D02*
X90091394Y-99007644D01*
X90091394Y-99007644D02*
X90167584Y-99045739D01*
X90167584Y-99045739D02*
X90205680Y-99083834D01*
X90205680Y-99083834D02*
X90243775Y-99160025D01*
X90243775Y-99160025D02*
X90243775Y-99388596D01*
X90243775Y-99388596D02*
X90205680Y-99464787D01*
X90205680Y-99464787D02*
X90167584Y-99502882D01*
X93453775Y-82427844D02*
X92653775Y-82427844D01*
X92653775Y-82427844D02*
X92653775Y-82123082D01*
X92653775Y-82123082D02*
X92691870Y-82046892D01*
X92691870Y-82046892D02*
X92729965Y-82008797D01*
X92729965Y-82008797D02*
X92806156Y-81970701D01*
X92806156Y-81970701D02*
X92920441Y-81970701D01*
X92920441Y-81970701D02*
X92996632Y-82008797D01*
X92996632Y-82008797D02*
X93034727Y-82046892D01*
X93034727Y-82046892D02*
X93072822Y-82123082D01*
X93072822Y-82123082D02*
X93072822Y-82427844D01*
X93225203Y-81665940D02*
X93225203Y-81284987D01*
X93453775Y-81742130D02*
X92653775Y-81475463D01*
X92653775Y-81475463D02*
X93453775Y-81208797D01*
X93453775Y-80523083D02*
X93453775Y-80980226D01*
X93453775Y-80751654D02*
X92653775Y-80751654D01*
X92653775Y-80751654D02*
X92768060Y-80827845D01*
X92768060Y-80827845D02*
X92844251Y-80904035D01*
X92844251Y-80904035D02*
X92882346Y-80980226D01*
X95953775Y-82427844D02*
X95153775Y-82427844D01*
X95153775Y-82427844D02*
X95153775Y-82123082D01*
X95153775Y-82123082D02*
X95191870Y-82046892D01*
X95191870Y-82046892D02*
X95229965Y-82008797D01*
X95229965Y-82008797D02*
X95306156Y-81970701D01*
X95306156Y-81970701D02*
X95420441Y-81970701D01*
X95420441Y-81970701D02*
X95496632Y-82008797D01*
X95496632Y-82008797D02*
X95534727Y-82046892D01*
X95534727Y-82046892D02*
X95572822Y-82123082D01*
X95572822Y-82123082D02*
X95572822Y-82427844D01*
X95725203Y-81665940D02*
X95725203Y-81284987D01*
X95953775Y-81742130D02*
X95153775Y-81475463D01*
X95153775Y-81475463D02*
X95953775Y-81208797D01*
X95153775Y-80789749D02*
X95153775Y-80713559D01*
X95153775Y-80713559D02*
X95191870Y-80637368D01*
X95191870Y-80637368D02*
X95229965Y-80599273D01*
X95229965Y-80599273D02*
X95306156Y-80561178D01*
X95306156Y-80561178D02*
X95458537Y-80523083D01*
X95458537Y-80523083D02*
X95649013Y-80523083D01*
X95649013Y-80523083D02*
X95801394Y-80561178D01*
X95801394Y-80561178D02*
X95877584Y-80599273D01*
X95877584Y-80599273D02*
X95915680Y-80637368D01*
X95915680Y-80637368D02*
X95953775Y-80713559D01*
X95953775Y-80713559D02*
X95953775Y-80789749D01*
X95953775Y-80789749D02*
X95915680Y-80865940D01*
X95915680Y-80865940D02*
X95877584Y-80904035D01*
X95877584Y-80904035D02*
X95801394Y-80942130D01*
X95801394Y-80942130D02*
X95649013Y-80980226D01*
X95649013Y-80980226D02*
X95458537Y-80980226D01*
X95458537Y-80980226D02*
X95306156Y-80942130D01*
X95306156Y-80942130D02*
X95229965Y-80904035D01*
X95229965Y-80904035D02*
X95191870Y-80865940D01*
X95191870Y-80865940D02*
X95153775Y-80789749D01*
X98703775Y-82556691D02*
X97903775Y-82556691D01*
X97903775Y-82556691D02*
X97903775Y-82251929D01*
X97903775Y-82251929D02*
X97941870Y-82175739D01*
X97941870Y-82175739D02*
X97979965Y-82137644D01*
X97979965Y-82137644D02*
X98056156Y-82099548D01*
X98056156Y-82099548D02*
X98170441Y-82099548D01*
X98170441Y-82099548D02*
X98246632Y-82137644D01*
X98246632Y-82137644D02*
X98284727Y-82175739D01*
X98284727Y-82175739D02*
X98322822Y-82251929D01*
X98322822Y-82251929D02*
X98322822Y-82556691D01*
X98627584Y-81299548D02*
X98665680Y-81337644D01*
X98665680Y-81337644D02*
X98703775Y-81451929D01*
X98703775Y-81451929D02*
X98703775Y-81528120D01*
X98703775Y-81528120D02*
X98665680Y-81642406D01*
X98665680Y-81642406D02*
X98589489Y-81718596D01*
X98589489Y-81718596D02*
X98513299Y-81756691D01*
X98513299Y-81756691D02*
X98360918Y-81794787D01*
X98360918Y-81794787D02*
X98246632Y-81794787D01*
X98246632Y-81794787D02*
X98094251Y-81756691D01*
X98094251Y-81756691D02*
X98018060Y-81718596D01*
X98018060Y-81718596D02*
X97941870Y-81642406D01*
X97941870Y-81642406D02*
X97903775Y-81528120D01*
X97903775Y-81528120D02*
X97903775Y-81451929D01*
X97903775Y-81451929D02*
X97941870Y-81337644D01*
X97941870Y-81337644D02*
X97979965Y-81299548D01*
X97903775Y-81032882D02*
X97903775Y-80537644D01*
X97903775Y-80537644D02*
X98208537Y-80804310D01*
X98208537Y-80804310D02*
X98208537Y-80690025D01*
X98208537Y-80690025D02*
X98246632Y-80613834D01*
X98246632Y-80613834D02*
X98284727Y-80575739D01*
X98284727Y-80575739D02*
X98360918Y-80537644D01*
X98360918Y-80537644D02*
X98551394Y-80537644D01*
X98551394Y-80537644D02*
X98627584Y-80575739D01*
X98627584Y-80575739D02*
X98665680Y-80613834D01*
X98665680Y-80613834D02*
X98703775Y-80690025D01*
X98703775Y-80690025D02*
X98703775Y-80918596D01*
X98703775Y-80918596D02*
X98665680Y-80994787D01*
X98665680Y-80994787D02*
X98627584Y-81032882D01*
X101203775Y-82556691D02*
X100403775Y-82556691D01*
X100403775Y-82556691D02*
X100403775Y-82251929D01*
X100403775Y-82251929D02*
X100441870Y-82175739D01*
X100441870Y-82175739D02*
X100479965Y-82137644D01*
X100479965Y-82137644D02*
X100556156Y-82099548D01*
X100556156Y-82099548D02*
X100670441Y-82099548D01*
X100670441Y-82099548D02*
X100746632Y-82137644D01*
X100746632Y-82137644D02*
X100784727Y-82175739D01*
X100784727Y-82175739D02*
X100822822Y-82251929D01*
X100822822Y-82251929D02*
X100822822Y-82556691D01*
X101127584Y-81299548D02*
X101165680Y-81337644D01*
X101165680Y-81337644D02*
X101203775Y-81451929D01*
X101203775Y-81451929D02*
X101203775Y-81528120D01*
X101203775Y-81528120D02*
X101165680Y-81642406D01*
X101165680Y-81642406D02*
X101089489Y-81718596D01*
X101089489Y-81718596D02*
X101013299Y-81756691D01*
X101013299Y-81756691D02*
X100860918Y-81794787D01*
X100860918Y-81794787D02*
X100746632Y-81794787D01*
X100746632Y-81794787D02*
X100594251Y-81756691D01*
X100594251Y-81756691D02*
X100518060Y-81718596D01*
X100518060Y-81718596D02*
X100441870Y-81642406D01*
X100441870Y-81642406D02*
X100403775Y-81528120D01*
X100403775Y-81528120D02*
X100403775Y-81451929D01*
X100403775Y-81451929D02*
X100441870Y-81337644D01*
X100441870Y-81337644D02*
X100479965Y-81299548D01*
X100479965Y-80994787D02*
X100441870Y-80956691D01*
X100441870Y-80956691D02*
X100403775Y-80880501D01*
X100403775Y-80880501D02*
X100403775Y-80690025D01*
X100403775Y-80690025D02*
X100441870Y-80613834D01*
X100441870Y-80613834D02*
X100479965Y-80575739D01*
X100479965Y-80575739D02*
X100556156Y-80537644D01*
X100556156Y-80537644D02*
X100632346Y-80537644D01*
X100632346Y-80537644D02*
X100746632Y-80575739D01*
X100746632Y-80575739D02*
X101203775Y-81032882D01*
X101203775Y-81032882D02*
X101203775Y-80537644D01*
X103703775Y-82556691D02*
X102903775Y-82556691D01*
X102903775Y-82556691D02*
X102903775Y-82251929D01*
X102903775Y-82251929D02*
X102941870Y-82175739D01*
X102941870Y-82175739D02*
X102979965Y-82137644D01*
X102979965Y-82137644D02*
X103056156Y-82099548D01*
X103056156Y-82099548D02*
X103170441Y-82099548D01*
X103170441Y-82099548D02*
X103246632Y-82137644D01*
X103246632Y-82137644D02*
X103284727Y-82175739D01*
X103284727Y-82175739D02*
X103322822Y-82251929D01*
X103322822Y-82251929D02*
X103322822Y-82556691D01*
X103627584Y-81299548D02*
X103665680Y-81337644D01*
X103665680Y-81337644D02*
X103703775Y-81451929D01*
X103703775Y-81451929D02*
X103703775Y-81528120D01*
X103703775Y-81528120D02*
X103665680Y-81642406D01*
X103665680Y-81642406D02*
X103589489Y-81718596D01*
X103589489Y-81718596D02*
X103513299Y-81756691D01*
X103513299Y-81756691D02*
X103360918Y-81794787D01*
X103360918Y-81794787D02*
X103246632Y-81794787D01*
X103246632Y-81794787D02*
X103094251Y-81756691D01*
X103094251Y-81756691D02*
X103018060Y-81718596D01*
X103018060Y-81718596D02*
X102941870Y-81642406D01*
X102941870Y-81642406D02*
X102903775Y-81528120D01*
X102903775Y-81528120D02*
X102903775Y-81451929D01*
X102903775Y-81451929D02*
X102941870Y-81337644D01*
X102941870Y-81337644D02*
X102979965Y-81299548D01*
X103703775Y-80537644D02*
X103703775Y-80994787D01*
X103703775Y-80766215D02*
X102903775Y-80766215D01*
X102903775Y-80766215D02*
X103018060Y-80842406D01*
X103018060Y-80842406D02*
X103094251Y-80918596D01*
X103094251Y-80918596D02*
X103132346Y-80994787D01*
X106203775Y-82556691D02*
X105403775Y-82556691D01*
X105403775Y-82556691D02*
X105403775Y-82251929D01*
X105403775Y-82251929D02*
X105441870Y-82175739D01*
X105441870Y-82175739D02*
X105479965Y-82137644D01*
X105479965Y-82137644D02*
X105556156Y-82099548D01*
X105556156Y-82099548D02*
X105670441Y-82099548D01*
X105670441Y-82099548D02*
X105746632Y-82137644D01*
X105746632Y-82137644D02*
X105784727Y-82175739D01*
X105784727Y-82175739D02*
X105822822Y-82251929D01*
X105822822Y-82251929D02*
X105822822Y-82556691D01*
X106127584Y-81299548D02*
X106165680Y-81337644D01*
X106165680Y-81337644D02*
X106203775Y-81451929D01*
X106203775Y-81451929D02*
X106203775Y-81528120D01*
X106203775Y-81528120D02*
X106165680Y-81642406D01*
X106165680Y-81642406D02*
X106089489Y-81718596D01*
X106089489Y-81718596D02*
X106013299Y-81756691D01*
X106013299Y-81756691D02*
X105860918Y-81794787D01*
X105860918Y-81794787D02*
X105746632Y-81794787D01*
X105746632Y-81794787D02*
X105594251Y-81756691D01*
X105594251Y-81756691D02*
X105518060Y-81718596D01*
X105518060Y-81718596D02*
X105441870Y-81642406D01*
X105441870Y-81642406D02*
X105403775Y-81528120D01*
X105403775Y-81528120D02*
X105403775Y-81451929D01*
X105403775Y-81451929D02*
X105441870Y-81337644D01*
X105441870Y-81337644D02*
X105479965Y-81299548D01*
X105403775Y-80804310D02*
X105403775Y-80728120D01*
X105403775Y-80728120D02*
X105441870Y-80651929D01*
X105441870Y-80651929D02*
X105479965Y-80613834D01*
X105479965Y-80613834D02*
X105556156Y-80575739D01*
X105556156Y-80575739D02*
X105708537Y-80537644D01*
X105708537Y-80537644D02*
X105899013Y-80537644D01*
X105899013Y-80537644D02*
X106051394Y-80575739D01*
X106051394Y-80575739D02*
X106127584Y-80613834D01*
X106127584Y-80613834D02*
X106165680Y-80651929D01*
X106165680Y-80651929D02*
X106203775Y-80728120D01*
X106203775Y-80728120D02*
X106203775Y-80804310D01*
X106203775Y-80804310D02*
X106165680Y-80880501D01*
X106165680Y-80880501D02*
X106127584Y-80918596D01*
X106127584Y-80918596D02*
X106051394Y-80956691D01*
X106051394Y-80956691D02*
X105899013Y-80994787D01*
X105899013Y-80994787D02*
X105708537Y-80994787D01*
X105708537Y-80994787D02*
X105556156Y-80956691D01*
X105556156Y-80956691D02*
X105479965Y-80918596D01*
X105479965Y-80918596D02*
X105441870Y-80880501D01*
X105441870Y-80880501D02*
X105403775Y-80804310D01*
X108703775Y-83318596D02*
X107903775Y-83318596D01*
X107903775Y-83318596D02*
X107903775Y-83013834D01*
X107903775Y-83013834D02*
X107941870Y-82937644D01*
X107941870Y-82937644D02*
X107979965Y-82899549D01*
X107979965Y-82899549D02*
X108056156Y-82861453D01*
X108056156Y-82861453D02*
X108170441Y-82861453D01*
X108170441Y-82861453D02*
X108246632Y-82899549D01*
X108246632Y-82899549D02*
X108284727Y-82937644D01*
X108284727Y-82937644D02*
X108322822Y-83013834D01*
X108322822Y-83013834D02*
X108322822Y-83318596D01*
X108627584Y-82061453D02*
X108665680Y-82099549D01*
X108665680Y-82099549D02*
X108703775Y-82213834D01*
X108703775Y-82213834D02*
X108703775Y-82290025D01*
X108703775Y-82290025D02*
X108665680Y-82404311D01*
X108665680Y-82404311D02*
X108589489Y-82480501D01*
X108589489Y-82480501D02*
X108513299Y-82518596D01*
X108513299Y-82518596D02*
X108360918Y-82556692D01*
X108360918Y-82556692D02*
X108246632Y-82556692D01*
X108246632Y-82556692D02*
X108094251Y-82518596D01*
X108094251Y-82518596D02*
X108018060Y-82480501D01*
X108018060Y-82480501D02*
X107941870Y-82404311D01*
X107941870Y-82404311D02*
X107903775Y-82290025D01*
X107903775Y-82290025D02*
X107903775Y-82213834D01*
X107903775Y-82213834D02*
X107941870Y-82099549D01*
X107941870Y-82099549D02*
X107979965Y-82061453D01*
X108703775Y-81299549D02*
X108703775Y-81756692D01*
X108703775Y-81528120D02*
X107903775Y-81528120D01*
X107903775Y-81528120D02*
X108018060Y-81604311D01*
X108018060Y-81604311D02*
X108094251Y-81680501D01*
X108094251Y-81680501D02*
X108132346Y-81756692D01*
X107903775Y-80575739D02*
X107903775Y-80956691D01*
X107903775Y-80956691D02*
X108284727Y-80994787D01*
X108284727Y-80994787D02*
X108246632Y-80956691D01*
X108246632Y-80956691D02*
X108208537Y-80880501D01*
X108208537Y-80880501D02*
X108208537Y-80690025D01*
X108208537Y-80690025D02*
X108246632Y-80613834D01*
X108246632Y-80613834D02*
X108284727Y-80575739D01*
X108284727Y-80575739D02*
X108360918Y-80537644D01*
X108360918Y-80537644D02*
X108551394Y-80537644D01*
X108551394Y-80537644D02*
X108627584Y-80575739D01*
X108627584Y-80575739D02*
X108665680Y-80613834D01*
X108665680Y-80613834D02*
X108703775Y-80690025D01*
X108703775Y-80690025D02*
X108703775Y-80880501D01*
X108703775Y-80880501D02*
X108665680Y-80956691D01*
X108665680Y-80956691D02*
X108627584Y-80994787D01*
X111453775Y-83318596D02*
X110653775Y-83318596D01*
X110653775Y-83318596D02*
X110653775Y-83013834D01*
X110653775Y-83013834D02*
X110691870Y-82937644D01*
X110691870Y-82937644D02*
X110729965Y-82899549D01*
X110729965Y-82899549D02*
X110806156Y-82861453D01*
X110806156Y-82861453D02*
X110920441Y-82861453D01*
X110920441Y-82861453D02*
X110996632Y-82899549D01*
X110996632Y-82899549D02*
X111034727Y-82937644D01*
X111034727Y-82937644D02*
X111072822Y-83013834D01*
X111072822Y-83013834D02*
X111072822Y-83318596D01*
X111377584Y-82061453D02*
X111415680Y-82099549D01*
X111415680Y-82099549D02*
X111453775Y-82213834D01*
X111453775Y-82213834D02*
X111453775Y-82290025D01*
X111453775Y-82290025D02*
X111415680Y-82404311D01*
X111415680Y-82404311D02*
X111339489Y-82480501D01*
X111339489Y-82480501D02*
X111263299Y-82518596D01*
X111263299Y-82518596D02*
X111110918Y-82556692D01*
X111110918Y-82556692D02*
X110996632Y-82556692D01*
X110996632Y-82556692D02*
X110844251Y-82518596D01*
X110844251Y-82518596D02*
X110768060Y-82480501D01*
X110768060Y-82480501D02*
X110691870Y-82404311D01*
X110691870Y-82404311D02*
X110653775Y-82290025D01*
X110653775Y-82290025D02*
X110653775Y-82213834D01*
X110653775Y-82213834D02*
X110691870Y-82099549D01*
X110691870Y-82099549D02*
X110729965Y-82061453D01*
X111453775Y-81299549D02*
X111453775Y-81756692D01*
X111453775Y-81528120D02*
X110653775Y-81528120D01*
X110653775Y-81528120D02*
X110768060Y-81604311D01*
X110768060Y-81604311D02*
X110844251Y-81680501D01*
X110844251Y-81680501D02*
X110882346Y-81756692D01*
X110920441Y-80613834D02*
X111453775Y-80613834D01*
X110615680Y-80804310D02*
X111187108Y-80994787D01*
X111187108Y-80994787D02*
X111187108Y-80499548D01*
X113953775Y-83318596D02*
X113153775Y-83318596D01*
X113153775Y-83318596D02*
X113153775Y-83013834D01*
X113153775Y-83013834D02*
X113191870Y-82937644D01*
X113191870Y-82937644D02*
X113229965Y-82899549D01*
X113229965Y-82899549D02*
X113306156Y-82861453D01*
X113306156Y-82861453D02*
X113420441Y-82861453D01*
X113420441Y-82861453D02*
X113496632Y-82899549D01*
X113496632Y-82899549D02*
X113534727Y-82937644D01*
X113534727Y-82937644D02*
X113572822Y-83013834D01*
X113572822Y-83013834D02*
X113572822Y-83318596D01*
X113877584Y-82061453D02*
X113915680Y-82099549D01*
X113915680Y-82099549D02*
X113953775Y-82213834D01*
X113953775Y-82213834D02*
X113953775Y-82290025D01*
X113953775Y-82290025D02*
X113915680Y-82404311D01*
X113915680Y-82404311D02*
X113839489Y-82480501D01*
X113839489Y-82480501D02*
X113763299Y-82518596D01*
X113763299Y-82518596D02*
X113610918Y-82556692D01*
X113610918Y-82556692D02*
X113496632Y-82556692D01*
X113496632Y-82556692D02*
X113344251Y-82518596D01*
X113344251Y-82518596D02*
X113268060Y-82480501D01*
X113268060Y-82480501D02*
X113191870Y-82404311D01*
X113191870Y-82404311D02*
X113153775Y-82290025D01*
X113153775Y-82290025D02*
X113153775Y-82213834D01*
X113153775Y-82213834D02*
X113191870Y-82099549D01*
X113191870Y-82099549D02*
X113229965Y-82061453D01*
X113953775Y-81299549D02*
X113953775Y-81756692D01*
X113953775Y-81528120D02*
X113153775Y-81528120D01*
X113153775Y-81528120D02*
X113268060Y-81604311D01*
X113268060Y-81604311D02*
X113344251Y-81680501D01*
X113344251Y-81680501D02*
X113382346Y-81756692D01*
X113153775Y-81032882D02*
X113153775Y-80537644D01*
X113153775Y-80537644D02*
X113458537Y-80804310D01*
X113458537Y-80804310D02*
X113458537Y-80690025D01*
X113458537Y-80690025D02*
X113496632Y-80613834D01*
X113496632Y-80613834D02*
X113534727Y-80575739D01*
X113534727Y-80575739D02*
X113610918Y-80537644D01*
X113610918Y-80537644D02*
X113801394Y-80537644D01*
X113801394Y-80537644D02*
X113877584Y-80575739D01*
X113877584Y-80575739D02*
X113915680Y-80613834D01*
X113915680Y-80613834D02*
X113953775Y-80690025D01*
X113953775Y-80690025D02*
X113953775Y-80918596D01*
X113953775Y-80918596D02*
X113915680Y-80994787D01*
X113915680Y-80994787D02*
X113877584Y-81032882D01*
X116453775Y-82556691D02*
X115653775Y-82556691D01*
X115653775Y-82556691D02*
X115653775Y-82251929D01*
X115653775Y-82251929D02*
X115691870Y-82175739D01*
X115691870Y-82175739D02*
X115729965Y-82137644D01*
X115729965Y-82137644D02*
X115806156Y-82099548D01*
X115806156Y-82099548D02*
X115920441Y-82099548D01*
X115920441Y-82099548D02*
X115996632Y-82137644D01*
X115996632Y-82137644D02*
X116034727Y-82175739D01*
X116034727Y-82175739D02*
X116072822Y-82251929D01*
X116072822Y-82251929D02*
X116072822Y-82556691D01*
X116034727Y-81490025D02*
X116072822Y-81375739D01*
X116072822Y-81375739D02*
X116110918Y-81337644D01*
X116110918Y-81337644D02*
X116187108Y-81299548D01*
X116187108Y-81299548D02*
X116301394Y-81299548D01*
X116301394Y-81299548D02*
X116377584Y-81337644D01*
X116377584Y-81337644D02*
X116415680Y-81375739D01*
X116415680Y-81375739D02*
X116453775Y-81451929D01*
X116453775Y-81451929D02*
X116453775Y-81756691D01*
X116453775Y-81756691D02*
X115653775Y-81756691D01*
X115653775Y-81756691D02*
X115653775Y-81490025D01*
X115653775Y-81490025D02*
X115691870Y-81413834D01*
X115691870Y-81413834D02*
X115729965Y-81375739D01*
X115729965Y-81375739D02*
X115806156Y-81337644D01*
X115806156Y-81337644D02*
X115882346Y-81337644D01*
X115882346Y-81337644D02*
X115958537Y-81375739D01*
X115958537Y-81375739D02*
X115996632Y-81413834D01*
X115996632Y-81413834D02*
X116034727Y-81490025D01*
X116034727Y-81490025D02*
X116034727Y-81756691D01*
X116453775Y-80918596D02*
X116453775Y-80766215D01*
X116453775Y-80766215D02*
X116415680Y-80690025D01*
X116415680Y-80690025D02*
X116377584Y-80651929D01*
X116377584Y-80651929D02*
X116263299Y-80575739D01*
X116263299Y-80575739D02*
X116110918Y-80537644D01*
X116110918Y-80537644D02*
X115806156Y-80537644D01*
X115806156Y-80537644D02*
X115729965Y-80575739D01*
X115729965Y-80575739D02*
X115691870Y-80613834D01*
X115691870Y-80613834D02*
X115653775Y-80690025D01*
X115653775Y-80690025D02*
X115653775Y-80842406D01*
X115653775Y-80842406D02*
X115691870Y-80918596D01*
X115691870Y-80918596D02*
X115729965Y-80956691D01*
X115729965Y-80956691D02*
X115806156Y-80994787D01*
X115806156Y-80994787D02*
X115996632Y-80994787D01*
X115996632Y-80994787D02*
X116072822Y-80956691D01*
X116072822Y-80956691D02*
X116110918Y-80918596D01*
X116110918Y-80918596D02*
X116149013Y-80842406D01*
X116149013Y-80842406D02*
X116149013Y-80690025D01*
X116149013Y-80690025D02*
X116110918Y-80613834D01*
X116110918Y-80613834D02*
X116072822Y-80575739D01*
X116072822Y-80575739D02*
X115996632Y-80537644D01*
X119203775Y-82556691D02*
X118403775Y-82556691D01*
X118403775Y-82556691D02*
X118403775Y-82251929D01*
X118403775Y-82251929D02*
X118441870Y-82175739D01*
X118441870Y-82175739D02*
X118479965Y-82137644D01*
X118479965Y-82137644D02*
X118556156Y-82099548D01*
X118556156Y-82099548D02*
X118670441Y-82099548D01*
X118670441Y-82099548D02*
X118746632Y-82137644D01*
X118746632Y-82137644D02*
X118784727Y-82175739D01*
X118784727Y-82175739D02*
X118822822Y-82251929D01*
X118822822Y-82251929D02*
X118822822Y-82556691D01*
X118784727Y-81490025D02*
X118822822Y-81375739D01*
X118822822Y-81375739D02*
X118860918Y-81337644D01*
X118860918Y-81337644D02*
X118937108Y-81299548D01*
X118937108Y-81299548D02*
X119051394Y-81299548D01*
X119051394Y-81299548D02*
X119127584Y-81337644D01*
X119127584Y-81337644D02*
X119165680Y-81375739D01*
X119165680Y-81375739D02*
X119203775Y-81451929D01*
X119203775Y-81451929D02*
X119203775Y-81756691D01*
X119203775Y-81756691D02*
X118403775Y-81756691D01*
X118403775Y-81756691D02*
X118403775Y-81490025D01*
X118403775Y-81490025D02*
X118441870Y-81413834D01*
X118441870Y-81413834D02*
X118479965Y-81375739D01*
X118479965Y-81375739D02*
X118556156Y-81337644D01*
X118556156Y-81337644D02*
X118632346Y-81337644D01*
X118632346Y-81337644D02*
X118708537Y-81375739D01*
X118708537Y-81375739D02*
X118746632Y-81413834D01*
X118746632Y-81413834D02*
X118784727Y-81490025D01*
X118784727Y-81490025D02*
X118784727Y-81756691D01*
X118403775Y-80613834D02*
X118403775Y-80766215D01*
X118403775Y-80766215D02*
X118441870Y-80842406D01*
X118441870Y-80842406D02*
X118479965Y-80880501D01*
X118479965Y-80880501D02*
X118594251Y-80956691D01*
X118594251Y-80956691D02*
X118746632Y-80994787D01*
X118746632Y-80994787D02*
X119051394Y-80994787D01*
X119051394Y-80994787D02*
X119127584Y-80956691D01*
X119127584Y-80956691D02*
X119165680Y-80918596D01*
X119165680Y-80918596D02*
X119203775Y-80842406D01*
X119203775Y-80842406D02*
X119203775Y-80690025D01*
X119203775Y-80690025D02*
X119165680Y-80613834D01*
X119165680Y-80613834D02*
X119127584Y-80575739D01*
X119127584Y-80575739D02*
X119051394Y-80537644D01*
X119051394Y-80537644D02*
X118860918Y-80537644D01*
X118860918Y-80537644D02*
X118784727Y-80575739D01*
X118784727Y-80575739D02*
X118746632Y-80613834D01*
X118746632Y-80613834D02*
X118708537Y-80690025D01*
X118708537Y-80690025D02*
X118708537Y-80842406D01*
X118708537Y-80842406D02*
X118746632Y-80918596D01*
X118746632Y-80918596D02*
X118784727Y-80956691D01*
X118784727Y-80956691D02*
X118860918Y-80994787D01*
X121453775Y-82556691D02*
X120653775Y-82556691D01*
X120653775Y-82556691D02*
X120653775Y-82251929D01*
X120653775Y-82251929D02*
X120691870Y-82175739D01*
X120691870Y-82175739D02*
X120729965Y-82137644D01*
X120729965Y-82137644D02*
X120806156Y-82099548D01*
X120806156Y-82099548D02*
X120920441Y-82099548D01*
X120920441Y-82099548D02*
X120996632Y-82137644D01*
X120996632Y-82137644D02*
X121034727Y-82175739D01*
X121034727Y-82175739D02*
X121072822Y-82251929D01*
X121072822Y-82251929D02*
X121072822Y-82556691D01*
X121034727Y-81490025D02*
X121072822Y-81375739D01*
X121072822Y-81375739D02*
X121110918Y-81337644D01*
X121110918Y-81337644D02*
X121187108Y-81299548D01*
X121187108Y-81299548D02*
X121301394Y-81299548D01*
X121301394Y-81299548D02*
X121377584Y-81337644D01*
X121377584Y-81337644D02*
X121415680Y-81375739D01*
X121415680Y-81375739D02*
X121453775Y-81451929D01*
X121453775Y-81451929D02*
X121453775Y-81756691D01*
X121453775Y-81756691D02*
X120653775Y-81756691D01*
X120653775Y-81756691D02*
X120653775Y-81490025D01*
X120653775Y-81490025D02*
X120691870Y-81413834D01*
X120691870Y-81413834D02*
X120729965Y-81375739D01*
X120729965Y-81375739D02*
X120806156Y-81337644D01*
X120806156Y-81337644D02*
X120882346Y-81337644D01*
X120882346Y-81337644D02*
X120958537Y-81375739D01*
X120958537Y-81375739D02*
X120996632Y-81413834D01*
X120996632Y-81413834D02*
X121034727Y-81490025D01*
X121034727Y-81490025D02*
X121034727Y-81756691D01*
X120920441Y-80613834D02*
X121453775Y-80613834D01*
X120615680Y-80804310D02*
X121187108Y-80994787D01*
X121187108Y-80994787D02*
X121187108Y-80499548D01*
X123953775Y-82556691D02*
X123153775Y-82556691D01*
X123153775Y-82556691D02*
X123153775Y-82251929D01*
X123153775Y-82251929D02*
X123191870Y-82175739D01*
X123191870Y-82175739D02*
X123229965Y-82137644D01*
X123229965Y-82137644D02*
X123306156Y-82099548D01*
X123306156Y-82099548D02*
X123420441Y-82099548D01*
X123420441Y-82099548D02*
X123496632Y-82137644D01*
X123496632Y-82137644D02*
X123534727Y-82175739D01*
X123534727Y-82175739D02*
X123572822Y-82251929D01*
X123572822Y-82251929D02*
X123572822Y-82556691D01*
X123953775Y-81756691D02*
X123153775Y-81756691D01*
X123153775Y-81756691D02*
X123153775Y-81566215D01*
X123153775Y-81566215D02*
X123191870Y-81451929D01*
X123191870Y-81451929D02*
X123268060Y-81375739D01*
X123268060Y-81375739D02*
X123344251Y-81337644D01*
X123344251Y-81337644D02*
X123496632Y-81299548D01*
X123496632Y-81299548D02*
X123610918Y-81299548D01*
X123610918Y-81299548D02*
X123763299Y-81337644D01*
X123763299Y-81337644D02*
X123839489Y-81375739D01*
X123839489Y-81375739D02*
X123915680Y-81451929D01*
X123915680Y-81451929D02*
X123953775Y-81566215D01*
X123953775Y-81566215D02*
X123953775Y-81756691D01*
X123229965Y-80994787D02*
X123191870Y-80956691D01*
X123191870Y-80956691D02*
X123153775Y-80880501D01*
X123153775Y-80880501D02*
X123153775Y-80690025D01*
X123153775Y-80690025D02*
X123191870Y-80613834D01*
X123191870Y-80613834D02*
X123229965Y-80575739D01*
X123229965Y-80575739D02*
X123306156Y-80537644D01*
X123306156Y-80537644D02*
X123382346Y-80537644D01*
X123382346Y-80537644D02*
X123496632Y-80575739D01*
X123496632Y-80575739D02*
X123953775Y-81032882D01*
X123953775Y-81032882D02*
X123953775Y-80537644D01*
X126453775Y-83318596D02*
X125653775Y-83318596D01*
X125653775Y-83318596D02*
X125653775Y-83013834D01*
X125653775Y-83013834D02*
X125691870Y-82937644D01*
X125691870Y-82937644D02*
X125729965Y-82899549D01*
X125729965Y-82899549D02*
X125806156Y-82861453D01*
X125806156Y-82861453D02*
X125920441Y-82861453D01*
X125920441Y-82861453D02*
X125996632Y-82899549D01*
X125996632Y-82899549D02*
X126034727Y-82937644D01*
X126034727Y-82937644D02*
X126072822Y-83013834D01*
X126072822Y-83013834D02*
X126072822Y-83318596D01*
X126377584Y-82061453D02*
X126415680Y-82099549D01*
X126415680Y-82099549D02*
X126453775Y-82213834D01*
X126453775Y-82213834D02*
X126453775Y-82290025D01*
X126453775Y-82290025D02*
X126415680Y-82404311D01*
X126415680Y-82404311D02*
X126339489Y-82480501D01*
X126339489Y-82480501D02*
X126263299Y-82518596D01*
X126263299Y-82518596D02*
X126110918Y-82556692D01*
X126110918Y-82556692D02*
X125996632Y-82556692D01*
X125996632Y-82556692D02*
X125844251Y-82518596D01*
X125844251Y-82518596D02*
X125768060Y-82480501D01*
X125768060Y-82480501D02*
X125691870Y-82404311D01*
X125691870Y-82404311D02*
X125653775Y-82290025D01*
X125653775Y-82290025D02*
X125653775Y-82213834D01*
X125653775Y-82213834D02*
X125691870Y-82099549D01*
X125691870Y-82099549D02*
X125729965Y-82061453D01*
X126453775Y-81299549D02*
X126453775Y-81756692D01*
X126453775Y-81528120D02*
X125653775Y-81528120D01*
X125653775Y-81528120D02*
X125768060Y-81604311D01*
X125768060Y-81604311D02*
X125844251Y-81680501D01*
X125844251Y-81680501D02*
X125882346Y-81756692D01*
X126453775Y-80537644D02*
X126453775Y-80994787D01*
X126453775Y-80766215D02*
X125653775Y-80766215D01*
X125653775Y-80766215D02*
X125768060Y-80842406D01*
X125768060Y-80842406D02*
X125844251Y-80918596D01*
X125844251Y-80918596D02*
X125882346Y-80994787D01*
X128953775Y-83204310D02*
X128153775Y-83204310D01*
X128153775Y-83204310D02*
X128153775Y-82899548D01*
X128153775Y-82899548D02*
X128191870Y-82823358D01*
X128191870Y-82823358D02*
X128229965Y-82785263D01*
X128229965Y-82785263D02*
X128306156Y-82747167D01*
X128306156Y-82747167D02*
X128420441Y-82747167D01*
X128420441Y-82747167D02*
X128496632Y-82785263D01*
X128496632Y-82785263D02*
X128534727Y-82823358D01*
X128534727Y-82823358D02*
X128572822Y-82899548D01*
X128572822Y-82899548D02*
X128572822Y-83204310D01*
X128725203Y-82442406D02*
X128725203Y-82061453D01*
X128953775Y-82518596D02*
X128153775Y-82251929D01*
X128153775Y-82251929D02*
X128953775Y-81985263D01*
X128953775Y-81299549D02*
X128953775Y-81756692D01*
X128953775Y-81528120D02*
X128153775Y-81528120D01*
X128153775Y-81528120D02*
X128268060Y-81604311D01*
X128268060Y-81604311D02*
X128344251Y-81680501D01*
X128344251Y-81680501D02*
X128382346Y-81756692D01*
X128153775Y-80575739D02*
X128153775Y-80956691D01*
X128153775Y-80956691D02*
X128534727Y-80994787D01*
X128534727Y-80994787D02*
X128496632Y-80956691D01*
X128496632Y-80956691D02*
X128458537Y-80880501D01*
X128458537Y-80880501D02*
X128458537Y-80690025D01*
X128458537Y-80690025D02*
X128496632Y-80613834D01*
X128496632Y-80613834D02*
X128534727Y-80575739D01*
X128534727Y-80575739D02*
X128610918Y-80537644D01*
X128610918Y-80537644D02*
X128801394Y-80537644D01*
X128801394Y-80537644D02*
X128877584Y-80575739D01*
X128877584Y-80575739D02*
X128915680Y-80613834D01*
X128915680Y-80613834D02*
X128953775Y-80690025D01*
X128953775Y-80690025D02*
X128953775Y-80880501D01*
X128953775Y-80880501D02*
X128915680Y-80956691D01*
X128915680Y-80956691D02*
X128877584Y-80994787D01*
X139203775Y-82542130D02*
X138403775Y-82542130D01*
X138403775Y-82542130D02*
X138403775Y-82237368D01*
X138403775Y-82237368D02*
X138441870Y-82161178D01*
X138441870Y-82161178D02*
X138479965Y-82123083D01*
X138479965Y-82123083D02*
X138556156Y-82084987D01*
X138556156Y-82084987D02*
X138670441Y-82084987D01*
X138670441Y-82084987D02*
X138746632Y-82123083D01*
X138746632Y-82123083D02*
X138784727Y-82161178D01*
X138784727Y-82161178D02*
X138822822Y-82237368D01*
X138822822Y-82237368D02*
X138822822Y-82542130D01*
X138784727Y-81475464D02*
X138822822Y-81361178D01*
X138822822Y-81361178D02*
X138860918Y-81323083D01*
X138860918Y-81323083D02*
X138937108Y-81284987D01*
X138937108Y-81284987D02*
X139051394Y-81284987D01*
X139051394Y-81284987D02*
X139127584Y-81323083D01*
X139127584Y-81323083D02*
X139165680Y-81361178D01*
X139165680Y-81361178D02*
X139203775Y-81437368D01*
X139203775Y-81437368D02*
X139203775Y-81742130D01*
X139203775Y-81742130D02*
X138403775Y-81742130D01*
X138403775Y-81742130D02*
X138403775Y-81475464D01*
X138403775Y-81475464D02*
X138441870Y-81399273D01*
X138441870Y-81399273D02*
X138479965Y-81361178D01*
X138479965Y-81361178D02*
X138556156Y-81323083D01*
X138556156Y-81323083D02*
X138632346Y-81323083D01*
X138632346Y-81323083D02*
X138708537Y-81361178D01*
X138708537Y-81361178D02*
X138746632Y-81399273D01*
X138746632Y-81399273D02*
X138784727Y-81475464D01*
X138784727Y-81475464D02*
X138784727Y-81742130D01*
X138403775Y-81018321D02*
X138403775Y-80523083D01*
X138403775Y-80523083D02*
X138708537Y-80789749D01*
X138708537Y-80789749D02*
X138708537Y-80675464D01*
X138708537Y-80675464D02*
X138746632Y-80599273D01*
X138746632Y-80599273D02*
X138784727Y-80561178D01*
X138784727Y-80561178D02*
X138860918Y-80523083D01*
X138860918Y-80523083D02*
X139051394Y-80523083D01*
X139051394Y-80523083D02*
X139127584Y-80561178D01*
X139127584Y-80561178D02*
X139165680Y-80599273D01*
X139165680Y-80599273D02*
X139203775Y-80675464D01*
X139203775Y-80675464D02*
X139203775Y-80904035D01*
X139203775Y-80904035D02*
X139165680Y-80980226D01*
X139165680Y-80980226D02*
X139127584Y-81018321D01*
D11*
X107843333Y-42362080D02*
X107795714Y-42409700D01*
X107795714Y-42409700D02*
X107652857Y-42457319D01*
X107652857Y-42457319D02*
X107557619Y-42457319D01*
X107557619Y-42457319D02*
X107414762Y-42409700D01*
X107414762Y-42409700D02*
X107319524Y-42314461D01*
X107319524Y-42314461D02*
X107271905Y-42219223D01*
X107271905Y-42219223D02*
X107224286Y-42028747D01*
X107224286Y-42028747D02*
X107224286Y-41885890D01*
X107224286Y-41885890D02*
X107271905Y-41695414D01*
X107271905Y-41695414D02*
X107319524Y-41600176D01*
X107319524Y-41600176D02*
X107414762Y-41504938D01*
X107414762Y-41504938D02*
X107557619Y-41457319D01*
X107557619Y-41457319D02*
X107652857Y-41457319D01*
X107652857Y-41457319D02*
X107795714Y-41504938D01*
X107795714Y-41504938D02*
X107843333Y-41552557D01*
X108319524Y-42457319D02*
X108510000Y-42457319D01*
X108510000Y-42457319D02*
X108605238Y-42409700D01*
X108605238Y-42409700D02*
X108652857Y-42362080D01*
X108652857Y-42362080D02*
X108748095Y-42219223D01*
X108748095Y-42219223D02*
X108795714Y-42028747D01*
X108795714Y-42028747D02*
X108795714Y-41647795D01*
X108795714Y-41647795D02*
X108748095Y-41552557D01*
X108748095Y-41552557D02*
X108700476Y-41504938D01*
X108700476Y-41504938D02*
X108605238Y-41457319D01*
X108605238Y-41457319D02*
X108414762Y-41457319D01*
X108414762Y-41457319D02*
X108319524Y-41504938D01*
X108319524Y-41504938D02*
X108271905Y-41552557D01*
X108271905Y-41552557D02*
X108224286Y-41647795D01*
X108224286Y-41647795D02*
X108224286Y-41885890D01*
X108224286Y-41885890D02*
X108271905Y-41981128D01*
X108271905Y-41981128D02*
X108319524Y-42028747D01*
X108319524Y-42028747D02*
X108414762Y-42076366D01*
X108414762Y-42076366D02*
X108605238Y-42076366D01*
X108605238Y-42076366D02*
X108700476Y-42028747D01*
X108700476Y-42028747D02*
X108748095Y-41981128D01*
X108748095Y-41981128D02*
X108795714Y-41885890D01*
X151201665Y-43737200D02*
X151344522Y-43784819D01*
X151344522Y-43784819D02*
X151582617Y-43784819D01*
X151582617Y-43784819D02*
X151677855Y-43737200D01*
X151677855Y-43737200D02*
X151725474Y-43689580D01*
X151725474Y-43689580D02*
X151773093Y-43594342D01*
X151773093Y-43594342D02*
X151773093Y-43499104D01*
X151773093Y-43499104D02*
X151725474Y-43403866D01*
X151725474Y-43403866D02*
X151677855Y-43356247D01*
X151677855Y-43356247D02*
X151582617Y-43308628D01*
X151582617Y-43308628D02*
X151392141Y-43261009D01*
X151392141Y-43261009D02*
X151296903Y-43213390D01*
X151296903Y-43213390D02*
X151249284Y-43165771D01*
X151249284Y-43165771D02*
X151201665Y-43070533D01*
X151201665Y-43070533D02*
X151201665Y-42975295D01*
X151201665Y-42975295D02*
X151249284Y-42880057D01*
X151249284Y-42880057D02*
X151296903Y-42832438D01*
X151296903Y-42832438D02*
X151392141Y-42784819D01*
X151392141Y-42784819D02*
X151630236Y-42784819D01*
X151630236Y-42784819D02*
X151773093Y-42832438D01*
X152106427Y-42784819D02*
X152344522Y-43784819D01*
X152344522Y-43784819D02*
X152534998Y-43070533D01*
X152534998Y-43070533D02*
X152725474Y-43784819D01*
X152725474Y-43784819D02*
X152963570Y-42784819D01*
X153868331Y-43784819D02*
X153296903Y-43784819D01*
X153582617Y-43784819D02*
X153582617Y-42784819D01*
X153582617Y-42784819D02*
X153487379Y-42927676D01*
X153487379Y-42927676D02*
X153392141Y-43022914D01*
X153392141Y-43022914D02*
X153296903Y-43070533D01*
X126243333Y-50189580D02*
X126195714Y-50237200D01*
X126195714Y-50237200D02*
X126052857Y-50284819D01*
X126052857Y-50284819D02*
X125957619Y-50284819D01*
X125957619Y-50284819D02*
X125814762Y-50237200D01*
X125814762Y-50237200D02*
X125719524Y-50141961D01*
X125719524Y-50141961D02*
X125671905Y-50046723D01*
X125671905Y-50046723D02*
X125624286Y-49856247D01*
X125624286Y-49856247D02*
X125624286Y-49713390D01*
X125624286Y-49713390D02*
X125671905Y-49522914D01*
X125671905Y-49522914D02*
X125719524Y-49427676D01*
X125719524Y-49427676D02*
X125814762Y-49332438D01*
X125814762Y-49332438D02*
X125957619Y-49284819D01*
X125957619Y-49284819D02*
X126052857Y-49284819D01*
X126052857Y-49284819D02*
X126195714Y-49332438D01*
X126195714Y-49332438D02*
X126243333Y-49380057D01*
X126576667Y-49284819D02*
X127195714Y-49284819D01*
X127195714Y-49284819D02*
X126862381Y-49665771D01*
X126862381Y-49665771D02*
X127005238Y-49665771D01*
X127005238Y-49665771D02*
X127100476Y-49713390D01*
X127100476Y-49713390D02*
X127148095Y-49761009D01*
X127148095Y-49761009D02*
X127195714Y-49856247D01*
X127195714Y-49856247D02*
X127195714Y-50094342D01*
X127195714Y-50094342D02*
X127148095Y-50189580D01*
X127148095Y-50189580D02*
X127100476Y-50237200D01*
X127100476Y-50237200D02*
X127005238Y-50284819D01*
X127005238Y-50284819D02*
X126719524Y-50284819D01*
X126719524Y-50284819D02*
X126624286Y-50237200D01*
X126624286Y-50237200D02*
X126576667Y-50189580D01*
X78976666Y-26734819D02*
X78976666Y-27449104D01*
X78976666Y-27449104D02*
X78929047Y-27591961D01*
X78929047Y-27591961D02*
X78833809Y-27687200D01*
X78833809Y-27687200D02*
X78690952Y-27734819D01*
X78690952Y-27734819D02*
X78595714Y-27734819D01*
X79881428Y-26734819D02*
X79690952Y-26734819D01*
X79690952Y-26734819D02*
X79595714Y-26782438D01*
X79595714Y-26782438D02*
X79548095Y-26830057D01*
X79548095Y-26830057D02*
X79452857Y-26972914D01*
X79452857Y-26972914D02*
X79405238Y-27163390D01*
X79405238Y-27163390D02*
X79405238Y-27544342D01*
X79405238Y-27544342D02*
X79452857Y-27639580D01*
X79452857Y-27639580D02*
X79500476Y-27687200D01*
X79500476Y-27687200D02*
X79595714Y-27734819D01*
X79595714Y-27734819D02*
X79786190Y-27734819D01*
X79786190Y-27734819D02*
X79881428Y-27687200D01*
X79881428Y-27687200D02*
X79929047Y-27639580D01*
X79929047Y-27639580D02*
X79976666Y-27544342D01*
X79976666Y-27544342D02*
X79976666Y-27306247D01*
X79976666Y-27306247D02*
X79929047Y-27211009D01*
X79929047Y-27211009D02*
X79881428Y-27163390D01*
X79881428Y-27163390D02*
X79786190Y-27115771D01*
X79786190Y-27115771D02*
X79595714Y-27115771D01*
X79595714Y-27115771D02*
X79500476Y-27163390D01*
X79500476Y-27163390D02*
X79452857Y-27211009D01*
X79452857Y-27211009D02*
X79405238Y-27306247D01*
X145243333Y-39784819D02*
X144910000Y-39308628D01*
X144671905Y-39784819D02*
X144671905Y-38784819D01*
X144671905Y-38784819D02*
X145052857Y-38784819D01*
X145052857Y-38784819D02*
X145148095Y-38832438D01*
X145148095Y-38832438D02*
X145195714Y-38880057D01*
X145195714Y-38880057D02*
X145243333Y-38975295D01*
X145243333Y-38975295D02*
X145243333Y-39118152D01*
X145243333Y-39118152D02*
X145195714Y-39213390D01*
X145195714Y-39213390D02*
X145148095Y-39261009D01*
X145148095Y-39261009D02*
X145052857Y-39308628D01*
X145052857Y-39308628D02*
X144671905Y-39308628D01*
X145576667Y-38784819D02*
X146195714Y-38784819D01*
X146195714Y-38784819D02*
X145862381Y-39165771D01*
X145862381Y-39165771D02*
X146005238Y-39165771D01*
X146005238Y-39165771D02*
X146100476Y-39213390D01*
X146100476Y-39213390D02*
X146148095Y-39261009D01*
X146148095Y-39261009D02*
X146195714Y-39356247D01*
X146195714Y-39356247D02*
X146195714Y-39594342D01*
X146195714Y-39594342D02*
X146148095Y-39689580D01*
X146148095Y-39689580D02*
X146100476Y-39737200D01*
X146100476Y-39737200D02*
X146005238Y-39784819D01*
X146005238Y-39784819D02*
X145719524Y-39784819D01*
X145719524Y-39784819D02*
X145624286Y-39737200D01*
X145624286Y-39737200D02*
X145576667Y-39689580D01*
X157826666Y-124794819D02*
X157826666Y-125509104D01*
X157826666Y-125509104D02*
X157779047Y-125651961D01*
X157779047Y-125651961D02*
X157683809Y-125747200D01*
X157683809Y-125747200D02*
X157540952Y-125794819D01*
X157540952Y-125794819D02*
X157445714Y-125794819D01*
X158826666Y-125794819D02*
X158255238Y-125794819D01*
X158540952Y-125794819D02*
X158540952Y-124794819D01*
X158540952Y-124794819D02*
X158445714Y-124937676D01*
X158445714Y-124937676D02*
X158350476Y-125032914D01*
X158350476Y-125032914D02*
X158255238Y-125080533D01*
X145976667Y-134187200D02*
X146119524Y-134234819D01*
X146119524Y-134234819D02*
X146357619Y-134234819D01*
X146357619Y-134234819D02*
X146452857Y-134187200D01*
X146452857Y-134187200D02*
X146500476Y-134139580D01*
X146500476Y-134139580D02*
X146548095Y-134044342D01*
X146548095Y-134044342D02*
X146548095Y-133949104D01*
X146548095Y-133949104D02*
X146500476Y-133853866D01*
X146500476Y-133853866D02*
X146452857Y-133806247D01*
X146452857Y-133806247D02*
X146357619Y-133758628D01*
X146357619Y-133758628D02*
X146167143Y-133711009D01*
X146167143Y-133711009D02*
X146071905Y-133663390D01*
X146071905Y-133663390D02*
X146024286Y-133615771D01*
X146024286Y-133615771D02*
X145976667Y-133520533D01*
X145976667Y-133520533D02*
X145976667Y-133425295D01*
X145976667Y-133425295D02*
X146024286Y-133330057D01*
X146024286Y-133330057D02*
X146071905Y-133282438D01*
X146071905Y-133282438D02*
X146167143Y-133234819D01*
X146167143Y-133234819D02*
X146405238Y-133234819D01*
X146405238Y-133234819D02*
X146548095Y-133282438D01*
X146881429Y-133234819D02*
X147119524Y-134234819D01*
X147119524Y-134234819D02*
X147310000Y-133520533D01*
X147310000Y-133520533D02*
X147500476Y-134234819D01*
X147500476Y-134234819D02*
X147738572Y-133234819D01*
X148071905Y-133330057D02*
X148119524Y-133282438D01*
X148119524Y-133282438D02*
X148214762Y-133234819D01*
X148214762Y-133234819D02*
X148452857Y-133234819D01*
X148452857Y-133234819D02*
X148548095Y-133282438D01*
X148548095Y-133282438D02*
X148595714Y-133330057D01*
X148595714Y-133330057D02*
X148643333Y-133425295D01*
X148643333Y-133425295D02*
X148643333Y-133520533D01*
X148643333Y-133520533D02*
X148595714Y-133663390D01*
X148595714Y-133663390D02*
X148024286Y-134234819D01*
X148024286Y-134234819D02*
X148643333Y-134234819D01*
X115993333Y-146199580D02*
X115945714Y-146247200D01*
X115945714Y-146247200D02*
X115802857Y-146294819D01*
X115802857Y-146294819D02*
X115707619Y-146294819D01*
X115707619Y-146294819D02*
X115564762Y-146247200D01*
X115564762Y-146247200D02*
X115469524Y-146151961D01*
X115469524Y-146151961D02*
X115421905Y-146056723D01*
X115421905Y-146056723D02*
X115374286Y-145866247D01*
X115374286Y-145866247D02*
X115374286Y-145723390D01*
X115374286Y-145723390D02*
X115421905Y-145532914D01*
X115421905Y-145532914D02*
X115469524Y-145437676D01*
X115469524Y-145437676D02*
X115564762Y-145342438D01*
X115564762Y-145342438D02*
X115707619Y-145294819D01*
X115707619Y-145294819D02*
X115802857Y-145294819D01*
X115802857Y-145294819D02*
X115945714Y-145342438D01*
X115945714Y-145342438D02*
X115993333Y-145390057D01*
X116850476Y-145294819D02*
X116660000Y-145294819D01*
X116660000Y-145294819D02*
X116564762Y-145342438D01*
X116564762Y-145342438D02*
X116517143Y-145390057D01*
X116517143Y-145390057D02*
X116421905Y-145532914D01*
X116421905Y-145532914D02*
X116374286Y-145723390D01*
X116374286Y-145723390D02*
X116374286Y-146104342D01*
X116374286Y-146104342D02*
X116421905Y-146199580D01*
X116421905Y-146199580D02*
X116469524Y-146247200D01*
X116469524Y-146247200D02*
X116564762Y-146294819D01*
X116564762Y-146294819D02*
X116755238Y-146294819D01*
X116755238Y-146294819D02*
X116850476Y-146247200D01*
X116850476Y-146247200D02*
X116898095Y-146199580D01*
X116898095Y-146199580D02*
X116945714Y-146104342D01*
X116945714Y-146104342D02*
X116945714Y-145866247D01*
X116945714Y-145866247D02*
X116898095Y-145771009D01*
X116898095Y-145771009D02*
X116850476Y-145723390D01*
X116850476Y-145723390D02*
X116755238Y-145675771D01*
X116755238Y-145675771D02*
X116564762Y-145675771D01*
X116564762Y-145675771D02*
X116469524Y-145723390D01*
X116469524Y-145723390D02*
X116421905Y-145771009D01*
X116421905Y-145771009D02*
X116374286Y-145866247D01*
X86143333Y-37639580D02*
X86095714Y-37687200D01*
X86095714Y-37687200D02*
X85952857Y-37734819D01*
X85952857Y-37734819D02*
X85857619Y-37734819D01*
X85857619Y-37734819D02*
X85714762Y-37687200D01*
X85714762Y-37687200D02*
X85619524Y-37591961D01*
X85619524Y-37591961D02*
X85571905Y-37496723D01*
X85571905Y-37496723D02*
X85524286Y-37306247D01*
X85524286Y-37306247D02*
X85524286Y-37163390D01*
X85524286Y-37163390D02*
X85571905Y-36972914D01*
X85571905Y-36972914D02*
X85619524Y-36877676D01*
X85619524Y-36877676D02*
X85714762Y-36782438D01*
X85714762Y-36782438D02*
X85857619Y-36734819D01*
X85857619Y-36734819D02*
X85952857Y-36734819D01*
X85952857Y-36734819D02*
X86095714Y-36782438D01*
X86095714Y-36782438D02*
X86143333Y-36830057D01*
X86714762Y-37163390D02*
X86619524Y-37115771D01*
X86619524Y-37115771D02*
X86571905Y-37068152D01*
X86571905Y-37068152D02*
X86524286Y-36972914D01*
X86524286Y-36972914D02*
X86524286Y-36925295D01*
X86524286Y-36925295D02*
X86571905Y-36830057D01*
X86571905Y-36830057D02*
X86619524Y-36782438D01*
X86619524Y-36782438D02*
X86714762Y-36734819D01*
X86714762Y-36734819D02*
X86905238Y-36734819D01*
X86905238Y-36734819D02*
X87000476Y-36782438D01*
X87000476Y-36782438D02*
X87048095Y-36830057D01*
X87048095Y-36830057D02*
X87095714Y-36925295D01*
X87095714Y-36925295D02*
X87095714Y-36972914D01*
X87095714Y-36972914D02*
X87048095Y-37068152D01*
X87048095Y-37068152D02*
X87000476Y-37115771D01*
X87000476Y-37115771D02*
X86905238Y-37163390D01*
X86905238Y-37163390D02*
X86714762Y-37163390D01*
X86714762Y-37163390D02*
X86619524Y-37211009D01*
X86619524Y-37211009D02*
X86571905Y-37258628D01*
X86571905Y-37258628D02*
X86524286Y-37353866D01*
X86524286Y-37353866D02*
X86524286Y-37544342D01*
X86524286Y-37544342D02*
X86571905Y-37639580D01*
X86571905Y-37639580D02*
X86619524Y-37687200D01*
X86619524Y-37687200D02*
X86714762Y-37734819D01*
X86714762Y-37734819D02*
X86905238Y-37734819D01*
X86905238Y-37734819D02*
X87000476Y-37687200D01*
X87000476Y-37687200D02*
X87048095Y-37639580D01*
X87048095Y-37639580D02*
X87095714Y-37544342D01*
X87095714Y-37544342D02*
X87095714Y-37353866D01*
X87095714Y-37353866D02*
X87048095Y-37258628D01*
X87048095Y-37258628D02*
X87000476Y-37211009D01*
X87000476Y-37211009D02*
X86905238Y-37163390D01*
X143246905Y-40784819D02*
X143246905Y-39784819D01*
X143246905Y-39784819D02*
X143485000Y-39784819D01*
X143485000Y-39784819D02*
X143627857Y-39832438D01*
X143627857Y-39832438D02*
X143723095Y-39927676D01*
X143723095Y-39927676D02*
X143770714Y-40022914D01*
X143770714Y-40022914D02*
X143818333Y-40213390D01*
X143818333Y-40213390D02*
X143818333Y-40356247D01*
X143818333Y-40356247D02*
X143770714Y-40546723D01*
X143770714Y-40546723D02*
X143723095Y-40641961D01*
X143723095Y-40641961D02*
X143627857Y-40737200D01*
X143627857Y-40737200D02*
X143485000Y-40784819D01*
X143485000Y-40784819D02*
X143246905Y-40784819D01*
X144199286Y-39880057D02*
X144246905Y-39832438D01*
X144246905Y-39832438D02*
X144342143Y-39784819D01*
X144342143Y-39784819D02*
X144580238Y-39784819D01*
X144580238Y-39784819D02*
X144675476Y-39832438D01*
X144675476Y-39832438D02*
X144723095Y-39880057D01*
X144723095Y-39880057D02*
X144770714Y-39975295D01*
X144770714Y-39975295D02*
X144770714Y-40070533D01*
X144770714Y-40070533D02*
X144723095Y-40213390D01*
X144723095Y-40213390D02*
X144151667Y-40784819D01*
X144151667Y-40784819D02*
X144770714Y-40784819D01*
X136993333Y-144544819D02*
X136660000Y-144068628D01*
X136421905Y-144544819D02*
X136421905Y-143544819D01*
X136421905Y-143544819D02*
X136802857Y-143544819D01*
X136802857Y-143544819D02*
X136898095Y-143592438D01*
X136898095Y-143592438D02*
X136945714Y-143640057D01*
X136945714Y-143640057D02*
X136993333Y-143735295D01*
X136993333Y-143735295D02*
X136993333Y-143878152D01*
X136993333Y-143878152D02*
X136945714Y-143973390D01*
X136945714Y-143973390D02*
X136898095Y-144021009D01*
X136898095Y-144021009D02*
X136802857Y-144068628D01*
X136802857Y-144068628D02*
X136421905Y-144068628D01*
X137374286Y-143640057D02*
X137421905Y-143592438D01*
X137421905Y-143592438D02*
X137517143Y-143544819D01*
X137517143Y-143544819D02*
X137755238Y-143544819D01*
X137755238Y-143544819D02*
X137850476Y-143592438D01*
X137850476Y-143592438D02*
X137898095Y-143640057D01*
X137898095Y-143640057D02*
X137945714Y-143735295D01*
X137945714Y-143735295D02*
X137945714Y-143830533D01*
X137945714Y-143830533D02*
X137898095Y-143973390D01*
X137898095Y-143973390D02*
X137326667Y-144544819D01*
X137326667Y-144544819D02*
X137945714Y-144544819D01*
X129556666Y-29734819D02*
X129556666Y-30449104D01*
X129556666Y-30449104D02*
X129509047Y-30591961D01*
X129509047Y-30591961D02*
X129413809Y-30687200D01*
X129413809Y-30687200D02*
X129270952Y-30734819D01*
X129270952Y-30734819D02*
X129175714Y-30734819D01*
X129985238Y-29830057D02*
X130032857Y-29782438D01*
X130032857Y-29782438D02*
X130128095Y-29734819D01*
X130128095Y-29734819D02*
X130366190Y-29734819D01*
X130366190Y-29734819D02*
X130461428Y-29782438D01*
X130461428Y-29782438D02*
X130509047Y-29830057D01*
X130509047Y-29830057D02*
X130556666Y-29925295D01*
X130556666Y-29925295D02*
X130556666Y-30020533D01*
X130556666Y-30020533D02*
X130509047Y-30163390D01*
X130509047Y-30163390D02*
X129937619Y-30734819D01*
X129937619Y-30734819D02*
X130556666Y-30734819D01*
X156717142Y-33652080D02*
X156669523Y-33699700D01*
X156669523Y-33699700D02*
X156526666Y-33747319D01*
X156526666Y-33747319D02*
X156431428Y-33747319D01*
X156431428Y-33747319D02*
X156288571Y-33699700D01*
X156288571Y-33699700D02*
X156193333Y-33604461D01*
X156193333Y-33604461D02*
X156145714Y-33509223D01*
X156145714Y-33509223D02*
X156098095Y-33318747D01*
X156098095Y-33318747D02*
X156098095Y-33175890D01*
X156098095Y-33175890D02*
X156145714Y-32985414D01*
X156145714Y-32985414D02*
X156193333Y-32890176D01*
X156193333Y-32890176D02*
X156288571Y-32794938D01*
X156288571Y-32794938D02*
X156431428Y-32747319D01*
X156431428Y-32747319D02*
X156526666Y-32747319D01*
X156526666Y-32747319D02*
X156669523Y-32794938D01*
X156669523Y-32794938D02*
X156717142Y-32842557D01*
X157669523Y-33747319D02*
X157098095Y-33747319D01*
X157383809Y-33747319D02*
X157383809Y-32747319D01*
X157383809Y-32747319D02*
X157288571Y-32890176D01*
X157288571Y-32890176D02*
X157193333Y-32985414D01*
X157193333Y-32985414D02*
X157098095Y-33033033D01*
X158050476Y-32842557D02*
X158098095Y-32794938D01*
X158098095Y-32794938D02*
X158193333Y-32747319D01*
X158193333Y-32747319D02*
X158431428Y-32747319D01*
X158431428Y-32747319D02*
X158526666Y-32794938D01*
X158526666Y-32794938D02*
X158574285Y-32842557D01*
X158574285Y-32842557D02*
X158621904Y-32937795D01*
X158621904Y-32937795D02*
X158621904Y-33033033D01*
X158621904Y-33033033D02*
X158574285Y-33175890D01*
X158574285Y-33175890D02*
X158002857Y-33747319D01*
X158002857Y-33747319D02*
X158621904Y-33747319D01*
X124968333Y-140057319D02*
X124635000Y-139581128D01*
X124396905Y-140057319D02*
X124396905Y-139057319D01*
X124396905Y-139057319D02*
X124777857Y-139057319D01*
X124777857Y-139057319D02*
X124873095Y-139104938D01*
X124873095Y-139104938D02*
X124920714Y-139152557D01*
X124920714Y-139152557D02*
X124968333Y-139247795D01*
X124968333Y-139247795D02*
X124968333Y-139390652D01*
X124968333Y-139390652D02*
X124920714Y-139485890D01*
X124920714Y-139485890D02*
X124873095Y-139533509D01*
X124873095Y-139533509D02*
X124777857Y-139581128D01*
X124777857Y-139581128D02*
X124396905Y-139581128D01*
X125825476Y-139390652D02*
X125825476Y-140057319D01*
X125587381Y-139009700D02*
X125349286Y-139723985D01*
X125349286Y-139723985D02*
X125968333Y-139723985D01*
X66167142Y-39724580D02*
X66119523Y-39772200D01*
X66119523Y-39772200D02*
X65976666Y-39819819D01*
X65976666Y-39819819D02*
X65881428Y-39819819D01*
X65881428Y-39819819D02*
X65738571Y-39772200D01*
X65738571Y-39772200D02*
X65643333Y-39676961D01*
X65643333Y-39676961D02*
X65595714Y-39581723D01*
X65595714Y-39581723D02*
X65548095Y-39391247D01*
X65548095Y-39391247D02*
X65548095Y-39248390D01*
X65548095Y-39248390D02*
X65595714Y-39057914D01*
X65595714Y-39057914D02*
X65643333Y-38962676D01*
X65643333Y-38962676D02*
X65738571Y-38867438D01*
X65738571Y-38867438D02*
X65881428Y-38819819D01*
X65881428Y-38819819D02*
X65976666Y-38819819D01*
X65976666Y-38819819D02*
X66119523Y-38867438D01*
X66119523Y-38867438D02*
X66167142Y-38915057D01*
X67119523Y-39819819D02*
X66548095Y-39819819D01*
X66833809Y-39819819D02*
X66833809Y-38819819D01*
X66833809Y-38819819D02*
X66738571Y-38962676D01*
X66738571Y-38962676D02*
X66643333Y-39057914D01*
X66643333Y-39057914D02*
X66548095Y-39105533D01*
X68071904Y-39819819D02*
X67500476Y-39819819D01*
X67786190Y-39819819D02*
X67786190Y-38819819D01*
X67786190Y-38819819D02*
X67690952Y-38962676D01*
X67690952Y-38962676D02*
X67595714Y-39057914D01*
X67595714Y-39057914D02*
X67500476Y-39105533D01*
X131485595Y-135919819D02*
X131485595Y-136729342D01*
X131485595Y-136729342D02*
X131533214Y-136824580D01*
X131533214Y-136824580D02*
X131580833Y-136872200D01*
X131580833Y-136872200D02*
X131676071Y-136919819D01*
X131676071Y-136919819D02*
X131866547Y-136919819D01*
X131866547Y-136919819D02*
X131961785Y-136872200D01*
X131961785Y-136872200D02*
X132009404Y-136824580D01*
X132009404Y-136824580D02*
X132057023Y-136729342D01*
X132057023Y-136729342D02*
X132057023Y-135919819D01*
X132485595Y-136015057D02*
X132533214Y-135967438D01*
X132533214Y-135967438D02*
X132628452Y-135919819D01*
X132628452Y-135919819D02*
X132866547Y-135919819D01*
X132866547Y-135919819D02*
X132961785Y-135967438D01*
X132961785Y-135967438D02*
X133009404Y-136015057D01*
X133009404Y-136015057D02*
X133057023Y-136110295D01*
X133057023Y-136110295D02*
X133057023Y-136205533D01*
X133057023Y-136205533D02*
X133009404Y-136348390D01*
X133009404Y-136348390D02*
X132437976Y-136919819D01*
X132437976Y-136919819D02*
X133057023Y-136919819D01*
X57726666Y-39484819D02*
X57726666Y-40199104D01*
X57726666Y-40199104D02*
X57679047Y-40341961D01*
X57679047Y-40341961D02*
X57583809Y-40437200D01*
X57583809Y-40437200D02*
X57440952Y-40484819D01*
X57440952Y-40484819D02*
X57345714Y-40484819D01*
X58679047Y-39484819D02*
X58202857Y-39484819D01*
X58202857Y-39484819D02*
X58155238Y-39961009D01*
X58155238Y-39961009D02*
X58202857Y-39913390D01*
X58202857Y-39913390D02*
X58298095Y-39865771D01*
X58298095Y-39865771D02*
X58536190Y-39865771D01*
X58536190Y-39865771D02*
X58631428Y-39913390D01*
X58631428Y-39913390D02*
X58679047Y-39961009D01*
X58679047Y-39961009D02*
X58726666Y-40056247D01*
X58726666Y-40056247D02*
X58726666Y-40294342D01*
X58726666Y-40294342D02*
X58679047Y-40389580D01*
X58679047Y-40389580D02*
X58631428Y-40437200D01*
X58631428Y-40437200D02*
X58536190Y-40484819D01*
X58536190Y-40484819D02*
X58298095Y-40484819D01*
X58298095Y-40484819D02*
X58202857Y-40437200D01*
X58202857Y-40437200D02*
X58155238Y-40389580D01*
X125793333Y-127839580D02*
X125745714Y-127887200D01*
X125745714Y-127887200D02*
X125602857Y-127934819D01*
X125602857Y-127934819D02*
X125507619Y-127934819D01*
X125507619Y-127934819D02*
X125364762Y-127887200D01*
X125364762Y-127887200D02*
X125269524Y-127791961D01*
X125269524Y-127791961D02*
X125221905Y-127696723D01*
X125221905Y-127696723D02*
X125174286Y-127506247D01*
X125174286Y-127506247D02*
X125174286Y-127363390D01*
X125174286Y-127363390D02*
X125221905Y-127172914D01*
X125221905Y-127172914D02*
X125269524Y-127077676D01*
X125269524Y-127077676D02*
X125364762Y-126982438D01*
X125364762Y-126982438D02*
X125507619Y-126934819D01*
X125507619Y-126934819D02*
X125602857Y-126934819D01*
X125602857Y-126934819D02*
X125745714Y-126982438D01*
X125745714Y-126982438D02*
X125793333Y-127030057D01*
X126698095Y-126934819D02*
X126221905Y-126934819D01*
X126221905Y-126934819D02*
X126174286Y-127411009D01*
X126174286Y-127411009D02*
X126221905Y-127363390D01*
X126221905Y-127363390D02*
X126317143Y-127315771D01*
X126317143Y-127315771D02*
X126555238Y-127315771D01*
X126555238Y-127315771D02*
X126650476Y-127363390D01*
X126650476Y-127363390D02*
X126698095Y-127411009D01*
X126698095Y-127411009D02*
X126745714Y-127506247D01*
X126745714Y-127506247D02*
X126745714Y-127744342D01*
X126745714Y-127744342D02*
X126698095Y-127839580D01*
X126698095Y-127839580D02*
X126650476Y-127887200D01*
X126650476Y-127887200D02*
X126555238Y-127934819D01*
X126555238Y-127934819D02*
X126317143Y-127934819D01*
X126317143Y-127934819D02*
X126221905Y-127887200D01*
X126221905Y-127887200D02*
X126174286Y-127839580D01*
X127993333Y-144699580D02*
X127945714Y-144747200D01*
X127945714Y-144747200D02*
X127802857Y-144794819D01*
X127802857Y-144794819D02*
X127707619Y-144794819D01*
X127707619Y-144794819D02*
X127564762Y-144747200D01*
X127564762Y-144747200D02*
X127469524Y-144651961D01*
X127469524Y-144651961D02*
X127421905Y-144556723D01*
X127421905Y-144556723D02*
X127374286Y-144366247D01*
X127374286Y-144366247D02*
X127374286Y-144223390D01*
X127374286Y-144223390D02*
X127421905Y-144032914D01*
X127421905Y-144032914D02*
X127469524Y-143937676D01*
X127469524Y-143937676D02*
X127564762Y-143842438D01*
X127564762Y-143842438D02*
X127707619Y-143794819D01*
X127707619Y-143794819D02*
X127802857Y-143794819D01*
X127802857Y-143794819D02*
X127945714Y-143842438D01*
X127945714Y-143842438D02*
X127993333Y-143890057D01*
X128850476Y-144128152D02*
X128850476Y-144794819D01*
X128612381Y-143747200D02*
X128374286Y-144461485D01*
X128374286Y-144461485D02*
X128993333Y-144461485D01*
X113026666Y-49836009D02*
X112693333Y-49836009D01*
X112693333Y-50359819D02*
X112693333Y-49359819D01*
X112693333Y-49359819D02*
X113169523Y-49359819D01*
X113883809Y-49836009D02*
X114026666Y-49883628D01*
X114026666Y-49883628D02*
X114074285Y-49931247D01*
X114074285Y-49931247D02*
X114121904Y-50026485D01*
X114121904Y-50026485D02*
X114121904Y-50169342D01*
X114121904Y-50169342D02*
X114074285Y-50264580D01*
X114074285Y-50264580D02*
X114026666Y-50312200D01*
X114026666Y-50312200D02*
X113931428Y-50359819D01*
X113931428Y-50359819D02*
X113550476Y-50359819D01*
X113550476Y-50359819D02*
X113550476Y-49359819D01*
X113550476Y-49359819D02*
X113883809Y-49359819D01*
X113883809Y-49359819D02*
X113979047Y-49407438D01*
X113979047Y-49407438D02*
X114026666Y-49455057D01*
X114026666Y-49455057D02*
X114074285Y-49550295D01*
X114074285Y-49550295D02*
X114074285Y-49645533D01*
X114074285Y-49645533D02*
X114026666Y-49740771D01*
X114026666Y-49740771D02*
X113979047Y-49788390D01*
X113979047Y-49788390D02*
X113883809Y-49836009D01*
X113883809Y-49836009D02*
X113550476Y-49836009D01*
X115074285Y-50359819D02*
X114502857Y-50359819D01*
X114788571Y-50359819D02*
X114788571Y-49359819D01*
X114788571Y-49359819D02*
X114693333Y-49502676D01*
X114693333Y-49502676D02*
X114598095Y-49597914D01*
X114598095Y-49597914D02*
X114502857Y-49645533D01*
X128142142Y-133624580D02*
X128094523Y-133672200D01*
X128094523Y-133672200D02*
X127951666Y-133719819D01*
X127951666Y-133719819D02*
X127856428Y-133719819D01*
X127856428Y-133719819D02*
X127713571Y-133672200D01*
X127713571Y-133672200D02*
X127618333Y-133576961D01*
X127618333Y-133576961D02*
X127570714Y-133481723D01*
X127570714Y-133481723D02*
X127523095Y-133291247D01*
X127523095Y-133291247D02*
X127523095Y-133148390D01*
X127523095Y-133148390D02*
X127570714Y-132957914D01*
X127570714Y-132957914D02*
X127618333Y-132862676D01*
X127618333Y-132862676D02*
X127713571Y-132767438D01*
X127713571Y-132767438D02*
X127856428Y-132719819D01*
X127856428Y-132719819D02*
X127951666Y-132719819D01*
X127951666Y-132719819D02*
X128094523Y-132767438D01*
X128094523Y-132767438D02*
X128142142Y-132815057D01*
X129094523Y-133719819D02*
X128523095Y-133719819D01*
X128808809Y-133719819D02*
X128808809Y-132719819D01*
X128808809Y-132719819D02*
X128713571Y-132862676D01*
X128713571Y-132862676D02*
X128618333Y-132957914D01*
X128618333Y-132957914D02*
X128523095Y-133005533D01*
X129951666Y-133053152D02*
X129951666Y-133719819D01*
X129713571Y-132672200D02*
X129475476Y-133386485D01*
X129475476Y-133386485D02*
X130094523Y-133386485D01*
X118360595Y-137519819D02*
X118360595Y-138329342D01*
X118360595Y-138329342D02*
X118408214Y-138424580D01*
X118408214Y-138424580D02*
X118455833Y-138472200D01*
X118455833Y-138472200D02*
X118551071Y-138519819D01*
X118551071Y-138519819D02*
X118741547Y-138519819D01*
X118741547Y-138519819D02*
X118836785Y-138472200D01*
X118836785Y-138472200D02*
X118884404Y-138424580D01*
X118884404Y-138424580D02*
X118932023Y-138329342D01*
X118932023Y-138329342D02*
X118932023Y-137519819D01*
X119312976Y-137519819D02*
X119932023Y-137519819D01*
X119932023Y-137519819D02*
X119598690Y-137900771D01*
X119598690Y-137900771D02*
X119741547Y-137900771D01*
X119741547Y-137900771D02*
X119836785Y-137948390D01*
X119836785Y-137948390D02*
X119884404Y-137996009D01*
X119884404Y-137996009D02*
X119932023Y-138091247D01*
X119932023Y-138091247D02*
X119932023Y-138329342D01*
X119932023Y-138329342D02*
X119884404Y-138424580D01*
X119884404Y-138424580D02*
X119836785Y-138472200D01*
X119836785Y-138472200D02*
X119741547Y-138519819D01*
X119741547Y-138519819D02*
X119455833Y-138519819D01*
X119455833Y-138519819D02*
X119360595Y-138472200D01*
X119360595Y-138472200D02*
X119312976Y-138424580D01*
X141433809Y-51733628D02*
X141433809Y-52209819D01*
X141100476Y-51209819D02*
X141433809Y-51733628D01*
X141433809Y-51733628D02*
X141767142Y-51209819D01*
X142624285Y-52209819D02*
X142052857Y-52209819D01*
X142338571Y-52209819D02*
X142338571Y-51209819D01*
X142338571Y-51209819D02*
X142243333Y-51352676D01*
X142243333Y-51352676D02*
X142148095Y-51447914D01*
X142148095Y-51447914D02*
X142052857Y-51495533D01*
X123489580Y-84696666D02*
X123537200Y-84744285D01*
X123537200Y-84744285D02*
X123584819Y-84887142D01*
X123584819Y-84887142D02*
X123584819Y-84982380D01*
X123584819Y-84982380D02*
X123537200Y-85125237D01*
X123537200Y-85125237D02*
X123441961Y-85220475D01*
X123441961Y-85220475D02*
X123346723Y-85268094D01*
X123346723Y-85268094D02*
X123156247Y-85315713D01*
X123156247Y-85315713D02*
X123013390Y-85315713D01*
X123013390Y-85315713D02*
X122822914Y-85268094D01*
X122822914Y-85268094D02*
X122727676Y-85220475D01*
X122727676Y-85220475D02*
X122632438Y-85125237D01*
X122632438Y-85125237D02*
X122584819Y-84982380D01*
X122584819Y-84982380D02*
X122584819Y-84887142D01*
X122584819Y-84887142D02*
X122632438Y-84744285D01*
X122632438Y-84744285D02*
X122680057Y-84696666D01*
X122584819Y-84363332D02*
X122584819Y-83696666D01*
X122584819Y-83696666D02*
X123584819Y-84125237D01*
X140175834Y-44724580D02*
X140128215Y-44772200D01*
X140128215Y-44772200D02*
X139985358Y-44819819D01*
X139985358Y-44819819D02*
X139890120Y-44819819D01*
X139890120Y-44819819D02*
X139747263Y-44772200D01*
X139747263Y-44772200D02*
X139652025Y-44676961D01*
X139652025Y-44676961D02*
X139604406Y-44581723D01*
X139604406Y-44581723D02*
X139556787Y-44391247D01*
X139556787Y-44391247D02*
X139556787Y-44248390D01*
X139556787Y-44248390D02*
X139604406Y-44057914D01*
X139604406Y-44057914D02*
X139652025Y-43962676D01*
X139652025Y-43962676D02*
X139747263Y-43867438D01*
X139747263Y-43867438D02*
X139890120Y-43819819D01*
X139890120Y-43819819D02*
X139985358Y-43819819D01*
X139985358Y-43819819D02*
X140128215Y-43867438D01*
X140128215Y-43867438D02*
X140175834Y-43915057D01*
X141128215Y-44819819D02*
X140556787Y-44819819D01*
X140842501Y-44819819D02*
X140842501Y-43819819D01*
X140842501Y-43819819D02*
X140747263Y-43962676D01*
X140747263Y-43962676D02*
X140652025Y-44057914D01*
X140652025Y-44057914D02*
X140556787Y-44105533D01*
X134129642Y-134199580D02*
X134082023Y-134247200D01*
X134082023Y-134247200D02*
X133939166Y-134294819D01*
X133939166Y-134294819D02*
X133843928Y-134294819D01*
X133843928Y-134294819D02*
X133701071Y-134247200D01*
X133701071Y-134247200D02*
X133605833Y-134151961D01*
X133605833Y-134151961D02*
X133558214Y-134056723D01*
X133558214Y-134056723D02*
X133510595Y-133866247D01*
X133510595Y-133866247D02*
X133510595Y-133723390D01*
X133510595Y-133723390D02*
X133558214Y-133532914D01*
X133558214Y-133532914D02*
X133605833Y-133437676D01*
X133605833Y-133437676D02*
X133701071Y-133342438D01*
X133701071Y-133342438D02*
X133843928Y-133294819D01*
X133843928Y-133294819D02*
X133939166Y-133294819D01*
X133939166Y-133294819D02*
X134082023Y-133342438D01*
X134082023Y-133342438D02*
X134129642Y-133390057D01*
X135082023Y-134294819D02*
X134510595Y-134294819D01*
X134796309Y-134294819D02*
X134796309Y-133294819D01*
X134796309Y-133294819D02*
X134701071Y-133437676D01*
X134701071Y-133437676D02*
X134605833Y-133532914D01*
X134605833Y-133532914D02*
X134510595Y-133580533D01*
X135986785Y-133294819D02*
X135510595Y-133294819D01*
X135510595Y-133294819D02*
X135462976Y-133771009D01*
X135462976Y-133771009D02*
X135510595Y-133723390D01*
X135510595Y-133723390D02*
X135605833Y-133675771D01*
X135605833Y-133675771D02*
X135843928Y-133675771D01*
X135843928Y-133675771D02*
X135939166Y-133723390D01*
X135939166Y-133723390D02*
X135986785Y-133771009D01*
X135986785Y-133771009D02*
X136034404Y-133866247D01*
X136034404Y-133866247D02*
X136034404Y-134104342D01*
X136034404Y-134104342D02*
X135986785Y-134199580D01*
X135986785Y-134199580D02*
X135939166Y-134247200D01*
X135939166Y-134247200D02*
X135843928Y-134294819D01*
X135843928Y-134294819D02*
X135605833Y-134294819D01*
X135605833Y-134294819D02*
X135510595Y-134247200D01*
X135510595Y-134247200D02*
X135462976Y-134199580D01*
X74136666Y-56014819D02*
X74136666Y-56729104D01*
X74136666Y-56729104D02*
X74089047Y-56871961D01*
X74089047Y-56871961D02*
X73993809Y-56967200D01*
X73993809Y-56967200D02*
X73850952Y-57014819D01*
X73850952Y-57014819D02*
X73755714Y-57014819D01*
X74517619Y-56014819D02*
X75136666Y-56014819D01*
X75136666Y-56014819D02*
X74803333Y-56395771D01*
X74803333Y-56395771D02*
X74946190Y-56395771D01*
X74946190Y-56395771D02*
X75041428Y-56443390D01*
X75041428Y-56443390D02*
X75089047Y-56491009D01*
X75089047Y-56491009D02*
X75136666Y-56586247D01*
X75136666Y-56586247D02*
X75136666Y-56824342D01*
X75136666Y-56824342D02*
X75089047Y-56919580D01*
X75089047Y-56919580D02*
X75041428Y-56967200D01*
X75041428Y-56967200D02*
X74946190Y-57014819D01*
X74946190Y-57014819D02*
X74660476Y-57014819D01*
X74660476Y-57014819D02*
X74565238Y-56967200D01*
X74565238Y-56967200D02*
X74517619Y-56919580D01*
X47466666Y-49104819D02*
X47133333Y-48628628D01*
X46895238Y-49104819D02*
X46895238Y-48104819D01*
X46895238Y-48104819D02*
X47276190Y-48104819D01*
X47276190Y-48104819D02*
X47371428Y-48152438D01*
X47371428Y-48152438D02*
X47419047Y-48200057D01*
X47419047Y-48200057D02*
X47466666Y-48295295D01*
X47466666Y-48295295D02*
X47466666Y-48438152D01*
X47466666Y-48438152D02*
X47419047Y-48533390D01*
X47419047Y-48533390D02*
X47371428Y-48581009D01*
X47371428Y-48581009D02*
X47276190Y-48628628D01*
X47276190Y-48628628D02*
X46895238Y-48628628D01*
X47895238Y-48581009D02*
X48228571Y-48581009D01*
X48371428Y-49104819D02*
X47895238Y-49104819D01*
X47895238Y-49104819D02*
X47895238Y-48104819D01*
X47895238Y-48104819D02*
X48371428Y-48104819D01*
X49133333Y-48581009D02*
X48800000Y-48581009D01*
X48800000Y-49104819D02*
X48800000Y-48104819D01*
X48800000Y-48104819D02*
X49276190Y-48104819D01*
X49800000Y-48104819D02*
X49800000Y-48342914D01*
X49561905Y-48247676D02*
X49800000Y-48342914D01*
X49800000Y-48342914D02*
X50038095Y-48247676D01*
X49657143Y-48533390D02*
X49800000Y-48342914D01*
X49800000Y-48342914D02*
X49942857Y-48533390D01*
X50561905Y-48104819D02*
X50561905Y-48342914D01*
X50323810Y-48247676D02*
X50561905Y-48342914D01*
X50561905Y-48342914D02*
X50800000Y-48247676D01*
X50419048Y-48533390D02*
X50561905Y-48342914D01*
X50561905Y-48342914D02*
X50704762Y-48533390D01*
X101743333Y-128487080D02*
X101695714Y-128534700D01*
X101695714Y-128534700D02*
X101552857Y-128582319D01*
X101552857Y-128582319D02*
X101457619Y-128582319D01*
X101457619Y-128582319D02*
X101314762Y-128534700D01*
X101314762Y-128534700D02*
X101219524Y-128439461D01*
X101219524Y-128439461D02*
X101171905Y-128344223D01*
X101171905Y-128344223D02*
X101124286Y-128153747D01*
X101124286Y-128153747D02*
X101124286Y-128010890D01*
X101124286Y-128010890D02*
X101171905Y-127820414D01*
X101171905Y-127820414D02*
X101219524Y-127725176D01*
X101219524Y-127725176D02*
X101314762Y-127629938D01*
X101314762Y-127629938D02*
X101457619Y-127582319D01*
X101457619Y-127582319D02*
X101552857Y-127582319D01*
X101552857Y-127582319D02*
X101695714Y-127629938D01*
X101695714Y-127629938D02*
X101743333Y-127677557D01*
X102124286Y-127677557D02*
X102171905Y-127629938D01*
X102171905Y-127629938D02*
X102267143Y-127582319D01*
X102267143Y-127582319D02*
X102505238Y-127582319D01*
X102505238Y-127582319D02*
X102600476Y-127629938D01*
X102600476Y-127629938D02*
X102648095Y-127677557D01*
X102648095Y-127677557D02*
X102695714Y-127772795D01*
X102695714Y-127772795D02*
X102695714Y-127868033D01*
X102695714Y-127868033D02*
X102648095Y-128010890D01*
X102648095Y-128010890D02*
X102076667Y-128582319D01*
X102076667Y-128582319D02*
X102695714Y-128582319D01*
X70226666Y-55484819D02*
X70226666Y-56199104D01*
X70226666Y-56199104D02*
X70179047Y-56341961D01*
X70179047Y-56341961D02*
X70083809Y-56437200D01*
X70083809Y-56437200D02*
X69940952Y-56484819D01*
X69940952Y-56484819D02*
X69845714Y-56484819D01*
X71131428Y-55818152D02*
X71131428Y-56484819D01*
X70893333Y-55437200D02*
X70655238Y-56151485D01*
X70655238Y-56151485D02*
X71274285Y-56151485D01*
X90026666Y-27764819D02*
X89693333Y-27288628D01*
X89455238Y-27764819D02*
X89455238Y-26764819D01*
X89455238Y-26764819D02*
X89836190Y-26764819D01*
X89836190Y-26764819D02*
X89931428Y-26812438D01*
X89931428Y-26812438D02*
X89979047Y-26860057D01*
X89979047Y-26860057D02*
X90026666Y-26955295D01*
X90026666Y-26955295D02*
X90026666Y-27098152D01*
X90026666Y-27098152D02*
X89979047Y-27193390D01*
X89979047Y-27193390D02*
X89931428Y-27241009D01*
X89931428Y-27241009D02*
X89836190Y-27288628D01*
X89836190Y-27288628D02*
X89455238Y-27288628D01*
X90455238Y-27241009D02*
X90788571Y-27241009D01*
X90931428Y-27764819D02*
X90455238Y-27764819D01*
X90455238Y-27764819D02*
X90455238Y-26764819D01*
X90455238Y-26764819D02*
X90931428Y-26764819D01*
X91693333Y-27241009D02*
X91360000Y-27241009D01*
X91360000Y-27764819D02*
X91360000Y-26764819D01*
X91360000Y-26764819D02*
X91836190Y-26764819D01*
X92360000Y-26764819D02*
X92360000Y-27002914D01*
X92121905Y-26907676D02*
X92360000Y-27002914D01*
X92360000Y-27002914D02*
X92598095Y-26907676D01*
X92217143Y-27193390D02*
X92360000Y-27002914D01*
X92360000Y-27002914D02*
X92502857Y-27193390D01*
X93121905Y-26764819D02*
X93121905Y-27002914D01*
X92883810Y-26907676D02*
X93121905Y-27002914D01*
X93121905Y-27002914D02*
X93360000Y-26907676D01*
X92979048Y-27193390D02*
X93121905Y-27002914D01*
X93121905Y-27002914D02*
X93264762Y-27193390D01*
X134414819Y-94266904D02*
X135224342Y-94266904D01*
X135224342Y-94266904D02*
X135319580Y-94219285D01*
X135319580Y-94219285D02*
X135367200Y-94171666D01*
X135367200Y-94171666D02*
X135414819Y-94076428D01*
X135414819Y-94076428D02*
X135414819Y-93885952D01*
X135414819Y-93885952D02*
X135367200Y-93790714D01*
X135367200Y-93790714D02*
X135319580Y-93743095D01*
X135319580Y-93743095D02*
X135224342Y-93695476D01*
X135224342Y-93695476D02*
X134414819Y-93695476D01*
X135414819Y-92695476D02*
X135414819Y-93266904D01*
X135414819Y-92981190D02*
X134414819Y-92981190D01*
X134414819Y-92981190D02*
X134557676Y-93076428D01*
X134557676Y-93076428D02*
X134652914Y-93171666D01*
X134652914Y-93171666D02*
X134700533Y-93266904D01*
X157243333Y-131994819D02*
X156910000Y-131518628D01*
X156671905Y-131994819D02*
X156671905Y-130994819D01*
X156671905Y-130994819D02*
X157052857Y-130994819D01*
X157052857Y-130994819D02*
X157148095Y-131042438D01*
X157148095Y-131042438D02*
X157195714Y-131090057D01*
X157195714Y-131090057D02*
X157243333Y-131185295D01*
X157243333Y-131185295D02*
X157243333Y-131328152D01*
X157243333Y-131328152D02*
X157195714Y-131423390D01*
X157195714Y-131423390D02*
X157148095Y-131471009D01*
X157148095Y-131471009D02*
X157052857Y-131518628D01*
X157052857Y-131518628D02*
X156671905Y-131518628D01*
X158195714Y-131994819D02*
X157624286Y-131994819D01*
X157910000Y-131994819D02*
X157910000Y-130994819D01*
X157910000Y-130994819D02*
X157814762Y-131137676D01*
X157814762Y-131137676D02*
X157719524Y-131232914D01*
X157719524Y-131232914D02*
X157624286Y-131280533D01*
X116669580Y-33872857D02*
X116717200Y-33920476D01*
X116717200Y-33920476D02*
X116764819Y-34063333D01*
X116764819Y-34063333D02*
X116764819Y-34158571D01*
X116764819Y-34158571D02*
X116717200Y-34301428D01*
X116717200Y-34301428D02*
X116621961Y-34396666D01*
X116621961Y-34396666D02*
X116526723Y-34444285D01*
X116526723Y-34444285D02*
X116336247Y-34491904D01*
X116336247Y-34491904D02*
X116193390Y-34491904D01*
X116193390Y-34491904D02*
X116002914Y-34444285D01*
X116002914Y-34444285D02*
X115907676Y-34396666D01*
X115907676Y-34396666D02*
X115812438Y-34301428D01*
X115812438Y-34301428D02*
X115764819Y-34158571D01*
X115764819Y-34158571D02*
X115764819Y-34063333D01*
X115764819Y-34063333D02*
X115812438Y-33920476D01*
X115812438Y-33920476D02*
X115860057Y-33872857D01*
X116764819Y-32920476D02*
X116764819Y-33491904D01*
X116764819Y-33206190D02*
X115764819Y-33206190D01*
X115764819Y-33206190D02*
X115907676Y-33301428D01*
X115907676Y-33301428D02*
X116002914Y-33396666D01*
X116002914Y-33396666D02*
X116050533Y-33491904D01*
X115764819Y-32301428D02*
X115764819Y-32206190D01*
X115764819Y-32206190D02*
X115812438Y-32110952D01*
X115812438Y-32110952D02*
X115860057Y-32063333D01*
X115860057Y-32063333D02*
X115955295Y-32015714D01*
X115955295Y-32015714D02*
X116145771Y-31968095D01*
X116145771Y-31968095D02*
X116383866Y-31968095D01*
X116383866Y-31968095D02*
X116574342Y-32015714D01*
X116574342Y-32015714D02*
X116669580Y-32063333D01*
X116669580Y-32063333D02*
X116717200Y-32110952D01*
X116717200Y-32110952D02*
X116764819Y-32206190D01*
X116764819Y-32206190D02*
X116764819Y-32301428D01*
X116764819Y-32301428D02*
X116717200Y-32396666D01*
X116717200Y-32396666D02*
X116669580Y-32444285D01*
X116669580Y-32444285D02*
X116574342Y-32491904D01*
X116574342Y-32491904D02*
X116383866Y-32539523D01*
X116383866Y-32539523D02*
X116145771Y-32539523D01*
X116145771Y-32539523D02*
X115955295Y-32491904D01*
X115955295Y-32491904D02*
X115860057Y-32444285D01*
X115860057Y-32444285D02*
X115812438Y-32396666D01*
X115812438Y-32396666D02*
X115764819Y-32301428D01*
X146076666Y-147771009D02*
X145743333Y-147771009D01*
X145743333Y-148294819D02*
X145743333Y-147294819D01*
X145743333Y-147294819D02*
X146219523Y-147294819D01*
X147124285Y-148294819D02*
X146552857Y-148294819D01*
X146838571Y-148294819D02*
X146838571Y-147294819D01*
X146838571Y-147294819D02*
X146743333Y-147437676D01*
X146743333Y-147437676D02*
X146648095Y-147532914D01*
X146648095Y-147532914D02*
X146552857Y-147580533D01*
X141296905Y-140719819D02*
X141296905Y-139719819D01*
X141296905Y-139719819D02*
X141535000Y-139719819D01*
X141535000Y-139719819D02*
X141677857Y-139767438D01*
X141677857Y-139767438D02*
X141773095Y-139862676D01*
X141773095Y-139862676D02*
X141820714Y-139957914D01*
X141820714Y-139957914D02*
X141868333Y-140148390D01*
X141868333Y-140148390D02*
X141868333Y-140291247D01*
X141868333Y-140291247D02*
X141820714Y-140481723D01*
X141820714Y-140481723D02*
X141773095Y-140576961D01*
X141773095Y-140576961D02*
X141677857Y-140672200D01*
X141677857Y-140672200D02*
X141535000Y-140719819D01*
X141535000Y-140719819D02*
X141296905Y-140719819D01*
X142820714Y-140719819D02*
X142249286Y-140719819D01*
X142535000Y-140719819D02*
X142535000Y-139719819D01*
X142535000Y-139719819D02*
X142439762Y-139862676D01*
X142439762Y-139862676D02*
X142344524Y-139957914D01*
X142344524Y-139957914D02*
X142249286Y-140005533D01*
X110774642Y-129849580D02*
X110727023Y-129897200D01*
X110727023Y-129897200D02*
X110584166Y-129944819D01*
X110584166Y-129944819D02*
X110488928Y-129944819D01*
X110488928Y-129944819D02*
X110346071Y-129897200D01*
X110346071Y-129897200D02*
X110250833Y-129801961D01*
X110250833Y-129801961D02*
X110203214Y-129706723D01*
X110203214Y-129706723D02*
X110155595Y-129516247D01*
X110155595Y-129516247D02*
X110155595Y-129373390D01*
X110155595Y-129373390D02*
X110203214Y-129182914D01*
X110203214Y-129182914D02*
X110250833Y-129087676D01*
X110250833Y-129087676D02*
X110346071Y-128992438D01*
X110346071Y-128992438D02*
X110488928Y-128944819D01*
X110488928Y-128944819D02*
X110584166Y-128944819D01*
X110584166Y-128944819D02*
X110727023Y-128992438D01*
X110727023Y-128992438D02*
X110774642Y-129040057D01*
X111727023Y-129944819D02*
X111155595Y-129944819D01*
X111441309Y-129944819D02*
X111441309Y-128944819D01*
X111441309Y-128944819D02*
X111346071Y-129087676D01*
X111346071Y-129087676D02*
X111250833Y-129182914D01*
X111250833Y-129182914D02*
X111155595Y-129230533D01*
X112060357Y-128944819D02*
X112727023Y-128944819D01*
X112727023Y-128944819D02*
X112298452Y-129944819D01*
X96517142Y-133174580D02*
X96469523Y-133222200D01*
X96469523Y-133222200D02*
X96326666Y-133269819D01*
X96326666Y-133269819D02*
X96231428Y-133269819D01*
X96231428Y-133269819D02*
X96088571Y-133222200D01*
X96088571Y-133222200D02*
X95993333Y-133126961D01*
X95993333Y-133126961D02*
X95945714Y-133031723D01*
X95945714Y-133031723D02*
X95898095Y-132841247D01*
X95898095Y-132841247D02*
X95898095Y-132698390D01*
X95898095Y-132698390D02*
X95945714Y-132507914D01*
X95945714Y-132507914D02*
X95993333Y-132412676D01*
X95993333Y-132412676D02*
X96088571Y-132317438D01*
X96088571Y-132317438D02*
X96231428Y-132269819D01*
X96231428Y-132269819D02*
X96326666Y-132269819D01*
X96326666Y-132269819D02*
X96469523Y-132317438D01*
X96469523Y-132317438D02*
X96517142Y-132365057D01*
X97469523Y-133269819D02*
X96898095Y-133269819D01*
X97183809Y-133269819D02*
X97183809Y-132269819D01*
X97183809Y-132269819D02*
X97088571Y-132412676D01*
X97088571Y-132412676D02*
X96993333Y-132507914D01*
X96993333Y-132507914D02*
X96898095Y-132555533D01*
X98326666Y-132269819D02*
X98136190Y-132269819D01*
X98136190Y-132269819D02*
X98040952Y-132317438D01*
X98040952Y-132317438D02*
X97993333Y-132365057D01*
X97993333Y-132365057D02*
X97898095Y-132507914D01*
X97898095Y-132507914D02*
X97850476Y-132698390D01*
X97850476Y-132698390D02*
X97850476Y-133079342D01*
X97850476Y-133079342D02*
X97898095Y-133174580D01*
X97898095Y-133174580D02*
X97945714Y-133222200D01*
X97945714Y-133222200D02*
X98040952Y-133269819D01*
X98040952Y-133269819D02*
X98231428Y-133269819D01*
X98231428Y-133269819D02*
X98326666Y-133222200D01*
X98326666Y-133222200D02*
X98374285Y-133174580D01*
X98374285Y-133174580D02*
X98421904Y-133079342D01*
X98421904Y-133079342D02*
X98421904Y-132841247D01*
X98421904Y-132841247D02*
X98374285Y-132746009D01*
X98374285Y-132746009D02*
X98326666Y-132698390D01*
X98326666Y-132698390D02*
X98231428Y-132650771D01*
X98231428Y-132650771D02*
X98040952Y-132650771D01*
X98040952Y-132650771D02*
X97945714Y-132698390D01*
X97945714Y-132698390D02*
X97898095Y-132746009D01*
X97898095Y-132746009D02*
X97850476Y-132841247D01*
%TO.C,C9*%
D12*
X119000000Y-84901267D02*
X119000000Y-84608733D01*
X120020000Y-84901267D02*
X120020000Y-84608733D01*
%TO.C,SW1*%
D13*
X141117899Y-82629840D02*
X141117899Y-83055158D01*
X141117899Y-84315699D02*
X144877099Y-84315699D01*
X144877099Y-81369299D02*
X141117899Y-81369299D01*
X144877099Y-83055158D02*
X144877099Y-82629840D01*
%TO.C,C3*%
D12*
X120568767Y-97995000D02*
X120276233Y-97995000D01*
X120568767Y-99015000D02*
X120276233Y-99015000D01*
%TO.C,J6*%
X86430000Y-77450000D02*
X87810000Y-77450000D01*
X86430000Y-78830000D02*
X86430000Y-77450000D01*
X86430000Y-80100000D02*
X86430000Y-82750000D01*
X86430000Y-80100000D02*
X89190000Y-80100000D01*
X86430000Y-82750000D02*
X89190000Y-82750000D01*
X89190000Y-80100000D02*
X89190000Y-82750000D01*
%TO.C,R3*%
X144477224Y-86732500D02*
X143967776Y-86732500D01*
X144477224Y-87777500D02*
X143967776Y-87777500D01*
%TO.C,J1*%
X143170000Y-98005000D02*
X143170000Y-89055000D01*
X146250000Y-88935000D02*
X147150000Y-88935000D01*
X146250000Y-98125000D02*
X147150000Y-98125000D01*
X149850000Y-88935000D02*
X152580000Y-88935000D01*
X149850000Y-98125000D02*
X152580000Y-98125000D01*
X152580000Y-98125000D02*
X152580000Y-88935000D01*
%TO.C,SW2*%
D14*
X142860000Y-102880000D02*
X143960000Y-102880000D01*
X142860000Y-106580000D02*
X142860000Y-102880000D01*
X146460000Y-106580000D02*
X142860000Y-106580000D01*
X148460000Y-106580000D02*
X152060000Y-106580000D01*
X148960000Y-102880000D02*
X145960000Y-102880000D01*
X152060000Y-102880000D02*
X150960000Y-102880000D01*
X152060000Y-106580000D02*
X152060000Y-102880000D01*
D15*
X151660000Y-100930000D02*
G75*
G02*
X151260000Y-100930000I-200000J0D01*
G01*
X151260000Y-100930000D02*
G75*
G02*
X151660000Y-100930000I200000J0D01*
G01*
%TO.C,C6*%
D12*
X120433752Y-99770000D02*
X119911248Y-99770000D01*
X120433752Y-101240000D02*
X119911248Y-101240000D01*
%TO.C,C8*%
X122300000Y-84926267D02*
X122300000Y-84633733D01*
X123320000Y-84926267D02*
X123320000Y-84633733D01*
%TO.C,D2*%
X136650000Y-94920000D02*
X136650000Y-96390000D01*
X136650000Y-96390000D02*
X139110000Y-96390000D01*
X139110000Y-94920000D02*
X136650000Y-94920000D01*
%TO.C,R2*%
X138042776Y-96732500D02*
X138552224Y-96732500D01*
X138042776Y-97777500D02*
X138552224Y-97777500D01*
%TO.C,J2*%
X131390000Y-108660000D02*
X131390000Y-107280000D01*
X132770000Y-108660000D02*
X131390000Y-108660000D01*
X134040000Y-105900000D02*
X141770000Y-105900000D01*
X134040000Y-108660000D02*
X134040000Y-105900000D01*
X134040000Y-108660000D02*
X141770000Y-108660000D01*
X141770000Y-108660000D02*
X141770000Y-105900000D01*
%TO.C,C12*%
X129500000Y-83726267D02*
X129500000Y-83433733D01*
X130520000Y-83726267D02*
X130520000Y-83433733D01*
%TO.C,R4*%
X132612500Y-103259724D02*
X132612500Y-102750276D01*
X133657500Y-103259724D02*
X133657500Y-102750276D01*
%TO.C,C11*%
X136800000Y-83513767D02*
X136800000Y-83221233D01*
X137820000Y-83513767D02*
X137820000Y-83221233D01*
%TO.C,U2*%
X139200000Y-91445000D02*
X141020000Y-91445000D01*
X139200000Y-91495000D02*
X139200000Y-91445000D01*
X139200000Y-94565000D02*
X139200000Y-94515000D01*
X141020000Y-91445000D02*
X141020000Y-91495000D01*
X141020000Y-94515000D02*
X141020000Y-94565000D01*
X141020000Y-94565000D02*
X139200000Y-94565000D01*
X138660000Y-91495000D02*
X138420000Y-91165000D01*
X138900000Y-91165000D01*
X138660000Y-91495000D01*
G36*
X138660000Y-91495000D02*
G01*
X138420000Y-91165000D01*
X138900000Y-91165000D01*
X138660000Y-91495000D01*
G37*
%TO.C,J5*%
X86520000Y-98620000D02*
X86520000Y-93430000D01*
X89280000Y-93430000D02*
X86520000Y-93430000D01*
X89280000Y-98620000D02*
X86520000Y-98620000D01*
X89280000Y-98620000D02*
X89280000Y-93430000D01*
X89280000Y-99890000D02*
X89280000Y-101270000D01*
X89280000Y-101270000D02*
X87900000Y-101270000D01*
%TO.C,C5*%
X135813733Y-88820000D02*
X136106267Y-88820000D01*
X135813733Y-89840000D02*
X136106267Y-89840000D01*
%TO.C,C4*%
X131050000Y-102858733D02*
X131050000Y-103151267D01*
X132070000Y-102858733D02*
X132070000Y-103151267D01*
%TO.C,FB1*%
X120600000Y-84608733D02*
X120600000Y-84951267D01*
X121620000Y-84608733D02*
X121620000Y-84951267D01*
%TO.C,C14*%
X135526233Y-103395000D02*
X135818767Y-103395000D01*
X135526233Y-104415000D02*
X135818767Y-104415000D01*
%TO.C,U3*%
X139212500Y-101995000D02*
X141032500Y-101995000D01*
X139212500Y-102045000D02*
X139212500Y-101995000D01*
X139212500Y-103945000D02*
X139212500Y-103165000D01*
X139212500Y-105115000D02*
X139212500Y-105065000D01*
X141032500Y-101995000D02*
X141032500Y-102045000D01*
X141032500Y-105065000D02*
X141032500Y-105115000D01*
X141032500Y-105115000D02*
X139212500Y-105115000D01*
X141572500Y-105065000D02*
X141812500Y-105395000D01*
X141332500Y-105395000D01*
X141572500Y-105065000D01*
G36*
X141812500Y-105395000D02*
G01*
X141332500Y-105395000D01*
X141572500Y-105065000D01*
X141812500Y-105395000D01*
G37*
%TO.C,Y1*%
X136370000Y-80720000D02*
X130850000Y-80720000D01*
X136370000Y-85340000D02*
X136370000Y-80720000D01*
%TO.C,C7*%
X124050000Y-84676267D02*
X124050000Y-84383733D01*
X125070000Y-84676267D02*
X125070000Y-84383733D01*
%TO.C,C1*%
X133263733Y-85770000D02*
X133556267Y-85770000D01*
X133263733Y-86790000D02*
X133556267Y-86790000D01*
%TO.C,C15*%
X140801233Y-100520000D02*
X141093767Y-100520000D01*
X140801233Y-101540000D02*
X141093767Y-101540000D01*
%TO.C,J3*%
X90430000Y-85320000D02*
X91810000Y-85320000D01*
X90430000Y-86700000D02*
X90430000Y-85320000D01*
X90430000Y-87970000D02*
X90430000Y-100780000D01*
X90430000Y-87970000D02*
X93190000Y-87970000D01*
X90430000Y-100780000D02*
X93190000Y-100780000D01*
X93190000Y-87970000D02*
X93190000Y-100780000D01*
%TO.C,REF\u002A\u002A*%
X91680000Y-77450000D02*
X93010000Y-77450000D01*
X91680000Y-78780000D02*
X91680000Y-77450000D01*
X94280000Y-77450000D02*
X145140000Y-77450000D01*
X94280000Y-80110000D02*
X94280000Y-77450000D01*
X94280000Y-80110000D02*
X145140000Y-80110000D01*
X145140000Y-80110000D02*
X145140000Y-77450000D01*
%TO.C,C2*%
X119150000Y-89576267D02*
X119150000Y-89283733D01*
X120170000Y-89576267D02*
X120170000Y-89283733D01*
%TO.C,J4*%
X86520000Y-84790000D02*
X87900000Y-84790000D01*
X86520000Y-86170000D02*
X86520000Y-84790000D01*
X86520000Y-87440000D02*
X86520000Y-92630000D01*
X86520000Y-87440000D02*
X89280000Y-87440000D01*
X86520000Y-92630000D02*
X89280000Y-92630000D01*
X89280000Y-87440000D02*
X89280000Y-92630000D01*
%TO.C,REF\u002A\u002A*%
X92280000Y-105950000D02*
X93610000Y-105950000D01*
X92280000Y-107280000D02*
X92280000Y-105950000D01*
X94880000Y-105950000D02*
X130500000Y-105950000D01*
X94880000Y-108610000D02*
X94880000Y-105950000D01*
X94880000Y-108610000D02*
X130500000Y-108610000D01*
X130500000Y-108610000D02*
X130500000Y-105950000D01*
%TO.C,U1*%
X122450000Y-88395000D02*
X123399999Y-88395000D01*
X122450000Y-89344999D02*
X122450000Y-88395000D01*
X122450000Y-98615000D02*
X122450000Y-97665001D01*
X123399999Y-98615000D02*
X122450000Y-98615000D01*
X131720001Y-88395000D02*
X132670000Y-88395000D01*
X132670000Y-88395000D02*
X132670000Y-89344999D01*
X132670000Y-97665001D02*
X132670000Y-98615000D01*
X132670000Y-98615000D02*
X131720001Y-98615000D01*
X131720000Y-87755000D02*
X132190001Y-87414999D01*
X132190000Y-88095000D01*
X131720000Y-87755000D01*
G36*
X132190000Y-88095000D02*
G01*
X131720000Y-87755000D01*
X132190001Y-87414999D01*
X132190000Y-88095000D01*
G37*
%TO.C,R1*%
X147592776Y-99157500D02*
X148102224Y-99157500D01*
X147592776Y-100202500D02*
X148102224Y-100202500D01*
%TO.C,C10*%
X139300000Y-83013767D02*
X139300000Y-82721233D01*
X140320000Y-83013767D02*
X140320000Y-82721233D01*
%TO.C,F1*%
X141450000Y-96208733D02*
X141450000Y-96551267D01*
X142470000Y-96208733D02*
X142470000Y-96551267D01*
%TO.C,D1*%
X134012500Y-101520000D02*
X134012500Y-102990000D01*
X134012500Y-102990000D02*
X136472500Y-102990000D01*
X136472500Y-101520000D02*
X134012500Y-101520000D01*
%TO.C,C17*%
X140461248Y-98470000D02*
X140983752Y-98470000D01*
X140461248Y-99940000D02*
X140983752Y-99940000D01*
%TO.C,C16*%
X117400000Y-97458733D02*
X117400000Y-97751267D01*
X118420000Y-97458733D02*
X118420000Y-97751267D01*
%TD*%
M02*
