%TF.GenerationSoftware,KiCad,Pcbnew,10.0.4*%
%TF.CreationDate,2026-08-21T08:32:50-04:00*%
%TF.ProjectId,steering,73746565-7269-46e6-972e-6b696361645f,rev?*%
%TF.SameCoordinates,Original*%
%TF.FileFunction,Copper,L1,Top*%
%TF.FilePolarity,Positive*%
%FSLAX46Y46*%
G04 Gerber Fmt 4.6, Leading zero omitted, Abs format (unit mm)*
G04 Created by KiCad (PCBNEW 10.0.4) date 2026-08-21 08:32:50*
%MOMM*%
%LPD*%
G01*
G04 APERTURE LIST*
G04 Aperture macros list*
%AMRoundRect*
0 Rectangle with rounded corners*
0 $1 Rounding radius*
0 $2 $3 $4 $5 $6 $7 $8 $9 X,Y pos of 4 corners*
0 Add a 4 corners polygon primitive as box body*
4,1,4,$2,$3,$4,$5,$6,$7,$8,$9,$2,$3,0*
0 Add four circle primitives for the rounded corners*
1,1,$1+$1,$2,$3*
1,1,$1+$1,$4,$5*
1,1,$1+$1,$6,$7*
1,1,$1+$1,$8,$9*
0 Add four rect primitives between the rounded corners*
20,1,$1+$1,$2,$3,$4,$5,0*
20,1,$1+$1,$4,$5,$6,$7,0*
20,1,$1+$1,$6,$7,$8,$9,0*
20,1,$1+$1,$8,$9,$2,$3,0*%
G04 Aperture macros list end*
%TA.AperFunction,SMDPad,CuDef*%
%ADD10RoundRect,0.237500X0.237500X-0.300000X0.237500X0.300000X-0.237500X0.300000X-0.237500X-0.300000X0*%
%TD*%
%TA.AperFunction,SMDPad,CuDef*%
%ADD11R,0.635000X0.584200*%
%TD*%
%TA.AperFunction,SMDPad,CuDef*%
%ADD12RoundRect,0.237500X0.300000X0.237500X-0.300000X0.237500X-0.300000X-0.237500X0.300000X-0.237500X0*%
%TD*%
%TA.AperFunction,ComponentPad*%
%ADD13R,1.700000X1.700000*%
%TD*%
%TA.AperFunction,ComponentPad*%
%ADD14C,1.700000*%
%TD*%
%TA.AperFunction,SMDPad,CuDef*%
%ADD15RoundRect,0.237500X0.250000X0.237500X-0.250000X0.237500X-0.250000X-0.237500X0.250000X-0.237500X0*%
%TD*%
%TA.AperFunction,ComponentPad*%
%ADD16C,0.700000*%
%TD*%
%TA.AperFunction,ComponentPad*%
%ADD17O,2.400000X0.900000*%
%TD*%
%TA.AperFunction,ComponentPad*%
%ADD18O,1.700000X0.900000*%
%TD*%
%TA.AperFunction,SMDPad,CuDef*%
%ADD19R,1.200000X2.500000*%
%TD*%
%TA.AperFunction,SMDPad,CuDef*%
%ADD20RoundRect,0.250000X0.337500X0.475000X-0.337500X0.475000X-0.337500X-0.475000X0.337500X-0.475000X0*%
%TD*%
%TA.AperFunction,SMDPad,CuDef*%
%ADD21RoundRect,0.237500X-0.287500X-0.237500X0.287500X-0.237500X0.287500X0.237500X-0.287500X0.237500X0*%
%TD*%
%TA.AperFunction,SMDPad,CuDef*%
%ADD22RoundRect,0.237500X-0.250000X-0.237500X0.250000X-0.237500X0.250000X0.237500X-0.250000X0.237500X0*%
%TD*%
%TA.AperFunction,ComponentPad*%
%ADD23C,4.500000*%
%TD*%
%TA.AperFunction,SMDPad,CuDef*%
%ADD24RoundRect,0.237500X0.237500X-0.250000X0.237500X0.250000X-0.237500X0.250000X-0.237500X-0.250000X0*%
%TD*%
%TA.AperFunction,SMDPad,CuDef*%
%ADD25RoundRect,0.150000X-0.512500X-0.150000X0.512500X-0.150000X0.512500X0.150000X-0.512500X0.150000X0*%
%TD*%
%TA.AperFunction,SMDPad,CuDef*%
%ADD26RoundRect,0.237500X-0.300000X-0.237500X0.300000X-0.237500X0.300000X0.237500X-0.300000X0.237500X0*%
%TD*%
%TA.AperFunction,SMDPad,CuDef*%
%ADD27RoundRect,0.237500X-0.237500X0.300000X-0.237500X-0.300000X0.237500X-0.300000X0.237500X0.300000X0*%
%TD*%
%TA.AperFunction,SMDPad,CuDef*%
%ADD28RoundRect,0.237500X-0.237500X0.287500X-0.237500X-0.287500X0.237500X-0.287500X0.237500X0.287500X0*%
%TD*%
%TA.AperFunction,SMDPad,CuDef*%
%ADD29RoundRect,0.150000X0.512500X0.150000X-0.512500X0.150000X-0.512500X-0.150000X0.512500X-0.150000X0*%
%TD*%
%TA.AperFunction,SMDPad,CuDef*%
%ADD30RoundRect,0.250000X0.800000X0.650000X-0.800000X0.650000X-0.800000X-0.650000X0.800000X-0.650000X0*%
%TD*%
%TA.AperFunction,SMDPad,CuDef*%
%ADD31RoundRect,0.075000X-0.075000X0.700000X-0.075000X-0.700000X0.075000X-0.700000X0.075000X0.700000X0*%
%TD*%
%TA.AperFunction,SMDPad,CuDef*%
%ADD32RoundRect,0.075000X-0.700000X0.075000X-0.700000X-0.075000X0.700000X-0.075000X0.700000X0.075000X0*%
%TD*%
%TA.AperFunction,SMDPad,CuDef*%
%ADD33RoundRect,0.250000X-0.337500X-0.475000X0.337500X-0.475000X0.337500X0.475000X-0.337500X0.475000X0*%
%TD*%
%TA.AperFunction,ViaPad*%
%ADD34C,0.600000*%
%TD*%
%TA.AperFunction,ViaPad*%
%ADD35C,1.000000*%
%TD*%
%TA.AperFunction,Conductor*%
%ADD36C,0.600000*%
%TD*%
%TA.AperFunction,Conductor*%
%ADD37C,0.300000*%
%TD*%
%TA.AperFunction,Conductor*%
%ADD38C,0.400000*%
%TD*%
%TA.AperFunction,Conductor*%
%ADD39C,0.200000*%
%TD*%
%TA.AperFunction,Conductor*%
%ADD40C,0.500000*%
%TD*%
G04 APERTURE END LIST*
D10*
%TO.P,C9,1*%
%TO.N,+3V3*%
X119510000Y-85617500D03*
%TO.P,C9,2*%
%TO.N,GND*%
X119510000Y-83892500D03*
%TD*%
D11*
%TO.P,SW1,1,1_1*%
%TO.N,GND*%
X141434998Y-82005000D03*
%TO.P,SW1,2,2_2*%
%TO.N,/NRST*%
X141434998Y-83679998D03*
%TO.P,SW1,3*%
%TO.N,N/C*%
X144560000Y-82005000D03*
%TO.P,SW1,4*%
X144560000Y-83679998D03*
%TD*%
D12*
%TO.P,C3,1*%
%TO.N,+3V3*%
X121285000Y-98505000D03*
%TO.P,C3,2*%
%TO.N,GND*%
X119560000Y-98505000D03*
%TD*%
D13*
%TO.P,J6,1,Pin_1_1*%
%TO.N,/USART2_TX*%
X87810000Y-78830000D03*
D14*
%TO.P,J6,2,Pin_2_2*%
%TO.N,/USART2_RX*%
X87810000Y-81370000D03*
%TD*%
D15*
%TO.P,R3,1*%
%TO.N,Net-(J1-CC2)*%
X145135000Y-87255000D03*
%TO.P,R3,2*%
%TO.N,GND*%
X143310000Y-87255000D03*
%TD*%
D16*
%TO.P,J1,A1,GND_A1*%
%TO.N,GND*%
X143850000Y-96505000D03*
%TO.P,J1,A4,VBUS_A4*%
%TO.N,Net-(F1-Pad2)*%
X143850000Y-95655000D03*
%TO.P,J1,A5,CC1_A5*%
%TO.N,Net-(J1-CC1)*%
X143850000Y-94805000D03*
%TO.P,J1,A6,D+_A6*%
%TO.N,/ESD+*%
X143850000Y-93955000D03*
%TO.P,J1,A7,D-_A7*%
%TO.N,/ESD-*%
X143850000Y-93105000D03*
%TO.P,J1,A8*%
%TO.N,N/C*%
X143850000Y-92255000D03*
%TO.P,J1,A9,VBUS_A9*%
%TO.N,Net-(F1-Pad2)*%
X143850000Y-91405000D03*
%TO.P,J1,A12,GND_A12*%
%TO.N,GND*%
X143850000Y-90555000D03*
%TO.P,J1,B1,GND_B1*%
X145200000Y-90555000D03*
%TO.P,J1,B4,VBUS_B4*%
%TO.N,Net-(F1-Pad2)*%
X145200000Y-91405000D03*
%TO.P,J1,B5,CC2_B5*%
%TO.N,Net-(J1-CC2)*%
X145200000Y-92255000D03*
%TO.P,J1,B6,D+_B6*%
%TO.N,/ESD+*%
X145200000Y-93105000D03*
%TO.P,J1,B7,D-_B7*%
%TO.N,/ESD-*%
X145200000Y-93955000D03*
%TO.P,J1,B8*%
%TO.N,N/C*%
X145200000Y-94805000D03*
%TO.P,J1,B9,VBUS_B9*%
%TO.N,Net-(F1-Pad2)*%
X145200000Y-95655000D03*
%TO.P,J1,B12,GND_B12*%
%TO.N,GND*%
X145200000Y-96505000D03*
D17*
%TO.P,J1,SH,SHIELD_SH*%
X144830000Y-97855000D03*
D18*
X148210000Y-97855000D03*
D17*
X144830000Y-89205000D03*
D18*
X148210000Y-89205000D03*
%TD*%
D19*
%TO.P,SW2,1*%
%TO.N,GND*%
X149960000Y-101980000D03*
%TO.P,SW2,2*%
%TO.N,/SW_BOOT0*%
X147460000Y-107480000D03*
%TO.P,SW2,3*%
%TO.N,+3V3*%
X144960000Y-101980000D03*
%TD*%
D20*
%TO.P,C6,1*%
%TO.N,+3V3*%
X121210000Y-100505000D03*
%TO.P,C6,2*%
%TO.N,GND*%
X119135000Y-100505000D03*
%TD*%
D10*
%TO.P,C8,1*%
%TO.N,+3.3VA*%
X122810000Y-85642500D03*
%TO.P,C8,2*%
%TO.N,GND*%
X122810000Y-83917500D03*
%TD*%
D21*
%TO.P,D2,1,A1_1*%
%TO.N,GND*%
X137435000Y-95655000D03*
%TO.P,D2,2,A2_2*%
%TO.N,VBUS*%
X139185000Y-95655000D03*
%TD*%
D22*
%TO.P,R2,1*%
%TO.N,GND*%
X137385000Y-97255000D03*
%TO.P,R2,2*%
%TO.N,Net-(J1-CC1)*%
X139210000Y-97255000D03*
%TD*%
D13*
%TO.P,J2,1,Pin_1_1*%
%TO.N,GND*%
X132770000Y-107280000D03*
D14*
%TO.P,J2,2,Pin_2_2*%
%TO.N,/SWCLK*%
X135310000Y-107280000D03*
%TO.P,J2,3,Pin_3_3*%
%TO.N,/SWDIO*%
X137850000Y-107280000D03*
%TO.P,J2,4,Pin_4_4*%
%TO.N,+3V3*%
X140390000Y-107280000D03*
%TD*%
D23*
%TO.P,REF\u002A\u002A,*%
%TO.N,*%
X89010000Y-106080000D03*
%TD*%
D10*
%TO.P,C12,1*%
%TO.N,/HSE_OUT*%
X130010000Y-84442500D03*
%TO.P,C12,2*%
%TO.N,GND*%
X130010000Y-82717500D03*
%TD*%
D24*
%TO.P,R4,1*%
%TO.N,GND*%
X133135000Y-103917500D03*
%TO.P,R4,2*%
%TO.N,/LED_C*%
X133135000Y-102092500D03*
%TD*%
D10*
%TO.P,C11,1*%
%TO.N,GND*%
X137310000Y-84230000D03*
%TO.P,C11,2*%
%TO.N,/HSE_IN*%
X137310000Y-82505000D03*
%TD*%
D25*
%TO.P,U2,1,I/O1_1*%
%TO.N,/USB_D-*%
X138972500Y-92055000D03*
%TO.P,U2,2,GND_2*%
%TO.N,GND*%
X138972500Y-93005000D03*
%TO.P,U2,3,I/O2_3*%
%TO.N,/USB_D+*%
X138972500Y-93955000D03*
%TO.P,U2,4,I/O2_4*%
%TO.N,/ESD+*%
X141247500Y-93955000D03*
%TO.P,U2,5,VBUS_5*%
%TO.N,VBUS*%
X141247500Y-93005000D03*
%TO.P,U2,6,I/O1_6*%
%TO.N,/ESD-*%
X141247500Y-92055000D03*
%TD*%
D13*
%TO.P,J5,1,Pin_1_1*%
%TO.N,+3V3*%
X87900000Y-99890000D03*
D14*
%TO.P,J5,2,Pin_2_2*%
%TO.N,/ADC1_IN9_BRAKE*%
X87900000Y-97350000D03*
%TO.P,J5,3,Pin_3_3*%
%TO.N,GND*%
X87900000Y-94810000D03*
%TD*%
D26*
%TO.P,C5,1*%
%TO.N,+3V3*%
X135097499Y-89330000D03*
%TO.P,C5,2*%
%TO.N,GND*%
X136822501Y-89330000D03*
%TD*%
D27*
%TO.P,C4,1*%
%TO.N,+3V3*%
X131560000Y-102142499D03*
%TO.P,C4,2*%
%TO.N,GND*%
X131560000Y-103867501D03*
%TD*%
D28*
%TO.P,FB1,1*%
%TO.N,+3.3VA*%
X121110000Y-83905000D03*
%TO.P,FB1,2*%
%TO.N,+3V3*%
X121110000Y-85655000D03*
%TD*%
D26*
%TO.P,C14,1*%
%TO.N,GND*%
X134810000Y-103905000D03*
%TO.P,C14,2*%
%TO.N,+3V3*%
X136535000Y-103905000D03*
%TD*%
D29*
%TO.P,U3,1,VIN_1*%
%TO.N,VBUS*%
X141260000Y-104505000D03*
%TO.P,U3,2,GND_2*%
%TO.N,GND*%
X141260000Y-103555000D03*
%TO.P,U3,3,EN_3*%
%TO.N,VBUS*%
X141260000Y-102605000D03*
%TO.P,U3,4,NC_4*%
%TO.N,unconnected-(U3-NC-Pad4)*%
X138985000Y-102605000D03*
%TO.P,U3,5,VOUT_5*%
%TO.N,+3V3*%
X138985000Y-104505000D03*
%TD*%
D30*
%TO.P,Y1,1,1_1*%
%TO.N,/HSE_IN*%
X135060000Y-81880000D03*
%TO.P,Y1,2,G_2*%
%TO.N,GND*%
X132160000Y-81880000D03*
%TO.P,Y1,3,3_3*%
%TO.N,/HSE_OUT*%
X132160000Y-84180000D03*
%TO.P,Y1,4,G_4*%
%TO.N,GND*%
X135060000Y-84180000D03*
%TD*%
D10*
%TO.P,C7,1*%
%TO.N,+3.3VA*%
X124560000Y-85392500D03*
%TO.P,C7,2*%
%TO.N,GND*%
X124560000Y-83667500D03*
%TD*%
D26*
%TO.P,C1,1*%
%TO.N,+3V3*%
X132547499Y-86280000D03*
%TO.P,C1,2*%
%TO.N,GND*%
X134272501Y-86280000D03*
%TD*%
%TO.P,C15,1*%
%TO.N,VBUS*%
X140085000Y-101030000D03*
%TO.P,C15,2*%
%TO.N,GND*%
X141810000Y-101030000D03*
%TD*%
D13*
%TO.P,J3,1,Pin_1_1*%
%TO.N,+3V3*%
X91810000Y-86700000D03*
D14*
%TO.P,J3,2,Pin_2_2*%
%TO.N,/SPI1_CS_WHEEL*%
X91810000Y-89240000D03*
%TO.P,J3,3,Pin_3_3*%
%TO.N,/SPI1_SCK*%
X91810000Y-91780000D03*
%TO.P,J3,4,Pin_4_4*%
%TO.N,/SPI1_MISO*%
X91810000Y-94320000D03*
%TO.P,J3,5,Pin_5_5*%
%TO.N,/SPI1_MOSI*%
X91810000Y-96860000D03*
%TO.P,J3,6,Pin_6_6*%
%TO.N,GND*%
X91810000Y-99400000D03*
%TD*%
D13*
%TO.P,REF\u002A\u002A,1*%
%TO.N,/PA1*%
X93010000Y-78780000D03*
D14*
%TO.P,REF\u002A\u002A,2*%
%TO.N,/PA0*%
X95550000Y-78780000D03*
%TO.P,REF\u002A\u002A,3*%
%TO.N,/PC3*%
X98090000Y-78780000D03*
%TO.P,REF\u002A\u002A,4*%
%TO.N,/PC2*%
X100630000Y-78780000D03*
%TO.P,REF\u002A\u002A,5*%
%TO.N,/PC1*%
X103170000Y-78780000D03*
%TO.P,REF\u002A\u002A,6*%
%TO.N,/PC0*%
X105710000Y-78780000D03*
%TO.P,REF\u002A\u002A,7*%
%TO.N,/PC15*%
X108250000Y-78780000D03*
%TO.P,REF\u002A\u002A,8*%
%TO.N,/PC14*%
X110790000Y-78780000D03*
%TO.P,REF\u002A\u002A,9*%
%TO.N,/PC13*%
X113330000Y-78780000D03*
%TO.P,REF\u002A\u002A,10*%
%TO.N,/PB9*%
X115870000Y-78780000D03*
%TO.P,REF\u002A\u002A,11*%
%TO.N,/PB6*%
X118410000Y-78780000D03*
%TO.P,REF\u002A\u002A,12*%
%TO.N,/PB4*%
X120950000Y-78780000D03*
%TO.P,REF\u002A\u002A,13*%
%TO.N,/PD2*%
X123490000Y-78780000D03*
%TO.P,REF\u002A\u002A,14*%
%TO.N,/PC11*%
X126030000Y-78780000D03*
%TO.P,REF\u002A\u002A,15*%
%TO.N,/PA15*%
X128570000Y-78780000D03*
%TO.P,REF\u002A\u002A,16*%
%TO.N,/PB8*%
X131110000Y-78780000D03*
%TO.P,REF\u002A\u002A,17*%
%TO.N,/PB7*%
X133650000Y-78780000D03*
%TO.P,REF\u002A\u002A,18*%
%TO.N,/PB5*%
X136190000Y-78780000D03*
%TO.P,REF\u002A\u002A,19*%
%TO.N,/PB3*%
X138730000Y-78780000D03*
%TO.P,REF\u002A\u002A,20*%
%TO.N,/PC12*%
X141270000Y-78780000D03*
%TO.P,REF\u002A\u002A,21*%
%TO.N,/PC10*%
X143810000Y-78780000D03*
%TD*%
D10*
%TO.P,C2,1*%
%TO.N,+3V3*%
X119660000Y-90292500D03*
%TO.P,C2,2*%
%TO.N,GND*%
X119660000Y-88567500D03*
%TD*%
D13*
%TO.P,J4,1,Pin_1_1*%
%TO.N,+3V3*%
X87900000Y-86170000D03*
D14*
%TO.P,J4,2,Pin_2_2*%
%TO.N,/ADC1_IN8_THROTTLE*%
X87900000Y-88710000D03*
%TO.P,J4,3,Pin_3_3*%
%TO.N,GND*%
X87900000Y-91250000D03*
%TD*%
D13*
%TO.P,REF\u002A\u002A,1*%
%TO.N,/PB1*%
X93610000Y-107280000D03*
D14*
%TO.P,REF\u002A\u002A,2*%
%TO.N,/PB2*%
X96150000Y-107280000D03*
%TO.P,REF\u002A\u002A,3*%
%TO.N,/PB10*%
X98690000Y-107280000D03*
%TO.P,REF\u002A\u002A,4*%
%TO.N,/PB11*%
X101230000Y-107280000D03*
%TO.P,REF\u002A\u002A,5*%
%TO.N,/PB12*%
X103770000Y-107280000D03*
%TO.P,REF\u002A\u002A,6*%
%TO.N,/PB13*%
X106310000Y-107280000D03*
%TO.P,REF\u002A\u002A,7*%
%TO.N,/PB14*%
X108850000Y-107280000D03*
%TO.P,REF\u002A\u002A,8*%
%TO.N,/PB15*%
X111390000Y-107280000D03*
%TO.P,REF\u002A\u002A,9*%
%TO.N,/PC6*%
X113930000Y-107280000D03*
%TO.P,REF\u002A\u002A,10*%
%TO.N,/PC7*%
X116470000Y-107280000D03*
%TO.P,REF\u002A\u002A,11*%
%TO.N,/PC8*%
X119010000Y-107280000D03*
%TO.P,REF\u002A\u002A,12*%
%TO.N,/PC9*%
X121550000Y-107280000D03*
%TO.P,REF\u002A\u002A,13*%
%TO.N,/PA8*%
X124090000Y-107280000D03*
%TO.P,REF\u002A\u002A,14*%
%TO.N,/PA9*%
X126630000Y-107280000D03*
%TO.P,REF\u002A\u002A,15*%
%TO.N,/PA10*%
X129170000Y-107280000D03*
%TD*%
D31*
%TO.P,U1,1,VBAT_1*%
%TO.N,+3V3*%
X131309999Y-87830000D03*
%TO.P,U1,2,PC13_2*%
%TO.N,/PC13*%
X130810000Y-87830000D03*
%TO.P,U1,3,PC14_3*%
%TO.N,/PC14*%
X130310000Y-87830000D03*
%TO.P,U1,4,PC15_4*%
%TO.N,/PC15*%
X129810000Y-87830000D03*
%TO.P,U1,5,PH0_5*%
%TO.N,/HSE_IN*%
X129310000Y-87830000D03*
%TO.P,U1,6,PH1_6*%
%TO.N,/HSE_OUT*%
X128809999Y-87830000D03*
%TO.P,U1,7,NRST_7*%
%TO.N,/NRST*%
X128310000Y-87830000D03*
%TO.P,U1,8,PC0_8*%
%TO.N,/PC0*%
X127810000Y-87830000D03*
%TO.P,U1,9,PC1_9*%
%TO.N,/PC1*%
X127310000Y-87830000D03*
%TO.P,U1,10,PC2_10*%
%TO.N,/PC2*%
X126810000Y-87830000D03*
%TO.P,U1,11,PC3_11*%
%TO.N,/PC3*%
X126310001Y-87830000D03*
%TO.P,U1,12,VSSA_12*%
%TO.N,GND*%
X125810000Y-87830000D03*
%TO.P,U1,13,VDDA_13*%
%TO.N,+3.3VA*%
X125310000Y-87830000D03*
%TO.P,U1,14,PA0_14*%
%TO.N,/PA0*%
X124810000Y-87830000D03*
%TO.P,U1,15,PA1_15*%
%TO.N,/PA1*%
X124310000Y-87830000D03*
%TO.P,U1,16,PA2_16*%
%TO.N,/USART2_TX*%
X123810001Y-87830000D03*
D32*
%TO.P,U1,17,PA3_17*%
%TO.N,/USART2_RX*%
X121885000Y-89755001D03*
%TO.P,U1,18,VSS_18*%
%TO.N,GND*%
X121885000Y-90255000D03*
%TO.P,U1,19,VDD_19*%
%TO.N,+3V3*%
X121885000Y-90755000D03*
%TO.P,U1,20,PA4_20*%
%TO.N,/SPI1_CS_WHEEL*%
X121885000Y-91255000D03*
%TO.P,U1,21,PA5_21*%
%TO.N,/SPI1_SCK*%
X121885000Y-91755000D03*
%TO.P,U1,22,PA6_22*%
%TO.N,/SPI1_MISO*%
X121885000Y-92255001D03*
%TO.P,U1,23,PA7_23*%
%TO.N,/SPI1_MOSI*%
X121885000Y-92755000D03*
%TO.P,U1,24,PC4_24*%
%TO.N,/ADC1_IN8_THROTTLE*%
X121885000Y-93255000D03*
%TO.P,U1,25,PB0_25*%
%TO.N,/ADC1_IN9_BRAKE*%
X121885000Y-93755000D03*
%TO.P,U1,26,PB1_26*%
%TO.N,/PB1*%
X121885000Y-94255000D03*
%TO.P,U1,27,PB2_27*%
%TO.N,/PB2*%
X121885000Y-94754999D03*
%TO.P,U1,28,PB10_28*%
%TO.N,/PB10*%
X121885000Y-95255000D03*
%TO.P,U1,29,PB11_29*%
%TO.N,/PB11*%
X121885000Y-95755000D03*
%TO.P,U1,30,VCAP_1_30*%
%TO.N,Net-(U1-VCAP_1)*%
X121885000Y-96255000D03*
%TO.P,U1,31,VSS_31*%
%TO.N,GND*%
X121885000Y-96755000D03*
%TO.P,U1,32,VDD_32*%
%TO.N,+3V3*%
X121885000Y-97254999D03*
D31*
%TO.P,U1,33,PB12_33*%
%TO.N,/PB12*%
X123810001Y-99180000D03*
%TO.P,U1,34,PB13_34*%
%TO.N,/PB13*%
X124310000Y-99180000D03*
%TO.P,U1,35,PB14_35*%
%TO.N,/PB14*%
X124810000Y-99180000D03*
%TO.P,U1,36,PB15_36*%
%TO.N,/PB15*%
X125310000Y-99180000D03*
%TO.P,U1,37,PC6_37*%
%TO.N,/PC6*%
X125810000Y-99180000D03*
%TO.P,U1,38,PC7_38*%
%TO.N,/PC7*%
X126310001Y-99180000D03*
%TO.P,U1,39,PC8_39*%
%TO.N,/PC8*%
X126810000Y-99180000D03*
%TO.P,U1,40,PC9_40*%
%TO.N,/PC9*%
X127310000Y-99180000D03*
%TO.P,U1,41,PA8_41*%
%TO.N,/PA8*%
X127810000Y-99180000D03*
%TO.P,U1,42,PA9_42*%
%TO.N,/PA9*%
X128310000Y-99180000D03*
%TO.P,U1,43,PA10_43*%
%TO.N,/PA10*%
X128809999Y-99180000D03*
%TO.P,U1,44,PA11_44*%
%TO.N,/USB_D-*%
X129310000Y-99180000D03*
%TO.P,U1,45,PA12_45*%
%TO.N,/USB_D+*%
X129810000Y-99180000D03*
%TO.P,U1,46,PA13_46*%
%TO.N,/SWDIO*%
X130310000Y-99180000D03*
%TO.P,U1,47,VSS_47*%
%TO.N,GND*%
X130810000Y-99180000D03*
%TO.P,U1,48,VDD_48*%
%TO.N,+3V3*%
X131309999Y-99180000D03*
D32*
%TO.P,U1,49,PA14_49*%
%TO.N,/SWCLK*%
X133235000Y-97254999D03*
%TO.P,U1,50,PA15_50*%
%TO.N,/PA15*%
X133235000Y-96755000D03*
%TO.P,U1,51,PC10_51*%
%TO.N,/PC10*%
X133235000Y-96255000D03*
%TO.P,U1,52,PC11_52*%
%TO.N,/PC11*%
X133235000Y-95755000D03*
%TO.P,U1,53,PC12_53*%
%TO.N,/PC12*%
X133235000Y-95255000D03*
%TO.P,U1,54,PD2_54*%
%TO.N,/PD2*%
X133235000Y-94754999D03*
%TO.P,U1,55,PB3_55*%
%TO.N,/PB3*%
X133235000Y-94255000D03*
%TO.P,U1,56,PB4_56*%
%TO.N,/PB4*%
X133235000Y-93755000D03*
%TO.P,U1,57,PB5_57*%
%TO.N,/PB5*%
X133235000Y-93255000D03*
%TO.P,U1,58,PB6_58*%
%TO.N,/PB6*%
X133235000Y-92755000D03*
%TO.P,U1,59,PB7_59*%
%TO.N,/PB7*%
X133235000Y-92255001D03*
%TO.P,U1,60,BOOT0_60*%
%TO.N,/BOOT0*%
X133235000Y-91755000D03*
%TO.P,U1,61,PB8_61*%
%TO.N,/PB8*%
X133235000Y-91255000D03*
%TO.P,U1,62,PB9_62*%
%TO.N,/PB9*%
X133235000Y-90755000D03*
%TO.P,U1,63,VSS_63*%
%TO.N,GND*%
X133235000Y-90255000D03*
%TO.P,U1,64,VDD_64*%
%TO.N,+3V3*%
X133235000Y-89755001D03*
%TD*%
D22*
%TO.P,R1,1*%
%TO.N,/SW_BOOT0*%
X146935000Y-99680000D03*
%TO.P,R1,2*%
%TO.N,/BOOT0*%
X148760000Y-99680000D03*
%TD*%
D10*
%TO.P,C10,1*%
%TO.N,/NRST*%
X139810000Y-83730000D03*
%TO.P,C10,2*%
%TO.N,GND*%
X139810000Y-82005000D03*
%TD*%
D28*
%TO.P,F1,1*%
%TO.N,VBUS*%
X141960000Y-95505000D03*
%TO.P,F1,2*%
%TO.N,Net-(F1-Pad2)*%
X141960000Y-97255000D03*
%TD*%
D21*
%TO.P,D1,1,K_1*%
%TO.N,/LED_C*%
X134797500Y-102255000D03*
%TO.P,D1,2,A_2*%
%TO.N,+3V3*%
X136547500Y-102255000D03*
%TD*%
D33*
%TO.P,C17,1*%
%TO.N,VBUS*%
X139685000Y-99205000D03*
%TO.P,C17,2*%
%TO.N,GND*%
X141760000Y-99205000D03*
%TD*%
D23*
%TO.P,REF\u002A\u002A,*%
%TO.N,*%
X149110000Y-79980000D03*
%TD*%
D27*
%TO.P,C16,1*%
%TO.N,Net-(U1-VCAP_1)*%
X117910000Y-96742500D03*
%TO.P,C16,2*%
%TO.N,GND*%
X117910000Y-98467500D03*
%TD*%
D34*
%TO.N,+3V3*%
X141310000Y-87030000D03*
X137710000Y-102580000D03*
X106810000Y-85617500D03*
X118410000Y-90292500D03*
X137710000Y-104505000D03*
X137710000Y-103880000D03*
X122610000Y-100780000D03*
X132310000Y-100730000D03*
X137710000Y-103230000D03*
X122610000Y-100130000D03*
X144910000Y-100130000D03*
D35*
%TO.N,GND*%
X114060000Y-93555000D03*
D34*
X143310000Y-100530000D03*
D35*
X118310000Y-102530000D03*
D34*
X138310000Y-100530000D03*
D35*
X114310000Y-98530000D03*
X114060000Y-90280000D03*
D34*
%TO.N,/NRST*%
X133082991Y-100523869D03*
X139810000Y-84780000D03*
X135601713Y-98571713D03*
X128310000Y-89280000D03*
%TO.N,/USART2_TX*%
X123810001Y-89029999D03*
X90060000Y-78830000D03*
%TO.N,/USART2_RX*%
X123159998Y-90227213D03*
X90060000Y-81370000D03*
%TO.N,Net-(F1-Pad2)*%
X140410000Y-97255000D03*
%TO.N,VBUS*%
X140560000Y-95655000D03*
X138060000Y-98530000D03*
%TO.N,/SWCLK*%
X134560000Y-97280000D03*
%TO.N,/SWDIO*%
X130185000Y-100780000D03*
%TO.N,/ADC1_IN9_BRAKE*%
X123560000Y-94030000D03*
%TO.N,/PC15*%
X129810000Y-89280000D03*
%TO.N,/PC14*%
X130310000Y-86280000D03*
%TO.N,/PC13*%
X130810000Y-89280000D03*
%TO.N,/PB9*%
X131560000Y-90780000D03*
%TO.N,/PB6*%
X131910000Y-92755000D03*
%TO.N,/PB4*%
X131910000Y-93755000D03*
%TO.N,/PD2*%
X131910000Y-94754999D03*
%TO.N,/PC11*%
X131910000Y-95755000D03*
%TO.N,/PA15*%
X131910000Y-96755000D03*
%TO.N,/PB8*%
X134670000Y-91255000D03*
%TO.N,/PB7*%
X134670000Y-92255001D03*
%TO.N,/PB5*%
X134670000Y-93255000D03*
%TO.N,/PB3*%
X134670000Y-94255000D03*
%TO.N,/PC12*%
X134670000Y-95255000D03*
%TO.N,/PC10*%
X134670000Y-96255000D03*
%TO.N,/ADC1_IN8_THROTTLE*%
X123560000Y-93030000D03*
%TO.N,/BOOT0*%
X133060000Y-99530000D03*
X150560000Y-99530000D03*
X134560000Y-99530000D03*
X131310000Y-91755000D03*
%TD*%
%TO.N,+3V3*%
D36*
X137135000Y-104505000D02*
X136535000Y-103905000D01*
X136535000Y-103905000D02*
X136535000Y-102267500D01*
D37*
X131610000Y-86280000D02*
X132684998Y-86280000D01*
X120560000Y-98030000D02*
X121035000Y-98505000D01*
D36*
X136560000Y-103930000D02*
X136535000Y-103905000D01*
D37*
X131309999Y-87830000D02*
X131309999Y-86580001D01*
D36*
X137710000Y-104505000D02*
X137660000Y-104505000D01*
D38*
X121210000Y-100505000D02*
X122335000Y-100505000D01*
D36*
X137710000Y-104455000D02*
X137660000Y-104505000D01*
D39*
X121210000Y-98580000D02*
X121285000Y-98505000D01*
D36*
X135097499Y-89330000D02*
X137397499Y-87030000D01*
D38*
X122235000Y-100505000D02*
X122610000Y-100130000D01*
D36*
X132547499Y-86280000D02*
X133522499Y-87255000D01*
D38*
X121210000Y-100505000D02*
X122235000Y-100505000D01*
D37*
X131309999Y-86580001D02*
X131610000Y-86280000D01*
D36*
X137035000Y-103905000D02*
X137710000Y-103230000D01*
D38*
X122335000Y-100505000D02*
X122610000Y-100780000D01*
D37*
X120560000Y-97530000D02*
X120560000Y-98030000D01*
X121035000Y-98505000D02*
X121285000Y-98505000D01*
D38*
X119778750Y-85622500D02*
X121341250Y-85622500D01*
D37*
X134672498Y-89755001D02*
X135097499Y-89330000D01*
D36*
X137710000Y-102580000D02*
X137710000Y-103880000D01*
X91280000Y-86170000D02*
X91810000Y-86700000D01*
X137110000Y-103905000D02*
X137710000Y-104505000D01*
X138985000Y-104505000D02*
X137710000Y-104505000D01*
X136535000Y-103905000D02*
X137685000Y-103905000D01*
X133522499Y-87255000D02*
X137172498Y-87255000D01*
D37*
X121885000Y-90755000D02*
X120122500Y-90755000D01*
D36*
X137660000Y-104505000D02*
X137135000Y-104505000D01*
D37*
X121885000Y-97254999D02*
X120835001Y-97254999D01*
X131309999Y-100279999D02*
X131309999Y-99230001D01*
D38*
X132310000Y-101392499D02*
X131560000Y-102142499D01*
D39*
X131309999Y-101892498D02*
X131560000Y-102142499D01*
D37*
X120122500Y-90755000D02*
X119660000Y-90292500D01*
D39*
X120885000Y-98505000D02*
X121285000Y-98505000D01*
D37*
X119660000Y-90292500D02*
X118410000Y-90292500D01*
D36*
X137172498Y-87255000D02*
X137397499Y-87030000D01*
X137685000Y-103905000D02*
X137710000Y-103880000D01*
D37*
X120835001Y-97254999D02*
X120560000Y-97530000D01*
D36*
X137710000Y-103880000D02*
X137710000Y-104455000D01*
X136535000Y-103905000D02*
X137035000Y-103905000D01*
D38*
X121210000Y-100505000D02*
X121210000Y-98580000D01*
D37*
X133235000Y-89755001D02*
X134672498Y-89755001D01*
D36*
X136535000Y-103905000D02*
X137110000Y-103905000D01*
D38*
X122610000Y-100780000D02*
X122610000Y-100130000D01*
D36*
X87900000Y-86170000D02*
X91280000Y-86170000D01*
D39*
X144910000Y-100130000D02*
X144910000Y-102720000D01*
D36*
X119510000Y-85617500D02*
X106810000Y-85617500D01*
D37*
X131560000Y-100530000D02*
X131309999Y-100279999D01*
D38*
X132310000Y-100730000D02*
X132310000Y-101392499D01*
D37*
X131560000Y-102142499D02*
X131560000Y-100530000D01*
D36*
X137397499Y-87030000D02*
X141310000Y-87030000D01*
%TO.N,GND*%
D39*
X134272501Y-84967499D02*
X135060000Y-84180000D01*
D36*
X143850000Y-90555000D02*
X141360000Y-90555000D01*
D39*
X130810000Y-99180000D02*
X130785000Y-99205000D01*
D36*
X137385000Y-95705000D02*
X137435000Y-95655000D01*
X145200000Y-90555000D02*
X143850000Y-90555000D01*
X142422500Y-103028394D02*
X142422500Y-101630000D01*
D37*
X125810000Y-84742500D02*
X124560000Y-83492500D01*
D36*
X141760000Y-99205000D02*
X141760000Y-100967500D01*
D37*
X122810000Y-83917500D02*
X121922500Y-83030000D01*
X125810000Y-87830000D02*
X125810000Y-84742500D01*
D40*
X139634999Y-93005000D02*
X138972500Y-93005000D01*
X140135000Y-92504999D02*
X139634999Y-93005000D01*
D37*
X120335000Y-96755000D02*
X119560000Y-97530000D01*
X133235000Y-90255000D02*
X135897501Y-90255000D01*
D40*
X141232316Y-90555000D02*
X140135000Y-91652316D01*
D36*
X119135000Y-100505000D02*
X119135000Y-98930000D01*
D37*
X119560000Y-97530000D02*
X119560000Y-98505000D01*
X121922500Y-83030000D02*
X120372500Y-83030000D01*
X120372500Y-83030000D02*
X119510000Y-83892500D01*
D39*
X117947500Y-98505000D02*
X117910000Y-98467500D01*
D36*
X119522500Y-98467500D02*
X119560000Y-98505000D01*
D38*
X96810000Y-80530000D02*
X96810000Y-77530000D01*
D36*
X119135000Y-98930000D02*
X119560000Y-98505000D01*
X146860000Y-96505000D02*
X148210000Y-97855000D01*
X133147500Y-103905000D02*
X133135000Y-103917500D01*
D39*
X130785000Y-103092501D02*
X131560000Y-103867501D01*
D36*
X134810000Y-103905000D02*
X133147500Y-103905000D01*
X137385000Y-97255000D02*
X137385000Y-95705000D01*
D37*
X135897501Y-90255000D02*
X136822501Y-89330000D01*
D38*
X135260000Y-86280000D02*
X137310000Y-84230000D01*
D37*
X121006880Y-90255001D02*
X119660000Y-88908121D01*
D36*
X141260000Y-103555000D02*
X141895894Y-103555000D01*
X142422500Y-101630000D02*
X141847500Y-101055000D01*
D37*
X121885000Y-90255000D02*
X121006880Y-90255001D01*
X124135000Y-83917500D02*
X124560000Y-83492500D01*
X119660000Y-88908121D02*
X119660000Y-88567500D01*
D39*
X130785000Y-99205000D02*
X130785000Y-103092501D01*
D40*
X142582316Y-89205000D02*
X144830000Y-89205000D01*
D36*
X141895894Y-103555000D02*
X142422500Y-103028394D01*
D37*
X122810000Y-83917500D02*
X124135000Y-83917500D01*
D38*
X134272501Y-86280000D02*
X134272501Y-84967499D01*
D39*
X148210000Y-97855000D02*
X147860000Y-98205000D01*
D36*
X144730000Y-97755000D02*
X144830000Y-97855000D01*
D40*
X140135000Y-91652316D02*
X140135000Y-92504999D01*
D38*
X134272501Y-86280000D02*
X135260000Y-86280000D01*
D36*
X117910000Y-98467500D02*
X119522500Y-98467500D01*
X143850000Y-96505000D02*
X146860000Y-96505000D01*
D37*
X121885000Y-96755000D02*
X120335000Y-96755000D01*
D40*
X141232316Y-90555000D02*
X142582316Y-89205000D01*
D36*
X141760000Y-100967500D02*
X141847500Y-101055000D01*
%TO.N,/NRST*%
D39*
X139785000Y-84755000D02*
X139785000Y-83755000D01*
X139810000Y-84780000D02*
X139785000Y-84755000D01*
X135066131Y-100523869D02*
X135601713Y-99988287D01*
X135601713Y-99988287D02*
X135601713Y-98571713D01*
X139785000Y-83755000D02*
X139810000Y-83730000D01*
X133082991Y-100523869D02*
X135066131Y-100523869D01*
X141384996Y-83730000D02*
X141434998Y-83679998D01*
X139810000Y-83730000D02*
X141384996Y-83730000D01*
X128310000Y-89280000D02*
X128310000Y-87830000D01*
%TO.N,/USART2_TX*%
X90060000Y-78830000D02*
X87810000Y-78830000D01*
X123810001Y-89029999D02*
X123810001Y-87830000D01*
%TO.N,/USART2_RX*%
X122692411Y-89755001D02*
X123159998Y-90222588D01*
X121885000Y-89755001D02*
X122692411Y-89755001D01*
X90060000Y-81370000D02*
X87810000Y-81370000D01*
X123159998Y-90222588D02*
X123159998Y-90227213D01*
%TO.N,Net-(J1-CC2)*%
X145694974Y-92255000D02*
X146330000Y-91619974D01*
X146330000Y-91619974D02*
X146330000Y-88437500D01*
X146330000Y-88437500D02*
X145147500Y-87255000D01*
X145200000Y-92255000D02*
X145694974Y-92255000D01*
%TO.N,Net-(F1-Pad2)*%
D36*
X141960000Y-97255000D02*
X140410000Y-97255000D01*
X141960000Y-97255000D02*
X141960000Y-97192918D01*
%TO.N,Net-(J1-CC1)*%
D39*
X143355026Y-94805000D02*
X142735000Y-95425026D01*
X140035000Y-96430000D02*
X139210000Y-97255000D01*
X142326722Y-96430000D02*
X140035000Y-96430000D01*
X142735000Y-96021722D02*
X142326722Y-96430000D01*
X143850000Y-94805000D02*
X143355026Y-94805000D01*
X142735000Y-95425026D02*
X142735000Y-96021722D01*
%TO.N,/ESD+*%
X143850000Y-93955000D02*
X141247500Y-93955000D01*
%TO.N,/ESD-*%
X143850000Y-93105000D02*
X143291388Y-93105000D01*
X144280761Y-93105000D02*
X145130761Y-93955000D01*
X143291388Y-93105000D02*
X142241388Y-92055000D01*
X145130761Y-93955000D02*
X145200000Y-93955000D01*
X143850000Y-93105000D02*
X144280761Y-93105000D01*
X142241388Y-92055000D02*
X141697500Y-92055000D01*
%TO.N,/SW_BOOT0*%
X147460000Y-107980000D02*
X147460000Y-104180000D01*
X147460000Y-104180000D02*
X146935000Y-103655000D01*
X146935000Y-103655000D02*
X146935000Y-99680000D01*
%TO.N,+3.3VA*%
D37*
X125310000Y-86317500D02*
X124560000Y-85567500D01*
X125310000Y-87830000D02*
X125310000Y-86317500D01*
X124560000Y-85567500D02*
X122885000Y-85567500D01*
X122810000Y-85605000D02*
X121110000Y-83905000D01*
X122885000Y-85567500D02*
X122810000Y-85642500D01*
X122810000Y-85642500D02*
X122810000Y-85605000D01*
%TO.N,VBUS*%
D36*
X139685000Y-99205000D02*
X139685000Y-100617500D01*
D40*
X141960000Y-95505000D02*
X141232316Y-95505000D01*
D36*
X140560000Y-95655000D02*
X141810000Y-95655000D01*
D40*
X140110000Y-94382684D02*
X140110000Y-93577316D01*
D36*
X139185000Y-95655000D02*
X140560000Y-95655000D01*
X140624106Y-104505000D02*
X141260000Y-104505000D01*
X140147500Y-103081606D02*
X140097500Y-103131606D01*
D40*
X140110000Y-93577316D02*
X140682316Y-93005000D01*
D36*
X140147500Y-102605000D02*
X140147500Y-103081606D01*
D40*
X140682316Y-93005000D02*
X141247500Y-93005000D01*
X141232316Y-95505000D02*
X140110000Y-94382684D01*
D36*
X140097500Y-103131606D02*
X140097500Y-103978394D01*
X140097500Y-103978394D02*
X140624106Y-104505000D01*
X141810000Y-95655000D02*
X141960000Y-95505000D01*
X141260000Y-102605000D02*
X140147500Y-102605000D01*
X138735000Y-99205000D02*
X139685000Y-99205000D01*
X139685000Y-100617500D02*
X140122500Y-101055000D01*
X138060000Y-98530000D02*
X138735000Y-99205000D01*
X140147500Y-101080000D02*
X140147500Y-102605000D01*
%TO.N,/SWCLK*%
D39*
X133235000Y-97254999D02*
X134534999Y-97254999D01*
X134534999Y-97254999D02*
X134560000Y-97280000D01*
%TO.N,/SWDIO*%
X130310000Y-99180000D02*
X130310000Y-100655000D01*
X130310000Y-100655000D02*
X130185000Y-100780000D01*
%TO.N,/HSE_OUT*%
X128809999Y-86080001D02*
X130010000Y-84880000D01*
X130010000Y-84880000D02*
X130010000Y-84442500D01*
X128809999Y-87830000D02*
X128809999Y-86080001D01*
X132160000Y-84330000D02*
X130122500Y-84330000D01*
X130122500Y-84330000D02*
X130010000Y-84442500D01*
%TO.N,/LED_C*%
D36*
X134797500Y-102255000D02*
X133297500Y-102255000D01*
X133297500Y-102255000D02*
X133135000Y-102092500D01*
%TO.N,/HSE_IN*%
D39*
X129310000Y-86280000D02*
X129310000Y-87830000D01*
X133344744Y-85380000D02*
X130210000Y-85380000D01*
X130210000Y-85380000D02*
X129310000Y-86280000D01*
X133560000Y-83445256D02*
X133560000Y-85164744D01*
X137310000Y-82505000D02*
X135685000Y-82505000D01*
X135060000Y-81880000D02*
X135060000Y-81945256D01*
X135685000Y-82505000D02*
X135060000Y-81880000D01*
X133560000Y-85164744D02*
X133344744Y-85380000D01*
X135060000Y-81945256D02*
X133560000Y-83445256D01*
%TO.N,/USB_D-*%
X131953777Y-97880000D02*
X131728797Y-97655020D01*
X135270000Y-97418529D02*
X134808529Y-97880000D01*
X138010000Y-92664448D02*
X138010000Y-93017500D01*
X135270000Y-95757500D02*
X135270000Y-97418529D01*
X138010000Y-93017500D02*
X135270000Y-95757500D01*
X129360000Y-99130000D02*
X129310000Y-99180000D01*
X138622500Y-92405000D02*
X138269448Y-92405000D01*
X134808529Y-97880000D02*
X131953777Y-97880000D01*
X138269448Y-92405000D02*
X138010000Y-92664448D01*
X129891202Y-97655020D02*
X129360000Y-98186222D01*
X131728797Y-97655020D02*
X129891202Y-97655020D01*
X129360000Y-98186222D02*
X129360000Y-99130000D01*
X138972500Y-92055000D02*
X138622500Y-92405000D01*
%TO.N,/USB_D+*%
X134087389Y-98329980D02*
X134167389Y-98329980D01*
X132487389Y-98329980D02*
X132567389Y-98329980D01*
X130077590Y-98105000D02*
X130389203Y-98105000D01*
X134167389Y-98329980D02*
X134612478Y-98329980D01*
X129810000Y-99180000D02*
X129860000Y-99180000D01*
X133527389Y-98489980D02*
X133527389Y-98569589D01*
X129860000Y-98322590D02*
X130077590Y-98105000D01*
X132087389Y-98729589D02*
X132167389Y-98729589D01*
X134612478Y-98329980D02*
X134994917Y-98329980D01*
X130389203Y-98105000D02*
X131542409Y-98105000D01*
X132327389Y-98569589D02*
X132327389Y-98489980D01*
X135719980Y-95943917D02*
X137708897Y-93955000D01*
X137708897Y-93955000D02*
X138972500Y-93955000D01*
X133927389Y-98569589D02*
X133927389Y-98489980D01*
X131927389Y-98489980D02*
X131927389Y-98569589D01*
X133287389Y-98329980D02*
X133367389Y-98329980D01*
X134994917Y-98329980D02*
X135719980Y-97604917D01*
X131542409Y-98105000D02*
X131767389Y-98329980D01*
X133687389Y-98729589D02*
X133767389Y-98729589D01*
X133127389Y-98569613D02*
X133127389Y-98489980D01*
X129860000Y-99180000D02*
X129860000Y-98322590D01*
X132887389Y-98729613D02*
X132967389Y-98729613D01*
X135719980Y-97604917D02*
X135719980Y-95943917D01*
X132727389Y-98489980D02*
X132727389Y-98569613D01*
X132167389Y-98729589D02*
G75*
G03*
X132327389Y-98569589I11J159989D01*
G01*
X132727389Y-98569613D02*
G75*
G03*
X132887389Y-98729611I160011J13D01*
G01*
X133527389Y-98569589D02*
G75*
G03*
X133687389Y-98729611I160011J-11D01*
G01*
X133127389Y-98489980D02*
G75*
G02*
X133287389Y-98329989I160011J-20D01*
G01*
X131767389Y-98329980D02*
G75*
G02*
X131927420Y-98489980I11J-160020D01*
G01*
X133367389Y-98329980D02*
G75*
G02*
X133527420Y-98489980I11J-160020D01*
G01*
X133767389Y-98729589D02*
G75*
G03*
X133927389Y-98569589I11J159989D01*
G01*
X133927389Y-98489980D02*
G75*
G02*
X134087389Y-98329989I160011J-20D01*
G01*
X132327389Y-98489980D02*
G75*
G02*
X132487389Y-98329989I160011J-20D01*
G01*
X132567389Y-98329980D02*
G75*
G02*
X132727420Y-98489980I11J-160020D01*
G01*
X131927389Y-98569589D02*
G75*
G03*
X132087389Y-98729611I160011J-11D01*
G01*
X132967389Y-98729613D02*
G75*
G03*
X133127413Y-98569613I11J160013D01*
G01*
%TO.N,/ADC1_IN9_BRAKE*%
X123285000Y-93755000D02*
X121885000Y-93755000D01*
X123560000Y-94030000D02*
X123285000Y-93755000D01*
%TO.N,/SPI1_CS_WHEEL*%
X93825000Y-91255000D02*
X91810000Y-89240000D01*
X121885000Y-91255000D02*
X93825000Y-91255000D01*
%TO.N,/SPI1_SCK*%
X121860000Y-91780000D02*
X91810000Y-91780000D01*
X121885000Y-91755000D02*
X121860000Y-91780000D01*
%TO.N,/SPI1_MISO*%
X121885000Y-92255001D02*
X93874999Y-92255001D01*
X93874999Y-92255001D02*
X91810000Y-94320000D01*
%TO.N,/SPI1_MOSI*%
X95915000Y-92755000D02*
X91810000Y-96860000D01*
X121885000Y-92755000D02*
X95915000Y-92755000D01*
%TO.N,/PA1*%
X124410001Y-88781470D02*
X124410001Y-89479264D01*
X123560000Y-89780000D02*
X121060000Y-87280000D01*
X124410001Y-89479264D02*
X124109265Y-89780000D01*
X124109265Y-89780000D02*
X123560000Y-89780000D01*
X94310000Y-90780000D02*
X93560000Y-90030000D01*
X93560000Y-90030000D02*
X93560000Y-81280000D01*
X112135000Y-90780000D02*
X94310000Y-90780000D01*
X124310000Y-87830000D02*
X124310000Y-88681469D01*
X93560000Y-81280000D02*
X93010000Y-80730000D01*
X124310000Y-88681469D02*
X124410001Y-88781470D01*
X93010000Y-80730000D02*
X93010000Y-78780000D01*
X115635000Y-87280000D02*
X112135000Y-90780000D01*
X124310000Y-87830000D02*
X124260001Y-87879999D01*
X121060000Y-87280000D02*
X115635000Y-87280000D01*
%TO.N,/PA0*%
X97410000Y-90380000D02*
X95550000Y-88520000D01*
X124542410Y-86755000D02*
X124077590Y-86755000D01*
X123360001Y-87479999D02*
X123010000Y-87830000D01*
X95550000Y-88520000D02*
X95550000Y-78780000D01*
X122175686Y-87830000D02*
X121225685Y-86880000D01*
X111885000Y-90380000D02*
X97410000Y-90380000D01*
X123577591Y-86755000D02*
X123360001Y-86972590D01*
X121225685Y-86880000D02*
X115385000Y-86880000D01*
X124077590Y-86755000D02*
X124060000Y-86772590D01*
X124042411Y-86755000D02*
X123577591Y-86755000D01*
X115385000Y-86880000D02*
X111885000Y-90380000D01*
X124810000Y-87022590D02*
X124542410Y-86755000D01*
X124810000Y-87830000D02*
X124810000Y-87022590D01*
X124060000Y-86772590D02*
X124042411Y-86755000D01*
X123010000Y-87830000D02*
X122175686Y-87830000D01*
X123360001Y-86972590D02*
X123360001Y-87479999D01*
%TO.N,/PC3*%
X98090000Y-81310000D02*
X98090000Y-78780000D01*
X126310001Y-83333279D02*
X125256722Y-82280000D01*
X99060000Y-82280000D02*
X98090000Y-81310000D01*
X126310001Y-87830000D02*
X126310001Y-83333279D01*
X125256722Y-82280000D02*
X99060000Y-82280000D01*
%TO.N,/PC2*%
X126810000Y-83267593D02*
X125422407Y-81880000D01*
X126810000Y-87830000D02*
X126810000Y-83267593D01*
X125422407Y-81880000D02*
X101560000Y-81880000D01*
X101560000Y-81880000D02*
X100630000Y-80950000D01*
X100630000Y-80950000D02*
X100630000Y-78780000D01*
%TO.N,/PC1*%
X103170000Y-80640000D02*
X103170000Y-78780000D01*
X104010000Y-81480000D02*
X103170000Y-80640000D01*
X125588092Y-81480000D02*
X104010000Y-81480000D01*
X127310000Y-87830000D02*
X127310000Y-83201908D01*
X127310000Y-83201908D02*
X125588092Y-81480000D01*
%TO.N,/PC0*%
X127810000Y-87830000D02*
X127810000Y-83136223D01*
X105710000Y-80430000D02*
X105710000Y-78780000D01*
X106360000Y-81080000D02*
X105710000Y-80430000D01*
X125753777Y-81080000D02*
X106360000Y-81080000D01*
X127810000Y-83136223D02*
X125753777Y-81080000D01*
%TO.N,/PC15*%
X129810000Y-87830000D02*
X129810000Y-89280000D01*
%TO.N,/PC14*%
X130310000Y-87830000D02*
X130310000Y-86280000D01*
%TO.N,/PC13*%
X130810000Y-87830000D02*
X130810000Y-89280000D01*
%TO.N,/PB9*%
X133235000Y-90755000D02*
X131585000Y-90755000D01*
X131585000Y-90755000D02*
X131560000Y-90780000D01*
%TO.N,/PB6*%
X133230000Y-92760000D02*
X131905000Y-92760000D01*
%TO.N,/PB4*%
X133230000Y-93760000D02*
X131905000Y-93760000D01*
%TO.N,/PD2*%
X133220000Y-94760000D02*
X131895000Y-94760000D01*
%TO.N,/PC11*%
X133240000Y-95760000D02*
X131915000Y-95760000D01*
%TO.N,/PA15*%
X133250000Y-96760000D02*
X131925000Y-96760000D01*
%TO.N,/PB8*%
X134670000Y-91250000D02*
X133345000Y-91250000D01*
%TO.N,/PB7*%
X134650000Y-92260000D02*
X133325000Y-92260000D01*
%TO.N,/PB5*%
X134650000Y-93250000D02*
X133325000Y-93250000D01*
%TO.N,/PB3*%
X134670000Y-94270000D02*
X133345000Y-94270000D01*
%TO.N,/PC12*%
X134650000Y-95250000D02*
X133325000Y-95250000D01*
%TO.N,/PC10*%
X134670000Y-96260000D02*
X133345000Y-96260000D01*
%TO.N,/ADC1_IN8_THROTTLE*%
X123560000Y-93030000D02*
X123335000Y-93255000D01*
X121935000Y-93205000D02*
X121885000Y-93255000D01*
X123335000Y-93255000D02*
X121885000Y-93255000D01*
%TO.N,/PB1*%
X99003186Y-102076814D02*
X93800000Y-107280000D01*
X115447500Y-102076814D02*
X99003186Y-102076814D01*
X117396223Y-94255000D02*
X115910000Y-95741223D01*
X121885000Y-94255000D02*
X117396223Y-94255000D01*
X115910000Y-101614314D02*
X115447500Y-102076814D01*
X93800000Y-107280000D02*
X93610000Y-107280000D01*
X115910000Y-95741223D02*
X115910000Y-101614314D01*
%TO.N,/PB2*%
X121885000Y-94754999D02*
X117461909Y-94754999D01*
X101143188Y-102476814D02*
X96340002Y-107280000D01*
X115613186Y-102476814D02*
X101143188Y-102476814D01*
X116310000Y-95906908D02*
X116310000Y-101780000D01*
X116310000Y-101780000D02*
X115613186Y-102476814D01*
X96340002Y-107280000D02*
X96150000Y-107280000D01*
X117461909Y-94754999D02*
X116310000Y-95906908D01*
%TO.N,/PB10*%
X116727157Y-96055436D02*
X116727157Y-101947157D01*
X121885000Y-95255000D02*
X117527593Y-95255000D01*
X115797500Y-102876814D02*
X103283186Y-102876814D01*
X103283186Y-102876814D02*
X98880000Y-107280000D01*
X117527593Y-95255000D02*
X116727157Y-96055436D01*
X98880000Y-107280000D02*
X98690000Y-107280000D01*
X116727157Y-101947157D02*
X115797500Y-102876814D01*
%TO.N,/PB11*%
X117135000Y-102105000D02*
X115963186Y-103276814D01*
X121885000Y-95755000D02*
X117593278Y-95755000D01*
X115963186Y-103276814D02*
X105423186Y-103276814D01*
X117135000Y-96213278D02*
X117135000Y-102105000D01*
X117593278Y-95755000D02*
X117135000Y-96213278D01*
X105423186Y-103276814D02*
X101420000Y-107280000D01*
X101420000Y-107280000D02*
X101230000Y-107280000D01*
%TO.N,/PB12*%
X116128871Y-103676814D02*
X107563186Y-103676814D01*
X121253628Y-103380000D02*
X116425686Y-103380000D01*
X123810001Y-99180000D02*
X123810001Y-100823627D01*
X103960000Y-107280000D02*
X103770000Y-107280000D01*
X107563186Y-103676814D02*
X103960000Y-107280000D01*
X116425686Y-103380000D02*
X116128871Y-103676814D01*
X123810001Y-100823627D02*
X121253628Y-103380000D01*
%TO.N,/PB13*%
X106500002Y-107280000D02*
X106310000Y-107280000D01*
X121419313Y-103780000D02*
X116591371Y-103780000D01*
X124310000Y-99180000D02*
X124310000Y-100889314D01*
X116294556Y-104076814D02*
X109703188Y-104076814D01*
X116591371Y-103780000D02*
X116294556Y-104076814D01*
X124310000Y-100889314D02*
X121419313Y-103780000D01*
X109703188Y-104076814D02*
X106500002Y-107280000D01*
%TO.N,/PB14*%
X124810000Y-101017256D02*
X121647256Y-104180000D01*
X116460241Y-104476814D02*
X111843186Y-104476814D01*
X109040000Y-107280000D02*
X108850000Y-107280000D01*
X124810000Y-99180000D02*
X124810000Y-101017256D01*
X121647256Y-104180000D02*
X116757056Y-104180000D01*
X116757056Y-104180000D02*
X116460241Y-104476814D01*
X111843186Y-104476814D02*
X109040000Y-107280000D01*
%TO.N,/PB15*%
X125310000Y-101082942D02*
X121812941Y-104580000D01*
X111580000Y-107280000D02*
X111390000Y-107280000D01*
X113983186Y-104876814D02*
X111580000Y-107280000D01*
X116922741Y-104580000D02*
X116625926Y-104876814D01*
X116625926Y-104876814D02*
X113983186Y-104876814D01*
X121812941Y-104580000D02*
X116922741Y-104580000D01*
X125310000Y-99180000D02*
X125310000Y-101082942D01*
%TO.N,/PC6*%
X116123186Y-105276814D02*
X114120000Y-107280000D01*
X116791611Y-105276814D02*
X116123186Y-105276814D01*
X121978626Y-104980000D02*
X117088426Y-104980000D01*
X117088426Y-104980000D02*
X116791611Y-105276814D01*
X125810000Y-99180000D02*
X125810000Y-101148628D01*
X125810000Y-101148628D02*
X121978626Y-104980000D01*
X114120000Y-107280000D02*
X113930000Y-107280000D01*
%TO.N,/PC7*%
X116660000Y-107280000D02*
X116470000Y-107280000D01*
X126310001Y-99180000D02*
X126310001Y-101214313D01*
X122144311Y-105380000D02*
X118560000Y-105380000D01*
X118560000Y-105380000D02*
X116660000Y-107280000D01*
X126310001Y-101214313D02*
X122144311Y-105380000D01*
%TO.N,/PC8*%
X120460000Y-105830000D02*
X119010000Y-107280000D01*
X126810000Y-101280000D02*
X122260000Y-105830000D01*
X122260000Y-105830000D02*
X120460000Y-105830000D01*
X126810000Y-99180000D02*
X126810000Y-101280000D01*
%TO.N,/PC9*%
X127310000Y-99180000D02*
X127310000Y-101345685D01*
X127310000Y-101345685D02*
X121550000Y-107105685D01*
X121550000Y-107105685D02*
X121550000Y-107280000D01*
X121550000Y-107040000D02*
X121550000Y-107280000D01*
%TO.N,/PA8*%
X124090000Y-105250000D02*
X124090000Y-107280000D01*
X127810000Y-99180000D02*
X127810000Y-101530000D01*
X127810000Y-101530000D02*
X124090000Y-105250000D01*
%TO.N,/PA9*%
X126630000Y-103350000D02*
X126630000Y-107280000D01*
X128310000Y-101595686D02*
X126630000Y-103275686D01*
X126630000Y-103275686D02*
X126630000Y-103350000D01*
X128310000Y-99180000D02*
X128310000Y-101595686D01*
%TO.N,/PA10*%
X128809999Y-99180000D02*
X128809999Y-100279999D01*
X129170000Y-100640000D02*
X129170000Y-107280000D01*
X128809999Y-100279999D02*
X129170000Y-100640000D01*
%TO.N,Net-(U1-VCAP_1)*%
X119310000Y-96255000D02*
X118822500Y-96742500D01*
X118797500Y-96742500D02*
X117910000Y-96742500D01*
X121885000Y-96255000D02*
X119310000Y-96255000D01*
X118822500Y-96742500D02*
X118797500Y-96742500D01*
%TO.N,/BOOT0*%
X150560000Y-99530000D02*
X148910000Y-99530000D01*
X133232500Y-91750000D02*
X131315000Y-91750000D01*
X148910000Y-99530000D02*
X148760000Y-99680000D01*
X131315000Y-91750000D02*
X131310000Y-91755000D01*
X133060000Y-99530000D02*
X134560000Y-99530000D01*
%TD*%
%TA.AperFunction,Conductor*%
%TO.N,GND*%
G36*
X120337474Y-96725431D02*
G01*
X120399811Y-96780657D01*
X120429343Y-96858527D01*
X120419305Y-96941201D01*
X120379649Y-97002537D01*
X120252686Y-97129500D01*
X120252685Y-97129499D01*
X120159503Y-97222682D01*
X120159495Y-97222692D01*
X120093609Y-97336810D01*
X120076400Y-97401036D01*
X120036219Y-97473984D01*
X119966740Y-97519903D01*
X119908329Y-97530000D01*
X119810001Y-97530000D01*
X119810000Y-97530001D01*
X119810000Y-98331000D01*
X119790069Y-98411862D01*
X119734843Y-98474199D01*
X119656973Y-98503731D01*
X119636000Y-98505000D01*
X119560001Y-98505000D01*
X119560000Y-98505001D01*
X119560000Y-98581000D01*
X119540069Y-98661862D01*
X119484843Y-98724199D01*
X119406973Y-98753731D01*
X119386000Y-98755000D01*
X118452073Y-98755000D01*
X118371211Y-98735069D01*
X118347333Y-98717500D01*
X118160001Y-98717500D01*
X118160000Y-98717501D01*
X118160000Y-99575057D01*
X118162908Y-99591043D01*
X118159750Y-99601128D01*
X118160389Y-99611675D01*
X118147448Y-99640427D01*
X118138028Y-99670521D01*
X118137334Y-99671655D01*
X118113145Y-99710871D01*
X118113141Y-99710880D01*
X118057996Y-99877297D01*
X118057994Y-99877306D01*
X118047500Y-99980023D01*
X118047500Y-100254999D01*
X118047501Y-100255000D01*
X118961000Y-100255000D01*
X119041862Y-100274931D01*
X119104199Y-100330157D01*
X119133731Y-100408027D01*
X119135000Y-100429000D01*
X119135000Y-100504999D01*
X119135001Y-100505000D01*
X119211000Y-100505000D01*
X119291862Y-100524931D01*
X119354199Y-100580157D01*
X119383731Y-100658027D01*
X119385000Y-100679000D01*
X119385000Y-101729998D01*
X119385001Y-101729999D01*
X119522477Y-101729999D01*
X119625188Y-101719507D01*
X119625197Y-101719505D01*
X119791620Y-101664358D01*
X119791627Y-101664355D01*
X119940841Y-101572318D01*
X120064817Y-101448342D01*
X120115090Y-101366837D01*
X120174504Y-101308477D01*
X120254233Y-101284412D01*
X120336013Y-101300156D01*
X120401109Y-101352102D01*
X120401228Y-101352257D01*
X120412416Y-101366837D01*
X120444218Y-101408282D01*
X120569659Y-101504536D01*
X120715738Y-101565044D01*
X120715744Y-101565044D01*
X120715745Y-101565045D01*
X120833123Y-101580498D01*
X120833124Y-101580498D01*
X120833139Y-101580500D01*
X121586860Y-101580499D01*
X121704262Y-101565044D01*
X121704264Y-101565043D01*
X121704265Y-101565043D01*
X121775126Y-101535691D01*
X121850341Y-101504536D01*
X121975782Y-101408282D01*
X122013383Y-101359279D01*
X122031491Y-101344795D01*
X122046048Y-101326743D01*
X122063531Y-101319167D01*
X122078414Y-101307264D01*
X122101185Y-101302852D01*
X122122465Y-101293633D01*
X122141465Y-101295050D01*
X122160176Y-101291426D01*
X122182388Y-101298102D01*
X122205516Y-101299828D01*
X122233669Y-101313517D01*
X122239933Y-101315400D01*
X122243522Y-101317579D01*
X122245842Y-101319026D01*
X122301873Y-101356465D01*
X122313716Y-101361370D01*
X122325931Y-101368991D01*
X122345216Y-101388826D01*
X122367502Y-101405225D01*
X122373861Y-101418286D01*
X122383987Y-101428701D01*
X122391845Y-101455225D01*
X122403958Y-101480104D01*
X122403518Y-101494625D01*
X122407645Y-101508552D01*
X122402276Y-101535691D01*
X122401440Y-101563347D01*
X122394302Y-101576000D01*
X122391484Y-101590251D01*
X122374117Y-101611787D01*
X122360525Y-101635886D01*
X122356869Y-101639655D01*
X121117988Y-102878537D01*
X121046717Y-102921621D01*
X120994951Y-102929500D01*
X117367676Y-102929500D01*
X117286814Y-102909569D01*
X117224477Y-102854343D01*
X117194945Y-102776473D01*
X117204983Y-102693799D01*
X117244637Y-102632465D01*
X117495489Y-102381614D01*
X117554799Y-102278887D01*
X117569567Y-102223770D01*
X117585500Y-102164309D01*
X117585500Y-100755001D01*
X118047501Y-100755001D01*
X118047501Y-101029977D01*
X118057992Y-101132688D01*
X118057994Y-101132697D01*
X118113141Y-101299120D01*
X118113144Y-101299127D01*
X118205181Y-101448341D01*
X118329158Y-101572318D01*
X118478372Y-101664355D01*
X118478379Y-101664358D01*
X118644797Y-101719503D01*
X118644805Y-101719505D01*
X118747523Y-101729999D01*
X118884999Y-101729998D01*
X118885000Y-101729998D01*
X118885000Y-100755001D01*
X118884999Y-100755000D01*
X118047502Y-100755000D01*
X118047501Y-100755001D01*
X117585500Y-100755001D01*
X117585500Y-99651573D01*
X117586813Y-99646243D01*
X117585831Y-99640841D01*
X117596715Y-99606072D01*
X117605431Y-99570711D01*
X117609527Y-99565143D01*
X117610711Y-99561363D01*
X117616717Y-99555372D01*
X117636462Y-99528538D01*
X117660000Y-99504999D01*
X117660000Y-98641500D01*
X117679931Y-98560638D01*
X117735157Y-98498301D01*
X117813027Y-98468769D01*
X117834000Y-98467500D01*
X117909999Y-98467500D01*
X117910000Y-98467499D01*
X117910000Y-98391500D01*
X117929931Y-98310638D01*
X117985157Y-98248301D01*
X118063027Y-98218769D01*
X118084000Y-98217500D01*
X118955427Y-98217500D01*
X119036289Y-98237431D01*
X119060167Y-98255000D01*
X119309999Y-98255000D01*
X119310000Y-98254999D01*
X119310000Y-97529999D01*
X119210854Y-97530000D01*
X119109857Y-97540317D01*
X119109852Y-97540318D01*
X118946199Y-97594546D01*
X118946197Y-97594547D01*
X118860013Y-97647706D01*
X118849107Y-97651211D01*
X118840092Y-97658276D01*
X118809928Y-97663806D01*
X118780727Y-97673193D01*
X118769440Y-97671228D01*
X118758176Y-97673294D01*
X118728896Y-97664172D01*
X118698679Y-97658914D01*
X118687513Y-97651281D01*
X118678663Y-97648524D01*
X118645641Y-97622657D01*
X118639166Y-97616183D01*
X118596076Y-97544915D01*
X118591041Y-97461786D01*
X118624148Y-97387216D01*
X118661117Y-97339037D01*
X118677116Y-97300412D01*
X118726475Y-97233333D01*
X118801352Y-97196875D01*
X118837871Y-97193000D01*
X118881808Y-97193000D01*
X118881809Y-97193000D01*
X118972173Y-97168786D01*
X118996387Y-97162299D01*
X119099114Y-97102989D01*
X119347604Y-96854499D01*
X119445641Y-96756463D01*
X119516912Y-96713378D01*
X119568677Y-96705500D01*
X120256612Y-96705500D01*
X120337474Y-96725431D01*
G37*
%TD.AperFunction*%
%TA.AperFunction,Conductor*%
G36*
X137591862Y-95674931D02*
G01*
X137654199Y-95730157D01*
X137683731Y-95808027D01*
X137685000Y-95829000D01*
X137685000Y-96687927D01*
X137665069Y-96768789D01*
X137635000Y-96809655D01*
X137635000Y-97962980D01*
X137615069Y-98043842D01*
X137584038Y-98086015D01*
X137554723Y-98115330D01*
X137554721Y-98115333D01*
X137483537Y-98221868D01*
X137483535Y-98221872D01*
X137473799Y-98245377D01*
X137434499Y-98340256D01*
X137422296Y-98401602D01*
X137422294Y-98401609D01*
X137412064Y-98453039D01*
X137410564Y-98460585D01*
X137409500Y-98465932D01*
X137409500Y-98594073D01*
X137428709Y-98690637D01*
X137428709Y-98690639D01*
X137434496Y-98719735D01*
X137434498Y-98719741D01*
X137434499Y-98719744D01*
X137440847Y-98735069D01*
X137483533Y-98838124D01*
X137483537Y-98838131D01*
X137554721Y-98944666D01*
X137554722Y-98944668D01*
X138229723Y-99619668D01*
X138229724Y-99619670D01*
X138320332Y-99710277D01*
X138334501Y-99719744D01*
X138426873Y-99781465D01*
X138545256Y-99830501D01*
X138670931Y-99855500D01*
X138670934Y-99855500D01*
X138679314Y-99857167D01*
X138679059Y-99858446D01*
X138749163Y-99883228D01*
X138788484Y-99918719D01*
X138804592Y-99938486D01*
X138822964Y-99982841D01*
X138919218Y-100108282D01*
X138982551Y-100156878D01*
X138995388Y-100172632D01*
X139004760Y-100192433D01*
X139018442Y-100209539D01*
X139023290Y-100231584D01*
X139031017Y-100247908D01*
X139030363Y-100263740D01*
X139034500Y-100282547D01*
X139034500Y-100681569D01*
X139056878Y-100794068D01*
X139059499Y-100807246D01*
X139091441Y-100884359D01*
X139108535Y-100925627D01*
X139167676Y-101014140D01*
X139196028Y-101092446D01*
X139197000Y-101110807D01*
X139197000Y-101306034D01*
X139197001Y-101306053D01*
X139212133Y-101420990D01*
X139212134Y-101420995D01*
X139212135Y-101420999D01*
X139221925Y-101444635D01*
X139263896Y-101545963D01*
X139271383Y-101564037D01*
X139356202Y-101674576D01*
X139389615Y-101750862D01*
X139383749Y-101833937D01*
X139339949Y-101904770D01*
X139268247Y-101947135D01*
X139218158Y-101954500D01*
X138424626Y-101954500D01*
X138365025Y-101960907D01*
X138365016Y-101960909D01*
X138230169Y-102011203D01*
X138219251Y-102017166D01*
X138218087Y-102015036D01*
X138157450Y-102040733D01*
X138074451Y-102033870D01*
X138033204Y-102013608D01*
X138018133Y-102003538D01*
X138018127Y-102003535D01*
X137899744Y-101954499D01*
X137899745Y-101954499D01*
X137862724Y-101947135D01*
X137774069Y-101929500D01*
X137645931Y-101929500D01*
X137645929Y-101929500D01*
X137591104Y-101940405D01*
X137507907Y-101936632D01*
X137435994Y-101894627D01*
X137396405Y-101836334D01*
X137382989Y-101803945D01*
X137348617Y-101720963D01*
X137254367Y-101598133D01*
X137131537Y-101503883D01*
X137131533Y-101503881D01*
X137036178Y-101464384D01*
X136988499Y-101444635D01*
X136988495Y-101444634D01*
X136988490Y-101444633D01*
X136873553Y-101429501D01*
X136873543Y-101429500D01*
X136873540Y-101429500D01*
X136221460Y-101429500D01*
X136221456Y-101429500D01*
X136221446Y-101429501D01*
X136106509Y-101444633D01*
X136106502Y-101444634D01*
X136106501Y-101444635D01*
X136106499Y-101444635D01*
X136106498Y-101444636D01*
X135963466Y-101503881D01*
X135963463Y-101503882D01*
X135963463Y-101503883D01*
X135922010Y-101535691D01*
X135840635Y-101598131D01*
X135840629Y-101598137D01*
X135810543Y-101637347D01*
X135745506Y-101689366D01*
X135663743Y-101705202D01*
X135583987Y-101681227D01*
X135534457Y-101637347D01*
X135504370Y-101598137D01*
X135504367Y-101598133D01*
X135381537Y-101503883D01*
X135381533Y-101503881D01*
X135286178Y-101464384D01*
X135238499Y-101444635D01*
X135238495Y-101444634D01*
X135238490Y-101444633D01*
X135123553Y-101429501D01*
X135123543Y-101429500D01*
X135123540Y-101429500D01*
X134471460Y-101429500D01*
X134471456Y-101429500D01*
X134471446Y-101429501D01*
X134356509Y-101444633D01*
X134356502Y-101444634D01*
X134356501Y-101444635D01*
X134356499Y-101444635D01*
X134356498Y-101444636D01*
X134213466Y-101503881D01*
X134213463Y-101503882D01*
X134213463Y-101503883D01*
X134129193Y-101568544D01*
X134096510Y-101582859D01*
X134064912Y-101599444D01*
X134056243Y-101600496D01*
X134052909Y-101601957D01*
X134023271Y-101604500D01*
X134016841Y-101604500D01*
X133935979Y-101584569D01*
X133878798Y-101536425D01*
X133791867Y-101423133D01*
X133669037Y-101328883D01*
X133669033Y-101328881D01*
X133621335Y-101309124D01*
X133554255Y-101259767D01*
X133517797Y-101184889D01*
X133520312Y-101101645D01*
X133561224Y-101029105D01*
X133631161Y-100983887D01*
X133687921Y-100974369D01*
X135125438Y-100974369D01*
X135125440Y-100974369D01*
X135221525Y-100948623D01*
X135240018Y-100943668D01*
X135342745Y-100884358D01*
X135962202Y-100264901D01*
X136003097Y-100194069D01*
X136003100Y-100194065D01*
X136021509Y-100162178D01*
X136021510Y-100162177D01*
X136021510Y-100162176D01*
X136021512Y-100162173D01*
X136052213Y-100047596D01*
X136052213Y-99113231D01*
X136072144Y-99032369D01*
X136103173Y-98990197D01*
X136106989Y-98986382D01*
X136178178Y-98879840D01*
X136227214Y-98761457D01*
X136252213Y-98635782D01*
X136252213Y-98507644D01*
X136227214Y-98381969D01*
X136178178Y-98263586D01*
X136172440Y-98254999D01*
X136106992Y-98157048D01*
X136106991Y-98157047D01*
X136106989Y-98157044D01*
X136079006Y-98129061D01*
X136035924Y-98057793D01*
X136030895Y-97974663D01*
X136065075Y-97898718D01*
X136079007Y-97882992D01*
X136080469Y-97881531D01*
X136139779Y-97778804D01*
X136139780Y-97778800D01*
X136144855Y-97770010D01*
X136152386Y-97762168D01*
X136156671Y-97752174D01*
X136180907Y-97732474D01*
X136202546Y-97709946D01*
X136212861Y-97706502D01*
X136221298Y-97699645D01*
X136251910Y-97693465D01*
X136281542Y-97683573D01*
X136292275Y-97685317D01*
X136302933Y-97683166D01*
X136332912Y-97691921D01*
X136363745Y-97696932D01*
X136372438Y-97703464D01*
X136382876Y-97706513D01*
X136405353Y-97728198D01*
X136430325Y-97746963D01*
X136436551Y-97758297D01*
X136442811Y-97764336D01*
X136460710Y-97802272D01*
X136462042Y-97806292D01*
X136462048Y-97806305D01*
X136552553Y-97953036D01*
X136674463Y-98074946D01*
X136821194Y-98165451D01*
X136821199Y-98165453D01*
X136984850Y-98219680D01*
X137085846Y-98229998D01*
X137085865Y-98229999D01*
X137112318Y-98229999D01*
X137135000Y-98160774D01*
X137135000Y-96222073D01*
X137154931Y-96141211D01*
X137185000Y-96100344D01*
X137185000Y-95829000D01*
X137192519Y-95798492D01*
X137196307Y-95767299D01*
X137202374Y-95758508D01*
X137204931Y-95748138D01*
X137225766Y-95724619D01*
X137243617Y-95698759D01*
X137253074Y-95693795D01*
X137260157Y-95685801D01*
X137289533Y-95674660D01*
X137317359Y-95660056D01*
X137333072Y-95658148D01*
X137338027Y-95656269D01*
X137359000Y-95655000D01*
X137511000Y-95655000D01*
X137591862Y-95674931D01*
G37*
%TD.AperFunction*%
%TA.AperFunction,Conductor*%
G36*
X118599510Y-87734681D02*
G01*
X118616967Y-87733939D01*
X118639363Y-87744504D01*
X118663407Y-87750431D01*
X118676484Y-87762016D01*
X118692288Y-87769472D01*
X118707209Y-87789237D01*
X118725744Y-87805657D01*
X118731939Y-87821993D01*
X118742468Y-87835939D01*
X118746495Y-87860374D01*
X118755276Y-87883527D01*
X118753402Y-87902279D01*
X118756012Y-87918112D01*
X118747713Y-87959230D01*
X118695320Y-88117345D01*
X118695319Y-88117346D01*
X118685000Y-88218355D01*
X118685000Y-88317499D01*
X118685001Y-88317500D01*
X120634998Y-88317500D01*
X120634999Y-88317499D01*
X120634999Y-88218354D01*
X120624682Y-88117356D01*
X120624679Y-88117344D01*
X120572287Y-87959230D01*
X120570919Y-87941810D01*
X120564724Y-87925473D01*
X120567708Y-87900891D01*
X120565771Y-87876203D01*
X120572656Y-87860143D01*
X120574762Y-87842799D01*
X120588829Y-87822419D01*
X120598587Y-87799659D01*
X120612146Y-87788638D01*
X120622072Y-87774259D01*
X120643998Y-87762750D01*
X120663215Y-87747133D01*
X120681607Y-87743012D01*
X120695814Y-87735556D01*
X120737455Y-87730500D01*
X120801323Y-87730500D01*
X120882185Y-87750431D01*
X120924360Y-87781463D01*
X122100361Y-88957464D01*
X122143445Y-89028735D01*
X122148474Y-89111865D01*
X122114294Y-89187810D01*
X122048736Y-89239172D01*
X121977324Y-89254501D01*
X121151512Y-89254501D01*
X121132762Y-89257470D01*
X121051876Y-89270281D01*
X121051872Y-89270282D01*
X120931782Y-89331471D01*
X120836470Y-89426783D01*
X120775281Y-89546873D01*
X120775280Y-89546877D01*
X120759500Y-89646514D01*
X120759500Y-89662277D01*
X120739569Y-89743139D01*
X120684343Y-89805476D01*
X120606473Y-89835008D01*
X120523799Y-89824970D01*
X120455259Y-89777660D01*
X120436875Y-89752758D01*
X120429888Y-89741282D01*
X120411117Y-89695963D01*
X120368437Y-89640340D01*
X120363568Y-89632343D01*
X120353789Y-89601304D01*
X120340736Y-89571501D01*
X120341406Y-89561996D01*
X120338544Y-89552909D01*
X120344309Y-89520887D01*
X120346601Y-89488426D01*
X120351636Y-89480190D01*
X120353301Y-89470945D01*
X120371893Y-89447059D01*
X120389158Y-89418824D01*
X120479944Y-89328039D01*
X120479946Y-89328037D01*
X120570451Y-89181305D01*
X120570453Y-89181300D01*
X120624680Y-89017649D01*
X120635000Y-88916644D01*
X120635000Y-88817501D01*
X120634999Y-88817500D01*
X118685002Y-88817500D01*
X118685001Y-88817501D01*
X118685001Y-88916645D01*
X118695317Y-89017643D01*
X118695318Y-89017647D01*
X118749546Y-89181300D01*
X118749548Y-89181305D01*
X118840053Y-89328036D01*
X118930842Y-89418825D01*
X118941325Y-89436167D01*
X118955796Y-89450349D01*
X118962549Y-89471276D01*
X118973926Y-89490096D01*
X118975149Y-89510320D01*
X118981373Y-89529606D01*
X118977627Y-89551275D01*
X118978955Y-89573226D01*
X118970567Y-89592117D01*
X118967187Y-89611671D01*
X118945850Y-89647785D01*
X118932350Y-89665379D01*
X118867313Y-89717399D01*
X118785551Y-89733236D01*
X118726981Y-89716994D01*
X118726024Y-89719306D01*
X118599744Y-89666999D01*
X118599745Y-89666999D01*
X118568325Y-89660749D01*
X118474069Y-89642000D01*
X118345931Y-89642000D01*
X118270526Y-89656999D01*
X118220254Y-89666999D01*
X118101872Y-89716035D01*
X118101871Y-89716035D01*
X117995335Y-89787220D01*
X117904720Y-89877835D01*
X117833535Y-89984371D01*
X117833535Y-89984372D01*
X117784499Y-90102754D01*
X117774206Y-90154499D01*
X117759500Y-90228431D01*
X117759500Y-90356569D01*
X117773466Y-90426780D01*
X117784499Y-90482245D01*
X117784500Y-90482248D01*
X117818327Y-90563914D01*
X117830858Y-90646248D01*
X117803691Y-90724974D01*
X117743050Y-90782057D01*
X117662827Y-90804421D01*
X117657572Y-90804500D01*
X113167677Y-90804500D01*
X113086815Y-90784569D01*
X113024478Y-90729343D01*
X112994946Y-90651473D01*
X113004984Y-90568799D01*
X113044640Y-90507463D01*
X115770640Y-87781463D01*
X115841911Y-87738379D01*
X115893677Y-87730500D01*
X118582545Y-87730500D01*
X118599510Y-87734681D01*
G37*
%TD.AperFunction*%
%TA.AperFunction,Conductor*%
G36*
X96879731Y-79151655D02*
G01*
X96948837Y-79198132D01*
X96975035Y-79236087D01*
X97054883Y-79392799D01*
X97063240Y-79409199D01*
X97174310Y-79562073D01*
X97307927Y-79695690D01*
X97460801Y-79806760D01*
X97544496Y-79849404D01*
X97607494Y-79903871D01*
X97637965Y-79981378D01*
X97639500Y-80004438D01*
X97639500Y-81369312D01*
X97656852Y-81434069D01*
X97663713Y-81459673D01*
X97665001Y-81464481D01*
X97670201Y-81483888D01*
X97683210Y-81506419D01*
X97729511Y-81586614D01*
X98783386Y-82640489D01*
X98886113Y-82699799D01*
X98886115Y-82699799D01*
X98886116Y-82699800D01*
X98910327Y-82706287D01*
X98910334Y-82706288D01*
X99000691Y-82730500D01*
X118671443Y-82730500D01*
X118752305Y-82750431D01*
X118814642Y-82805657D01*
X118844174Y-82883527D01*
X118834136Y-82966201D01*
X118794480Y-83027537D01*
X118690053Y-83131963D01*
X118599548Y-83278694D01*
X118599546Y-83278699D01*
X118545319Y-83442350D01*
X118535000Y-83543355D01*
X118535000Y-83642499D01*
X118535001Y-83642500D01*
X119336000Y-83642500D01*
X119366507Y-83650019D01*
X119397701Y-83653807D01*
X119406491Y-83659874D01*
X119416862Y-83662431D01*
X119440380Y-83683266D01*
X119466241Y-83701117D01*
X119471204Y-83710574D01*
X119479199Y-83717657D01*
X119490339Y-83747033D01*
X119504944Y-83774859D01*
X119506851Y-83790572D01*
X119508731Y-83795527D01*
X119510000Y-83816500D01*
X119510000Y-83968500D01*
X119490069Y-84049362D01*
X119434843Y-84111699D01*
X119356973Y-84141231D01*
X119336000Y-84142500D01*
X118535002Y-84142500D01*
X118535001Y-84142501D01*
X118535001Y-84241645D01*
X118545317Y-84342643D01*
X118545318Y-84342647D01*
X118599546Y-84506300D01*
X118599548Y-84506305D01*
X118690053Y-84653036D01*
X118706980Y-84669963D01*
X118750064Y-84741234D01*
X118755093Y-84824364D01*
X118720913Y-84900309D01*
X118655355Y-84951671D01*
X118583943Y-84967000D01*
X106874069Y-84967000D01*
X106745931Y-84967000D01*
X106683458Y-84979427D01*
X106620254Y-84991999D01*
X106501872Y-85041035D01*
X106501871Y-85041035D01*
X106395335Y-85112220D01*
X106304720Y-85202835D01*
X106233535Y-85309371D01*
X106233535Y-85309372D01*
X106184499Y-85427754D01*
X106173764Y-85481724D01*
X106159500Y-85553431D01*
X106159500Y-85681569D01*
X106170947Y-85739113D01*
X106184499Y-85807245D01*
X106233535Y-85925627D01*
X106233535Y-85925628D01*
X106304720Y-86032164D01*
X106304721Y-86032165D01*
X106304724Y-86032169D01*
X106395331Y-86122776D01*
X106395334Y-86122778D01*
X106395335Y-86122779D01*
X106448237Y-86158126D01*
X106501873Y-86193965D01*
X106620256Y-86243001D01*
X106745931Y-86268000D01*
X106874069Y-86268000D01*
X114939824Y-86268000D01*
X115020686Y-86287931D01*
X115083023Y-86343157D01*
X115112555Y-86421027D01*
X115102517Y-86503701D01*
X115062862Y-86565034D01*
X113397899Y-88229998D01*
X111749360Y-89878537D01*
X111678089Y-89921621D01*
X111626323Y-89929500D01*
X97668677Y-89929500D01*
X97587815Y-89909569D01*
X97545640Y-89878537D01*
X96051463Y-88384360D01*
X96008379Y-88313089D01*
X96000500Y-88261323D01*
X96000500Y-80004438D01*
X96020431Y-79923576D01*
X96075657Y-79861239D01*
X96095494Y-79849409D01*
X96179199Y-79806760D01*
X96332073Y-79695690D01*
X96465690Y-79562073D01*
X96576760Y-79409199D01*
X96642335Y-79280500D01*
X96664965Y-79236087D01*
X96719434Y-79173087D01*
X96796941Y-79142616D01*
X96879731Y-79151655D01*
G37*
%TD.AperFunction*%
%TA.AperFunction,Conductor*%
G36*
X147625795Y-88964940D02*
G01*
X147569940Y-89020795D01*
X147530444Y-89089204D01*
X147510000Y-89165504D01*
X147510000Y-89244496D01*
X147530444Y-89320796D01*
X147569940Y-89389205D01*
X147625795Y-89445060D01*
X147643012Y-89455000D01*
X146954500Y-89455000D01*
X146873638Y-89435069D01*
X146811301Y-89379843D01*
X146781769Y-89301973D01*
X146780500Y-89281000D01*
X146780500Y-89129000D01*
X146800431Y-89048138D01*
X146855657Y-88985801D01*
X146933527Y-88956269D01*
X146954500Y-88955000D01*
X147643012Y-88955000D01*
X147625795Y-88964940D01*
G37*
%TD.AperFunction*%
%TA.AperFunction,Conductor*%
G36*
X145879500Y-89281000D02*
G01*
X145859569Y-89361862D01*
X145804343Y-89424199D01*
X145773288Y-89435976D01*
X145820060Y-89389205D01*
X145859556Y-89320796D01*
X145879500Y-89246362D01*
X145879500Y-89281000D01*
G37*
%TD.AperFunction*%
%TA.AperFunction,Conductor*%
G36*
X145767201Y-88966307D02*
G01*
X145775991Y-88972374D01*
X145786362Y-88974931D01*
X145809880Y-88995766D01*
X145835741Y-89013617D01*
X145840704Y-89023074D01*
X145848699Y-89030157D01*
X145859839Y-89059533D01*
X145874444Y-89087359D01*
X145876351Y-89103072D01*
X145878231Y-89108027D01*
X145879500Y-89129000D01*
X145879500Y-89163637D01*
X145859556Y-89089204D01*
X145820060Y-89020795D01*
X145765346Y-88966081D01*
X145767201Y-88966307D01*
G37*
%TD.AperFunction*%
%TA.AperFunction,Conductor*%
G36*
X125795244Y-84050475D02*
G01*
X125845424Y-84116942D01*
X125859501Y-84185503D01*
X125859501Y-85739113D01*
X125855689Y-85754577D01*
X125856651Y-85770477D01*
X125845861Y-85794451D01*
X125839570Y-85819975D01*
X125829008Y-85831896D01*
X125822471Y-85846422D01*
X125801775Y-85862636D01*
X125784344Y-85882312D01*
X125769453Y-85887959D01*
X125756913Y-85897784D01*
X125731050Y-85902523D01*
X125706474Y-85911844D01*
X125690664Y-85909924D01*
X125674995Y-85912796D01*
X125649894Y-85904974D01*
X125623800Y-85901806D01*
X125608980Y-85892224D01*
X125595484Y-85888019D01*
X125562464Y-85862150D01*
X125436463Y-85736149D01*
X125393379Y-85664878D01*
X125385500Y-85613112D01*
X125385500Y-85053965D01*
X125385500Y-85053960D01*
X125370365Y-84939001D01*
X125311117Y-84795963D01*
X125274147Y-84747783D01*
X125240736Y-84671501D01*
X125246601Y-84588426D01*
X125289158Y-84518824D01*
X125379944Y-84428039D01*
X125379946Y-84428037D01*
X125470451Y-84281305D01*
X125470453Y-84281300D01*
X125520332Y-84130773D01*
X125564686Y-84060285D01*
X125636716Y-84018482D01*
X125719923Y-84014942D01*
X125795244Y-84050475D01*
G37*
%TD.AperFunction*%
%TA.AperFunction,Conductor*%
G36*
X122011679Y-82734232D02*
G01*
X122027243Y-82733231D01*
X122051556Y-82744061D01*
X122077398Y-82750431D01*
X122089071Y-82760772D01*
X122103318Y-82767119D01*
X122119812Y-82788007D01*
X122139735Y-82805657D01*
X122145265Y-82820240D01*
X122154931Y-82832480D01*
X122159829Y-82858642D01*
X122169267Y-82883527D01*
X122167387Y-82899007D01*
X122170258Y-82914339D01*
X122162436Y-82939780D01*
X122159229Y-82966201D01*
X122150368Y-82979037D01*
X122145786Y-82993944D01*
X122120044Y-83027063D01*
X121978896Y-83169299D01*
X121951466Y-83186024D01*
X121926080Y-83205729D01*
X121916283Y-83207478D01*
X121907791Y-83212657D01*
X121875729Y-83214720D01*
X121844095Y-83220369D01*
X121834609Y-83217366D01*
X121824681Y-83218005D01*
X121794457Y-83204654D01*
X121764697Y-83195233D01*
X121758133Y-83188609D01*
X121749466Y-83184780D01*
X121644037Y-83103883D01*
X121644033Y-83103881D01*
X121550781Y-83065255D01*
X121483701Y-83015898D01*
X121447243Y-82941020D01*
X121449758Y-82857776D01*
X121490670Y-82785236D01*
X121560607Y-82740018D01*
X121617367Y-82730500D01*
X121996536Y-82730500D01*
X122011679Y-82734232D01*
G37*
%TD.AperFunction*%
%TA.AperFunction,Conductor*%
G36*
X151966362Y-77050431D02*
G01*
X152028699Y-77105657D01*
X152058231Y-77183527D01*
X152059500Y-77204500D01*
X152059500Y-108855500D01*
X152039569Y-108936362D01*
X151984343Y-108998699D01*
X151906473Y-109028231D01*
X151885500Y-109029500D01*
X148572898Y-109029500D01*
X148492036Y-109009569D01*
X148429699Y-108954343D01*
X148400167Y-108876473D01*
X148400716Y-108830413D01*
X148410500Y-108763261D01*
X148410500Y-106196738D01*
X148402350Y-106140802D01*
X148400573Y-106128607D01*
X148349198Y-106023517D01*
X148266483Y-105940802D01*
X148266481Y-105940801D01*
X148266480Y-105940800D01*
X148161393Y-105889427D01*
X148161391Y-105889426D01*
X148093261Y-105879500D01*
X148093260Y-105879500D01*
X148084500Y-105879500D01*
X148003638Y-105859569D01*
X147941301Y-105804343D01*
X147911769Y-105726473D01*
X147910500Y-105705500D01*
X147910500Y-104120692D01*
X147910499Y-104120687D01*
X147879799Y-104006114D01*
X147879799Y-104006112D01*
X147820493Y-103903392D01*
X147820490Y-103903389D01*
X147820489Y-103903386D01*
X147631411Y-103714308D01*
X147436463Y-103519359D01*
X147393379Y-103448088D01*
X147385500Y-103396323D01*
X147385500Y-102230001D01*
X148860000Y-102230001D01*
X148860000Y-103277828D01*
X148866401Y-103337373D01*
X148866401Y-103337376D01*
X148916645Y-103472086D01*
X148916649Y-103472093D01*
X149002805Y-103587182D01*
X149002817Y-103587194D01*
X149117906Y-103673350D01*
X149117913Y-103673354D01*
X149252624Y-103723598D01*
X149312171Y-103730000D01*
X149709999Y-103730000D01*
X149710000Y-103729999D01*
X149710000Y-102230001D01*
X150210000Y-102230001D01*
X150210000Y-103729999D01*
X150210001Y-103730000D01*
X150607829Y-103730000D01*
X150667373Y-103723598D01*
X150667376Y-103723598D01*
X150802086Y-103673354D01*
X150802093Y-103673350D01*
X150917182Y-103587194D01*
X150917194Y-103587182D01*
X151003350Y-103472093D01*
X151003354Y-103472086D01*
X151053598Y-103337376D01*
X151053598Y-103337373D01*
X151060000Y-103277828D01*
X151060000Y-102230001D01*
X151059999Y-102230000D01*
X150210001Y-102230000D01*
X150210000Y-102230001D01*
X149710000Y-102230001D01*
X149709999Y-102230000D01*
X148860001Y-102230000D01*
X148860000Y-102230001D01*
X147385500Y-102230001D01*
X147385500Y-100587022D01*
X147405431Y-100506160D01*
X147460657Y-100443823D01*
X147472509Y-100436329D01*
X147481533Y-100431118D01*
X147481537Y-100431117D01*
X147604367Y-100336867D01*
X147698617Y-100214037D01*
X147698619Y-100214033D01*
X147705559Y-100204989D01*
X147707254Y-100206290D01*
X147754501Y-100157101D01*
X147833497Y-100130727D01*
X147915700Y-100144086D01*
X147982280Y-100194116D01*
X147992869Y-100209457D01*
X147996382Y-100214036D01*
X147996383Y-100214037D01*
X148090633Y-100336867D01*
X148213463Y-100431117D01*
X148356501Y-100490365D01*
X148471460Y-100505500D01*
X148471465Y-100505500D01*
X148686000Y-100505500D01*
X148766862Y-100525431D01*
X148829199Y-100580657D01*
X148858731Y-100658527D01*
X148860000Y-100679500D01*
X148860000Y-101729999D01*
X148860001Y-101730000D01*
X151059999Y-101730000D01*
X151060000Y-101729999D01*
X151060000Y-100682171D01*
X151053598Y-100622626D01*
X151053598Y-100622623D01*
X151003354Y-100487913D01*
X151003350Y-100487906D01*
X150917194Y-100372817D01*
X150917185Y-100372808D01*
X150902901Y-100362115D01*
X150850113Y-100297700D01*
X150833306Y-100216132D01*
X150856331Y-100136096D01*
X150910508Y-100078146D01*
X150974669Y-100035276D01*
X151065276Y-99944669D01*
X151136465Y-99838127D01*
X151185501Y-99719744D01*
X151210500Y-99594069D01*
X151210500Y-99465931D01*
X151185501Y-99340256D01*
X151136465Y-99221873D01*
X151131877Y-99215007D01*
X151065279Y-99115335D01*
X151065278Y-99115334D01*
X151065276Y-99115331D01*
X150974669Y-99024724D01*
X150974665Y-99024721D01*
X150974664Y-99024720D01*
X150868127Y-98953535D01*
X150749744Y-98904499D01*
X150749745Y-98904499D01*
X150709280Y-98896450D01*
X150624069Y-98879500D01*
X150495931Y-98879500D01*
X150420526Y-98894499D01*
X150370254Y-98904499D01*
X150251872Y-98953535D01*
X150251871Y-98953535D01*
X150145335Y-99024720D01*
X150145331Y-99024723D01*
X150145331Y-99024724D01*
X150141516Y-99028538D01*
X150070248Y-99071621D01*
X150018482Y-99079500D01*
X149557808Y-99079500D01*
X149476946Y-99059569D01*
X149462240Y-99050906D01*
X149438914Y-99035575D01*
X149429367Y-99023133D01*
X149306537Y-98928883D01*
X149225529Y-98895328D01*
X149211768Y-98886284D01*
X149194328Y-98867476D01*
X149173670Y-98852276D01*
X149166412Y-98837370D01*
X149155142Y-98825216D01*
X149148440Y-98800459D01*
X149137212Y-98777398D01*
X149137712Y-98760828D01*
X149133381Y-98744827D01*
X149138952Y-98719789D01*
X149139727Y-98694154D01*
X149147870Y-98679715D01*
X149151471Y-98663534D01*
X149168039Y-98643954D01*
X149180639Y-98621614D01*
X149202843Y-98602824D01*
X149205268Y-98599959D01*
X149207113Y-98599210D01*
X149210674Y-98596198D01*
X149215585Y-98592916D01*
X149347916Y-98460585D01*
X149451878Y-98304995D01*
X149451878Y-98304994D01*
X149523491Y-98132106D01*
X149528884Y-98105000D01*
X148776988Y-98105000D01*
X148794205Y-98095060D01*
X148850060Y-98039205D01*
X148889556Y-97970796D01*
X148910000Y-97894496D01*
X148910000Y-97815504D01*
X148889556Y-97739204D01*
X148850060Y-97670795D01*
X148794205Y-97614940D01*
X148776988Y-97605000D01*
X149528884Y-97605000D01*
X149528883Y-97604999D01*
X149523491Y-97577893D01*
X149451878Y-97405005D01*
X149451878Y-97405004D01*
X149347916Y-97249414D01*
X149215585Y-97117083D01*
X149059994Y-97013121D01*
X148887105Y-96941508D01*
X148703565Y-96905000D01*
X148460001Y-96905000D01*
X148460000Y-96905001D01*
X148460000Y-97555000D01*
X147960000Y-97555000D01*
X147960000Y-96905001D01*
X147959999Y-96905000D01*
X147716434Y-96905000D01*
X147532894Y-96941508D01*
X147360005Y-97013121D01*
X147360004Y-97013121D01*
X147204414Y-97117083D01*
X147072083Y-97249414D01*
X146968121Y-97405004D01*
X146968121Y-97405005D01*
X146896508Y-97577893D01*
X146891116Y-97604999D01*
X146891116Y-97605000D01*
X147643012Y-97605000D01*
X147625795Y-97614940D01*
X147569940Y-97670795D01*
X147530444Y-97739204D01*
X147510000Y-97815504D01*
X147510000Y-97894496D01*
X147530444Y-97970796D01*
X147569940Y-98039205D01*
X147625795Y-98095060D01*
X147643012Y-98105000D01*
X146891116Y-98105000D01*
X146896508Y-98132106D01*
X146968121Y-98304994D01*
X146968121Y-98304995D01*
X147072083Y-98460585D01*
X147168961Y-98557463D01*
X147212045Y-98628734D01*
X147217074Y-98711864D01*
X147182894Y-98787809D01*
X147117336Y-98839171D01*
X147045924Y-98854500D01*
X146646460Y-98854500D01*
X146646456Y-98854500D01*
X146646446Y-98854501D01*
X146531509Y-98869633D01*
X146531502Y-98869634D01*
X146531501Y-98869635D01*
X146531499Y-98869635D01*
X146531498Y-98869636D01*
X146388466Y-98928881D01*
X146388463Y-98928882D01*
X146388463Y-98928883D01*
X146367890Y-98944669D01*
X146265635Y-99023131D01*
X146265631Y-99023135D01*
X146214471Y-99089809D01*
X146194885Y-99115335D01*
X146171381Y-99145966D01*
X146112136Y-99288998D01*
X146112133Y-99289009D01*
X146097001Y-99403946D01*
X146097000Y-99403965D01*
X146097000Y-99956034D01*
X146097001Y-99956053D01*
X146112133Y-100070990D01*
X146112134Y-100070995D01*
X146112135Y-100070999D01*
X146115656Y-100079500D01*
X146167432Y-100204500D01*
X146171383Y-100214037D01*
X146265633Y-100336867D01*
X146358371Y-100408027D01*
X146388463Y-100431117D01*
X146397491Y-100436329D01*
X146457558Y-100494017D01*
X146483935Y-100573011D01*
X146484500Y-100587022D01*
X146484500Y-103714308D01*
X146484499Y-103714308D01*
X146499368Y-103769794D01*
X146499369Y-103769803D01*
X146515199Y-103828883D01*
X146515200Y-103828885D01*
X146515201Y-103828887D01*
X146574511Y-103931614D01*
X146958538Y-104315641D01*
X147001621Y-104386910D01*
X147009500Y-104438676D01*
X147009500Y-105705500D01*
X146989569Y-105786362D01*
X146934343Y-105848699D01*
X146856473Y-105878231D01*
X146835500Y-105879500D01*
X146826739Y-105879500D01*
X146758608Y-105889426D01*
X146758606Y-105889427D01*
X146653519Y-105940800D01*
X146570800Y-106023519D01*
X146519427Y-106128606D01*
X146519426Y-106128608D01*
X146509500Y-106196738D01*
X146509500Y-108763261D01*
X146519284Y-108830413D01*
X146511220Y-108913304D01*
X146465559Y-108982952D01*
X146392760Y-109023403D01*
X146347102Y-109029500D01*
X86234500Y-109029500D01*
X86153638Y-109009569D01*
X86091301Y-108954343D01*
X86061769Y-108876473D01*
X86060500Y-108855500D01*
X86060500Y-105933951D01*
X86409500Y-105933951D01*
X86409500Y-106226048D01*
X86427091Y-106382171D01*
X86440133Y-106497927D01*
X86442203Y-106516293D01*
X86442203Y-106516294D01*
X86507195Y-106801039D01*
X86507196Y-106801044D01*
X86507197Y-106801045D01*
X86559858Y-106951544D01*
X86603668Y-107076745D01*
X86730391Y-107339886D01*
X86730395Y-107339893D01*
X86885666Y-107587007D01*
X86885792Y-107587206D01*
X87067902Y-107815565D01*
X87274435Y-108022098D01*
X87502794Y-108204208D01*
X87502797Y-108204210D01*
X87502796Y-108204210D01*
X87666005Y-108306760D01*
X87750107Y-108359605D01*
X87750111Y-108359607D01*
X87750113Y-108359608D01*
X88013254Y-108486331D01*
X88013256Y-108486331D01*
X88013263Y-108486335D01*
X88288955Y-108582803D01*
X88573714Y-108647798D01*
X88863959Y-108680500D01*
X88863961Y-108680500D01*
X89156039Y-108680500D01*
X89156041Y-108680500D01*
X89446286Y-108647798D01*
X89731045Y-108582803D01*
X90006737Y-108486335D01*
X90269893Y-108359605D01*
X90517206Y-108204208D01*
X90745565Y-108022098D01*
X90952098Y-107815565D01*
X91134208Y-107587206D01*
X91289605Y-107339893D01*
X91416335Y-107076737D01*
X91512803Y-106801045D01*
X91577798Y-106516286D01*
X91610500Y-106226041D01*
X91610500Y-105933959D01*
X91577798Y-105643714D01*
X91573378Y-105624351D01*
X91512804Y-105358960D01*
X91512803Y-105358955D01*
X91416335Y-105083263D01*
X91382279Y-105012546D01*
X91289608Y-104820113D01*
X91289604Y-104820106D01*
X91286680Y-104815453D01*
X91134208Y-104572794D01*
X90952098Y-104344435D01*
X90745565Y-104137902D01*
X90517206Y-103955792D01*
X90517204Y-103955791D01*
X90517202Y-103955789D01*
X90517203Y-103955789D01*
X90269893Y-103800395D01*
X90269886Y-103800391D01*
X90006745Y-103673668D01*
X90006738Y-103673665D01*
X90006737Y-103673665D01*
X89731045Y-103577197D01*
X89731044Y-103577196D01*
X89731039Y-103577195D01*
X89446294Y-103512203D01*
X89446286Y-103512202D01*
X89414029Y-103508567D01*
X89156048Y-103479500D01*
X89156041Y-103479500D01*
X88863959Y-103479500D01*
X88863951Y-103479500D01*
X88602335Y-103508977D01*
X88573714Y-103512202D01*
X88573713Y-103512202D01*
X88573706Y-103512203D01*
X88573705Y-103512203D01*
X88288960Y-103577195D01*
X88013254Y-103673668D01*
X87750113Y-103800391D01*
X87750106Y-103800395D01*
X87502797Y-103955789D01*
X87274439Y-104137898D01*
X87067898Y-104344439D01*
X86885789Y-104572797D01*
X86730395Y-104820106D01*
X86730391Y-104820113D01*
X86603668Y-105083254D01*
X86507195Y-105358960D01*
X86442203Y-105643705D01*
X86442203Y-105643706D01*
X86409500Y-105933951D01*
X86060500Y-105933951D01*
X86060500Y-94703755D01*
X86550000Y-94703755D01*
X86550000Y-94916244D01*
X86583242Y-95126125D01*
X86648906Y-95328220D01*
X86648907Y-95328222D01*
X86745377Y-95517553D01*
X86784728Y-95571715D01*
X87417036Y-94939406D01*
X87434075Y-95002993D01*
X87499901Y-95117007D01*
X87592993Y-95210099D01*
X87707007Y-95275925D01*
X87770590Y-95292962D01*
X87138282Y-95925270D01*
X87192442Y-95964620D01*
X87192446Y-95964623D01*
X87279262Y-96008858D01*
X87342262Y-96063327D01*
X87372733Y-96140834D01*
X87363694Y-96223624D01*
X87317217Y-96292730D01*
X87279270Y-96318924D01*
X87270807Y-96323236D01*
X87270802Y-96323239D01*
X87117925Y-96434311D01*
X86984311Y-96567925D01*
X86873239Y-96720802D01*
X86873237Y-96720805D01*
X86787456Y-96889159D01*
X86787453Y-96889167D01*
X86758278Y-96978960D01*
X86729060Y-97068882D01*
X86699500Y-97255519D01*
X86699500Y-97444481D01*
X86729060Y-97631118D01*
X86780371Y-97789037D01*
X86787453Y-97810832D01*
X86787456Y-97810840D01*
X86873237Y-97979194D01*
X86873240Y-97979199D01*
X86984310Y-98132073D01*
X87117927Y-98265690D01*
X87268010Y-98374732D01*
X87321712Y-98438385D01*
X87339683Y-98519705D01*
X87317804Y-98600061D01*
X87261088Y-98661046D01*
X87182527Y-98688688D01*
X87165734Y-98689500D01*
X87016739Y-98689500D01*
X86948608Y-98699426D01*
X86948606Y-98699427D01*
X86843519Y-98750800D01*
X86760800Y-98833519D01*
X86709427Y-98938606D01*
X86709426Y-98938608D01*
X86699500Y-99006738D01*
X86699500Y-100773261D01*
X86709426Y-100841391D01*
X86709427Y-100841393D01*
X86760800Y-100946480D01*
X86760801Y-100946481D01*
X86760802Y-100946483D01*
X86843517Y-101029198D01*
X86948607Y-101080573D01*
X86982673Y-101085536D01*
X87016739Y-101090500D01*
X87016740Y-101090500D01*
X88783261Y-101090500D01*
X88805971Y-101087191D01*
X88851393Y-101080573D01*
X88956483Y-101029198D01*
X89039198Y-100946483D01*
X89090573Y-100841393D01*
X89100500Y-100773260D01*
X89100500Y-99006740D01*
X89090573Y-98938607D01*
X89039198Y-98833517D01*
X88956483Y-98750802D01*
X88956481Y-98750801D01*
X88956480Y-98750800D01*
X88851393Y-98699427D01*
X88851391Y-98699426D01*
X88783261Y-98689500D01*
X88783260Y-98689500D01*
X88634266Y-98689500D01*
X88553404Y-98669569D01*
X88491067Y-98614343D01*
X88461535Y-98536473D01*
X88471573Y-98453799D01*
X88518883Y-98385259D01*
X88531984Y-98374736D01*
X88682073Y-98265690D01*
X88815690Y-98132073D01*
X88926760Y-97979199D01*
X89012547Y-97810832D01*
X89070940Y-97631118D01*
X89100500Y-97444481D01*
X89100500Y-97255519D01*
X89070940Y-97068882D01*
X89012547Y-96889168D01*
X89012544Y-96889163D01*
X89012543Y-96889159D01*
X88926762Y-96720805D01*
X88926760Y-96720801D01*
X88815690Y-96567927D01*
X88682073Y-96434310D01*
X88573601Y-96355500D01*
X88529198Y-96323239D01*
X88520734Y-96318927D01*
X88457735Y-96264456D01*
X88427265Y-96186948D01*
X88436306Y-96104159D01*
X88482785Y-96035053D01*
X88520738Y-96008857D01*
X88607554Y-95964622D01*
X88661716Y-95925270D01*
X88029409Y-95292962D01*
X88092993Y-95275925D01*
X88207007Y-95210099D01*
X88300099Y-95117007D01*
X88365925Y-95002993D01*
X88382962Y-94939409D01*
X89015270Y-95571716D01*
X89054622Y-95517554D01*
X89151092Y-95328223D01*
X89151093Y-95328220D01*
X89216757Y-95126125D01*
X89250000Y-94916244D01*
X89250000Y-94703755D01*
X89216757Y-94493874D01*
X89151093Y-94291779D01*
X89151092Y-94291777D01*
X89054620Y-94102442D01*
X89015270Y-94048282D01*
X88382962Y-94680590D01*
X88365925Y-94617007D01*
X88300099Y-94502993D01*
X88207007Y-94409901D01*
X88092993Y-94344075D01*
X88029407Y-94327036D01*
X88661716Y-93694728D01*
X88607553Y-93655377D01*
X88418222Y-93558907D01*
X88418220Y-93558906D01*
X88216125Y-93493242D01*
X88006244Y-93460000D01*
X87793756Y-93460000D01*
X87583874Y-93493242D01*
X87381779Y-93558906D01*
X87381777Y-93558907D01*
X87192445Y-93655377D01*
X87192438Y-93655382D01*
X87138282Y-93694728D01*
X87770591Y-94327037D01*
X87707007Y-94344075D01*
X87592993Y-94409901D01*
X87499901Y-94502993D01*
X87434075Y-94617007D01*
X87417037Y-94680591D01*
X86784728Y-94048282D01*
X86745382Y-94102438D01*
X86745377Y-94102445D01*
X86648907Y-94291777D01*
X86648906Y-94291779D01*
X86583242Y-94493874D01*
X86550000Y-94703755D01*
X86060500Y-94703755D01*
X86060500Y-91143755D01*
X86550000Y-91143755D01*
X86550000Y-91356244D01*
X86583242Y-91566125D01*
X86648906Y-91768220D01*
X86648907Y-91768222D01*
X86745377Y-91957553D01*
X86784728Y-92011715D01*
X87417036Y-91379406D01*
X87434075Y-91442993D01*
X87499901Y-91557007D01*
X87592993Y-91650099D01*
X87707007Y-91715925D01*
X87770590Y-91732962D01*
X87138282Y-92365270D01*
X87192442Y-92404620D01*
X87192441Y-92404620D01*
X87381777Y-92501092D01*
X87381779Y-92501093D01*
X87583874Y-92566757D01*
X87793756Y-92600000D01*
X88006244Y-92600000D01*
X88216125Y-92566757D01*
X88418220Y-92501093D01*
X88418223Y-92501092D01*
X88607554Y-92404622D01*
X88661716Y-92365270D01*
X88029409Y-91732962D01*
X88092993Y-91715925D01*
X88207007Y-91650099D01*
X88300099Y-91557007D01*
X88365925Y-91442993D01*
X88382962Y-91379409D01*
X89015270Y-92011716D01*
X89054622Y-91957554D01*
X89151092Y-91768223D01*
X89151093Y-91768220D01*
X89216757Y-91566125D01*
X89250000Y-91356244D01*
X89250000Y-91143755D01*
X89216757Y-90933874D01*
X89151093Y-90731779D01*
X89151092Y-90731777D01*
X89054620Y-90542442D01*
X89015270Y-90488282D01*
X88382962Y-91120590D01*
X88365925Y-91057007D01*
X88300099Y-90942993D01*
X88207007Y-90849901D01*
X88092993Y-90784075D01*
X88029407Y-90767036D01*
X88661716Y-90134728D01*
X88607553Y-90095377D01*
X88520736Y-90051141D01*
X88457736Y-89996672D01*
X88427266Y-89919164D01*
X88436305Y-89836374D01*
X88482783Y-89767268D01*
X88520736Y-89741071D01*
X88529199Y-89736760D01*
X88682073Y-89625690D01*
X88815690Y-89492073D01*
X88926760Y-89339199D01*
X89012547Y-89170832D01*
X89070940Y-88991118D01*
X89100500Y-88804481D01*
X89100500Y-88615519D01*
X89070940Y-88428882D01*
X89012547Y-88249168D01*
X89012544Y-88249163D01*
X89012543Y-88249159D01*
X88926762Y-88080805D01*
X88926760Y-88080801D01*
X88815690Y-87927927D01*
X88682073Y-87794310D01*
X88531989Y-87685267D01*
X88478288Y-87621615D01*
X88460317Y-87540295D01*
X88482196Y-87459939D01*
X88538912Y-87398954D01*
X88617473Y-87371312D01*
X88634266Y-87370500D01*
X88783261Y-87370500D01*
X88805971Y-87367191D01*
X88851393Y-87360573D01*
X88956483Y-87309198D01*
X89039198Y-87226483D01*
X89090573Y-87121393D01*
X89100500Y-87053260D01*
X89100500Y-86994500D01*
X89120431Y-86913638D01*
X89175657Y-86851301D01*
X89253527Y-86821769D01*
X89274500Y-86820500D01*
X90435500Y-86820500D01*
X90516362Y-86840431D01*
X90578699Y-86895657D01*
X90608231Y-86973527D01*
X90609500Y-86994500D01*
X90609500Y-87583261D01*
X90619426Y-87651391D01*
X90619427Y-87651393D01*
X90670800Y-87756480D01*
X90670801Y-87756481D01*
X90670802Y-87756483D01*
X90753517Y-87839198D01*
X90858607Y-87890573D01*
X90892673Y-87895536D01*
X90926739Y-87900500D01*
X91075734Y-87900500D01*
X91156596Y-87920431D01*
X91218933Y-87975657D01*
X91248465Y-88053527D01*
X91238427Y-88136201D01*
X91191117Y-88204741D01*
X91178015Y-88215263D01*
X91109067Y-88265358D01*
X91027925Y-88324311D01*
X90894311Y-88457925D01*
X90783239Y-88610802D01*
X90783237Y-88610805D01*
X90697456Y-88779159D01*
X90697453Y-88779167D01*
X90691785Y-88796612D01*
X90639060Y-88958882D01*
X90609500Y-89145519D01*
X90609500Y-89334481D01*
X90639060Y-89521118D01*
X90682558Y-89654989D01*
X90697453Y-89700832D01*
X90697456Y-89700840D01*
X90783237Y-89869194D01*
X90783240Y-89869199D01*
X90894310Y-90022073D01*
X91027927Y-90155690D01*
X91180801Y-90266760D01*
X91299106Y-90327039D01*
X91353913Y-90354965D01*
X91416913Y-90409434D01*
X91447383Y-90486941D01*
X91438344Y-90569731D01*
X91391866Y-90638837D01*
X91353913Y-90665035D01*
X91180801Y-90753240D01*
X91027925Y-90864311D01*
X90894311Y-90997925D01*
X90783239Y-91150802D01*
X90783237Y-91150805D01*
X90697456Y-91319159D01*
X90697453Y-91319167D01*
X90690575Y-91340335D01*
X90639060Y-91498882D01*
X90609500Y-91685519D01*
X90609500Y-91874481D01*
X90639060Y-92061118D01*
X90681240Y-92190934D01*
X90697453Y-92240832D01*
X90697456Y-92240840D01*
X90781355Y-92405500D01*
X90783240Y-92409199D01*
X90894310Y-92562073D01*
X91027927Y-92695690D01*
X91180801Y-92806760D01*
X91313009Y-92874123D01*
X91353913Y-92894965D01*
X91416913Y-92949434D01*
X91447383Y-93026941D01*
X91438344Y-93109731D01*
X91391866Y-93178837D01*
X91353913Y-93205035D01*
X91180801Y-93293240D01*
X91027925Y-93404311D01*
X90894311Y-93537925D01*
X90783239Y-93690802D01*
X90783237Y-93690805D01*
X90697456Y-93859159D01*
X90697453Y-93859167D01*
X90669647Y-93944744D01*
X90639060Y-94038882D01*
X90609500Y-94225519D01*
X90609500Y-94414481D01*
X90639060Y-94601118D01*
X90694604Y-94772065D01*
X90697453Y-94780832D01*
X90697456Y-94780840D01*
X90783237Y-94949194D01*
X90783240Y-94949199D01*
X90894310Y-95102073D01*
X91027927Y-95235690D01*
X91180801Y-95346760D01*
X91313009Y-95414123D01*
X91353913Y-95434965D01*
X91416913Y-95489434D01*
X91447383Y-95566941D01*
X91438344Y-95649731D01*
X91391866Y-95718837D01*
X91353913Y-95745035D01*
X91180801Y-95833240D01*
X91027925Y-95944311D01*
X90894311Y-96077925D01*
X90783239Y-96230802D01*
X90783237Y-96230805D01*
X90697456Y-96399159D01*
X90697453Y-96399167D01*
X90678777Y-96456646D01*
X90639060Y-96578882D01*
X90609500Y-96765519D01*
X90609500Y-96954481D01*
X90639060Y-97141118D01*
X90676232Y-97255521D01*
X90697453Y-97320832D01*
X90697456Y-97320840D01*
X90783237Y-97489194D01*
X90783240Y-97489199D01*
X90894310Y-97642073D01*
X91027927Y-97775690D01*
X91180801Y-97886760D01*
X91189262Y-97891071D01*
X91252262Y-97945539D01*
X91282733Y-98023046D01*
X91273695Y-98105836D01*
X91227217Y-98174942D01*
X91189264Y-98201140D01*
X91102450Y-98245374D01*
X91102438Y-98245382D01*
X91048282Y-98284728D01*
X91680591Y-98917037D01*
X91617007Y-98934075D01*
X91502993Y-98999901D01*
X91409901Y-99092993D01*
X91344075Y-99207007D01*
X91327037Y-99270591D01*
X90694728Y-98638282D01*
X90655382Y-98692438D01*
X90655377Y-98692445D01*
X90558907Y-98881777D01*
X90558906Y-98881779D01*
X90493242Y-99083874D01*
X90460000Y-99293755D01*
X90460000Y-99506244D01*
X90493242Y-99716125D01*
X90558906Y-99918220D01*
X90558907Y-99918222D01*
X90655377Y-100107553D01*
X90694728Y-100161715D01*
X91327036Y-99529406D01*
X91344075Y-99592993D01*
X91409901Y-99707007D01*
X91502993Y-99800099D01*
X91617007Y-99865925D01*
X91680590Y-99882962D01*
X91048282Y-100515270D01*
X91102442Y-100554620D01*
X91102441Y-100554620D01*
X91291777Y-100651092D01*
X91291779Y-100651093D01*
X91493874Y-100716757D01*
X91703756Y-100750000D01*
X91916244Y-100750000D01*
X92126125Y-100716757D01*
X92328220Y-100651093D01*
X92328223Y-100651092D01*
X92517554Y-100554622D01*
X92571716Y-100515270D01*
X91939409Y-99882962D01*
X92002993Y-99865925D01*
X92117007Y-99800099D01*
X92210099Y-99707007D01*
X92275925Y-99592993D01*
X92292962Y-99529409D01*
X92925270Y-100161716D01*
X92964622Y-100107554D01*
X93061092Y-99918223D01*
X93061093Y-99918220D01*
X93126757Y-99716125D01*
X93160000Y-99506244D01*
X93160000Y-99293755D01*
X93126757Y-99083874D01*
X93061093Y-98881779D01*
X93061092Y-98881777D01*
X92964620Y-98692442D01*
X92925270Y-98638282D01*
X92292962Y-99270590D01*
X92275925Y-99207007D01*
X92210099Y-99092993D01*
X92117007Y-98999901D01*
X92002993Y-98934075D01*
X91939407Y-98917036D01*
X92571716Y-98284728D01*
X92517553Y-98245377D01*
X92430736Y-98201141D01*
X92367736Y-98146672D01*
X92337266Y-98069164D01*
X92346305Y-97986374D01*
X92392783Y-97917268D01*
X92430736Y-97891071D01*
X92439199Y-97886760D01*
X92592073Y-97775690D01*
X92725690Y-97642073D01*
X92836760Y-97489199D01*
X92922547Y-97320832D01*
X92980940Y-97141118D01*
X93010500Y-96954481D01*
X93010500Y-96765519D01*
X92980940Y-96578882D01*
X92951912Y-96489545D01*
X92945879Y-96406486D01*
X92979138Y-96330134D01*
X92994351Y-96312750D01*
X96050641Y-93256463D01*
X96121913Y-93213379D01*
X96173678Y-93205500D01*
X120586222Y-93205500D01*
X120603819Y-93209837D01*
X120621934Y-93209204D01*
X120643668Y-93219659D01*
X120667084Y-93225431D01*
X120680650Y-93237449D01*
X120696984Y-93245307D01*
X120711370Y-93264665D01*
X120729421Y-93280657D01*
X120736584Y-93298594D01*
X120746660Y-93312152D01*
X120753873Y-93341883D01*
X120758115Y-93352504D01*
X120759500Y-93361322D01*
X120759500Y-93363488D01*
X120775281Y-93463126D01*
X120775580Y-93463714D01*
X120777825Y-93478004D01*
X120775402Y-93506141D01*
X120777374Y-93533341D01*
X120777423Y-93533349D01*
X120777389Y-93533557D01*
X120777445Y-93534316D01*
X120776954Y-93536304D01*
X120758431Y-93653264D01*
X120756754Y-93652998D01*
X120733464Y-93723213D01*
X120673512Y-93781020D01*
X120593563Y-93804345D01*
X120586222Y-93804500D01*
X117336914Y-93804500D01*
X117336911Y-93804500D01*
X117336909Y-93804501D01*
X117246549Y-93828712D01*
X117246549Y-93828713D01*
X117238478Y-93830875D01*
X117222334Y-93835201D01*
X117222331Y-93835202D01*
X117119613Y-93894507D01*
X117119609Y-93894510D01*
X115549510Y-95464610D01*
X115549509Y-95464612D01*
X115490202Y-95567333D01*
X115490202Y-95567334D01*
X115490201Y-95567336D01*
X115489028Y-95571716D01*
X115485722Y-95584055D01*
X115485721Y-95584057D01*
X115459500Y-95681910D01*
X115459500Y-101355637D01*
X115458213Y-101360854D01*
X115459183Y-101366142D01*
X115448312Y-101401027D01*
X115439569Y-101436499D01*
X115435561Y-101441945D01*
X115434406Y-101445653D01*
X115408537Y-101478673D01*
X115311861Y-101575350D01*
X115240590Y-101618435D01*
X115188824Y-101626314D01*
X98943877Y-101626314D01*
X98943874Y-101626314D01*
X98943872Y-101626315D01*
X98853512Y-101650526D01*
X98853512Y-101650527D01*
X98845441Y-101652689D01*
X98829297Y-101657015D01*
X98726578Y-101716321D01*
X98726573Y-101716324D01*
X94414360Y-106028537D01*
X94343089Y-106071621D01*
X94291323Y-106079500D01*
X92726739Y-106079500D01*
X92658608Y-106089426D01*
X92658606Y-106089427D01*
X92553519Y-106140800D01*
X92470800Y-106223519D01*
X92419427Y-106328606D01*
X92419426Y-106328608D01*
X92409500Y-106396738D01*
X92409500Y-108163261D01*
X92419426Y-108231391D01*
X92419427Y-108231393D01*
X92470800Y-108336480D01*
X92470801Y-108336481D01*
X92470802Y-108336483D01*
X92553517Y-108419198D01*
X92658607Y-108470573D01*
X92692673Y-108475536D01*
X92726739Y-108480500D01*
X92726740Y-108480500D01*
X94493261Y-108480500D01*
X94515971Y-108477191D01*
X94561393Y-108470573D01*
X94666483Y-108419198D01*
X94749198Y-108336483D01*
X94800573Y-108231393D01*
X94810500Y-108163260D01*
X94810500Y-108014265D01*
X94830431Y-107933403D01*
X94885657Y-107871066D01*
X94963527Y-107841534D01*
X95046201Y-107851572D01*
X95114741Y-107898882D01*
X95125256Y-107911974D01*
X95234310Y-108062073D01*
X95367927Y-108195690D01*
X95520801Y-108306760D01*
X95520805Y-108306762D01*
X95689159Y-108392543D01*
X95689163Y-108392544D01*
X95689168Y-108392547D01*
X95868882Y-108450940D01*
X96055519Y-108480500D01*
X96055522Y-108480500D01*
X96244478Y-108480500D01*
X96244481Y-108480500D01*
X96431118Y-108450940D01*
X96610832Y-108392547D01*
X96779199Y-108306760D01*
X96932073Y-108195690D01*
X97065690Y-108062073D01*
X97176760Y-107909199D01*
X97262547Y-107740832D01*
X97264965Y-107736087D01*
X97319434Y-107673087D01*
X97396941Y-107642616D01*
X97479731Y-107651655D01*
X97548837Y-107698132D01*
X97575035Y-107736087D01*
X97633877Y-107851572D01*
X97663240Y-107909199D01*
X97774310Y-108062073D01*
X97907927Y-108195690D01*
X98060801Y-108306760D01*
X98060805Y-108306762D01*
X98229159Y-108392543D01*
X98229163Y-108392544D01*
X98229168Y-108392547D01*
X98408882Y-108450940D01*
X98595519Y-108480500D01*
X98595522Y-108480500D01*
X98784478Y-108480500D01*
X98784481Y-108480500D01*
X98971118Y-108450940D01*
X99150832Y-108392547D01*
X99319199Y-108306760D01*
X99472073Y-108195690D01*
X99605690Y-108062073D01*
X99716760Y-107909199D01*
X99802547Y-107740832D01*
X99804965Y-107736087D01*
X99859434Y-107673087D01*
X99936941Y-107642616D01*
X100019731Y-107651655D01*
X100088837Y-107698132D01*
X100115035Y-107736087D01*
X100173877Y-107851572D01*
X100203240Y-107909199D01*
X100314310Y-108062073D01*
X100447927Y-108195690D01*
X100600801Y-108306760D01*
X100600805Y-108306762D01*
X100769159Y-108392543D01*
X100769163Y-108392544D01*
X100769168Y-108392547D01*
X100948882Y-108450940D01*
X101135519Y-108480500D01*
X101135522Y-108480500D01*
X101324478Y-108480500D01*
X101324481Y-108480500D01*
X101511118Y-108450940D01*
X101690832Y-108392547D01*
X101859199Y-108306760D01*
X102012073Y-108195690D01*
X102145690Y-108062073D01*
X102256760Y-107909199D01*
X102342547Y-107740832D01*
X102344965Y-107736087D01*
X102399434Y-107673087D01*
X102476941Y-107642616D01*
X102559731Y-107651655D01*
X102628837Y-107698132D01*
X102655035Y-107736087D01*
X102713877Y-107851572D01*
X102743240Y-107909199D01*
X102854310Y-108062073D01*
X102987927Y-108195690D01*
X103140801Y-108306760D01*
X103140805Y-108306762D01*
X103309159Y-108392543D01*
X103309163Y-108392544D01*
X103309168Y-108392547D01*
X103488882Y-108450940D01*
X103675519Y-108480500D01*
X103675522Y-108480500D01*
X103864478Y-108480500D01*
X103864481Y-108480500D01*
X104051118Y-108450940D01*
X104230832Y-108392547D01*
X104399199Y-108306760D01*
X104552073Y-108195690D01*
X104685690Y-108062073D01*
X104796760Y-107909199D01*
X104882547Y-107740832D01*
X104884965Y-107736087D01*
X104939434Y-107673087D01*
X105016941Y-107642616D01*
X105099731Y-107651655D01*
X105168837Y-107698132D01*
X105195035Y-107736087D01*
X105253877Y-107851572D01*
X105283240Y-107909199D01*
X105394310Y-108062073D01*
X105527927Y-108195690D01*
X105680801Y-108306760D01*
X105680805Y-108306762D01*
X105849159Y-108392543D01*
X105849163Y-108392544D01*
X105849168Y-108392547D01*
X106028882Y-108450940D01*
X106215519Y-108480500D01*
X106215522Y-108480500D01*
X106404478Y-108480500D01*
X106404481Y-108480500D01*
X106591118Y-108450940D01*
X106770832Y-108392547D01*
X106939199Y-108306760D01*
X107092073Y-108195690D01*
X107225690Y-108062073D01*
X107336760Y-107909199D01*
X107422547Y-107740832D01*
X107424965Y-107736087D01*
X107479434Y-107673087D01*
X107556941Y-107642616D01*
X107639731Y-107651655D01*
X107708837Y-107698132D01*
X107735035Y-107736087D01*
X107793877Y-107851572D01*
X107823240Y-107909199D01*
X107934310Y-108062073D01*
X108067927Y-108195690D01*
X108220801Y-108306760D01*
X108220805Y-108306762D01*
X108389159Y-108392543D01*
X108389163Y-108392544D01*
X108389168Y-108392547D01*
X108568882Y-108450940D01*
X108755519Y-108480500D01*
X108755522Y-108480500D01*
X108944478Y-108480500D01*
X108944481Y-108480500D01*
X109131118Y-108450940D01*
X109310832Y-108392547D01*
X109479199Y-108306760D01*
X109632073Y-108195690D01*
X109765690Y-108062073D01*
X109876760Y-107909199D01*
X109962547Y-107740832D01*
X109964965Y-107736087D01*
X110019434Y-107673087D01*
X110096941Y-107642616D01*
X110179731Y-107651655D01*
X110248837Y-107698132D01*
X110275035Y-107736087D01*
X110333877Y-107851572D01*
X110363240Y-107909199D01*
X110474310Y-108062073D01*
X110607927Y-108195690D01*
X110760801Y-108306760D01*
X110760805Y-108306762D01*
X110929159Y-108392543D01*
X110929163Y-108392544D01*
X110929168Y-108392547D01*
X111108882Y-108450940D01*
X111295519Y-108480500D01*
X111295522Y-108480500D01*
X111484478Y-108480500D01*
X111484481Y-108480500D01*
X111671118Y-108450940D01*
X111850832Y-108392547D01*
X112019199Y-108306760D01*
X112172073Y-108195690D01*
X112305690Y-108062073D01*
X112416760Y-107909199D01*
X112502547Y-107740832D01*
X112504965Y-107736087D01*
X112559434Y-107673087D01*
X112636941Y-107642616D01*
X112719731Y-107651655D01*
X112788837Y-107698132D01*
X112815035Y-107736087D01*
X112873877Y-107851572D01*
X112903240Y-107909199D01*
X113014310Y-108062073D01*
X113147927Y-108195690D01*
X113300801Y-108306760D01*
X113300805Y-108306762D01*
X113469159Y-108392543D01*
X113469163Y-108392544D01*
X113469168Y-108392547D01*
X113648882Y-108450940D01*
X113835519Y-108480500D01*
X113835522Y-108480500D01*
X114024478Y-108480500D01*
X114024481Y-108480500D01*
X114211118Y-108450940D01*
X114390832Y-108392547D01*
X114559199Y-108306760D01*
X114712073Y-108195690D01*
X114845690Y-108062073D01*
X114956760Y-107909199D01*
X115042547Y-107740832D01*
X115044965Y-107736087D01*
X115099434Y-107673087D01*
X115176941Y-107642616D01*
X115259731Y-107651655D01*
X115328837Y-107698132D01*
X115355035Y-107736087D01*
X115413877Y-107851572D01*
X115443240Y-107909199D01*
X115554310Y-108062073D01*
X115687927Y-108195690D01*
X115840801Y-108306760D01*
X115840805Y-108306762D01*
X116009159Y-108392543D01*
X116009163Y-108392544D01*
X116009168Y-108392547D01*
X116188882Y-108450940D01*
X116375519Y-108480500D01*
X116375522Y-108480500D01*
X116564478Y-108480500D01*
X116564481Y-108480500D01*
X116751118Y-108450940D01*
X116930832Y-108392547D01*
X117099199Y-108306760D01*
X117252073Y-108195690D01*
X117385690Y-108062073D01*
X117496760Y-107909199D01*
X117582547Y-107740832D01*
X117584965Y-107736087D01*
X117639434Y-107673087D01*
X117716941Y-107642616D01*
X117799731Y-107651655D01*
X117868837Y-107698132D01*
X117895035Y-107736087D01*
X117953877Y-107851572D01*
X117983240Y-107909199D01*
X118094310Y-108062073D01*
X118227927Y-108195690D01*
X118380801Y-108306760D01*
X118380805Y-108306762D01*
X118549159Y-108392543D01*
X118549163Y-108392544D01*
X118549168Y-108392547D01*
X118728882Y-108450940D01*
X118915519Y-108480500D01*
X118915522Y-108480500D01*
X119104478Y-108480500D01*
X119104481Y-108480500D01*
X119291118Y-108450940D01*
X119470832Y-108392547D01*
X119639199Y-108306760D01*
X119792073Y-108195690D01*
X119925690Y-108062073D01*
X120036760Y-107909199D01*
X120122547Y-107740832D01*
X120124965Y-107736087D01*
X120179434Y-107673087D01*
X120256941Y-107642616D01*
X120339731Y-107651655D01*
X120408837Y-107698132D01*
X120435035Y-107736087D01*
X120493877Y-107851572D01*
X120523240Y-107909199D01*
X120634310Y-108062073D01*
X120767927Y-108195690D01*
X120920801Y-108306760D01*
X120920805Y-108306762D01*
X121089159Y-108392543D01*
X121089163Y-108392544D01*
X121089168Y-108392547D01*
X121268882Y-108450940D01*
X121455519Y-108480500D01*
X121455522Y-108480500D01*
X121644478Y-108480500D01*
X121644481Y-108480500D01*
X121831118Y-108450940D01*
X122010832Y-108392547D01*
X122179199Y-108306760D01*
X122332073Y-108195690D01*
X122465690Y-108062073D01*
X122576760Y-107909199D01*
X122662547Y-107740832D01*
X122664965Y-107736087D01*
X122719434Y-107673087D01*
X122796941Y-107642616D01*
X122879731Y-107651655D01*
X122948837Y-107698132D01*
X122975035Y-107736087D01*
X123033877Y-107851572D01*
X123063240Y-107909199D01*
X123174310Y-108062073D01*
X123307927Y-108195690D01*
X123460801Y-108306760D01*
X123460805Y-108306762D01*
X123629159Y-108392543D01*
X123629163Y-108392544D01*
X123629168Y-108392547D01*
X123808882Y-108450940D01*
X123995519Y-108480500D01*
X123995522Y-108480500D01*
X124184478Y-108480500D01*
X124184481Y-108480500D01*
X124371118Y-108450940D01*
X124550832Y-108392547D01*
X124719199Y-108306760D01*
X124872073Y-108195690D01*
X125005690Y-108062073D01*
X125116760Y-107909199D01*
X125202547Y-107740832D01*
X125204965Y-107736087D01*
X125259434Y-107673087D01*
X125336941Y-107642616D01*
X125419731Y-107651655D01*
X125488837Y-107698132D01*
X125515035Y-107736087D01*
X125573877Y-107851572D01*
X125603240Y-107909199D01*
X125714310Y-108062073D01*
X125847927Y-108195690D01*
X126000801Y-108306760D01*
X126000805Y-108306762D01*
X126169159Y-108392543D01*
X126169163Y-108392544D01*
X126169168Y-108392547D01*
X126348882Y-108450940D01*
X126535519Y-108480500D01*
X126535522Y-108480500D01*
X126724478Y-108480500D01*
X126724481Y-108480500D01*
X126911118Y-108450940D01*
X127090832Y-108392547D01*
X127259199Y-108306760D01*
X127412073Y-108195690D01*
X127545690Y-108062073D01*
X127656760Y-107909199D01*
X127742547Y-107740832D01*
X127744965Y-107736087D01*
X127799434Y-107673087D01*
X127876941Y-107642616D01*
X127959731Y-107651655D01*
X128028837Y-107698132D01*
X128055035Y-107736087D01*
X128113877Y-107851572D01*
X128143240Y-107909199D01*
X128254310Y-108062073D01*
X128387927Y-108195690D01*
X128540801Y-108306760D01*
X128540805Y-108306762D01*
X128709159Y-108392543D01*
X128709163Y-108392544D01*
X128709168Y-108392547D01*
X128888882Y-108450940D01*
X129075519Y-108480500D01*
X129075522Y-108480500D01*
X129264478Y-108480500D01*
X129264481Y-108480500D01*
X129451118Y-108450940D01*
X129630832Y-108392547D01*
X129799199Y-108306760D01*
X129952073Y-108195690D01*
X130085690Y-108062073D01*
X130196760Y-107909199D01*
X130282547Y-107740832D01*
X130340940Y-107561118D01*
X130370500Y-107374481D01*
X130370500Y-107185519D01*
X130340940Y-106998882D01*
X130282547Y-106819168D01*
X130282544Y-106819163D01*
X130282543Y-106819159D01*
X130196762Y-106650805D01*
X130196760Y-106650801D01*
X130085690Y-106497927D01*
X129969934Y-106382171D01*
X131420000Y-106382171D01*
X131420000Y-107029999D01*
X131420001Y-107030000D01*
X132336988Y-107030000D01*
X132304075Y-107087007D01*
X132270000Y-107214174D01*
X132270000Y-107345826D01*
X132304075Y-107472993D01*
X132336988Y-107530000D01*
X131420001Y-107530000D01*
X131420000Y-107530001D01*
X131420000Y-108177828D01*
X131426401Y-108237373D01*
X131426401Y-108237376D01*
X131476645Y-108372086D01*
X131476649Y-108372093D01*
X131562805Y-108487182D01*
X131562817Y-108487194D01*
X131677906Y-108573350D01*
X131677913Y-108573354D01*
X131812624Y-108623598D01*
X131872171Y-108630000D01*
X132519999Y-108630000D01*
X132520000Y-108629999D01*
X132520000Y-107713012D01*
X132577007Y-107745925D01*
X132704174Y-107780000D01*
X132835826Y-107780000D01*
X132962993Y-107745925D01*
X133020000Y-107713012D01*
X133020000Y-108629999D01*
X133020001Y-108630000D01*
X133667829Y-108630000D01*
X133727373Y-108623598D01*
X133727376Y-108623598D01*
X133862086Y-108573354D01*
X133862093Y-108573350D01*
X133977182Y-108487194D01*
X133977194Y-108487182D01*
X134063350Y-108372093D01*
X134063354Y-108372086D01*
X134113598Y-108237376D01*
X134113598Y-108237373D01*
X134118989Y-108187232D01*
X134147448Y-108108963D01*
X134209020Y-108052886D01*
X134289601Y-108031845D01*
X134370729Y-108050663D01*
X134415029Y-108082792D01*
X134527927Y-108195690D01*
X134680801Y-108306760D01*
X134680805Y-108306762D01*
X134849159Y-108392543D01*
X134849163Y-108392544D01*
X134849168Y-108392547D01*
X135028882Y-108450940D01*
X135215519Y-108480500D01*
X135215522Y-108480500D01*
X135404478Y-108480500D01*
X135404481Y-108480500D01*
X135591118Y-108450940D01*
X135770832Y-108392547D01*
X135939199Y-108306760D01*
X136092073Y-108195690D01*
X136225690Y-108062073D01*
X136336760Y-107909199D01*
X136422547Y-107740832D01*
X136424965Y-107736087D01*
X136479434Y-107673087D01*
X136556941Y-107642616D01*
X136639731Y-107651655D01*
X136708837Y-107698132D01*
X136735035Y-107736087D01*
X136793877Y-107851572D01*
X136823240Y-107909199D01*
X136934310Y-108062073D01*
X137067927Y-108195690D01*
X137220801Y-108306760D01*
X137220805Y-108306762D01*
X137389159Y-108392543D01*
X137389163Y-108392544D01*
X137389168Y-108392547D01*
X137568882Y-108450940D01*
X137755519Y-108480500D01*
X137755522Y-108480500D01*
X137944478Y-108480500D01*
X137944481Y-108480500D01*
X138131118Y-108450940D01*
X138310832Y-108392547D01*
X138479199Y-108306760D01*
X138632073Y-108195690D01*
X138765690Y-108062073D01*
X138876760Y-107909199D01*
X138962547Y-107740832D01*
X138964965Y-107736087D01*
X139019434Y-107673087D01*
X139096941Y-107642616D01*
X139179731Y-107651655D01*
X139248837Y-107698132D01*
X139275035Y-107736087D01*
X139333877Y-107851572D01*
X139363240Y-107909199D01*
X139474310Y-108062073D01*
X139607927Y-108195690D01*
X139760801Y-108306760D01*
X139760805Y-108306762D01*
X139929159Y-108392543D01*
X139929163Y-108392544D01*
X139929168Y-108392547D01*
X140108882Y-108450940D01*
X140295519Y-108480500D01*
X140295522Y-108480500D01*
X140484478Y-108480500D01*
X140484481Y-108480500D01*
X140671118Y-108450940D01*
X140850832Y-108392547D01*
X141019199Y-108306760D01*
X141172073Y-108195690D01*
X141305690Y-108062073D01*
X141416760Y-107909199D01*
X141502547Y-107740832D01*
X141560940Y-107561118D01*
X141590500Y-107374481D01*
X141590500Y-107185519D01*
X141560940Y-106998882D01*
X141502547Y-106819168D01*
X141502544Y-106819163D01*
X141502543Y-106819159D01*
X141416762Y-106650805D01*
X141416760Y-106650801D01*
X141305690Y-106497927D01*
X141172073Y-106364310D01*
X141019199Y-106253240D01*
X141019196Y-106253238D01*
X141019194Y-106253237D01*
X140850840Y-106167456D01*
X140850832Y-106167453D01*
X140788272Y-106147126D01*
X140671118Y-106109060D01*
X140484481Y-106079500D01*
X140295519Y-106079500D01*
X140108882Y-106109060D01*
X140048726Y-106128606D01*
X139929167Y-106167453D01*
X139929159Y-106167456D01*
X139760805Y-106253237D01*
X139760802Y-106253239D01*
X139607925Y-106364311D01*
X139474311Y-106497925D01*
X139363240Y-106650801D01*
X139275035Y-106823913D01*
X139220566Y-106886913D01*
X139143059Y-106917383D01*
X139060269Y-106908344D01*
X138991163Y-106861866D01*
X138964965Y-106823913D01*
X138942590Y-106780000D01*
X138876760Y-106650801D01*
X138765690Y-106497927D01*
X138632073Y-106364310D01*
X138479199Y-106253240D01*
X138479196Y-106253238D01*
X138479194Y-106253237D01*
X138310840Y-106167456D01*
X138310832Y-106167453D01*
X138248272Y-106147126D01*
X138131118Y-106109060D01*
X137944481Y-106079500D01*
X137755519Y-106079500D01*
X137568882Y-106109060D01*
X137508726Y-106128606D01*
X137389167Y-106167453D01*
X137389159Y-106167456D01*
X137220805Y-106253237D01*
X137220802Y-106253239D01*
X137067925Y-106364311D01*
X136934311Y-106497925D01*
X136823240Y-106650801D01*
X136735035Y-106823913D01*
X136680566Y-106886913D01*
X136603059Y-106917383D01*
X136520269Y-106908344D01*
X136451163Y-106861866D01*
X136424965Y-106823913D01*
X136402590Y-106780000D01*
X136336760Y-106650801D01*
X136225690Y-106497927D01*
X136092073Y-106364310D01*
X135939199Y-106253240D01*
X135939196Y-106253238D01*
X135939194Y-106253237D01*
X135770840Y-106167456D01*
X135770832Y-106167453D01*
X135708272Y-106147126D01*
X135591118Y-106109060D01*
X135404481Y-106079500D01*
X135215519Y-106079500D01*
X135028882Y-106109060D01*
X134968726Y-106128606D01*
X134849167Y-106167453D01*
X134849159Y-106167456D01*
X134680805Y-106253237D01*
X134680802Y-106253239D01*
X134527922Y-106364313D01*
X134415028Y-106477207D01*
X134343757Y-106520292D01*
X134260627Y-106525320D01*
X134184682Y-106491139D01*
X134133321Y-106425581D01*
X134118989Y-106372768D01*
X134113598Y-106322625D01*
X134113598Y-106322623D01*
X134063354Y-106187913D01*
X134063350Y-106187906D01*
X133977194Y-106072817D01*
X133977182Y-106072805D01*
X133862093Y-105986649D01*
X133862086Y-105986645D01*
X133727375Y-105936401D01*
X133667829Y-105930000D01*
X133020001Y-105930000D01*
X133020000Y-105930001D01*
X133020000Y-106846988D01*
X132962993Y-106814075D01*
X132835826Y-106780000D01*
X132704174Y-106780000D01*
X132577007Y-106814075D01*
X132520000Y-106846988D01*
X132520000Y-105930001D01*
X132519999Y-105930000D01*
X131872171Y-105930000D01*
X131812626Y-105936401D01*
X131812623Y-105936401D01*
X131677913Y-105986645D01*
X131677906Y-105986649D01*
X131562817Y-106072805D01*
X131562805Y-106072817D01*
X131476649Y-106187906D01*
X131476645Y-106187913D01*
X131426401Y-106322623D01*
X131426401Y-106322626D01*
X131420000Y-106382171D01*
X129969934Y-106382171D01*
X129952073Y-106364310D01*
X129799199Y-106253240D01*
X129715504Y-106210595D01*
X129652505Y-106156127D01*
X129622035Y-106078620D01*
X129620500Y-106055561D01*
X129620500Y-104117502D01*
X130585001Y-104117502D01*
X130585001Y-104216646D01*
X130595317Y-104317644D01*
X130595318Y-104317648D01*
X130649546Y-104481301D01*
X130649548Y-104481306D01*
X130740053Y-104628037D01*
X130861963Y-104749947D01*
X131008694Y-104840452D01*
X131008699Y-104840454D01*
X131172350Y-104894681D01*
X131273346Y-104904999D01*
X131273364Y-104905000D01*
X131310000Y-104904999D01*
X131310000Y-104117502D01*
X131810000Y-104117502D01*
X131810000Y-104904999D01*
X131810001Y-104905000D01*
X131846645Y-104905000D01*
X131947643Y-104894683D01*
X131947647Y-104894682D01*
X132111300Y-104840454D01*
X132111304Y-104840452D01*
X132256154Y-104751108D01*
X132335440Y-104725620D01*
X132417488Y-104739898D01*
X132438846Y-104751108D01*
X132583694Y-104840451D01*
X132583699Y-104840453D01*
X132747350Y-104894680D01*
X132848346Y-104904998D01*
X132848364Y-104904999D01*
X132885000Y-104904998D01*
X132885000Y-104167501D01*
X133385000Y-104167501D01*
X133385000Y-104904998D01*
X133385001Y-104904999D01*
X133421645Y-104904999D01*
X133522643Y-104894682D01*
X133522647Y-104894681D01*
X133686300Y-104840453D01*
X133686305Y-104840451D01*
X133833036Y-104749946D01*
X133833774Y-104749209D01*
X133834604Y-104748706D01*
X133840990Y-104743658D01*
X133841625Y-104744461D01*
X133905042Y-104706120D01*
X133988172Y-104701086D01*
X134048165Y-104724144D01*
X134196199Y-104815453D01*
X134359850Y-104869680D01*
X134460855Y-104879999D01*
X134559999Y-104879998D01*
X134560000Y-104879998D01*
X134560000Y-104155001D01*
X134559999Y-104155000D01*
X134264837Y-104155000D01*
X134257193Y-104159621D01*
X134205427Y-104167500D01*
X133385001Y-104167500D01*
X133385000Y-104167501D01*
X132885000Y-104167501D01*
X132884999Y-104167500D01*
X132102072Y-104167500D01*
X132021210Y-104147569D01*
X131980345Y-104117501D01*
X131810001Y-104117501D01*
X131810000Y-104117502D01*
X131310000Y-104117502D01*
X131309999Y-104117501D01*
X130585002Y-104117501D01*
X130585001Y-104117502D01*
X129620500Y-104117502D01*
X129620500Y-101509732D01*
X129640431Y-101428870D01*
X129695657Y-101366533D01*
X129773527Y-101337001D01*
X129856201Y-101347039D01*
X129876527Y-101356280D01*
X129876873Y-101356465D01*
X129995256Y-101405501D01*
X130120931Y-101430500D01*
X130120934Y-101430500D01*
X130249066Y-101430500D01*
X130249069Y-101430500D01*
X130374744Y-101405501D01*
X130493127Y-101356465D01*
X130564839Y-101308548D01*
X130643142Y-101280197D01*
X130725656Y-101291482D01*
X130793474Y-101339821D01*
X130831059Y-101414139D01*
X130829802Y-101497411D01*
X130812198Y-101540220D01*
X130808880Y-101545965D01*
X130749636Y-101688997D01*
X130749633Y-101689008D01*
X130734501Y-101803945D01*
X130734500Y-101803964D01*
X130734500Y-102481033D01*
X130734501Y-102481052D01*
X130749633Y-102595989D01*
X130749634Y-102595994D01*
X130749635Y-102595998D01*
X130808883Y-102739036D01*
X130845852Y-102787215D01*
X130879264Y-102863498D01*
X130873399Y-102946573D01*
X130830844Y-103016174D01*
X130740053Y-103106964D01*
X130649548Y-103253695D01*
X130649546Y-103253700D01*
X130595319Y-103417351D01*
X130585000Y-103518356D01*
X130585000Y-103617500D01*
X130585001Y-103617501D01*
X132592928Y-103617501D01*
X132673790Y-103637432D01*
X132714655Y-103667500D01*
X133617663Y-103667500D01*
X133625307Y-103662879D01*
X133677073Y-103655000D01*
X134636000Y-103655000D01*
X134716862Y-103674931D01*
X134779199Y-103730157D01*
X134808731Y-103808027D01*
X134810000Y-103829000D01*
X134810000Y-103904999D01*
X134810001Y-103905000D01*
X134886000Y-103905000D01*
X134966862Y-103924931D01*
X135029199Y-103980157D01*
X135058731Y-104058027D01*
X135060000Y-104079000D01*
X135060000Y-104879998D01*
X135060001Y-104879999D01*
X135159145Y-104879999D01*
X135260143Y-104869682D01*
X135260147Y-104869681D01*
X135423800Y-104815453D01*
X135423805Y-104815451D01*
X135570537Y-104724946D01*
X135570539Y-104724944D01*
X135661324Y-104634158D01*
X135732595Y-104591072D01*
X135815725Y-104586043D01*
X135890283Y-104619147D01*
X135938463Y-104656117D01*
X136081501Y-104715365D01*
X136196460Y-104730500D01*
X136368481Y-104730500D01*
X136449343Y-104750431D01*
X136491518Y-104781463D01*
X136629724Y-104919669D01*
X136629723Y-104919669D01*
X136720332Y-105010277D01*
X136773602Y-105045870D01*
X136826873Y-105081465D01*
X136945256Y-105130501D01*
X137070931Y-105155500D01*
X137070934Y-105155500D01*
X139069324Y-105155500D01*
X139069332Y-105155499D01*
X139545374Y-105155499D01*
X139604974Y-105149092D01*
X139604974Y-105149091D01*
X139604983Y-105149091D01*
X139739831Y-105098796D01*
X139855046Y-105012546D01*
X139887399Y-104969326D01*
X139915018Y-104946692D01*
X139940978Y-104922180D01*
X139946984Y-104920495D01*
X139951810Y-104916541D01*
X139986782Y-104909334D01*
X140021166Y-104899692D01*
X140027268Y-104900992D01*
X140033378Y-104899733D01*
X140067694Y-104909604D01*
X140102620Y-104917045D01*
X140108767Y-104921419D01*
X140113414Y-104922756D01*
X140137881Y-104939765D01*
X140144050Y-104944890D01*
X140209436Y-105010276D01*
X140269937Y-105050701D01*
X140315979Y-105081465D01*
X140315980Y-105081465D01*
X140315981Y-105081466D01*
X140342798Y-105092574D01*
X140434362Y-105130501D01*
X140560037Y-105155500D01*
X140560040Y-105155500D01*
X141344324Y-105155500D01*
X141344332Y-105155499D01*
X141820374Y-105155499D01*
X141879974Y-105149092D01*
X141879974Y-105149091D01*
X141879983Y-105149091D01*
X142014831Y-105098796D01*
X142130046Y-105012546D01*
X142216296Y-104897331D01*
X142266591Y-104762483D01*
X142273000Y-104702873D01*
X142272999Y-104307128D01*
X142266591Y-104247517D01*
X142266589Y-104247511D01*
X142265651Y-104243539D01*
X142265693Y-104239159D01*
X142265428Y-104236693D01*
X142265717Y-104236661D01*
X142266451Y-104160261D01*
X142285219Y-104114949D01*
X142373778Y-103965206D01*
X142373783Y-103965194D01*
X142419599Y-103807495D01*
X142419795Y-103805000D01*
X141434000Y-103805000D01*
X141403492Y-103797480D01*
X141372299Y-103793693D01*
X141363508Y-103787625D01*
X141353138Y-103785069D01*
X141329619Y-103764233D01*
X141303759Y-103746383D01*
X141298795Y-103736925D01*
X141290801Y-103729843D01*
X141279660Y-103700466D01*
X141265056Y-103672641D01*
X141263148Y-103656927D01*
X141261269Y-103651973D01*
X141260000Y-103631000D01*
X141260000Y-103479000D01*
X141279931Y-103398138D01*
X141335157Y-103335801D01*
X141413027Y-103306269D01*
X141434000Y-103305000D01*
X142419795Y-103305000D01*
X142419599Y-103302504D01*
X142373783Y-103144805D01*
X142373778Y-103144795D01*
X142285218Y-102995047D01*
X142261211Y-102915300D01*
X142265652Y-102866453D01*
X142266586Y-102862495D01*
X142266591Y-102862483D01*
X142273000Y-102802873D01*
X142272999Y-102407128D01*
X142270256Y-102381614D01*
X142266592Y-102347525D01*
X142266591Y-102347519D01*
X142266591Y-102347517D01*
X142216296Y-102212669D01*
X142216294Y-102212667D01*
X142211946Y-102201008D01*
X142215827Y-102199560D01*
X142200873Y-102142602D01*
X142219581Y-102061449D01*
X142273860Y-101998285D01*
X142320125Y-101974807D01*
X142423796Y-101940455D01*
X142423805Y-101940451D01*
X142570536Y-101849946D01*
X142692446Y-101728036D01*
X142782951Y-101581305D01*
X142782953Y-101581300D01*
X142837180Y-101417649D01*
X142847500Y-101316644D01*
X142847500Y-101280001D01*
X142847499Y-101280000D01*
X141984000Y-101280000D01*
X141903138Y-101260069D01*
X141840801Y-101204843D01*
X141811269Y-101126973D01*
X141810000Y-101106000D01*
X141810000Y-101030001D01*
X141809999Y-101030000D01*
X141734000Y-101030000D01*
X141653138Y-101010069D01*
X141590801Y-100954843D01*
X141561269Y-100876973D01*
X141560000Y-100856000D01*
X141560000Y-100609370D01*
X141517879Y-100539693D01*
X141510000Y-100487927D01*
X141510000Y-99455001D01*
X142010000Y-99455001D01*
X142010000Y-99875629D01*
X142052121Y-99945307D01*
X142060000Y-99997073D01*
X142060000Y-100779999D01*
X142060001Y-100780000D01*
X142847498Y-100780000D01*
X142847499Y-100779999D01*
X142847499Y-100743357D01*
X142843900Y-100708128D01*
X142843900Y-100708125D01*
X142842737Y-100696738D01*
X144009500Y-100696738D01*
X144009500Y-103263261D01*
X144019426Y-103331391D01*
X144019427Y-103331393D01*
X144070800Y-103436480D01*
X144070801Y-103436481D01*
X144070802Y-103436483D01*
X144153517Y-103519198D01*
X144258607Y-103570573D01*
X144292673Y-103575536D01*
X144326739Y-103580500D01*
X144326740Y-103580500D01*
X145593261Y-103580500D01*
X145615971Y-103577191D01*
X145661393Y-103570573D01*
X145766483Y-103519198D01*
X145849198Y-103436483D01*
X145900573Y-103331393D01*
X145910500Y-103263260D01*
X145910500Y-100696740D01*
X145900573Y-100628607D01*
X145849198Y-100523517D01*
X145766483Y-100440802D01*
X145766481Y-100440801D01*
X145766480Y-100440800D01*
X145654403Y-100386009D01*
X145590511Y-100332589D01*
X145558762Y-100255596D01*
X145560006Y-100202608D01*
X145559662Y-100202575D01*
X145560115Y-100197971D01*
X145560167Y-100195738D01*
X145560500Y-100194069D01*
X145560500Y-100065931D01*
X145535501Y-99940256D01*
X145486465Y-99821873D01*
X145459465Y-99781465D01*
X145415279Y-99715335D01*
X145415278Y-99715334D01*
X145415276Y-99715331D01*
X145324669Y-99624724D01*
X145324665Y-99624721D01*
X145324664Y-99624720D01*
X145218127Y-99553535D01*
X145099744Y-99504499D01*
X145099745Y-99504499D01*
X145064639Y-99497516D01*
X144974069Y-99479500D01*
X144845931Y-99479500D01*
X144770526Y-99494499D01*
X144720254Y-99504499D01*
X144601872Y-99553535D01*
X144601871Y-99553535D01*
X144495335Y-99624720D01*
X144404720Y-99715335D01*
X144333535Y-99821871D01*
X144333535Y-99821872D01*
X144284499Y-99940254D01*
X144272620Y-99999973D01*
X144259500Y-100065931D01*
X144259500Y-100194069D01*
X144268696Y-100240297D01*
X144264923Y-100323493D01*
X144222920Y-100395407D01*
X144174462Y-100430562D01*
X144153519Y-100440800D01*
X144070800Y-100523519D01*
X144019427Y-100628606D01*
X144019426Y-100628608D01*
X144009500Y-100696738D01*
X142842737Y-100696738D01*
X142837182Y-100642357D01*
X142837181Y-100642352D01*
X142782953Y-100478699D01*
X142782951Y-100478695D01*
X142690845Y-100329368D01*
X142665357Y-100250082D01*
X142679635Y-100168034D01*
X142690845Y-100146676D01*
X142781855Y-99999127D01*
X142781858Y-99999120D01*
X142837003Y-99832702D01*
X142837005Y-99832693D01*
X142847500Y-99729976D01*
X142847500Y-99455001D01*
X142847499Y-99455000D01*
X142010001Y-99455000D01*
X142010000Y-99455001D01*
X141510000Y-99455001D01*
X141510000Y-99379000D01*
X141529931Y-99298138D01*
X141585157Y-99235801D01*
X141663027Y-99206269D01*
X141684000Y-99205000D01*
X141759999Y-99205000D01*
X141760000Y-99204999D01*
X141760000Y-99129000D01*
X141779931Y-99048138D01*
X141835157Y-98985801D01*
X141913027Y-98956269D01*
X141934000Y-98955000D01*
X142847498Y-98955000D01*
X142847499Y-98954999D01*
X142847499Y-98680022D01*
X142837007Y-98577311D01*
X142837005Y-98577302D01*
X142781858Y-98410879D01*
X142781855Y-98410872D01*
X142689818Y-98261658D01*
X142626279Y-98198119D01*
X142615794Y-98180775D01*
X142601323Y-98166592D01*
X142594570Y-98145665D01*
X142583195Y-98126848D01*
X142581971Y-98106620D01*
X142575748Y-98087334D01*
X142579493Y-98065666D01*
X142578166Y-98043718D01*
X142586553Y-98024827D01*
X142589935Y-98005270D01*
X142611274Y-97969156D01*
X142624203Y-97952307D01*
X142624203Y-97952306D01*
X142711117Y-97839037D01*
X142770365Y-97695999D01*
X142785500Y-97581040D01*
X142785500Y-97030985D01*
X142805431Y-96950123D01*
X142860657Y-96887786D01*
X142938527Y-96858254D01*
X143021201Y-96868292D01*
X143042170Y-96877878D01*
X143092011Y-96904790D01*
X143095883Y-96905560D01*
X143602589Y-96398855D01*
X143673860Y-96355771D01*
X143719346Y-96348005D01*
X143724332Y-96347824D01*
X143680448Y-96391709D01*
X143650000Y-96465218D01*
X143650000Y-96544782D01*
X143680448Y-96618291D01*
X143736709Y-96674552D01*
X143810218Y-96705000D01*
X143889782Y-96705000D01*
X143963291Y-96674552D01*
X144019552Y-96618291D01*
X144050000Y-96544782D01*
X144050000Y-96465218D01*
X144019552Y-96391709D01*
X143972666Y-96344823D01*
X144009318Y-96337532D01*
X144023274Y-96337029D01*
X144050757Y-96342759D01*
X144078803Y-96344031D01*
X144090989Y-96351148D01*
X144104803Y-96354029D01*
X144126474Y-96371874D01*
X144150717Y-96386034D01*
X144158198Y-96397997D01*
X144169093Y-96406969D01*
X144179990Y-96432845D01*
X144194874Y-96456646D01*
X144197850Y-96475255D01*
X144201416Y-96483722D01*
X144200648Y-96492752D01*
X144202427Y-96503872D01*
X144525000Y-96826445D01*
X144848086Y-96503358D01*
X144847022Y-96496774D01*
X144858057Y-96463806D01*
X144866377Y-96430054D01*
X144871165Y-96424649D01*
X144873458Y-96417800D01*
X144898553Y-96393734D01*
X144921603Y-96367717D01*
X144928354Y-96365156D01*
X144933568Y-96360157D01*
X144966971Y-96350511D01*
X144999473Y-96338185D01*
X145008398Y-96338548D01*
X145013580Y-96337052D01*
X145054389Y-96340259D01*
X145077333Y-96344823D01*
X145030448Y-96391709D01*
X145000000Y-96465218D01*
X145000000Y-96544782D01*
X145030448Y-96618291D01*
X145086709Y-96674552D01*
X145160218Y-96705000D01*
X145239782Y-96705000D01*
X145313291Y-96674552D01*
X145369552Y-96618291D01*
X145400000Y-96544782D01*
X145400000Y-96465218D01*
X145369552Y-96391709D01*
X145344906Y-96367063D01*
X145348927Y-96367644D01*
X145416383Y-96416486D01*
X145453414Y-96491082D01*
X145451537Y-96574343D01*
X145411182Y-96647194D01*
X145406612Y-96651942D01*
X145376777Y-96681777D01*
X145376776Y-96681777D01*
X144771492Y-97287060D01*
X144700221Y-97330144D01*
X144617091Y-97335173D01*
X144541147Y-97300993D01*
X144525419Y-97287060D01*
X144524999Y-97286640D01*
X144524578Y-97287061D01*
X144453307Y-97330145D01*
X144370177Y-97335173D01*
X144294233Y-97300992D01*
X144278507Y-97287060D01*
X143850000Y-96858554D01*
X143389035Y-97319517D01*
X143383546Y-97322835D01*
X143379841Y-97328070D01*
X143348184Y-97344211D01*
X143317764Y-97362602D01*
X143308391Y-97364502D01*
X143305648Y-97365902D01*
X143301721Y-97365855D01*
X143283055Y-97369642D01*
X143260249Y-97371888D01*
X143238121Y-97405004D01*
X143238121Y-97405005D01*
X143166508Y-97577893D01*
X143161116Y-97604999D01*
X143161116Y-97605000D01*
X143913012Y-97605000D01*
X143895795Y-97614940D01*
X143839940Y-97670795D01*
X143800444Y-97739204D01*
X143780000Y-97815504D01*
X143780000Y-97894496D01*
X143800444Y-97970796D01*
X143839940Y-98039205D01*
X143895795Y-98095060D01*
X143913012Y-98105000D01*
X143161116Y-98105000D01*
X143166508Y-98132106D01*
X143238121Y-98304994D01*
X143238121Y-98304995D01*
X143342083Y-98460585D01*
X143474414Y-98592916D01*
X143630005Y-98696878D01*
X143802894Y-98768491D01*
X143986434Y-98804999D01*
X143986436Y-98805000D01*
X144579999Y-98805000D01*
X144580000Y-98804999D01*
X144580000Y-98155000D01*
X145080000Y-98155000D01*
X145080000Y-98804999D01*
X145080001Y-98805000D01*
X145673564Y-98805000D01*
X145673565Y-98804999D01*
X145857105Y-98768491D01*
X146029994Y-98696878D01*
X146029995Y-98696878D01*
X146185585Y-98592916D01*
X146317916Y-98460585D01*
X146421878Y-98304995D01*
X146421878Y-98304994D01*
X146493491Y-98132106D01*
X146498884Y-98105000D01*
X145746988Y-98105000D01*
X145764205Y-98095060D01*
X145820060Y-98039205D01*
X145859556Y-97970796D01*
X145880000Y-97894496D01*
X145880000Y-97815504D01*
X145859556Y-97739204D01*
X145820060Y-97670795D01*
X145764205Y-97614940D01*
X145746988Y-97605000D01*
X146498884Y-97605000D01*
X146498883Y-97604999D01*
X146493491Y-97577893D01*
X146421878Y-97405005D01*
X146421878Y-97405004D01*
X146317916Y-97249414D01*
X146185585Y-97117083D01*
X146054401Y-97029429D01*
X145998240Y-96967933D01*
X145977090Y-96887381D01*
X145990316Y-96818165D01*
X146017333Y-96752941D01*
X146017334Y-96752936D01*
X146049999Y-96588716D01*
X146050000Y-96588715D01*
X146050000Y-96421285D01*
X146049999Y-96421283D01*
X146017334Y-96257063D01*
X145948611Y-96091152D01*
X145918434Y-96077018D01*
X145868069Y-96010691D01*
X145854297Y-95928556D01*
X145867045Y-95875104D01*
X145873580Y-95859328D01*
X145900500Y-95723993D01*
X145900500Y-95586007D01*
X145873580Y-95450672D01*
X145820775Y-95323189D01*
X145820771Y-95323183D01*
X145816745Y-95315650D01*
X145818728Y-95314589D01*
X145794748Y-95248368D01*
X145806031Y-95165854D01*
X145817192Y-95144589D01*
X145816745Y-95144350D01*
X145820768Y-95136820D01*
X145820775Y-95136811D01*
X145873580Y-95009328D01*
X145900500Y-94873993D01*
X145900500Y-94736007D01*
X145873580Y-94600672D01*
X145820775Y-94473189D01*
X145820771Y-94473183D01*
X145816745Y-94465650D01*
X145818728Y-94464589D01*
X145794748Y-94398368D01*
X145806031Y-94315854D01*
X145817192Y-94294589D01*
X145816745Y-94294350D01*
X145820768Y-94286820D01*
X145820775Y-94286811D01*
X145873580Y-94159328D01*
X145900500Y-94023993D01*
X145900500Y-93886007D01*
X145873580Y-93750672D01*
X145820775Y-93623189D01*
X145820771Y-93623183D01*
X145816745Y-93615650D01*
X145818728Y-93614589D01*
X145794748Y-93548368D01*
X145806031Y-93465854D01*
X145817192Y-93444589D01*
X145816745Y-93444350D01*
X145820768Y-93436820D01*
X145820775Y-93436811D01*
X145873580Y-93309328D01*
X145900500Y-93173993D01*
X145900500Y-93036007D01*
X145873580Y-92900672D01*
X145855559Y-92857165D01*
X145843029Y-92774837D01*
X145870195Y-92696111D01*
X145929315Y-92639895D01*
X145971588Y-92615489D01*
X146690489Y-91896588D01*
X146728083Y-91831473D01*
X146749799Y-91793860D01*
X146780500Y-91679283D01*
X146780500Y-89939076D01*
X146800431Y-89858214D01*
X146855657Y-89795877D01*
X146933527Y-89766345D01*
X147016201Y-89776383D01*
X147077537Y-89816039D01*
X147204414Y-89942916D01*
X147360005Y-90046878D01*
X147532894Y-90118491D01*
X147716434Y-90154999D01*
X147716436Y-90155000D01*
X147959999Y-90155000D01*
X147960000Y-90154999D01*
X147960000Y-89505000D01*
X148460000Y-89505000D01*
X148460000Y-90154999D01*
X148460001Y-90155000D01*
X148703564Y-90155000D01*
X148703565Y-90154999D01*
X148887105Y-90118491D01*
X149059994Y-90046878D01*
X149059995Y-90046878D01*
X149215585Y-89942916D01*
X149347916Y-89810585D01*
X149451878Y-89654995D01*
X149451878Y-89654994D01*
X149523491Y-89482106D01*
X149528884Y-89455000D01*
X148776988Y-89455000D01*
X148794205Y-89445060D01*
X148850060Y-89389205D01*
X148889556Y-89320796D01*
X148910000Y-89244496D01*
X148910000Y-89165504D01*
X148889556Y-89089204D01*
X148850060Y-89020795D01*
X148794205Y-88964940D01*
X148776988Y-88955000D01*
X149528884Y-88955000D01*
X149528883Y-88954999D01*
X149523491Y-88927893D01*
X149451878Y-88755005D01*
X149451878Y-88755004D01*
X149347916Y-88599414D01*
X149215585Y-88467083D01*
X149059994Y-88363121D01*
X148887105Y-88291508D01*
X148703565Y-88255000D01*
X148460001Y-88255000D01*
X148460000Y-88255001D01*
X148460000Y-88905000D01*
X147960000Y-88905000D01*
X147960000Y-88255001D01*
X147959999Y-88255000D01*
X147716434Y-88255000D01*
X147532894Y-88291508D01*
X147360005Y-88363121D01*
X147360004Y-88363121D01*
X147204414Y-88467083D01*
X147077537Y-88593961D01*
X147006266Y-88637045D01*
X146923136Y-88642074D01*
X146847191Y-88607894D01*
X146795829Y-88542336D01*
X146784666Y-88508771D01*
X146780500Y-88490076D01*
X146780500Y-88378191D01*
X146749799Y-88263614D01*
X146730952Y-88230970D01*
X146690490Y-88160887D01*
X146361067Y-87831464D01*
X146023963Y-87494359D01*
X145980879Y-87423088D01*
X145973000Y-87371323D01*
X145973000Y-86978965D01*
X145973000Y-86978960D01*
X145957865Y-86864001D01*
X145898617Y-86720963D01*
X145804367Y-86598133D01*
X145681537Y-86503883D01*
X145681533Y-86503881D01*
X145576079Y-86460201D01*
X145538499Y-86444635D01*
X145538495Y-86444634D01*
X145538490Y-86444633D01*
X145423553Y-86429501D01*
X145423543Y-86429500D01*
X145423540Y-86429500D01*
X144846460Y-86429500D01*
X144846456Y-86429500D01*
X144846446Y-86429501D01*
X144731509Y-86444633D01*
X144731502Y-86444634D01*
X144731501Y-86444635D01*
X144731499Y-86444635D01*
X144731498Y-86444636D01*
X144588466Y-86503881D01*
X144588463Y-86503882D01*
X144588463Y-86503883D01*
X144561305Y-86524722D01*
X144465635Y-86598131D01*
X144465626Y-86598140D01*
X144454184Y-86613052D01*
X144389146Y-86665070D01*
X144307383Y-86680904D01*
X144227627Y-86656928D01*
X144168149Y-86598634D01*
X144168049Y-86598472D01*
X144142445Y-86556962D01*
X144020536Y-86435053D01*
X143873805Y-86344548D01*
X143873800Y-86344546D01*
X143710149Y-86290319D01*
X143609145Y-86280000D01*
X143560001Y-86280000D01*
X143560000Y-86280001D01*
X143560000Y-88257527D01*
X143561005Y-88259190D01*
X143566034Y-88342320D01*
X143531854Y-88418265D01*
X143491553Y-88455632D01*
X143474414Y-88467083D01*
X143342083Y-88599414D01*
X143238121Y-88755004D01*
X143238121Y-88755005D01*
X143166508Y-88927893D01*
X143161116Y-88954999D01*
X143161116Y-88955000D01*
X143913012Y-88955000D01*
X143895795Y-88964940D01*
X143839940Y-89020795D01*
X143800444Y-89089204D01*
X143780000Y-89165504D01*
X143780000Y-89244496D01*
X143800444Y-89320796D01*
X143839940Y-89389205D01*
X143895795Y-89445060D01*
X143913012Y-89455000D01*
X143161116Y-89455000D01*
X143166508Y-89482106D01*
X143238118Y-89654989D01*
X143238123Y-89654998D01*
X143260248Y-89688109D01*
X143283051Y-89690355D01*
X143361570Y-89718114D01*
X143389035Y-89740480D01*
X143850000Y-90201445D01*
X144278506Y-89772939D01*
X144349777Y-89729855D01*
X144401543Y-89721976D01*
X144648456Y-89721976D01*
X144663920Y-89725787D01*
X144679819Y-89724826D01*
X144703793Y-89735615D01*
X144729318Y-89741907D01*
X144741238Y-89752467D01*
X144755764Y-89759005D01*
X144771493Y-89772939D01*
X145253740Y-90255186D01*
X145296824Y-90326457D01*
X145300061Y-90379968D01*
X145239782Y-90355000D01*
X145160218Y-90355000D01*
X145086709Y-90385448D01*
X145030448Y-90441709D01*
X145000000Y-90515218D01*
X145000000Y-90594782D01*
X145030448Y-90668291D01*
X145075639Y-90713482D01*
X145059953Y-90718633D01*
X145054399Y-90719738D01*
X144971202Y-90715969D01*
X144899287Y-90673969D01*
X144855128Y-90603358D01*
X144847572Y-90556127D01*
X144525000Y-90233555D01*
X144201618Y-90556936D01*
X144183623Y-90629945D01*
X144128397Y-90692282D01*
X144050527Y-90721814D01*
X143995609Y-90719740D01*
X143976460Y-90715931D01*
X143972666Y-90715176D01*
X144019552Y-90668291D01*
X144050000Y-90594782D01*
X144050000Y-90515218D01*
X144019552Y-90441709D01*
X143963291Y-90385448D01*
X143889782Y-90355000D01*
X143810218Y-90355000D01*
X143736709Y-90385448D01*
X143680448Y-90441709D01*
X143650000Y-90515218D01*
X143650000Y-90594782D01*
X143680448Y-90668291D01*
X143727333Y-90715176D01*
X143704391Y-90719740D01*
X143621195Y-90715967D01*
X143549281Y-90673963D01*
X143505125Y-90603351D01*
X143497572Y-90556127D01*
X143095883Y-90154438D01*
X143032666Y-90307060D01*
X143032665Y-90307062D01*
X143000000Y-90471285D01*
X143000000Y-90638714D01*
X143032665Y-90802937D01*
X143032666Y-90802939D01*
X143101385Y-90968844D01*
X143131562Y-90982977D01*
X143181928Y-91049303D01*
X143195702Y-91131438D01*
X143182955Y-91184894D01*
X143176420Y-91200670D01*
X143175000Y-91207810D01*
X143149500Y-91336007D01*
X143149500Y-91473993D01*
X143167826Y-91566125D01*
X143176420Y-91609329D01*
X143229223Y-91736808D01*
X143233256Y-91744353D01*
X143231275Y-91745411D01*
X143255253Y-91811654D01*
X143243959Y-91894166D01*
X143241739Y-91899502D01*
X143235529Y-91913753D01*
X143229225Y-91923189D01*
X143186952Y-92025244D01*
X143186306Y-92026728D01*
X143161961Y-92058581D01*
X143138187Y-92090892D01*
X143136723Y-92091604D01*
X143135735Y-92092898D01*
X143099366Y-92109794D01*
X143063309Y-92127351D01*
X143061681Y-92127301D01*
X143060207Y-92127987D01*
X143020158Y-92126046D01*
X142980065Y-92124835D01*
X142978647Y-92124035D01*
X142977022Y-92123957D01*
X142942438Y-92103613D01*
X142907525Y-92083922D01*
X142905308Y-92081771D01*
X142905239Y-92081731D01*
X142905197Y-92081664D01*
X142903786Y-92080295D01*
X142518002Y-91694511D01*
X142474975Y-91669669D01*
X142415275Y-91635200D01*
X142399808Y-91631056D01*
X142399801Y-91631054D01*
X142391061Y-91628713D01*
X142300697Y-91604500D01*
X142232911Y-91604500D01*
X142219323Y-91602338D01*
X142193266Y-91591337D01*
X142165804Y-91584569D01*
X142150421Y-91573250D01*
X142142598Y-91569948D01*
X142137494Y-91563739D01*
X142123634Y-91553541D01*
X142117546Y-91547453D01*
X142002335Y-91461206D01*
X142002328Y-91461202D01*
X141867490Y-91410911D01*
X141867485Y-91410910D01*
X141867483Y-91410909D01*
X141807873Y-91404500D01*
X141807870Y-91404500D01*
X140687126Y-91404500D01*
X140627525Y-91410907D01*
X140627519Y-91410908D01*
X140492665Y-91461205D01*
X140492664Y-91461206D01*
X140377460Y-91547448D01*
X140377448Y-91547460D01*
X140291206Y-91662664D01*
X140291204Y-91662668D01*
X140273028Y-91711400D01*
X140226095Y-91780198D01*
X140152565Y-91819305D01*
X140069285Y-91819762D01*
X139995331Y-91781463D01*
X139947647Y-91713184D01*
X139946971Y-91711400D01*
X139928796Y-91662669D01*
X139928793Y-91662666D01*
X139928793Y-91662664D01*
X139842551Y-91547460D01*
X139842548Y-91547457D01*
X139842546Y-91547454D01*
X139842542Y-91547451D01*
X139842539Y-91547448D01*
X139727335Y-91461206D01*
X139727328Y-91461202D01*
X139592490Y-91410911D01*
X139592485Y-91410910D01*
X139592483Y-91410909D01*
X139532873Y-91404500D01*
X139532870Y-91404500D01*
X138412126Y-91404500D01*
X138352525Y-91410907D01*
X138352519Y-91410908D01*
X138217665Y-91461205D01*
X138217664Y-91461206D01*
X138102460Y-91547448D01*
X138102448Y-91547460D01*
X138016206Y-91662664D01*
X138016202Y-91662671D01*
X137965911Y-91797509D01*
X137965909Y-91797515D01*
X137965909Y-91797517D01*
X137963567Y-91819305D01*
X137959500Y-91857129D01*
X137959500Y-92005771D01*
X137939569Y-92086633D01*
X137908537Y-92128807D01*
X137649513Y-92387831D01*
X137649506Y-92387840D01*
X137590202Y-92490557D01*
X137590201Y-92490561D01*
X137590201Y-92490562D01*
X137559500Y-92605139D01*
X137559500Y-92768378D01*
X137558453Y-92777880D01*
X137547313Y-92808264D01*
X137539569Y-92839684D01*
X137532045Y-92849909D01*
X137529786Y-92856072D01*
X137522962Y-92862253D01*
X137508537Y-92881859D01*
X135475316Y-94915079D01*
X135404044Y-94958163D01*
X135320915Y-94963192D01*
X135244970Y-94929012D01*
X135207604Y-94888712D01*
X135182853Y-94851670D01*
X135154500Y-94773363D01*
X135165785Y-94690850D01*
X135182852Y-94658331D01*
X135216609Y-94607810D01*
X135246465Y-94563127D01*
X135295501Y-94444744D01*
X135320500Y-94319069D01*
X135320500Y-94190931D01*
X135295501Y-94065256D01*
X135246465Y-93946873D01*
X135245042Y-93944744D01*
X135182852Y-93851669D01*
X135154500Y-93773362D01*
X135165786Y-93690849D01*
X135182852Y-93658331D01*
X135245042Y-93565256D01*
X135246465Y-93563127D01*
X135295501Y-93444744D01*
X135320500Y-93319069D01*
X135320500Y-93190931D01*
X135295501Y-93065256D01*
X135246465Y-92946873D01*
X135245042Y-92944744D01*
X135182852Y-92851669D01*
X135154500Y-92773362D01*
X135165786Y-92690849D01*
X135182853Y-92658330D01*
X135189224Y-92648796D01*
X135246465Y-92563128D01*
X135295501Y-92444745D01*
X135320500Y-92319070D01*
X135320500Y-92190932D01*
X135295501Y-92065257D01*
X135246465Y-91946874D01*
X135182850Y-91851667D01*
X135154499Y-91773363D01*
X135165784Y-91690849D01*
X135182852Y-91658330D01*
X135198307Y-91635201D01*
X135246465Y-91563127D01*
X135295501Y-91444744D01*
X135320500Y-91319069D01*
X135320500Y-91190931D01*
X135295501Y-91065256D01*
X135246465Y-90946873D01*
X135243872Y-90942993D01*
X135175279Y-90840335D01*
X135175278Y-90840334D01*
X135175276Y-90840331D01*
X135084669Y-90749724D01*
X135084665Y-90749721D01*
X135084664Y-90749720D01*
X134978127Y-90678535D01*
X134859744Y-90629499D01*
X134859745Y-90629499D01*
X134828325Y-90623249D01*
X134734069Y-90604500D01*
X134677232Y-90604500D01*
X134676315Y-90604274D01*
X134675398Y-90604490D01*
X134635962Y-90594327D01*
X134596370Y-90584569D01*
X134595663Y-90583943D01*
X134594751Y-90583708D01*
X134564550Y-90556379D01*
X134534033Y-90529343D01*
X134533698Y-90528460D01*
X134532999Y-90527828D01*
X134518937Y-90489538D01*
X134504501Y-90451473D01*
X134504507Y-90450246D01*
X134504289Y-90449652D01*
X134504731Y-90407707D01*
X134504863Y-90406708D01*
X134535215Y-90329154D01*
X134598131Y-90274588D01*
X134677364Y-90255501D01*
X134738387Y-90255501D01*
X134738390Y-90255501D01*
X134865684Y-90221393D01*
X134865687Y-90221391D01*
X134939437Y-90178812D01*
X135019430Y-90155641D01*
X135026437Y-90155500D01*
X135436034Y-90155500D01*
X135436039Y-90155500D01*
X135550998Y-90140365D01*
X135694036Y-90081117D01*
X135742215Y-90044147D01*
X135818498Y-90010736D01*
X135901573Y-90016601D01*
X135971174Y-90059156D01*
X136061964Y-90149946D01*
X136208695Y-90240451D01*
X136208700Y-90240453D01*
X136372351Y-90294680D01*
X136473356Y-90304999D01*
X136572500Y-90304998D01*
X136572501Y-90304998D01*
X136572501Y-89580001D01*
X137072501Y-89580001D01*
X137072501Y-90304998D01*
X137072502Y-90304999D01*
X137171646Y-90304999D01*
X137272644Y-90294682D01*
X137272648Y-90294681D01*
X137436301Y-90240453D01*
X137436306Y-90240451D01*
X137583037Y-90149946D01*
X137704947Y-90028036D01*
X137795452Y-89881305D01*
X137795454Y-89881300D01*
X137849681Y-89717649D01*
X137860001Y-89616644D01*
X137860001Y-89580001D01*
X137860000Y-89580000D01*
X137072502Y-89580000D01*
X137072501Y-89580001D01*
X136572501Y-89580001D01*
X136572501Y-89504000D01*
X136592432Y-89423138D01*
X136647658Y-89360801D01*
X136725528Y-89331269D01*
X136746501Y-89330000D01*
X136822500Y-89330000D01*
X136822501Y-89329999D01*
X136822501Y-89254000D01*
X136842432Y-89173138D01*
X136897658Y-89110801D01*
X136975528Y-89081269D01*
X136996501Y-89080000D01*
X137859999Y-89080000D01*
X137860000Y-89079999D01*
X137860000Y-89043354D01*
X137849683Y-88942356D01*
X137849682Y-88942352D01*
X137795454Y-88778699D01*
X137795452Y-88778694D01*
X137704947Y-88631963D01*
X137583037Y-88510053D01*
X137436306Y-88419548D01*
X137436294Y-88419542D01*
X137322213Y-88381741D01*
X137251724Y-88337388D01*
X137209922Y-88265358D01*
X137206382Y-88182151D01*
X137241915Y-88106830D01*
X137253897Y-88093546D01*
X137615981Y-87731463D01*
X137687252Y-87688378D01*
X137739017Y-87680500D01*
X141374066Y-87680500D01*
X141374069Y-87680500D01*
X141499744Y-87655501D01*
X141618127Y-87606465D01*
X141724669Y-87535276D01*
X141754944Y-87505001D01*
X142322501Y-87505001D01*
X142322501Y-87541645D01*
X142332817Y-87642643D01*
X142332818Y-87642647D01*
X142387046Y-87806300D01*
X142387048Y-87806305D01*
X142477553Y-87953036D01*
X142599463Y-88074946D01*
X142746194Y-88165451D01*
X142746199Y-88165453D01*
X142909850Y-88219680D01*
X143010846Y-88229998D01*
X143010865Y-88229999D01*
X143060000Y-88229999D01*
X143060000Y-87505001D01*
X143059999Y-87505000D01*
X142322502Y-87505000D01*
X142322501Y-87505001D01*
X141754944Y-87505001D01*
X141815276Y-87444669D01*
X141886465Y-87338127D01*
X141935501Y-87219744D01*
X141960500Y-87094069D01*
X141960500Y-86968355D01*
X142322500Y-86968355D01*
X142322500Y-87004999D01*
X142322501Y-87005000D01*
X143059999Y-87005000D01*
X143060000Y-87004999D01*
X143060000Y-86280000D01*
X143010854Y-86280000D01*
X142909857Y-86290317D01*
X142909852Y-86290318D01*
X142746199Y-86344546D01*
X142746194Y-86344548D01*
X142599463Y-86435053D01*
X142477553Y-86556963D01*
X142387048Y-86703694D01*
X142387046Y-86703699D01*
X142332819Y-86867350D01*
X142322500Y-86968355D01*
X141960500Y-86968355D01*
X141960500Y-86965931D01*
X141935501Y-86840256D01*
X141886465Y-86721873D01*
X141874318Y-86703694D01*
X141815279Y-86615335D01*
X141815278Y-86615334D01*
X141815276Y-86615331D01*
X141724669Y-86524724D01*
X141724665Y-86524721D01*
X141724664Y-86524720D01*
X141618127Y-86453535D01*
X141499744Y-86404499D01*
X141499745Y-86404499D01*
X141465267Y-86397641D01*
X141374069Y-86379500D01*
X137333430Y-86379500D01*
X137333429Y-86379500D01*
X137283433Y-86389444D01*
X137283434Y-86389445D01*
X137207755Y-86404498D01*
X137093278Y-86451916D01*
X137093276Y-86451918D01*
X137089372Y-86453535D01*
X137089370Y-86453536D01*
X137089367Y-86453537D01*
X137085506Y-86456116D01*
X137085507Y-86456117D01*
X136982836Y-86524717D01*
X136982831Y-86524721D01*
X136982831Y-86524722D01*
X136954014Y-86553538D01*
X136882746Y-86596621D01*
X136830980Y-86604500D01*
X135456574Y-86604500D01*
X135375712Y-86584569D01*
X135333537Y-86553537D01*
X135310000Y-86530000D01*
X134446501Y-86530000D01*
X134415993Y-86522480D01*
X134384800Y-86518693D01*
X134376009Y-86512625D01*
X134365639Y-86510069D01*
X134342120Y-86489233D01*
X134316260Y-86471383D01*
X134311296Y-86461925D01*
X134303302Y-86454843D01*
X134292161Y-86425466D01*
X134277557Y-86397641D01*
X134275649Y-86381927D01*
X134273770Y-86376973D01*
X134272501Y-86356000D01*
X134272501Y-86204000D01*
X134292432Y-86123138D01*
X134347658Y-86060801D01*
X134425528Y-86031269D01*
X134446501Y-86030000D01*
X135309999Y-86030000D01*
X135310000Y-86029999D01*
X135310000Y-85993354D01*
X135299683Y-85892356D01*
X135299682Y-85892352D01*
X135271973Y-85808729D01*
X135265458Y-85725702D01*
X135298274Y-85649158D01*
X135362902Y-85596632D01*
X135437142Y-85579999D01*
X135909977Y-85579999D01*
X136012688Y-85569507D01*
X136012697Y-85569505D01*
X136179120Y-85514358D01*
X136179127Y-85514355D01*
X136328341Y-85422318D01*
X136452318Y-85298341D01*
X136488030Y-85240443D01*
X136547443Y-85182082D01*
X136627172Y-85158017D01*
X136708952Y-85173761D01*
X136727470Y-85183692D01*
X136758696Y-85202952D01*
X136758699Y-85202953D01*
X136922350Y-85257180D01*
X137023346Y-85267498D01*
X137023364Y-85267499D01*
X137060000Y-85267498D01*
X137060000Y-84480001D01*
X137560000Y-84480001D01*
X137560000Y-85267498D01*
X137560001Y-85267499D01*
X137596645Y-85267499D01*
X137697643Y-85257182D01*
X137697647Y-85257181D01*
X137861300Y-85202953D01*
X137861305Y-85202951D01*
X138008036Y-85112446D01*
X138129946Y-84990536D01*
X138220451Y-84843805D01*
X138220453Y-84843800D01*
X138274680Y-84680149D01*
X138285000Y-84579144D01*
X138285000Y-84480001D01*
X138284999Y-84480000D01*
X137560001Y-84480000D01*
X137560000Y-84480001D01*
X137060000Y-84480001D01*
X137059999Y-84480000D01*
X136277073Y-84480000D01*
X136196211Y-84460069D01*
X136155345Y-84430000D01*
X135234000Y-84430000D01*
X135203492Y-84422480D01*
X135172299Y-84418693D01*
X135163508Y-84412625D01*
X135153138Y-84410069D01*
X135129619Y-84389233D01*
X135103759Y-84371383D01*
X135098795Y-84361925D01*
X135090801Y-84354843D01*
X135079660Y-84325466D01*
X135065056Y-84297641D01*
X135063148Y-84281927D01*
X135061269Y-84276973D01*
X135060000Y-84256000D01*
X135060000Y-84104000D01*
X135079931Y-84023138D01*
X135135157Y-83960801D01*
X135213027Y-83931269D01*
X135234000Y-83930000D01*
X136667927Y-83930000D01*
X136748789Y-83949931D01*
X136789655Y-83980000D01*
X138284998Y-83980000D01*
X138284999Y-83979999D01*
X138284999Y-83880854D01*
X138274682Y-83779856D01*
X138274681Y-83779852D01*
X138220453Y-83616199D01*
X138220451Y-83616194D01*
X138129946Y-83469463D01*
X138039157Y-83378674D01*
X137996073Y-83307403D01*
X137991044Y-83224273D01*
X138024149Y-83149714D01*
X138061117Y-83101537D01*
X138120365Y-82958499D01*
X138135500Y-82843540D01*
X138135500Y-82255001D01*
X138835001Y-82255001D01*
X138835001Y-82354145D01*
X138845317Y-82455143D01*
X138845318Y-82455147D01*
X138899546Y-82618800D01*
X138899548Y-82618805D01*
X138990053Y-82765536D01*
X139080842Y-82856325D01*
X139123926Y-82927596D01*
X139128955Y-83010726D01*
X139095851Y-83085283D01*
X139058881Y-83133464D01*
X138999636Y-83276498D01*
X138999633Y-83276509D01*
X138984501Y-83391446D01*
X138984500Y-83391465D01*
X138984500Y-84068534D01*
X138984501Y-84068553D01*
X138999633Y-84183490D01*
X138999636Y-84183501D01*
X139058880Y-84326533D01*
X139152304Y-84448287D01*
X139185716Y-84524572D01*
X139184916Y-84588155D01*
X139172011Y-84653036D01*
X139159500Y-84715931D01*
X139159500Y-84844069D01*
X139170584Y-84899788D01*
X139184499Y-84969745D01*
X139233535Y-85088127D01*
X139233535Y-85088128D01*
X139304720Y-85194664D01*
X139304721Y-85194665D01*
X139304724Y-85194669D01*
X139395331Y-85285276D01*
X139501873Y-85356465D01*
X139620256Y-85405501D01*
X139745931Y-85430500D01*
X139745934Y-85430500D01*
X139874066Y-85430500D01*
X139874069Y-85430500D01*
X139999744Y-85405501D01*
X140118127Y-85356465D01*
X140224669Y-85285276D01*
X140315276Y-85194669D01*
X140386465Y-85088127D01*
X140435501Y-84969744D01*
X140460500Y-84844069D01*
X140460500Y-84715931D01*
X140435501Y-84590256D01*
X140435500Y-84590254D01*
X140435083Y-84588156D01*
X140435308Y-84583187D01*
X140433454Y-84578574D01*
X140437183Y-84541839D01*
X140438856Y-84504960D01*
X140441505Y-84499269D01*
X140441866Y-84495718D01*
X140450777Y-84479353D01*
X140460626Y-84458200D01*
X140466060Y-84449985D01*
X140466867Y-84449367D01*
X140561117Y-84326537D01*
X140583519Y-84272451D01*
X140592757Y-84258490D01*
X140611426Y-84241283D01*
X140626475Y-84220833D01*
X140641615Y-84213460D01*
X140653997Y-84202050D01*
X140678521Y-84195491D01*
X140701352Y-84184375D01*
X140732412Y-84181079D01*
X140734451Y-84180534D01*
X140735442Y-84180757D01*
X140737871Y-84180500D01*
X140758146Y-84180500D01*
X140839008Y-84200431D01*
X140881179Y-84231460D01*
X140911015Y-84261296D01*
X141016105Y-84312671D01*
X141050171Y-84317634D01*
X141084237Y-84322598D01*
X141084238Y-84322598D01*
X141785759Y-84322598D01*
X141808469Y-84319289D01*
X141853891Y-84312671D01*
X141958981Y-84261296D01*
X142041696Y-84178581D01*
X142093071Y-84073491D01*
X142102998Y-84005358D01*
X142102998Y-83354638D01*
X142102998Y-83354636D01*
X143892000Y-83354636D01*
X143892000Y-84005359D01*
X143901926Y-84073489D01*
X143901927Y-84073491D01*
X143953300Y-84178578D01*
X143953301Y-84178579D01*
X143953302Y-84178581D01*
X144036017Y-84261296D01*
X144141107Y-84312671D01*
X144175173Y-84317634D01*
X144209239Y-84322598D01*
X144209240Y-84322598D01*
X144910761Y-84322598D01*
X144933471Y-84319289D01*
X144978893Y-84312671D01*
X145083983Y-84261296D01*
X145166698Y-84178581D01*
X145218073Y-84073491D01*
X145228000Y-84005358D01*
X145228000Y-83354638D01*
X145224600Y-83331305D01*
X145218073Y-83286506D01*
X145218073Y-83286505D01*
X145166698Y-83181415D01*
X145083983Y-83098700D01*
X145083981Y-83098699D01*
X145083980Y-83098698D01*
X144978893Y-83047325D01*
X144978891Y-83047324D01*
X144910761Y-83037398D01*
X144910760Y-83037398D01*
X144209240Y-83037398D01*
X144209239Y-83037398D01*
X144141108Y-83047324D01*
X144141106Y-83047325D01*
X144036019Y-83098698D01*
X143953300Y-83181417D01*
X143901927Y-83286504D01*
X143901926Y-83286506D01*
X143892000Y-83354636D01*
X142102998Y-83354636D01*
X142099598Y-83331305D01*
X142093071Y-83286506D01*
X142093071Y-83286505D01*
X142041696Y-83181415D01*
X141958981Y-83098700D01*
X141922499Y-83080865D01*
X141858607Y-83027445D01*
X141826859Y-82950452D01*
X141834528Y-82867524D01*
X141879858Y-82797659D01*
X141938115Y-82761515D01*
X141994588Y-82740452D01*
X141994591Y-82740450D01*
X142109680Y-82654294D01*
X142109692Y-82654282D01*
X142195848Y-82539193D01*
X142195852Y-82539186D01*
X142246096Y-82404476D01*
X142246096Y-82404473D01*
X142252498Y-82344928D01*
X142252498Y-82255001D01*
X142252497Y-82255000D01*
X138835002Y-82255000D01*
X138835001Y-82255001D01*
X138135500Y-82255001D01*
X138135500Y-82166460D01*
X138120365Y-82051501D01*
X138061117Y-81908463D01*
X137966867Y-81785633D01*
X137844037Y-81691383D01*
X137844033Y-81691381D01*
X137758264Y-81655855D01*
X138835000Y-81655855D01*
X138835000Y-81754999D01*
X138835001Y-81755000D01*
X139559999Y-81755000D01*
X139560000Y-81754999D01*
X139560000Y-80967501D01*
X140060000Y-80967501D01*
X140060000Y-81754999D01*
X140060001Y-81755000D01*
X141184997Y-81755000D01*
X141184998Y-81754999D01*
X141184998Y-81212901D01*
X141684998Y-81212901D01*
X141684998Y-81754999D01*
X141684999Y-81755000D01*
X142252497Y-81755000D01*
X142252498Y-81754999D01*
X142252498Y-81679638D01*
X143892000Y-81679638D01*
X143892000Y-82330361D01*
X143901926Y-82398491D01*
X143901927Y-82398493D01*
X143953300Y-82503580D01*
X143953301Y-82503581D01*
X143953302Y-82503583D01*
X144036017Y-82586298D01*
X144141107Y-82637673D01*
X144175173Y-82642636D01*
X144209239Y-82647600D01*
X144209240Y-82647600D01*
X144910761Y-82647600D01*
X144933471Y-82644291D01*
X144978893Y-82637673D01*
X145083983Y-82586298D01*
X145166698Y-82503583D01*
X145218073Y-82398493D01*
X145228000Y-82330360D01*
X145228000Y-81679640D01*
X145218073Y-81611507D01*
X145166698Y-81506417D01*
X145083983Y-81423702D01*
X145083981Y-81423701D01*
X145083980Y-81423700D01*
X144978893Y-81372327D01*
X144978891Y-81372326D01*
X144910761Y-81362400D01*
X144910760Y-81362400D01*
X144209240Y-81362400D01*
X144209239Y-81362400D01*
X144141108Y-81372326D01*
X144141106Y-81372327D01*
X144036019Y-81423700D01*
X143953300Y-81506419D01*
X143901927Y-81611506D01*
X143901926Y-81611508D01*
X143892000Y-81679638D01*
X142252498Y-81679638D01*
X142252498Y-81665071D01*
X142246096Y-81605526D01*
X142246096Y-81605523D01*
X142195852Y-81470813D01*
X142195848Y-81470806D01*
X142109692Y-81355717D01*
X142109680Y-81355705D01*
X141994591Y-81269549D01*
X141994584Y-81269545D01*
X141859873Y-81219301D01*
X141800327Y-81212900D01*
X141684999Y-81212900D01*
X141684998Y-81212901D01*
X141184998Y-81212901D01*
X141184997Y-81212900D01*
X141069669Y-81212900D01*
X141010124Y-81219301D01*
X141010121Y-81219301D01*
X140875411Y-81269545D01*
X140875407Y-81269548D01*
X140869329Y-81274098D01*
X140792651Y-81306599D01*
X140709651Y-81299744D01*
X140639345Y-81255102D01*
X140631018Y-81245535D01*
X140508036Y-81122553D01*
X140361305Y-81032048D01*
X140361300Y-81032046D01*
X140197649Y-80977819D01*
X140096645Y-80967500D01*
X140060001Y-80967500D01*
X140060000Y-80967501D01*
X139560000Y-80967501D01*
X139560000Y-80967499D01*
X139523353Y-80967500D01*
X139422357Y-80977817D01*
X139422352Y-80977818D01*
X139258699Y-81032046D01*
X139258694Y-81032048D01*
X139111963Y-81122553D01*
X138990053Y-81244463D01*
X138899548Y-81391194D01*
X138899546Y-81391199D01*
X138845319Y-81554850D01*
X138835000Y-81655855D01*
X137758264Y-81655855D01*
X137701001Y-81632136D01*
X137701002Y-81632136D01*
X137700999Y-81632135D01*
X137700995Y-81632134D01*
X137700990Y-81632133D01*
X137586053Y-81617001D01*
X137586043Y-81617000D01*
X137586040Y-81617000D01*
X137033960Y-81617000D01*
X137033956Y-81617000D01*
X137033946Y-81617001D01*
X136919009Y-81632133D01*
X136919002Y-81632134D01*
X136919001Y-81632135D01*
X136918999Y-81632135D01*
X136918998Y-81632136D01*
X136775964Y-81691381D01*
X136740420Y-81718655D01*
X136664135Y-81752067D01*
X136581060Y-81746200D01*
X136510227Y-81702398D01*
X136467864Y-81630696D01*
X136460499Y-81580609D01*
X136460499Y-81190642D01*
X136459132Y-81180256D01*
X136445044Y-81073238D01*
X136445043Y-81073236D01*
X136445043Y-81073234D01*
X136384536Y-80927159D01*
X136366679Y-80903887D01*
X136288282Y-80801718D01*
X136208892Y-80740800D01*
X136162840Y-80705463D01*
X136016763Y-80644956D01*
X136016754Y-80644954D01*
X135899376Y-80629501D01*
X135899364Y-80629500D01*
X135899361Y-80629500D01*
X135899354Y-80629500D01*
X134220642Y-80629500D01*
X134103234Y-80644956D01*
X133957159Y-80705463D01*
X133831713Y-80801721D01*
X133829789Y-80803646D01*
X133827040Y-80805307D01*
X133822670Y-80808661D01*
X133822296Y-80808174D01*
X133758516Y-80846727D01*
X133675386Y-80851751D01*
X133599443Y-80817568D01*
X133558662Y-80771944D01*
X133552317Y-80761657D01*
X133428341Y-80637681D01*
X133279127Y-80545644D01*
X133279120Y-80545641D01*
X133112702Y-80490496D01*
X133112693Y-80490494D01*
X133009977Y-80480000D01*
X132410001Y-80480000D01*
X132410000Y-80480001D01*
X132410000Y-81706000D01*
X132402480Y-81736507D01*
X132398693Y-81767701D01*
X132392625Y-81776491D01*
X132390069Y-81786862D01*
X132369233Y-81810380D01*
X132351383Y-81836241D01*
X132341925Y-81841204D01*
X132334843Y-81849199D01*
X132305466Y-81860339D01*
X132277641Y-81874944D01*
X132261927Y-81876851D01*
X132256973Y-81878731D01*
X132236000Y-81880000D01*
X132084000Y-81880000D01*
X132003138Y-81860069D01*
X131940801Y-81804843D01*
X131911269Y-81726973D01*
X131910000Y-81706000D01*
X131910000Y-80480001D01*
X131909999Y-80480000D01*
X131310022Y-80480000D01*
X131207311Y-80490492D01*
X131207302Y-80490494D01*
X131040879Y-80545641D01*
X131040872Y-80545644D01*
X130891658Y-80637681D01*
X130767681Y-80761658D01*
X130675644Y-80910872D01*
X130675641Y-80910879D01*
X130620496Y-81077297D01*
X130620494Y-81077306D01*
X130610000Y-81180023D01*
X130610000Y-81520586D01*
X130590069Y-81601448D01*
X130534843Y-81663785D01*
X130456973Y-81693317D01*
X130407122Y-81691072D01*
X130407101Y-81691285D01*
X130403363Y-81690903D01*
X130399585Y-81690733D01*
X130397654Y-81690319D01*
X130296645Y-81680000D01*
X130260001Y-81680000D01*
X130260000Y-81680001D01*
X130260000Y-82543500D01*
X130240069Y-82624362D01*
X130184843Y-82686699D01*
X130106973Y-82716231D01*
X130086000Y-82717500D01*
X130010001Y-82717500D01*
X130010000Y-82717501D01*
X130010000Y-82793500D01*
X129990069Y-82874362D01*
X129934843Y-82936699D01*
X129856973Y-82966231D01*
X129836000Y-82967500D01*
X129035002Y-82967500D01*
X129035001Y-82967501D01*
X129035001Y-83066645D01*
X129045317Y-83167643D01*
X129045318Y-83167647D01*
X129099546Y-83331300D01*
X129099548Y-83331305D01*
X129190053Y-83478036D01*
X129280842Y-83568825D01*
X129323926Y-83640096D01*
X129328955Y-83723226D01*
X129295851Y-83797783D01*
X129258881Y-83845964D01*
X129199636Y-83988998D01*
X129199633Y-83989009D01*
X129184501Y-84103946D01*
X129184500Y-84103965D01*
X129184500Y-84781034D01*
X129184501Y-84781053D01*
X129199634Y-84895998D01*
X129201204Y-84899788D01*
X129201933Y-84904579D01*
X129202586Y-84907016D01*
X129202315Y-84907088D01*
X129213734Y-84982122D01*
X129186566Y-85060848D01*
X129163485Y-85089409D01*
X128557537Y-85695359D01*
X128486266Y-85738444D01*
X128403136Y-85743473D01*
X128327191Y-85709293D01*
X128275830Y-85643735D01*
X128260500Y-85572323D01*
X128260500Y-83076915D01*
X128260499Y-83076910D01*
X128252971Y-83048815D01*
X128229799Y-82962337D01*
X128183866Y-82882779D01*
X128170489Y-82859609D01*
X127679235Y-82368355D01*
X129035000Y-82368355D01*
X129035000Y-82467499D01*
X129035001Y-82467500D01*
X129759999Y-82467500D01*
X129760000Y-82467499D01*
X129760000Y-81679999D01*
X129723353Y-81680000D01*
X129622357Y-81690317D01*
X129622352Y-81690318D01*
X129458699Y-81744546D01*
X129458694Y-81744548D01*
X129311963Y-81835053D01*
X129190053Y-81956963D01*
X129099548Y-82103694D01*
X129099546Y-82103699D01*
X129045319Y-82267350D01*
X129035000Y-82368355D01*
X127679235Y-82368355D01*
X126030391Y-80719511D01*
X125998397Y-80701039D01*
X125927664Y-80660200D01*
X125907423Y-80654777D01*
X125903452Y-80653713D01*
X125903450Y-80653712D01*
X125903450Y-80653713D01*
X125813089Y-80629500D01*
X125813086Y-80629500D01*
X106618678Y-80629500D01*
X106537816Y-80609569D01*
X106495641Y-80578537D01*
X106211463Y-80294359D01*
X106208681Y-80289757D01*
X106204259Y-80286705D01*
X106187281Y-80254356D01*
X106168379Y-80223088D01*
X106167361Y-80216403D01*
X106165556Y-80212963D01*
X106160500Y-80171322D01*
X106160500Y-80004438D01*
X106180431Y-79923576D01*
X106235657Y-79861239D01*
X106255494Y-79849409D01*
X106339199Y-79806760D01*
X106492073Y-79695690D01*
X106625690Y-79562073D01*
X106736760Y-79409199D01*
X106802335Y-79280500D01*
X106824965Y-79236087D01*
X106879434Y-79173087D01*
X106956941Y-79142616D01*
X107039731Y-79151655D01*
X107108837Y-79198132D01*
X107135035Y-79236087D01*
X107214883Y-79392799D01*
X107223240Y-79409199D01*
X107334310Y-79562073D01*
X107467927Y-79695690D01*
X107620801Y-79806760D01*
X107620805Y-79806762D01*
X107789159Y-79892543D01*
X107789163Y-79892544D01*
X107789168Y-79892547D01*
X107968882Y-79950940D01*
X108155519Y-79980500D01*
X108155522Y-79980500D01*
X108344478Y-79980500D01*
X108344481Y-79980500D01*
X108531118Y-79950940D01*
X108710832Y-79892547D01*
X108879199Y-79806760D01*
X109032073Y-79695690D01*
X109165690Y-79562073D01*
X109276760Y-79409199D01*
X109342335Y-79280500D01*
X109364965Y-79236087D01*
X109419434Y-79173087D01*
X109496941Y-79142616D01*
X109579731Y-79151655D01*
X109648837Y-79198132D01*
X109675035Y-79236087D01*
X109754883Y-79392799D01*
X109763240Y-79409199D01*
X109874310Y-79562073D01*
X110007927Y-79695690D01*
X110160801Y-79806760D01*
X110160805Y-79806762D01*
X110329159Y-79892543D01*
X110329163Y-79892544D01*
X110329168Y-79892547D01*
X110508882Y-79950940D01*
X110695519Y-79980500D01*
X110695522Y-79980500D01*
X110884478Y-79980500D01*
X110884481Y-79980500D01*
X111071118Y-79950940D01*
X111250832Y-79892547D01*
X111419199Y-79806760D01*
X111572073Y-79695690D01*
X111705690Y-79562073D01*
X111816760Y-79409199D01*
X111882335Y-79280500D01*
X111904965Y-79236087D01*
X111959434Y-79173087D01*
X112036941Y-79142616D01*
X112119731Y-79151655D01*
X112188837Y-79198132D01*
X112215035Y-79236087D01*
X112294883Y-79392799D01*
X112303240Y-79409199D01*
X112414310Y-79562073D01*
X112547927Y-79695690D01*
X112700801Y-79806760D01*
X112700805Y-79806762D01*
X112869159Y-79892543D01*
X112869163Y-79892544D01*
X112869168Y-79892547D01*
X113048882Y-79950940D01*
X113235519Y-79980500D01*
X113235522Y-79980500D01*
X113424478Y-79980500D01*
X113424481Y-79980500D01*
X113611118Y-79950940D01*
X113790832Y-79892547D01*
X113959199Y-79806760D01*
X114112073Y-79695690D01*
X114245690Y-79562073D01*
X114356760Y-79409199D01*
X114422335Y-79280500D01*
X114444965Y-79236087D01*
X114499434Y-79173087D01*
X114576941Y-79142616D01*
X114659731Y-79151655D01*
X114728837Y-79198132D01*
X114755035Y-79236087D01*
X114834883Y-79392799D01*
X114843240Y-79409199D01*
X114954310Y-79562073D01*
X115087927Y-79695690D01*
X115240801Y-79806760D01*
X115240805Y-79806762D01*
X115409159Y-79892543D01*
X115409163Y-79892544D01*
X115409168Y-79892547D01*
X115588882Y-79950940D01*
X115775519Y-79980500D01*
X115775522Y-79980500D01*
X115964478Y-79980500D01*
X115964481Y-79980500D01*
X116151118Y-79950940D01*
X116330832Y-79892547D01*
X116499199Y-79806760D01*
X116652073Y-79695690D01*
X116785690Y-79562073D01*
X116896760Y-79409199D01*
X116962335Y-79280500D01*
X116984965Y-79236087D01*
X117039434Y-79173087D01*
X117116941Y-79142616D01*
X117199731Y-79151655D01*
X117268837Y-79198132D01*
X117295035Y-79236087D01*
X117374883Y-79392799D01*
X117383240Y-79409199D01*
X117494310Y-79562073D01*
X117627927Y-79695690D01*
X117780801Y-79806760D01*
X117780805Y-79806762D01*
X117949159Y-79892543D01*
X117949163Y-79892544D01*
X117949168Y-79892547D01*
X118128882Y-79950940D01*
X118315519Y-79980500D01*
X118315522Y-79980500D01*
X118504478Y-79980500D01*
X118504481Y-79980500D01*
X118691118Y-79950940D01*
X118870832Y-79892547D01*
X119039199Y-79806760D01*
X119192073Y-79695690D01*
X119325690Y-79562073D01*
X119436760Y-79409199D01*
X119502335Y-79280500D01*
X119524965Y-79236087D01*
X119579434Y-79173087D01*
X119656941Y-79142616D01*
X119739731Y-79151655D01*
X119808837Y-79198132D01*
X119835035Y-79236087D01*
X119914883Y-79392799D01*
X119923240Y-79409199D01*
X120034310Y-79562073D01*
X120167927Y-79695690D01*
X120320801Y-79806760D01*
X120320805Y-79806762D01*
X120489159Y-79892543D01*
X120489163Y-79892544D01*
X120489168Y-79892547D01*
X120668882Y-79950940D01*
X120855519Y-79980500D01*
X120855522Y-79980500D01*
X121044478Y-79980500D01*
X121044481Y-79980500D01*
X121231118Y-79950940D01*
X121410832Y-79892547D01*
X121579199Y-79806760D01*
X121732073Y-79695690D01*
X121865690Y-79562073D01*
X121976760Y-79409199D01*
X122042335Y-79280500D01*
X122064965Y-79236087D01*
X122119434Y-79173087D01*
X122196941Y-79142616D01*
X122279731Y-79151655D01*
X122348837Y-79198132D01*
X122375035Y-79236087D01*
X122454883Y-79392799D01*
X122463240Y-79409199D01*
X122574310Y-79562073D01*
X122707927Y-79695690D01*
X122860801Y-79806760D01*
X122860805Y-79806762D01*
X123029159Y-79892543D01*
X123029163Y-79892544D01*
X123029168Y-79892547D01*
X123208882Y-79950940D01*
X123395519Y-79980500D01*
X123395522Y-79980500D01*
X123584478Y-79980500D01*
X123584481Y-79980500D01*
X123771118Y-79950940D01*
X123950832Y-79892547D01*
X124119199Y-79806760D01*
X124272073Y-79695690D01*
X124405690Y-79562073D01*
X124516760Y-79409199D01*
X124582335Y-79280500D01*
X124604965Y-79236087D01*
X124659434Y-79173087D01*
X124736941Y-79142616D01*
X124819731Y-79151655D01*
X124888837Y-79198132D01*
X124915035Y-79236087D01*
X124994883Y-79392799D01*
X125003240Y-79409199D01*
X125114310Y-79562073D01*
X125247927Y-79695690D01*
X125400801Y-79806760D01*
X125400805Y-79806762D01*
X125569159Y-79892543D01*
X125569163Y-79892544D01*
X125569168Y-79892547D01*
X125748882Y-79950940D01*
X125935519Y-79980500D01*
X125935522Y-79980500D01*
X126124478Y-79980500D01*
X126124481Y-79980500D01*
X126311118Y-79950940D01*
X126490832Y-79892547D01*
X126659199Y-79806760D01*
X126812073Y-79695690D01*
X126945690Y-79562073D01*
X127056760Y-79409199D01*
X127122335Y-79280500D01*
X127144965Y-79236087D01*
X127199434Y-79173087D01*
X127276941Y-79142616D01*
X127359731Y-79151655D01*
X127428837Y-79198132D01*
X127455035Y-79236087D01*
X127534883Y-79392799D01*
X127543240Y-79409199D01*
X127654310Y-79562073D01*
X127787927Y-79695690D01*
X127940801Y-79806760D01*
X127940805Y-79806762D01*
X128109159Y-79892543D01*
X128109163Y-79892544D01*
X128109168Y-79892547D01*
X128288882Y-79950940D01*
X128475519Y-79980500D01*
X128475522Y-79980500D01*
X128664478Y-79980500D01*
X128664481Y-79980500D01*
X128851118Y-79950940D01*
X129030832Y-79892547D01*
X129199199Y-79806760D01*
X129352073Y-79695690D01*
X129485690Y-79562073D01*
X129596760Y-79409199D01*
X129662335Y-79280500D01*
X129684965Y-79236087D01*
X129739434Y-79173087D01*
X129816941Y-79142616D01*
X129899731Y-79151655D01*
X129968837Y-79198132D01*
X129995035Y-79236087D01*
X130074883Y-79392799D01*
X130083240Y-79409199D01*
X130194310Y-79562073D01*
X130327927Y-79695690D01*
X130480801Y-79806760D01*
X130480805Y-79806762D01*
X130649159Y-79892543D01*
X130649163Y-79892544D01*
X130649168Y-79892547D01*
X130828882Y-79950940D01*
X131015519Y-79980500D01*
X131015522Y-79980500D01*
X131204478Y-79980500D01*
X131204481Y-79980500D01*
X131391118Y-79950940D01*
X131570832Y-79892547D01*
X131739199Y-79806760D01*
X131892073Y-79695690D01*
X132025690Y-79562073D01*
X132136760Y-79409199D01*
X132202335Y-79280500D01*
X132224965Y-79236087D01*
X132279434Y-79173087D01*
X132356941Y-79142616D01*
X132439731Y-79151655D01*
X132508837Y-79198132D01*
X132535035Y-79236087D01*
X132614883Y-79392799D01*
X132623240Y-79409199D01*
X132734310Y-79562073D01*
X132867927Y-79695690D01*
X133020801Y-79806760D01*
X133020805Y-79806762D01*
X133189159Y-79892543D01*
X133189163Y-79892544D01*
X133189168Y-79892547D01*
X133368882Y-79950940D01*
X133555519Y-79980500D01*
X133555522Y-79980500D01*
X133744478Y-79980500D01*
X133744481Y-79980500D01*
X133931118Y-79950940D01*
X134110832Y-79892547D01*
X134279199Y-79806760D01*
X134432073Y-79695690D01*
X134565690Y-79562073D01*
X134676760Y-79409199D01*
X134742335Y-79280500D01*
X134764965Y-79236087D01*
X134819434Y-79173087D01*
X134896941Y-79142616D01*
X134979731Y-79151655D01*
X135048837Y-79198132D01*
X135075035Y-79236087D01*
X135154883Y-79392799D01*
X135163240Y-79409199D01*
X135274310Y-79562073D01*
X135407927Y-79695690D01*
X135560801Y-79806760D01*
X135560805Y-79806762D01*
X135729159Y-79892543D01*
X135729163Y-79892544D01*
X135729168Y-79892547D01*
X135908882Y-79950940D01*
X136095519Y-79980500D01*
X136095522Y-79980500D01*
X136284478Y-79980500D01*
X136284481Y-79980500D01*
X136471118Y-79950940D01*
X136650832Y-79892547D01*
X136819199Y-79806760D01*
X136972073Y-79695690D01*
X137105690Y-79562073D01*
X137216760Y-79409199D01*
X137282335Y-79280500D01*
X137304965Y-79236087D01*
X137359434Y-79173087D01*
X137436941Y-79142616D01*
X137519731Y-79151655D01*
X137588837Y-79198132D01*
X137615035Y-79236087D01*
X137694883Y-79392799D01*
X137703240Y-79409199D01*
X137814310Y-79562073D01*
X137947927Y-79695690D01*
X138100801Y-79806760D01*
X138100805Y-79806762D01*
X138269159Y-79892543D01*
X138269163Y-79892544D01*
X138269168Y-79892547D01*
X138448882Y-79950940D01*
X138635519Y-79980500D01*
X138635522Y-79980500D01*
X138824478Y-79980500D01*
X138824481Y-79980500D01*
X139011118Y-79950940D01*
X139190832Y-79892547D01*
X139359199Y-79806760D01*
X139512073Y-79695690D01*
X139645690Y-79562073D01*
X139756760Y-79409199D01*
X139822335Y-79280500D01*
X139844965Y-79236087D01*
X139899434Y-79173087D01*
X139976941Y-79142616D01*
X140059731Y-79151655D01*
X140128837Y-79198132D01*
X140155035Y-79236087D01*
X140234883Y-79392799D01*
X140243240Y-79409199D01*
X140354310Y-79562073D01*
X140487927Y-79695690D01*
X140640801Y-79806760D01*
X140640805Y-79806762D01*
X140809159Y-79892543D01*
X140809163Y-79892544D01*
X140809168Y-79892547D01*
X140988882Y-79950940D01*
X141175519Y-79980500D01*
X141175522Y-79980500D01*
X141364478Y-79980500D01*
X141364481Y-79980500D01*
X141551118Y-79950940D01*
X141730832Y-79892547D01*
X141899199Y-79806760D01*
X142052073Y-79695690D01*
X142185690Y-79562073D01*
X142296760Y-79409199D01*
X142362335Y-79280500D01*
X142384965Y-79236087D01*
X142439434Y-79173087D01*
X142516941Y-79142616D01*
X142599731Y-79151655D01*
X142668837Y-79198132D01*
X142695035Y-79236087D01*
X142774883Y-79392799D01*
X142783240Y-79409199D01*
X142894310Y-79562073D01*
X143027927Y-79695690D01*
X143180801Y-79806760D01*
X143180805Y-79806762D01*
X143349159Y-79892543D01*
X143349163Y-79892544D01*
X143349168Y-79892547D01*
X143528882Y-79950940D01*
X143715519Y-79980500D01*
X143715522Y-79980500D01*
X143904478Y-79980500D01*
X143904481Y-79980500D01*
X144091118Y-79950940D01*
X144270832Y-79892547D01*
X144385833Y-79833951D01*
X146509500Y-79833951D01*
X146509500Y-80126048D01*
X146542203Y-80416293D01*
X146542203Y-80416294D01*
X146607195Y-80701039D01*
X146607196Y-80701044D01*
X146607197Y-80701045D01*
X146698791Y-80962809D01*
X146703668Y-80976745D01*
X146830391Y-81239886D01*
X146830395Y-81239893D01*
X146983706Y-81483887D01*
X146985792Y-81487206D01*
X147167902Y-81715565D01*
X147374435Y-81922098D01*
X147602794Y-82104208D01*
X147602797Y-82104210D01*
X147602796Y-82104210D01*
X147701875Y-82166465D01*
X147850107Y-82259605D01*
X147850111Y-82259607D01*
X147850113Y-82259608D01*
X148113254Y-82386331D01*
X148113256Y-82386331D01*
X148113263Y-82386335D01*
X148388955Y-82482803D01*
X148673714Y-82547798D01*
X148963959Y-82580500D01*
X148963961Y-82580500D01*
X149256039Y-82580500D01*
X149256041Y-82580500D01*
X149546286Y-82547798D01*
X149831045Y-82482803D01*
X150106737Y-82386335D01*
X150369893Y-82259605D01*
X150617206Y-82104208D01*
X150845565Y-81922098D01*
X151052098Y-81715565D01*
X151234208Y-81487206D01*
X151389605Y-81239893D01*
X151516335Y-80976737D01*
X151612803Y-80701045D01*
X151677798Y-80416286D01*
X151710500Y-80126041D01*
X151710500Y-79833959D01*
X151677798Y-79543714D01*
X151612803Y-79258955D01*
X151516335Y-78983263D01*
X151389605Y-78720107D01*
X151234208Y-78472794D01*
X151052098Y-78244435D01*
X150845565Y-78037902D01*
X150617206Y-77855792D01*
X150617204Y-77855791D01*
X150617202Y-77855789D01*
X150617203Y-77855789D01*
X150369893Y-77700395D01*
X150369886Y-77700391D01*
X150106745Y-77573668D01*
X150106738Y-77573665D01*
X150106737Y-77573665D01*
X149831045Y-77477197D01*
X149831044Y-77477196D01*
X149831039Y-77477195D01*
X149546294Y-77412203D01*
X149546286Y-77412202D01*
X149514029Y-77408567D01*
X149256048Y-77379500D01*
X149256041Y-77379500D01*
X148963959Y-77379500D01*
X148963951Y-77379500D01*
X148702335Y-77408977D01*
X148673714Y-77412202D01*
X148673713Y-77412202D01*
X148673706Y-77412203D01*
X148673705Y-77412203D01*
X148388960Y-77477195D01*
X148113254Y-77573668D01*
X147850113Y-77700391D01*
X147850106Y-77700395D01*
X147602797Y-77855789D01*
X147374439Y-78037898D01*
X147167898Y-78244439D01*
X146985789Y-78472797D01*
X146830395Y-78720106D01*
X146830391Y-78720113D01*
X146703668Y-78983254D01*
X146607195Y-79258960D01*
X146542203Y-79543705D01*
X146542203Y-79543706D01*
X146542202Y-79543713D01*
X146542202Y-79543714D01*
X146540133Y-79562074D01*
X146509500Y-79833951D01*
X144385833Y-79833951D01*
X144439199Y-79806760D01*
X144592073Y-79695690D01*
X144725690Y-79562073D01*
X144836760Y-79409199D01*
X144922547Y-79240832D01*
X144980940Y-79061118D01*
X145010500Y-78874481D01*
X145010500Y-78685519D01*
X144980940Y-78498882D01*
X144922547Y-78319168D01*
X144922544Y-78319163D01*
X144922543Y-78319159D01*
X144836762Y-78150805D01*
X144836760Y-78150801D01*
X144725690Y-77997927D01*
X144592073Y-77864310D01*
X144439199Y-77753240D01*
X144439196Y-77753238D01*
X144439194Y-77753237D01*
X144270840Y-77667456D01*
X144270832Y-77667453D01*
X144091118Y-77609060D01*
X143904481Y-77579500D01*
X143715519Y-77579500D01*
X143528882Y-77609060D01*
X143465975Y-77629500D01*
X143349167Y-77667453D01*
X143349159Y-77667456D01*
X143180805Y-77753237D01*
X143180802Y-77753239D01*
X143027925Y-77864311D01*
X142894311Y-77997925D01*
X142783240Y-78150801D01*
X142695035Y-78323913D01*
X142640566Y-78386913D01*
X142563059Y-78417383D01*
X142480269Y-78408344D01*
X142411163Y-78361866D01*
X142384965Y-78323913D01*
X142344471Y-78244439D01*
X142296760Y-78150801D01*
X142185690Y-77997927D01*
X142052073Y-77864310D01*
X141899199Y-77753240D01*
X141899196Y-77753238D01*
X141899194Y-77753237D01*
X141730840Y-77667456D01*
X141730832Y-77667453D01*
X141551118Y-77609060D01*
X141364481Y-77579500D01*
X141175519Y-77579500D01*
X140988882Y-77609060D01*
X140925975Y-77629500D01*
X140809167Y-77667453D01*
X140809159Y-77667456D01*
X140640805Y-77753237D01*
X140640802Y-77753239D01*
X140487925Y-77864311D01*
X140354311Y-77997925D01*
X140243240Y-78150801D01*
X140155035Y-78323913D01*
X140100566Y-78386913D01*
X140023059Y-78417383D01*
X139940269Y-78408344D01*
X139871163Y-78361866D01*
X139844965Y-78323913D01*
X139804471Y-78244439D01*
X139756760Y-78150801D01*
X139645690Y-77997927D01*
X139512073Y-77864310D01*
X139359199Y-77753240D01*
X139359196Y-77753238D01*
X139359194Y-77753237D01*
X139190840Y-77667456D01*
X139190832Y-77667453D01*
X139011118Y-77609060D01*
X138824481Y-77579500D01*
X138635519Y-77579500D01*
X138448882Y-77609060D01*
X138385975Y-77629500D01*
X138269167Y-77667453D01*
X138269159Y-77667456D01*
X138100805Y-77753237D01*
X138100802Y-77753239D01*
X137947925Y-77864311D01*
X137814311Y-77997925D01*
X137703240Y-78150801D01*
X137615035Y-78323913D01*
X137560566Y-78386913D01*
X137483059Y-78417383D01*
X137400269Y-78408344D01*
X137331163Y-78361866D01*
X137304965Y-78323913D01*
X137264471Y-78244439D01*
X137216760Y-78150801D01*
X137105690Y-77997927D01*
X136972073Y-77864310D01*
X136819199Y-77753240D01*
X136819196Y-77753238D01*
X136819194Y-77753237D01*
X136650840Y-77667456D01*
X136650832Y-77667453D01*
X136471118Y-77609060D01*
X136284481Y-77579500D01*
X136095519Y-77579500D01*
X135908882Y-77609060D01*
X135845975Y-77629500D01*
X135729167Y-77667453D01*
X135729159Y-77667456D01*
X135560805Y-77753237D01*
X135560802Y-77753239D01*
X135407925Y-77864311D01*
X135274311Y-77997925D01*
X135163240Y-78150801D01*
X135075035Y-78323913D01*
X135020566Y-78386913D01*
X134943059Y-78417383D01*
X134860269Y-78408344D01*
X134791163Y-78361866D01*
X134764965Y-78323913D01*
X134724471Y-78244439D01*
X134676760Y-78150801D01*
X134565690Y-77997927D01*
X134432073Y-77864310D01*
X134279199Y-77753240D01*
X134279196Y-77753238D01*
X134279194Y-77753237D01*
X134110840Y-77667456D01*
X134110832Y-77667453D01*
X133931118Y-77609060D01*
X133744481Y-77579500D01*
X133555519Y-77579500D01*
X133368882Y-77609060D01*
X133305975Y-77629500D01*
X133189167Y-77667453D01*
X133189159Y-77667456D01*
X133020805Y-77753237D01*
X133020802Y-77753239D01*
X132867925Y-77864311D01*
X132734311Y-77997925D01*
X132623240Y-78150801D01*
X132535035Y-78323913D01*
X132480566Y-78386913D01*
X132403059Y-78417383D01*
X132320269Y-78408344D01*
X132251163Y-78361866D01*
X132224965Y-78323913D01*
X132184471Y-78244439D01*
X132136760Y-78150801D01*
X132025690Y-77997927D01*
X131892073Y-77864310D01*
X131739199Y-77753240D01*
X131739196Y-77753238D01*
X131739194Y-77753237D01*
X131570840Y-77667456D01*
X131570832Y-77667453D01*
X131391118Y-77609060D01*
X131204481Y-77579500D01*
X131015519Y-77579500D01*
X130828882Y-77609060D01*
X130765975Y-77629500D01*
X130649167Y-77667453D01*
X130649159Y-77667456D01*
X130480805Y-77753237D01*
X130480802Y-77753239D01*
X130327925Y-77864311D01*
X130194311Y-77997925D01*
X130083240Y-78150801D01*
X129995035Y-78323913D01*
X129940566Y-78386913D01*
X129863059Y-78417383D01*
X129780269Y-78408344D01*
X129711163Y-78361866D01*
X129684965Y-78323913D01*
X129644471Y-78244439D01*
X129596760Y-78150801D01*
X129485690Y-77997927D01*
X129352073Y-77864310D01*
X129199199Y-77753240D01*
X129199196Y-77753238D01*
X129199194Y-77753237D01*
X129030840Y-77667456D01*
X129030832Y-77667453D01*
X128851118Y-77609060D01*
X128664481Y-77579500D01*
X128475519Y-77579500D01*
X128288882Y-77609060D01*
X128225975Y-77629500D01*
X128109167Y-77667453D01*
X128109159Y-77667456D01*
X127940805Y-77753237D01*
X127940802Y-77753239D01*
X127787925Y-77864311D01*
X127654311Y-77997925D01*
X127543240Y-78150801D01*
X127455035Y-78323913D01*
X127400566Y-78386913D01*
X127323059Y-78417383D01*
X127240269Y-78408344D01*
X127171163Y-78361866D01*
X127144965Y-78323913D01*
X127104471Y-78244439D01*
X127056760Y-78150801D01*
X126945690Y-77997927D01*
X126812073Y-77864310D01*
X126659199Y-77753240D01*
X126659196Y-77753238D01*
X126659194Y-77753237D01*
X126490840Y-77667456D01*
X126490832Y-77667453D01*
X126311118Y-77609060D01*
X126124481Y-77579500D01*
X125935519Y-77579500D01*
X125748882Y-77609060D01*
X125685975Y-77629500D01*
X125569167Y-77667453D01*
X125569159Y-77667456D01*
X125400805Y-77753237D01*
X125400802Y-77753239D01*
X125247925Y-77864311D01*
X125114311Y-77997925D01*
X125003240Y-78150801D01*
X124915035Y-78323913D01*
X124860566Y-78386913D01*
X124783059Y-78417383D01*
X124700269Y-78408344D01*
X124631163Y-78361866D01*
X124604965Y-78323913D01*
X124564471Y-78244439D01*
X124516760Y-78150801D01*
X124405690Y-77997927D01*
X124272073Y-77864310D01*
X124119199Y-77753240D01*
X124119196Y-77753238D01*
X124119194Y-77753237D01*
X123950840Y-77667456D01*
X123950832Y-77667453D01*
X123771118Y-77609060D01*
X123584481Y-77579500D01*
X123395519Y-77579500D01*
X123208882Y-77609060D01*
X123145975Y-77629500D01*
X123029167Y-77667453D01*
X123029159Y-77667456D01*
X122860805Y-77753237D01*
X122860802Y-77753239D01*
X122707925Y-77864311D01*
X122574311Y-77997925D01*
X122463240Y-78150801D01*
X122375035Y-78323913D01*
X122320566Y-78386913D01*
X122243059Y-78417383D01*
X122160269Y-78408344D01*
X122091163Y-78361866D01*
X122064965Y-78323913D01*
X122024471Y-78244439D01*
X121976760Y-78150801D01*
X121865690Y-77997927D01*
X121732073Y-77864310D01*
X121579199Y-77753240D01*
X121579196Y-77753238D01*
X121579194Y-77753237D01*
X121410840Y-77667456D01*
X121410832Y-77667453D01*
X121231118Y-77609060D01*
X121044481Y-77579500D01*
X120855519Y-77579500D01*
X120668882Y-77609060D01*
X120605975Y-77629500D01*
X120489167Y-77667453D01*
X120489159Y-77667456D01*
X120320805Y-77753237D01*
X120320802Y-77753239D01*
X120167925Y-77864311D01*
X120034311Y-77997925D01*
X119923240Y-78150801D01*
X119835035Y-78323913D01*
X119780566Y-78386913D01*
X119703059Y-78417383D01*
X119620269Y-78408344D01*
X119551163Y-78361866D01*
X119524965Y-78323913D01*
X119484471Y-78244439D01*
X119436760Y-78150801D01*
X119325690Y-77997927D01*
X119192073Y-77864310D01*
X119039199Y-77753240D01*
X119039196Y-77753238D01*
X119039194Y-77753237D01*
X118870840Y-77667456D01*
X118870832Y-77667453D01*
X118691118Y-77609060D01*
X118504481Y-77579500D01*
X118315519Y-77579500D01*
X118128882Y-77609060D01*
X118065975Y-77629500D01*
X117949167Y-77667453D01*
X117949159Y-77667456D01*
X117780805Y-77753237D01*
X117780802Y-77753239D01*
X117627925Y-77864311D01*
X117494311Y-77997925D01*
X117383240Y-78150801D01*
X117295035Y-78323913D01*
X117240566Y-78386913D01*
X117163059Y-78417383D01*
X117080269Y-78408344D01*
X117011163Y-78361866D01*
X116984965Y-78323913D01*
X116944471Y-78244439D01*
X116896760Y-78150801D01*
X116785690Y-77997927D01*
X116652073Y-77864310D01*
X116499199Y-77753240D01*
X116499196Y-77753238D01*
X116499194Y-77753237D01*
X116330840Y-77667456D01*
X116330832Y-77667453D01*
X116151118Y-77609060D01*
X115964481Y-77579500D01*
X115775519Y-77579500D01*
X115588882Y-77609060D01*
X115525975Y-77629500D01*
X115409167Y-77667453D01*
X115409159Y-77667456D01*
X115240805Y-77753237D01*
X115240802Y-77753239D01*
X115087925Y-77864311D01*
X114954311Y-77997925D01*
X114843240Y-78150801D01*
X114755035Y-78323913D01*
X114700566Y-78386913D01*
X114623059Y-78417383D01*
X114540269Y-78408344D01*
X114471163Y-78361866D01*
X114444965Y-78323913D01*
X114404471Y-78244439D01*
X114356760Y-78150801D01*
X114245690Y-77997927D01*
X114112073Y-77864310D01*
X113959199Y-77753240D01*
X113959196Y-77753238D01*
X113959194Y-77753237D01*
X113790840Y-77667456D01*
X113790832Y-77667453D01*
X113611118Y-77609060D01*
X113424481Y-77579500D01*
X113235519Y-77579500D01*
X113048882Y-77609060D01*
X112985975Y-77629500D01*
X112869167Y-77667453D01*
X112869159Y-77667456D01*
X112700805Y-77753237D01*
X112700802Y-77753239D01*
X112547925Y-77864311D01*
X112414311Y-77997925D01*
X112303240Y-78150801D01*
X112215035Y-78323913D01*
X112160566Y-78386913D01*
X112083059Y-78417383D01*
X112000269Y-78408344D01*
X111931163Y-78361866D01*
X111904965Y-78323913D01*
X111864471Y-78244439D01*
X111816760Y-78150801D01*
X111705690Y-77997927D01*
X111572073Y-77864310D01*
X111419199Y-77753240D01*
X111419196Y-77753238D01*
X111419194Y-77753237D01*
X111250840Y-77667456D01*
X111250832Y-77667453D01*
X111071118Y-77609060D01*
X110884481Y-77579500D01*
X110695519Y-77579500D01*
X110508882Y-77609060D01*
X110445975Y-77629500D01*
X110329167Y-77667453D01*
X110329159Y-77667456D01*
X110160805Y-77753237D01*
X110160802Y-77753239D01*
X110007925Y-77864311D01*
X109874311Y-77997925D01*
X109763240Y-78150801D01*
X109675035Y-78323913D01*
X109620566Y-78386913D01*
X109543059Y-78417383D01*
X109460269Y-78408344D01*
X109391163Y-78361866D01*
X109364965Y-78323913D01*
X109324471Y-78244439D01*
X109276760Y-78150801D01*
X109165690Y-77997927D01*
X109032073Y-77864310D01*
X108879199Y-77753240D01*
X108879196Y-77753238D01*
X108879194Y-77753237D01*
X108710840Y-77667456D01*
X108710832Y-77667453D01*
X108531118Y-77609060D01*
X108344481Y-77579500D01*
X108155519Y-77579500D01*
X107968882Y-77609060D01*
X107905975Y-77629500D01*
X107789167Y-77667453D01*
X107789159Y-77667456D01*
X107620805Y-77753237D01*
X107620802Y-77753239D01*
X107467925Y-77864311D01*
X107334311Y-77997925D01*
X107223240Y-78150801D01*
X107135035Y-78323913D01*
X107080566Y-78386913D01*
X107003059Y-78417383D01*
X106920269Y-78408344D01*
X106851163Y-78361866D01*
X106824965Y-78323913D01*
X106784471Y-78244439D01*
X106736760Y-78150801D01*
X106625690Y-77997927D01*
X106492073Y-77864310D01*
X106339199Y-77753240D01*
X106339196Y-77753238D01*
X106339194Y-77753237D01*
X106170840Y-77667456D01*
X106170832Y-77667453D01*
X105991118Y-77609060D01*
X105804481Y-77579500D01*
X105615519Y-77579500D01*
X105428882Y-77609060D01*
X105365975Y-77629500D01*
X105249167Y-77667453D01*
X105249159Y-77667456D01*
X105080805Y-77753237D01*
X105080802Y-77753239D01*
X104927925Y-77864311D01*
X104794311Y-77997925D01*
X104683240Y-78150801D01*
X104595035Y-78323913D01*
X104540566Y-78386913D01*
X104463059Y-78417383D01*
X104380269Y-78408344D01*
X104311163Y-78361866D01*
X104284965Y-78323913D01*
X104244471Y-78244439D01*
X104196760Y-78150801D01*
X104085690Y-77997927D01*
X103952073Y-77864310D01*
X103799199Y-77753240D01*
X103799196Y-77753238D01*
X103799194Y-77753237D01*
X103630840Y-77667456D01*
X103630832Y-77667453D01*
X103451118Y-77609060D01*
X103264481Y-77579500D01*
X103075519Y-77579500D01*
X102888882Y-77609060D01*
X102825975Y-77629500D01*
X102709167Y-77667453D01*
X102709159Y-77667456D01*
X102540805Y-77753237D01*
X102540802Y-77753239D01*
X102387925Y-77864311D01*
X102254311Y-77997925D01*
X102143240Y-78150801D01*
X102055035Y-78323913D01*
X102000566Y-78386913D01*
X101923059Y-78417383D01*
X101840269Y-78408344D01*
X101771163Y-78361866D01*
X101744965Y-78323913D01*
X101704471Y-78244439D01*
X101656760Y-78150801D01*
X101545690Y-77997927D01*
X101412073Y-77864310D01*
X101259199Y-77753240D01*
X101259196Y-77753238D01*
X101259194Y-77753237D01*
X101090840Y-77667456D01*
X101090832Y-77667453D01*
X100911118Y-77609060D01*
X100724481Y-77579500D01*
X100535519Y-77579500D01*
X100348882Y-77609060D01*
X100285975Y-77629500D01*
X100169167Y-77667453D01*
X100169159Y-77667456D01*
X100000805Y-77753237D01*
X100000802Y-77753239D01*
X99847925Y-77864311D01*
X99714311Y-77997925D01*
X99603240Y-78150801D01*
X99515035Y-78323913D01*
X99460566Y-78386913D01*
X99383059Y-78417383D01*
X99300269Y-78408344D01*
X99231163Y-78361866D01*
X99204965Y-78323913D01*
X99164471Y-78244439D01*
X99116760Y-78150801D01*
X99005690Y-77997927D01*
X98872073Y-77864310D01*
X98719199Y-77753240D01*
X98719196Y-77753238D01*
X98719194Y-77753237D01*
X98550840Y-77667456D01*
X98550832Y-77667453D01*
X98371118Y-77609060D01*
X98184481Y-77579500D01*
X97995519Y-77579500D01*
X97808882Y-77609060D01*
X97745975Y-77629500D01*
X97629167Y-77667453D01*
X97629159Y-77667456D01*
X97460805Y-77753237D01*
X97460802Y-77753239D01*
X97307925Y-77864311D01*
X97174311Y-77997925D01*
X97063240Y-78150801D01*
X96975035Y-78323913D01*
X96920566Y-78386913D01*
X96843059Y-78417383D01*
X96760269Y-78408344D01*
X96691163Y-78361866D01*
X96664965Y-78323913D01*
X96624471Y-78244439D01*
X96576760Y-78150801D01*
X96465690Y-77997927D01*
X96332073Y-77864310D01*
X96179199Y-77753240D01*
X96179196Y-77753238D01*
X96179194Y-77753237D01*
X96010840Y-77667456D01*
X96010832Y-77667453D01*
X95831118Y-77609060D01*
X95644481Y-77579500D01*
X95455519Y-77579500D01*
X95268882Y-77609060D01*
X95205975Y-77629500D01*
X95089167Y-77667453D01*
X95089159Y-77667456D01*
X94920805Y-77753237D01*
X94920802Y-77753239D01*
X94767925Y-77864311D01*
X94634311Y-77997925D01*
X94525269Y-78148009D01*
X94461615Y-78201712D01*
X94380295Y-78219683D01*
X94299939Y-78197804D01*
X94238954Y-78141088D01*
X94211312Y-78062527D01*
X94210500Y-78045734D01*
X94210500Y-77896738D01*
X94200573Y-77828608D01*
X94200573Y-77828607D01*
X94149198Y-77723517D01*
X94066483Y-77640802D01*
X94066481Y-77640801D01*
X94066480Y-77640800D01*
X93961393Y-77589427D01*
X93961391Y-77589426D01*
X93893261Y-77579500D01*
X93893260Y-77579500D01*
X92126740Y-77579500D01*
X92126739Y-77579500D01*
X92058608Y-77589426D01*
X92058606Y-77589427D01*
X91953519Y-77640800D01*
X91870800Y-77723519D01*
X91819427Y-77828606D01*
X91819426Y-77828608D01*
X91809500Y-77896738D01*
X91809500Y-79663261D01*
X91819426Y-79731391D01*
X91819427Y-79731393D01*
X91870800Y-79836480D01*
X91870801Y-79836481D01*
X91870802Y-79836483D01*
X91953517Y-79919198D01*
X92058607Y-79970573D01*
X92092673Y-79975536D01*
X92126739Y-79980500D01*
X92126740Y-79980500D01*
X92385500Y-79980500D01*
X92466362Y-80000431D01*
X92528699Y-80055657D01*
X92558231Y-80133527D01*
X92559500Y-80154500D01*
X92559500Y-80789312D01*
X92566212Y-80814359D01*
X92578308Y-80859501D01*
X92580715Y-80868483D01*
X92590201Y-80903888D01*
X92597549Y-80916614D01*
X92649511Y-81006614D01*
X93058538Y-81415641D01*
X93101621Y-81486910D01*
X93109500Y-81538676D01*
X93109500Y-85400862D01*
X93089569Y-85481724D01*
X93034343Y-85544061D01*
X92956473Y-85573593D01*
X92873799Y-85563555D01*
X92859081Y-85557183D01*
X92761391Y-85509426D01*
X92693261Y-85499500D01*
X92693260Y-85499500D01*
X90926740Y-85499500D01*
X90926739Y-85499500D01*
X90858609Y-85509426D01*
X90851113Y-85511743D01*
X90799739Y-85519500D01*
X89274500Y-85519500D01*
X89193638Y-85499569D01*
X89131301Y-85444343D01*
X89101769Y-85366473D01*
X89100500Y-85345500D01*
X89100500Y-85286738D01*
X89090573Y-85218608D01*
X89090573Y-85218607D01*
X89039198Y-85113517D01*
X88956483Y-85030802D01*
X88956481Y-85030801D01*
X88956480Y-85030800D01*
X88851393Y-84979427D01*
X88851391Y-84979426D01*
X88783261Y-84969500D01*
X88783260Y-84969500D01*
X87016740Y-84969500D01*
X87016739Y-84969500D01*
X86948608Y-84979426D01*
X86948606Y-84979427D01*
X86843519Y-85030800D01*
X86760800Y-85113519D01*
X86709427Y-85218606D01*
X86709426Y-85218608D01*
X86699500Y-85286738D01*
X86699500Y-87053261D01*
X86709426Y-87121391D01*
X86709427Y-87121393D01*
X86760800Y-87226480D01*
X86760801Y-87226481D01*
X86760802Y-87226483D01*
X86843517Y-87309198D01*
X86948607Y-87360573D01*
X86982673Y-87365536D01*
X87016739Y-87370500D01*
X87165734Y-87370500D01*
X87246596Y-87390431D01*
X87308933Y-87445657D01*
X87338465Y-87523527D01*
X87328427Y-87606201D01*
X87281117Y-87674741D01*
X87268015Y-87685263D01*
X87205754Y-87730500D01*
X87117925Y-87794311D01*
X86984311Y-87927925D01*
X86873239Y-88080802D01*
X86873237Y-88080805D01*
X86787456Y-88249159D01*
X86787453Y-88249167D01*
X86773696Y-88291508D01*
X86729060Y-88428882D01*
X86699500Y-88615519D01*
X86699500Y-88804481D01*
X86729060Y-88991118D01*
X86773861Y-89129000D01*
X86787453Y-89170832D01*
X86787456Y-89170840D01*
X86870836Y-89334481D01*
X86873240Y-89339199D01*
X86984310Y-89492073D01*
X87117927Y-89625690D01*
X87270801Y-89736760D01*
X87279262Y-89741071D01*
X87342262Y-89795539D01*
X87372733Y-89873046D01*
X87363695Y-89955836D01*
X87317217Y-90024942D01*
X87279264Y-90051140D01*
X87192450Y-90095374D01*
X87192438Y-90095382D01*
X87138282Y-90134728D01*
X87770591Y-90767037D01*
X87707007Y-90784075D01*
X87592993Y-90849901D01*
X87499901Y-90942993D01*
X87434075Y-91057007D01*
X87417037Y-91120591D01*
X86784728Y-90488282D01*
X86745382Y-90542438D01*
X86745377Y-90542445D01*
X86648907Y-90731777D01*
X86648906Y-90731779D01*
X86583242Y-90933874D01*
X86550000Y-91143755D01*
X86060500Y-91143755D01*
X86060500Y-77946738D01*
X86609500Y-77946738D01*
X86609500Y-79713261D01*
X86619426Y-79781391D01*
X86619427Y-79781393D01*
X86670800Y-79886480D01*
X86670801Y-79886481D01*
X86670802Y-79886483D01*
X86753517Y-79969198D01*
X86858607Y-80020573D01*
X86892673Y-80025536D01*
X86926739Y-80030500D01*
X87075734Y-80030500D01*
X87156596Y-80050431D01*
X87218933Y-80105657D01*
X87248465Y-80183527D01*
X87238427Y-80266201D01*
X87191117Y-80334741D01*
X87178015Y-80345263D01*
X87128385Y-80381323D01*
X87027925Y-80454311D01*
X86894311Y-80587925D01*
X86858161Y-80637681D01*
X86808079Y-80706614D01*
X86783241Y-80740800D01*
X86783239Y-80740803D01*
X86697456Y-80909159D01*
X86697453Y-80909167D01*
X86682452Y-80955335D01*
X86639060Y-81088882D01*
X86609500Y-81275519D01*
X86609500Y-81464481D01*
X86639060Y-81651118D01*
X86694096Y-81820500D01*
X86697453Y-81830832D01*
X86697456Y-81830840D01*
X86783237Y-81999194D01*
X86783240Y-81999199D01*
X86894310Y-82152073D01*
X87027927Y-82285690D01*
X87180801Y-82396760D01*
X87180805Y-82396762D01*
X87349159Y-82482543D01*
X87349163Y-82482544D01*
X87349168Y-82482547D01*
X87528882Y-82540940D01*
X87715519Y-82570500D01*
X87715522Y-82570500D01*
X87904478Y-82570500D01*
X87904481Y-82570500D01*
X88091118Y-82540940D01*
X88270832Y-82482547D01*
X88439199Y-82396760D01*
X88592073Y-82285690D01*
X88725690Y-82152073D01*
X88836760Y-81999199D01*
X88879404Y-81915504D01*
X88933873Y-81852505D01*
X89011380Y-81822035D01*
X89034439Y-81820500D01*
X89518482Y-81820500D01*
X89599344Y-81840431D01*
X89641515Y-81871460D01*
X89645331Y-81875276D01*
X89645334Y-81875278D01*
X89645335Y-81875279D01*
X89652401Y-81880000D01*
X89751873Y-81946465D01*
X89870256Y-81995501D01*
X89995931Y-82020500D01*
X89995934Y-82020500D01*
X90124066Y-82020500D01*
X90124069Y-82020500D01*
X90249744Y-81995501D01*
X90368127Y-81946465D01*
X90474669Y-81875276D01*
X90565276Y-81784669D01*
X90636465Y-81678127D01*
X90685501Y-81559744D01*
X90710500Y-81434069D01*
X90710500Y-81305931D01*
X90685501Y-81180256D01*
X90636465Y-81061873D01*
X90616535Y-81032046D01*
X90565279Y-80955335D01*
X90565278Y-80955334D01*
X90565276Y-80955331D01*
X90474669Y-80864724D01*
X90474665Y-80864721D01*
X90474664Y-80864720D01*
X90368127Y-80793535D01*
X90249744Y-80744499D01*
X90249745Y-80744499D01*
X90218325Y-80738249D01*
X90124069Y-80719500D01*
X89995931Y-80719500D01*
X89920526Y-80734499D01*
X89870254Y-80744499D01*
X89751872Y-80793535D01*
X89751871Y-80793535D01*
X89645335Y-80864720D01*
X89645331Y-80864723D01*
X89645331Y-80864724D01*
X89641516Y-80868538D01*
X89570248Y-80911621D01*
X89518482Y-80919500D01*
X89034439Y-80919500D01*
X88953577Y-80899569D01*
X88891240Y-80844343D01*
X88879404Y-80824495D01*
X88836760Y-80740801D01*
X88725690Y-80587927D01*
X88592073Y-80454310D01*
X88441989Y-80345267D01*
X88388288Y-80281615D01*
X88370317Y-80200295D01*
X88392196Y-80119939D01*
X88448912Y-80058954D01*
X88527473Y-80031312D01*
X88544266Y-80030500D01*
X88693261Y-80030500D01*
X88715971Y-80027191D01*
X88761393Y-80020573D01*
X88866483Y-79969198D01*
X88949198Y-79886483D01*
X89000573Y-79781393D01*
X89010500Y-79713260D01*
X89010500Y-79454500D01*
X89018019Y-79423992D01*
X89021807Y-79392799D01*
X89027874Y-79384008D01*
X89030431Y-79373638D01*
X89051266Y-79350119D01*
X89069117Y-79324259D01*
X89078574Y-79319295D01*
X89085657Y-79311301D01*
X89115033Y-79300160D01*
X89142859Y-79285556D01*
X89158572Y-79283648D01*
X89163527Y-79281769D01*
X89184500Y-79280500D01*
X89518482Y-79280500D01*
X89599344Y-79300431D01*
X89641515Y-79331460D01*
X89645331Y-79335276D01*
X89645334Y-79335278D01*
X89645335Y-79335279D01*
X89698237Y-79370626D01*
X89751873Y-79406465D01*
X89870256Y-79455501D01*
X89995931Y-79480500D01*
X89995934Y-79480500D01*
X90124066Y-79480500D01*
X90124069Y-79480500D01*
X90249744Y-79455501D01*
X90368127Y-79406465D01*
X90474669Y-79335276D01*
X90565276Y-79244669D01*
X90636465Y-79138127D01*
X90685501Y-79019744D01*
X90710500Y-78894069D01*
X90710500Y-78765931D01*
X90685501Y-78640256D01*
X90636465Y-78521873D01*
X90565276Y-78415331D01*
X90474669Y-78324724D01*
X90474665Y-78324721D01*
X90474664Y-78324720D01*
X90368127Y-78253535D01*
X90249744Y-78204499D01*
X90249745Y-78204499D01*
X90216087Y-78197804D01*
X90124069Y-78179500D01*
X89995931Y-78179500D01*
X89920526Y-78194499D01*
X89870254Y-78204499D01*
X89751872Y-78253535D01*
X89751871Y-78253535D01*
X89645335Y-78324720D01*
X89645331Y-78324723D01*
X89645331Y-78324724D01*
X89641516Y-78328538D01*
X89636917Y-78331318D01*
X89633865Y-78335741D01*
X89601516Y-78352718D01*
X89570248Y-78371621D01*
X89563563Y-78372638D01*
X89560123Y-78374444D01*
X89518482Y-78379500D01*
X89184500Y-78379500D01*
X89103638Y-78359569D01*
X89041301Y-78304343D01*
X89011769Y-78226473D01*
X89010500Y-78205500D01*
X89010500Y-77946738D01*
X89000573Y-77878608D01*
X89000573Y-77878607D01*
X88949198Y-77773517D01*
X88866483Y-77690802D01*
X88866481Y-77690801D01*
X88866480Y-77690800D01*
X88761393Y-77639427D01*
X88761391Y-77639426D01*
X88693261Y-77629500D01*
X88693260Y-77629500D01*
X86926740Y-77629500D01*
X86926739Y-77629500D01*
X86858608Y-77639426D01*
X86858606Y-77639427D01*
X86753519Y-77690800D01*
X86670800Y-77773519D01*
X86619427Y-77878606D01*
X86619426Y-77878608D01*
X86609500Y-77946738D01*
X86060500Y-77946738D01*
X86060500Y-77204500D01*
X86080431Y-77123638D01*
X86135657Y-77061301D01*
X86213527Y-77031769D01*
X86234500Y-77030500D01*
X151885500Y-77030500D01*
X151966362Y-77050431D01*
G37*
%TD.AperFunction*%
%TD*%
M02*
