%TF.GenerationSoftware,KiCad,Pcbnew,10.0.4*%
%TF.CreationDate,2026-08-21T08:33:16-04:00*%
%TF.ProjectId,AS5048,41533530-3438-42e6-9b69-6361645f7063,rev?*%
%TF.SameCoordinates,Original*%
%TF.FileFunction,Legend,Top*%
%TF.FilePolarity,Positive*%
%FSLAX46Y46*%
G04 Gerber Fmt 4.6, Leading zero omitted, Abs format (unit mm)*
G04 Created by KiCad (PCBNEW 10.0.4) date 2026-08-21 08:33:16*
%MOMM*%
%LPD*%
G01*
G04 APERTURE LIST*
%ADD10C,0.150000*%
%ADD11C,0.120000*%
G04 APERTURE END LIST*
D10*
X68525003Y-74919104D02*
X69001193Y-74919104D01*
X68429765Y-75204819D02*
X68763098Y-74204819D01*
X68763098Y-74204819D02*
X69096431Y-75204819D01*
X69382146Y-75157200D02*
X69525003Y-75204819D01*
X69525003Y-75204819D02*
X69763098Y-75204819D01*
X69763098Y-75204819D02*
X69858336Y-75157200D01*
X69858336Y-75157200D02*
X69905955Y-75109580D01*
X69905955Y-75109580D02*
X69953574Y-75014342D01*
X69953574Y-75014342D02*
X69953574Y-74919104D01*
X69953574Y-74919104D02*
X69905955Y-74823866D01*
X69905955Y-74823866D02*
X69858336Y-74776247D01*
X69858336Y-74776247D02*
X69763098Y-74728628D01*
X69763098Y-74728628D02*
X69572622Y-74681009D01*
X69572622Y-74681009D02*
X69477384Y-74633390D01*
X69477384Y-74633390D02*
X69429765Y-74585771D01*
X69429765Y-74585771D02*
X69382146Y-74490533D01*
X69382146Y-74490533D02*
X69382146Y-74395295D01*
X69382146Y-74395295D02*
X69429765Y-74300057D01*
X69429765Y-74300057D02*
X69477384Y-74252438D01*
X69477384Y-74252438D02*
X69572622Y-74204819D01*
X69572622Y-74204819D02*
X69810717Y-74204819D01*
X69810717Y-74204819D02*
X69953574Y-74252438D01*
X70858336Y-74204819D02*
X70382146Y-74204819D01*
X70382146Y-74204819D02*
X70334527Y-74681009D01*
X70334527Y-74681009D02*
X70382146Y-74633390D01*
X70382146Y-74633390D02*
X70477384Y-74585771D01*
X70477384Y-74585771D02*
X70715479Y-74585771D01*
X70715479Y-74585771D02*
X70810717Y-74633390D01*
X70810717Y-74633390D02*
X70858336Y-74681009D01*
X70858336Y-74681009D02*
X70905955Y-74776247D01*
X70905955Y-74776247D02*
X70905955Y-75014342D01*
X70905955Y-75014342D02*
X70858336Y-75109580D01*
X70858336Y-75109580D02*
X70810717Y-75157200D01*
X70810717Y-75157200D02*
X70715479Y-75204819D01*
X70715479Y-75204819D02*
X70477384Y-75204819D01*
X70477384Y-75204819D02*
X70382146Y-75157200D01*
X70382146Y-75157200D02*
X70334527Y-75109580D01*
X71525003Y-74204819D02*
X71620241Y-74204819D01*
X71620241Y-74204819D02*
X71715479Y-74252438D01*
X71715479Y-74252438D02*
X71763098Y-74300057D01*
X71763098Y-74300057D02*
X71810717Y-74395295D01*
X71810717Y-74395295D02*
X71858336Y-74585771D01*
X71858336Y-74585771D02*
X71858336Y-74823866D01*
X71858336Y-74823866D02*
X71810717Y-75014342D01*
X71810717Y-75014342D02*
X71763098Y-75109580D01*
X71763098Y-75109580D02*
X71715479Y-75157200D01*
X71715479Y-75157200D02*
X71620241Y-75204819D01*
X71620241Y-75204819D02*
X71525003Y-75204819D01*
X71525003Y-75204819D02*
X71429765Y-75157200D01*
X71429765Y-75157200D02*
X71382146Y-75109580D01*
X71382146Y-75109580D02*
X71334527Y-75014342D01*
X71334527Y-75014342D02*
X71286908Y-74823866D01*
X71286908Y-74823866D02*
X71286908Y-74585771D01*
X71286908Y-74585771D02*
X71334527Y-74395295D01*
X71334527Y-74395295D02*
X71382146Y-74300057D01*
X71382146Y-74300057D02*
X71429765Y-74252438D01*
X71429765Y-74252438D02*
X71525003Y-74204819D01*
X72715479Y-74538152D02*
X72715479Y-75204819D01*
X72477384Y-74157200D02*
X72239289Y-74871485D01*
X72239289Y-74871485D02*
X72858336Y-74871485D01*
X73382146Y-74633390D02*
X73286908Y-74585771D01*
X73286908Y-74585771D02*
X73239289Y-74538152D01*
X73239289Y-74538152D02*
X73191670Y-74442914D01*
X73191670Y-74442914D02*
X73191670Y-74395295D01*
X73191670Y-74395295D02*
X73239289Y-74300057D01*
X73239289Y-74300057D02*
X73286908Y-74252438D01*
X73286908Y-74252438D02*
X73382146Y-74204819D01*
X73382146Y-74204819D02*
X73572622Y-74204819D01*
X73572622Y-74204819D02*
X73667860Y-74252438D01*
X73667860Y-74252438D02*
X73715479Y-74300057D01*
X73715479Y-74300057D02*
X73763098Y-74395295D01*
X73763098Y-74395295D02*
X73763098Y-74442914D01*
X73763098Y-74442914D02*
X73715479Y-74538152D01*
X73715479Y-74538152D02*
X73667860Y-74585771D01*
X73667860Y-74585771D02*
X73572622Y-74633390D01*
X73572622Y-74633390D02*
X73382146Y-74633390D01*
X73382146Y-74633390D02*
X73286908Y-74681009D01*
X73286908Y-74681009D02*
X73239289Y-74728628D01*
X73239289Y-74728628D02*
X73191670Y-74823866D01*
X73191670Y-74823866D02*
X73191670Y-75014342D01*
X73191670Y-75014342D02*
X73239289Y-75109580D01*
X73239289Y-75109580D02*
X73286908Y-75157200D01*
X73286908Y-75157200D02*
X73382146Y-75204819D01*
X73382146Y-75204819D02*
X73572622Y-75204819D01*
X73572622Y-75204819D02*
X73667860Y-75157200D01*
X73667860Y-75157200D02*
X73715479Y-75109580D01*
X73715479Y-75109580D02*
X73763098Y-75014342D01*
X73763098Y-75014342D02*
X73763098Y-74823866D01*
X73763098Y-74823866D02*
X73715479Y-74728628D01*
X73715479Y-74728628D02*
X73667860Y-74681009D01*
X73667860Y-74681009D02*
X73572622Y-74633390D01*
X74144051Y-74919104D02*
X74620241Y-74919104D01*
X74048813Y-75204819D02*
X74382146Y-74204819D01*
X74382146Y-74204819D02*
X74715479Y-75204819D01*
X76083333Y-82859580D02*
X76035714Y-82907200D01*
X76035714Y-82907200D02*
X75892857Y-82954819D01*
X75892857Y-82954819D02*
X75797619Y-82954819D01*
X75797619Y-82954819D02*
X75654762Y-82907200D01*
X75654762Y-82907200D02*
X75559524Y-82811961D01*
X75559524Y-82811961D02*
X75511905Y-82716723D01*
X75511905Y-82716723D02*
X75464286Y-82526247D01*
X75464286Y-82526247D02*
X75464286Y-82383390D01*
X75464286Y-82383390D02*
X75511905Y-82192914D01*
X75511905Y-82192914D02*
X75559524Y-82097676D01*
X75559524Y-82097676D02*
X75654762Y-82002438D01*
X75654762Y-82002438D02*
X75797619Y-81954819D01*
X75797619Y-81954819D02*
X75892857Y-81954819D01*
X75892857Y-81954819D02*
X76035714Y-82002438D01*
X76035714Y-82002438D02*
X76083333Y-82050057D01*
X77035714Y-82954819D02*
X76464286Y-82954819D01*
X76750000Y-82954819D02*
X76750000Y-81954819D01*
X76750000Y-81954819D02*
X76654762Y-82097676D01*
X76654762Y-82097676D02*
X76559524Y-82192914D01*
X76559524Y-82192914D02*
X76464286Y-82240533D01*
X76333333Y-74359580D02*
X76285714Y-74407200D01*
X76285714Y-74407200D02*
X76142857Y-74454819D01*
X76142857Y-74454819D02*
X76047619Y-74454819D01*
X76047619Y-74454819D02*
X75904762Y-74407200D01*
X75904762Y-74407200D02*
X75809524Y-74311961D01*
X75809524Y-74311961D02*
X75761905Y-74216723D01*
X75761905Y-74216723D02*
X75714286Y-74026247D01*
X75714286Y-74026247D02*
X75714286Y-73883390D01*
X75714286Y-73883390D02*
X75761905Y-73692914D01*
X75761905Y-73692914D02*
X75809524Y-73597676D01*
X75809524Y-73597676D02*
X75904762Y-73502438D01*
X75904762Y-73502438D02*
X76047619Y-73454819D01*
X76047619Y-73454819D02*
X76142857Y-73454819D01*
X76142857Y-73454819D02*
X76285714Y-73502438D01*
X76285714Y-73502438D02*
X76333333Y-73550057D01*
X76714286Y-73550057D02*
X76761905Y-73502438D01*
X76761905Y-73502438D02*
X76857143Y-73454819D01*
X76857143Y-73454819D02*
X77095238Y-73454819D01*
X77095238Y-73454819D02*
X77190476Y-73502438D01*
X77190476Y-73502438D02*
X77238095Y-73550057D01*
X77238095Y-73550057D02*
X77285714Y-73645295D01*
X77285714Y-73645295D02*
X77285714Y-73740533D01*
X77285714Y-73740533D02*
X77238095Y-73883390D01*
X77238095Y-73883390D02*
X76666667Y-74454819D01*
X76666667Y-74454819D02*
X77285714Y-74454819D01*
%TO.C,AS5048A*%
D11*
X69262622Y-75997500D02*
X73882622Y-75997500D01*
X69262622Y-76197500D02*
X69262622Y-75997500D01*
X69262622Y-81217500D02*
X69262622Y-81017500D01*
X73882622Y-75997500D02*
X73882622Y-76197500D01*
X73882622Y-81017500D02*
X73882622Y-81217500D01*
X73882622Y-81217500D02*
X69262622Y-81217500D01*
X68622622Y-76197500D02*
X68282622Y-75727500D01*
X68962622Y-75727500D01*
X68622622Y-76197500D01*
G36*
X68622622Y-76197500D02*
G01*
X68282622Y-75727500D01*
X68962622Y-75727500D01*
X68622622Y-76197500D01*
G37*
%TO.C,C1*%
X75740000Y-80258767D02*
X75740000Y-79966233D01*
X76760000Y-80258767D02*
X76760000Y-79966233D01*
%TO.C,C2*%
X75765000Y-76761252D02*
X75765000Y-76238748D01*
X77235000Y-76761252D02*
X77235000Y-76238748D01*
%TO.C,J1*%
X60577500Y-69482500D02*
X61957500Y-69482500D01*
X60577500Y-70862500D02*
X60577500Y-69482500D01*
X60577500Y-72132500D02*
X60577500Y-87482500D01*
X60577500Y-72132500D02*
X63337500Y-72132500D01*
X60577500Y-87482500D02*
X63337500Y-87482500D01*
X63337500Y-72132500D02*
X63337500Y-87482500D01*
%TD*%
M02*
