%TF.GenerationSoftware,KiCad,Pcbnew,10.0.4*%
%TF.CreationDate,2026-08-21T08:33:16-04:00*%
%TF.ProjectId,AS5048,41533530-3438-42e6-9b69-6361645f7063,rev?*%
%TF.SameCoordinates,Original*%
%TF.FileFunction,Copper,L1,Top*%
%TF.FilePolarity,Positive*%
%FSLAX46Y46*%
G04 Gerber Fmt 4.6, Leading zero omitted, Abs format (unit mm)*
G04 Created by KiCad (PCBNEW 10.0.4) date 2026-08-21 08:33:16*
%MOMM*%
%LPD*%
G01*
G04 APERTURE LIST*
G04 Aperture macros list*
%AMRoundRect*
0 Rectangle with rounded corners*
0 $1 Rounding radius*
0 $2 $3 $4 $5 $6 $7 $8 $9 X,Y pos of 4 corners*
0 Add a 4 corners polygon primitive as box body*
4,1,4,$2,$3,$4,$5,$6,$7,$8,$9,$2,$3,0*
0 Add four circle primitives for the rounded corners*
1,1,$1+$1,$2,$3*
1,1,$1+$1,$4,$5*
1,1,$1+$1,$6,$7*
1,1,$1+$1,$8,$9*
0 Add four rect primitives between the rounded corners*
20,1,$1+$1,$2,$3,$4,$5,0*
20,1,$1+$1,$4,$5,$6,$7,0*
20,1,$1+$1,$6,$7,$8,$9,0*
20,1,$1+$1,$8,$9,$2,$3,0*%
G04 Aperture macros list end*
%TA.AperFunction,SMDPad,CuDef*%
%ADD10RoundRect,0.100000X-0.637500X-0.100000X0.637500X-0.100000X0.637500X0.100000X-0.637500X0.100000X0*%
%TD*%
%TA.AperFunction,SMDPad,CuDef*%
%ADD11RoundRect,0.237500X0.237500X-0.300000X0.237500X0.300000X-0.237500X0.300000X-0.237500X-0.300000X0*%
%TD*%
%TA.AperFunction,SMDPad,CuDef*%
%ADD12RoundRect,0.250000X0.475000X-0.337500X0.475000X0.337500X-0.475000X0.337500X-0.475000X-0.337500X0*%
%TD*%
%TA.AperFunction,ComponentPad*%
%ADD13R,1.700000X1.700000*%
%TD*%
%TA.AperFunction,ComponentPad*%
%ADD14C,1.700000*%
%TD*%
%TA.AperFunction,Conductor*%
%ADD15C,0.400000*%
%TD*%
G04 APERTURE END LIST*
D10*
%TO.P,AS5048A,1,~{CSn}_1*%
%TO.N,/CS*%
X68710122Y-76657500D03*
%TO.P,AS5048A,2,CLK_2*%
%TO.N,/CLK*%
X68710122Y-77307500D03*
%TO.P,AS5048A,3,MISO_3*%
%TO.N,/MISO*%
X68710122Y-77957500D03*
%TO.P,AS5048A,4,MOSI_4*%
%TO.N,/MOSI*%
X68710122Y-78607500D03*
%TO.P,AS5048A,5,TEST_5*%
%TO.N,GND*%
X68710122Y-79257500D03*
%TO.P,AS5048A,6,TEST_6*%
%TO.N,unconnected-(U1-TEST-Pad6)*%
X68710122Y-79907500D03*
%TO.P,AS5048A,7,TEST_7*%
%TO.N,unconnected-(U1-TEST-Pad7)*%
X68710122Y-80557500D03*
%TO.P,AS5048A,8,TEST_8*%
%TO.N,unconnected-(U1-TEST-Pad8)*%
X74435122Y-80557500D03*
%TO.P,AS5048A,9,TEST_9*%
%TO.N,unconnected-(U1-TEST-Pad9)*%
X74435122Y-79907500D03*
%TO.P,AS5048A,10,TEST_10*%
%TO.N,unconnected-(U1-TEST-Pad10)*%
X74435122Y-79257500D03*
%TO.P,AS5048A,11,VDD5V_11*%
%TO.N,+5V*%
X74435122Y-78607500D03*
%TO.P,AS5048A,12,VDD3V_12*%
%TO.N,+3V3*%
X74435122Y-77957500D03*
%TO.P,AS5048A,13,GND_13*%
%TO.N,GND*%
X74435122Y-77307500D03*
%TO.P,AS5048A,14,PWM_14*%
%TO.N,unconnected-(U1-PWM-Pad14)*%
X74435122Y-76657500D03*
%TD*%
D11*
%TO.P,C1,1*%
%TO.N,GND*%
X76250000Y-80975000D03*
%TO.P,C1,2*%
%TO.N,+5V*%
X76250000Y-79250000D03*
%TD*%
D12*
%TO.P,C2,1*%
%TO.N,+3V3*%
X76500000Y-77537500D03*
%TO.P,C2,2*%
%TO.N,GND*%
X76500000Y-75462500D03*
%TD*%
D13*
%TO.P,J1,1,Pin_1_1*%
%TO.N,/CS*%
X61957500Y-70862500D03*
D14*
%TO.P,J1,2,Pin_2_2*%
%TO.N,/CLK*%
X61957500Y-73402500D03*
%TO.P,J1,3,Pin_3_3*%
%TO.N,/MISO*%
X61957500Y-75942500D03*
%TO.P,J1,4,Pin_4_4*%
%TO.N,/MOSI*%
X61957500Y-78482500D03*
%TO.P,J1,5,Pin_5_5*%
%TO.N,GND*%
X61957500Y-81022500D03*
%TO.P,J1,6,Pin_6_6*%
%TO.N,+5V*%
X61957500Y-83562500D03*
%TO.P,J1,7,Pin_7_7*%
%TO.N,+3V3*%
X61957500Y-86102500D03*
%TD*%
%TO.N,/CS*%
D15*
X67907500Y-76657500D02*
X62112500Y-70862500D01*
X62112500Y-70862500D02*
X61957500Y-70862500D01*
X68710122Y-76657500D02*
X67907500Y-76657500D01*
%TO.N,/CLK*%
X63707500Y-73557500D02*
X62112500Y-73557500D01*
X62112500Y-73557500D02*
X61957500Y-73402500D01*
X67457500Y-77307500D02*
X63707500Y-73557500D01*
X68710122Y-77307500D02*
X67457500Y-77307500D01*
%TO.N,/MISO*%
X67107500Y-77957500D02*
X65092500Y-75942500D01*
X68710122Y-77957500D02*
X67107500Y-77957500D01*
X65092500Y-75942500D02*
X61957500Y-75942500D01*
%TO.N,/MOSI*%
X68710122Y-78607500D02*
X62082500Y-78607500D01*
%TO.N,GND*%
X67257500Y-79257500D02*
X65492500Y-81022500D01*
X74435122Y-77307500D02*
X71457500Y-77307500D01*
X69507500Y-79257500D02*
X68710122Y-79257500D01*
X76250000Y-80975000D02*
X76250000Y-81000000D01*
X75250000Y-82000000D02*
X74000000Y-82000000D01*
X65492500Y-81022500D02*
X61957500Y-81022500D01*
X71457500Y-77307500D02*
X69507500Y-79257500D01*
X68710122Y-79257500D02*
X67257500Y-79257500D01*
X76250000Y-81000000D02*
X75250000Y-82000000D01*
%TO.N,+5V*%
X61957500Y-83562500D02*
X75108142Y-83562500D01*
X75607500Y-78607500D02*
X76250000Y-79250000D01*
X75108142Y-83562500D02*
X77125000Y-81545642D01*
X77125000Y-80125000D02*
X76250000Y-79250000D01*
X74435122Y-78607500D02*
X75607500Y-78607500D01*
X77125000Y-81545642D02*
X77125000Y-80125000D01*
%TO.N,+3V3*%
X74435122Y-77957500D02*
X75742500Y-77957500D01*
X77725000Y-78925000D02*
X76250000Y-77450000D01*
X75742500Y-77957500D02*
X76250000Y-77450000D01*
X63560000Y-84500000D02*
X75019170Y-84500000D01*
X61957500Y-86102500D02*
X63560000Y-84500000D01*
X77725000Y-81794170D02*
X77725000Y-78925000D01*
X75019170Y-84500000D02*
X77725000Y-81794170D01*
%TD*%
%TA.AperFunction,Conductor*%
%TO.N,GND*%
G36*
X75557902Y-69270691D02*
G01*
X75651326Y-69328536D01*
X75717545Y-69416224D01*
X75747616Y-69521912D01*
X75737477Y-69631325D01*
X75688498Y-69729688D01*
X75607294Y-69803715D01*
X75542288Y-69833866D01*
X75519981Y-69841113D01*
X75344593Y-69930477D01*
X75185354Y-70046171D01*
X75046171Y-70185354D01*
X74930477Y-70344593D01*
X74930476Y-70344595D01*
X74841116Y-70519975D01*
X74841115Y-70519978D01*
X74841113Y-70519982D01*
X74780291Y-70707172D01*
X74749500Y-70901579D01*
X74749500Y-71098420D01*
X74780291Y-71292827D01*
X74833866Y-71457714D01*
X74841116Y-71480025D01*
X74930476Y-71655405D01*
X75046172Y-71814646D01*
X75185354Y-71953828D01*
X75344595Y-72069524D01*
X75519975Y-72158884D01*
X75707174Y-72219709D01*
X75901583Y-72250500D01*
X75901585Y-72250500D01*
X76098415Y-72250500D01*
X76098417Y-72250500D01*
X76292826Y-72219709D01*
X76480025Y-72158884D01*
X76655405Y-72069524D01*
X76814646Y-71953828D01*
X76953828Y-71814646D01*
X77069524Y-71655405D01*
X77158884Y-71480025D01*
X77166133Y-71457712D01*
X77218713Y-71361228D01*
X77302596Y-71290251D01*
X77406455Y-71254370D01*
X77516262Y-71258429D01*
X77617188Y-71301882D01*
X77695601Y-71378858D01*
X77740913Y-71478963D01*
X77749500Y-71550108D01*
X77749500Y-74078277D01*
X77729309Y-74186288D01*
X77671464Y-74279712D01*
X77583776Y-74345931D01*
X77478088Y-74376002D01*
X77368675Y-74365863D01*
X77317650Y-74346143D01*
X77269850Y-74322436D01*
X77090427Y-74277815D01*
X77048908Y-74275000D01*
X76800000Y-74275000D01*
X76800000Y-75163500D01*
X76792402Y-75204145D01*
X76788586Y-75245325D01*
X76782370Y-75257806D01*
X76779809Y-75271511D01*
X76758040Y-75306669D01*
X76739607Y-75343688D01*
X76729303Y-75353080D01*
X76721964Y-75364935D01*
X76688961Y-75389857D01*
X76658403Y-75417715D01*
X76645403Y-75422751D01*
X76634276Y-75431154D01*
X76594498Y-75442471D01*
X76555941Y-75457409D01*
X76535266Y-75459324D01*
X76528588Y-75461225D01*
X76501000Y-75462500D01*
X76500000Y-75462500D01*
X76500000Y-75463500D01*
X76479809Y-75571511D01*
X76421964Y-75664935D01*
X76334276Y-75731154D01*
X76228588Y-75761225D01*
X76201000Y-75762500D01*
X75175001Y-75762500D01*
X75168075Y-75769426D01*
X75077422Y-75831524D01*
X74970458Y-75856681D01*
X74956651Y-75857000D01*
X73741005Y-75857000D01*
X73670424Y-75863414D01*
X73562152Y-75897152D01*
X73508016Y-75914022D01*
X73435226Y-75958025D01*
X73362436Y-76002028D01*
X73242150Y-76122314D01*
X73198147Y-76195104D01*
X73154144Y-76267894D01*
X73154144Y-76267895D01*
X73103536Y-76430302D01*
X73097122Y-76500883D01*
X73097122Y-76814114D01*
X73103536Y-76884700D01*
X73106556Y-76894390D01*
X73119411Y-77003518D01*
X73106558Y-77072282D01*
X73104032Y-77080386D01*
X73104031Y-77080393D01*
X73097622Y-77150923D01*
X73097622Y-77464063D01*
X73097623Y-77464069D01*
X73104031Y-77534605D01*
X73104032Y-77534611D01*
X73106558Y-77542717D01*
X73119411Y-77651845D01*
X73106558Y-77720602D01*
X73103537Y-77730296D01*
X73103536Y-77730301D01*
X73097122Y-77800885D01*
X73097122Y-78114114D01*
X73103536Y-78184697D01*
X73106295Y-78193550D01*
X73119150Y-78302677D01*
X73106295Y-78371450D01*
X73103536Y-78380302D01*
X73097122Y-78450885D01*
X73097122Y-78764114D01*
X73103536Y-78834697D01*
X73106295Y-78843550D01*
X73119150Y-78952677D01*
X73106295Y-79021450D01*
X73103536Y-79030302D01*
X73099260Y-79077357D01*
X73097122Y-79100884D01*
X73097122Y-79414116D01*
X73100112Y-79447015D01*
X73103536Y-79484697D01*
X73106295Y-79493550D01*
X73119150Y-79602677D01*
X73106295Y-79671450D01*
X73103536Y-79680302D01*
X73097122Y-79750885D01*
X73097122Y-80064114D01*
X73103536Y-80134697D01*
X73106295Y-80143550D01*
X73119150Y-80252677D01*
X73106295Y-80321450D01*
X73103536Y-80330302D01*
X73101482Y-80352909D01*
X73097122Y-80400884D01*
X73097122Y-80714116D01*
X73103536Y-80784696D01*
X73154144Y-80947106D01*
X73242150Y-81092685D01*
X73362437Y-81212972D01*
X73508016Y-81300978D01*
X73670426Y-81351586D01*
X73741006Y-81358000D01*
X73741010Y-81358000D01*
X74936810Y-81358000D01*
X75044821Y-81378191D01*
X75138245Y-81436036D01*
X75195889Y-81507738D01*
X75386661Y-81838868D01*
X75397337Y-81869255D01*
X75412560Y-81897639D01*
X75415397Y-81920656D01*
X75423086Y-81942538D01*
X75422064Y-81974731D01*
X75426005Y-82006695D01*
X75420336Y-82029182D01*
X75419601Y-82052365D01*
X75407019Y-82082013D01*
X75399147Y-82113245D01*
X75385385Y-82132995D01*
X75376677Y-82153516D01*
X75356901Y-82173872D01*
X75339007Y-82199554D01*
X74864139Y-82674424D01*
X74773487Y-82736523D01*
X74666523Y-82761681D01*
X74652714Y-82762000D01*
X63321167Y-82762000D01*
X63213156Y-82741809D01*
X63119732Y-82683964D01*
X63079271Y-82638748D01*
X63063879Y-82617563D01*
X62902436Y-82456120D01*
X62877419Y-82437944D01*
X62801904Y-82358122D01*
X62760324Y-82256410D01*
X62759869Y-82249133D01*
X62031141Y-81520405D01*
X62150493Y-81488425D01*
X62264507Y-81422599D01*
X62357599Y-81329507D01*
X62423425Y-81215493D01*
X62455405Y-81096141D01*
X63174118Y-81814854D01*
X63197648Y-81782469D01*
X63197648Y-81782468D01*
X63301270Y-81579100D01*
X63301271Y-81579099D01*
X63371795Y-81362045D01*
X63407499Y-81136618D01*
X63407500Y-81136616D01*
X63407500Y-80908383D01*
X63407499Y-80908381D01*
X63371795Y-80682954D01*
X63301271Y-80465900D01*
X63301268Y-80465894D01*
X63197651Y-80262535D01*
X63174118Y-80230143D01*
X62455405Y-80948856D01*
X62423425Y-80829507D01*
X62357599Y-80715493D01*
X62264507Y-80622401D01*
X62150493Y-80556575D01*
X62031140Y-80524593D01*
X62763658Y-79792075D01*
X62766743Y-79763150D01*
X62817079Y-79665475D01*
X62877423Y-79607052D01*
X62902437Y-79588879D01*
X62995742Y-79495573D01*
X63086391Y-79433477D01*
X63193355Y-79408319D01*
X63207165Y-79408000D01*
X67075878Y-79408000D01*
X67111024Y-79414570D01*
X67146732Y-79416516D01*
X67164610Y-79424587D01*
X67183889Y-79428191D01*
X67214291Y-79447015D01*
X67246882Y-79461728D01*
X67260634Y-79475709D01*
X67277313Y-79486036D01*
X67298864Y-79514574D01*
X67323937Y-79540064D01*
X67331710Y-79558070D01*
X67343532Y-79573724D01*
X67353317Y-79608117D01*
X67367491Y-79640946D01*
X67368955Y-79663076D01*
X67373603Y-79679412D01*
X67374663Y-79695655D01*
X67375393Y-79714886D01*
X67372122Y-79750884D01*
X67372122Y-80064116D01*
X67378536Y-80134696D01*
X67393109Y-80181467D01*
X67394617Y-80221155D01*
X67392289Y-80236887D01*
X67394150Y-80252677D01*
X67381295Y-80321450D01*
X67378536Y-80330302D01*
X67376482Y-80352909D01*
X67372122Y-80400884D01*
X67372122Y-80714116D01*
X67378536Y-80784696D01*
X67429144Y-80947106D01*
X67517150Y-81092685D01*
X67637437Y-81212972D01*
X67783016Y-81300978D01*
X67945426Y-81351586D01*
X68016006Y-81358000D01*
X68016010Y-81358000D01*
X69404234Y-81358000D01*
X69404238Y-81358000D01*
X69474818Y-81351586D01*
X69637228Y-81300978D01*
X69782807Y-81212972D01*
X69903094Y-81092685D01*
X69991100Y-80947106D01*
X70041708Y-80784696D01*
X70048122Y-80714116D01*
X70048122Y-80400884D01*
X70041708Y-80330304D01*
X70038950Y-80321456D01*
X70026092Y-80212330D01*
X70038951Y-80143543D01*
X70041708Y-80134696D01*
X70048122Y-80064116D01*
X70048122Y-79750884D01*
X70041708Y-79680304D01*
X70038688Y-79670613D01*
X70025830Y-79561492D01*
X70038691Y-79492695D01*
X70041212Y-79484602D01*
X70047621Y-79414076D01*
X70047621Y-79100936D01*
X70047620Y-79100930D01*
X70041212Y-79030397D01*
X70041212Y-79030394D01*
X70038690Y-79022301D01*
X70025830Y-78913174D01*
X70038687Y-78844387D01*
X70041708Y-78834696D01*
X70048122Y-78764116D01*
X70048122Y-78450884D01*
X70041708Y-78380304D01*
X70038950Y-78371456D01*
X70026092Y-78262330D01*
X70038951Y-78193543D01*
X70041708Y-78184696D01*
X70048122Y-78114116D01*
X70048122Y-77800884D01*
X70041708Y-77730304D01*
X70038950Y-77721456D01*
X70026092Y-77612330D01*
X70038951Y-77543543D01*
X70041708Y-77534696D01*
X70048122Y-77464116D01*
X70048122Y-77150884D01*
X70041708Y-77080304D01*
X70038950Y-77071456D01*
X70026092Y-76962330D01*
X70038951Y-76893543D01*
X70041708Y-76884696D01*
X70048122Y-76814116D01*
X70048122Y-76500884D01*
X70041708Y-76430304D01*
X69991100Y-76267894D01*
X69903094Y-76122315D01*
X69782807Y-76002028D01*
X69637228Y-75914022D01*
X69528954Y-75880283D01*
X69474819Y-75863414D01*
X69404238Y-75857000D01*
X68788964Y-75857000D01*
X68362928Y-75857000D01*
X68254917Y-75836809D01*
X68161493Y-75778964D01*
X68151503Y-75769425D01*
X67433170Y-75051092D01*
X75175000Y-75051092D01*
X75175000Y-75162500D01*
X76200000Y-75162500D01*
X76200000Y-74275000D01*
X75951077Y-74275000D01*
X75951076Y-74275001D01*
X75909579Y-74277813D01*
X75909578Y-74277814D01*
X75730148Y-74322436D01*
X75730143Y-74322438D01*
X75564522Y-74404579D01*
X75564517Y-74404582D01*
X75420415Y-74520414D01*
X75420414Y-74520415D01*
X75304582Y-74664517D01*
X75304579Y-74664522D01*
X75222438Y-74830143D01*
X75222436Y-74830148D01*
X75177815Y-75009571D01*
X75177815Y-75009573D01*
X75175000Y-75051092D01*
X67433170Y-75051092D01*
X63495574Y-71113496D01*
X63433476Y-71022843D01*
X63408318Y-70915880D01*
X63407999Y-70902071D01*
X63407999Y-69973142D01*
X63402382Y-69930476D01*
X63392544Y-69855738D01*
X63332036Y-69709659D01*
X63332032Y-69709654D01*
X63325879Y-69698995D01*
X63289362Y-69595358D01*
X63292748Y-69485528D01*
X63335580Y-69384338D01*
X63412075Y-69305454D01*
X63511900Y-69259529D01*
X63584824Y-69250500D01*
X75449891Y-69250500D01*
X75557902Y-69270691D01*
G37*
%TD.AperFunction*%
%TD*%
M02*
